<svg width="32" height="33" viewBox="0 0 32 33" fill="none" xmlns="http://www.w3.org/2000/svg">
<g clip-path="url(#clip0)">
<path d="M3.99788 23.6755H3.41016L3.41027 30.4306H6.81841V29.0085H5.52567L4.70301 28.179V24.5053V23.9128L3.99788 23.6755Z" fill="url(#paint0_linear)"/>
<path d="M13.8695 13.1288L3.76221 23.3203C4.11512 23.3204 4.81909 23.5173 4.93777 24.5055V28.0606C4.924 28.6697 5.11189 28.8302 5.87795 28.7717C6.78241 28.8027 7.00371 29.2003 7.05317 30.0601L17.2776 19.7652V19.1727C17.2075 18.6345 17.0212 18.4853 16.4549 18.4617H15.8673C15.31 18.3049 15.1821 18.0549 15.1622 17.3951V13.8399C14.9621 13.3591 14.8299 13.1583 14.4571 13.1289L13.8695 13.1288Z" fill="url(#paint1_linear)"/>
<path d="M3.47089 28.3636V23.7528H3.83695C4.23748 23.7528 4.56263 24.0834 4.56263 24.4879V28.2092C4.56263 28.468 4.67118 28.6997 4.82963 28.853C4.99382 29.019 5.21736 29.1205 5.46485 29.1205H5.9364C6.33909 29.1205 6.66422 29.4511 6.66422 29.8557V30.2254H5.31412C4.81089 30.2254 4.34643 30.0179 4.01137 29.6795C3.66216 29.3267 3.47089 28.8556 3.47089 28.3636ZM3.16512 13.8677H0.972316L11.2719 3.15284H13.7742L3.16512 13.8677ZM13.5676 12.8107L3.47089 23.009V14.1743L13.5676 3.97613C13.5676 7.28094 13.5676 9.69621 13.5676 12.8107ZM15.9922 18.4873H16.4661C16.8665 18.4873 17.1917 18.8157 17.1917 19.2224V19.7183C14.2584 22.681 8.79486 28.303 7.19735 29.9166V29.8557C7.19735 29.2097 6.67842 28.6855 6.03887 28.6855H5.46485C5.33398 28.6855 5.29644 28.6244 5.20342 28.5115C5.13202 28.4228 5.09574 28.3171 5.09574 28.2092V24.4879C5.09574 23.8441 4.57681 23.3178 3.93942 23.3178H3.87698C6.95624 20.2076 10.5381 16.4861 13.8712 13.1194C13.9001 13.1194 14.3865 13.1194 14.3644 13.1194C14.7649 13.1194 15.09 13.4502 15.09 13.8546V17.576C15.09 18.0784 15.4948 18.4873 15.9922 18.4873ZM3.04022 30.2254H0.873653L0.976122 14.3028H3.04022V28.3636V30.2254ZM7.40065 30.2254L17.4973 20.0271C18.8989 20.0271 27.9907 20.0271 29.4029 20.0271L19.3062 30.2254H7.40065ZM18.2469 18.9397C18.111 18.0675 17.3639 17.3998 16.4661 17.3998H16.1667V13.8546C16.1667 12.9455 15.5056 12.1909 14.6443 12.0539V2.58186H11.0311L0.00195312 13.7242V31.3129H19.7519L32.002 18.9397H18.2469Z" fill="url(#paint2_linear)"/>
<path d="M13.5676 12.8107L3.47089 23.009V14.1743L13.5676 3.97613V12.8107Z" fill="url(#paint3_linear)"/>
<path d="M7.40065 30.2254L17.4973 20.0271H29.4029L19.3062 30.2254H7.40065Z" fill="url(#paint4_linear)"/>
</g>
<defs>
<linearGradient id="paint0_linear" x1="4.55467" y1="25.6099" x2="9.0281" y2="32.1034" gradientUnits="userSpaceOnUse">
<stop stop-color="#7FF5E0"/>
<stop offset="1" stop-color="#D3F5FF"/>
</linearGradient>
<linearGradient id="paint1_linear" x1="8.30074" y1="17.9772" x2="17.0856" y2="38.152" gradientUnits="userSpaceOnUse">
<stop stop-color="#7FF5E0"/>
<stop offset="1" stop-color="#D3F5FF"/>
</linearGradient>
<linearGradient id="paint2_linear" x1="16.002" y1="31.3129" x2="16.002" y2="2.58186" gradientUnits="userSpaceOnUse">
<stop stop-color="#A2B4CC"/>
<stop offset="1" stop-color="#404E62"/>
</linearGradient>
<linearGradient id="paint3_linear" x1="-7.27454" y1="57.8182" x2="-7.27454" y2="2.58185" gradientUnits="userSpaceOnUse">
<stop stop-color="#00E0FF"/>
<stop offset="1" stop-color="#0085FF"/>
</linearGradient>
<linearGradient id="paint4_linear" x1="-7.27454" y1="57.8182" x2="-7.27454" y2="2.58185" gradientUnits="userSpaceOnUse">
<stop stop-color="#00E0FF"/>
<stop offset="1" stop-color="#0085FF"/>
</linearGradient>
<clipPath id="clip0">
<rect width="32" height="31.8061" fill="white" transform="translate(0 0.593994)"/>
</clipPath>
</defs>
</svg>
