<svg width="32" height="33" viewBox="0 0 32 33" fill="none" xmlns="http://www.w3.org/2000/svg">
<path d="M27.3876 28.9576H4.35081C4.15709 28.9576 4 28.7869 4 28.5763V1.96925C4 1.7586 4.15709 1.58789 4.35081 1.58789H27.3876C27.5814 1.58789 27.7385 1.7586 27.7385 1.96925V28.5763C27.7385 28.7868 27.5814 28.9576 27.3876 28.9576Z" fill="url(#paint0_linear)"/>
<rect x="6.37402" y="4.41919" width="18.9908" height="5.6627" fill="url(#paint1_linear)"/>
<rect x="6.37402" y="12.4414" width="18.9908" height="5.6627" fill="url(#paint2_linear)"/>
<rect x="6.37402" y="20.4636" width="18.9908" height="5.6627" fill="url(#paint3_linear)"/>
<path d="M8.23235 31.4061H6.32657C5.67103 31.4061 5.13965 30.8779 5.13965 30.2264V28.9576H9.41928V30.2264C9.41928 30.8779 8.88789 31.4061 8.23235 31.4061Z" fill="url(#paint4_linear)"/>
<path d="M25.4189 31.4061H23.5131C22.8576 31.4061 22.3262 30.8779 22.3262 30.2264V28.9576H26.6058V30.2264C26.6058 30.8779 26.0744 31.4061 25.4189 31.4061Z" fill="url(#paint5_linear)"/>
<path d="M23.4658 4.41919V7.25054V10.0819L25.3649 10.0819V4.41919H23.4658Z" fill="url(#paint6_linear)"/>
<path d="M23.4658 12.4414V15.2728V18.1041L25.3649 18.1041V12.4414H23.4658Z" fill="url(#paint7_linear)"/>
<path d="M23.4658 20.4636V23.295V26.1263L25.3649 26.1263V20.4636H23.4658Z" fill="url(#paint8_linear)"/>
<rect width="1.5" height="4" rx="0.75" transform="matrix(0 -1 -1 0 18.0005 24.094)" fill="url(#paint9_linear)"/>
<rect width="1.5" height="4" rx="0.75" transform="matrix(0 -1 -1 0 18.0005 16.094)" fill="url(#paint10_linear)"/>
<rect width="1.5" height="4" rx="0.75" transform="matrix(0 -1 -1 0 18.0005 8.09399)" fill="url(#paint11_linear)"/>
<defs>
<linearGradient id="paint0_linear" x1="-1.3979" y1="-23.6616" x2="-1.3979" y2="28.9576" gradientUnits="userSpaceOnUse">
<stop stop-color="#00E0FF"/>
<stop offset="1" stop-color="#0085FF"/>
</linearGradient>
<linearGradient id="paint1_linear" x1="25.3648" y1="6.77865" x2="-33.7382" y2="18.0308" gradientUnits="userSpaceOnUse">
<stop stop-color="#7FF5E0"/>
<stop offset="1" stop-color="#5FCAEC"/>
</linearGradient>
<linearGradient id="paint2_linear" x1="25.3648" y1="14.8009" x2="-33.7382" y2="26.053" gradientUnits="userSpaceOnUse">
<stop stop-color="#7FF5E0"/>
<stop offset="1" stop-color="#5FCAEC"/>
</linearGradient>
<linearGradient id="paint3_linear" x1="25.3648" y1="22.8231" x2="-33.7382" y2="34.0752" gradientUnits="userSpaceOnUse">
<stop stop-color="#7FF5E0"/>
<stop offset="1" stop-color="#5FCAEC"/>
</linearGradient>
<linearGradient id="paint4_linear" x1="7.27946" y1="28.9576" x2="7.27946" y2="31.4061" gradientUnits="userSpaceOnUse">
<stop stop-color="#A2B4CC"/>
<stop offset="1" stop-color="#404E62"/>
</linearGradient>
<linearGradient id="paint5_linear" x1="24.466" y1="28.9576" x2="24.466" y2="31.4061" gradientUnits="userSpaceOnUse">
<stop stop-color="#A2B4CC"/>
<stop offset="1" stop-color="#404E62"/>
</linearGradient>
<linearGradient id="paint6_linear" x1="25.3649" y1="4.41918" x2="12.8984" y2="-3.09775" gradientUnits="userSpaceOnUse">
<stop stop-color="#42ECCD"/>
<stop offset="0.862937" stop-color="#5FCAEC"/>
</linearGradient>
<linearGradient id="paint7_linear" x1="25.3649" y1="12.4414" x2="12.8984" y2="4.92447" gradientUnits="userSpaceOnUse">
<stop stop-color="#42ECCD"/>
<stop offset="0.862937" stop-color="#5FCAEC"/>
</linearGradient>
<linearGradient id="paint8_linear" x1="25.3649" y1="20.4636" x2="12.8984" y2="12.9467" gradientUnits="userSpaceOnUse">
<stop stop-color="#42ECCD"/>
<stop offset="0.862937" stop-color="#5FCAEC"/>
</linearGradient>
<linearGradient id="paint9_linear" x1="0.75" y1="0" x2="0.75" y2="4" gradientUnits="userSpaceOnUse">
<stop stop-color="#A2B4CC"/>
<stop offset="1" stop-color="#404E62"/>
</linearGradient>
<linearGradient id="paint10_linear" x1="0.75" y1="0" x2="0.75" y2="4" gradientUnits="userSpaceOnUse">
<stop stop-color="#A2B4CC"/>
<stop offset="1" stop-color="#404E62"/>
</linearGradient>
<linearGradient id="paint11_linear" x1="0.75" y1="0" x2="0.75" y2="4" gradientUnits="userSpaceOnUse">
<stop stop-color="#A2B4CC"/>
<stop offset="1" stop-color="#404E62"/>
</linearGradient>
</defs>
</svg>
