<svg width="32" height="32" viewBox="0 0 32 32" fill="none" xmlns="http://www.w3.org/2000/svg">
<rect width="2" height="4" rx="1" transform="matrix(0 -1 -1 0 9.36719 16.3002)" fill="url(#paint0_linear)"/>
<rect width="1.5" height="4" rx="0.75" transform="matrix(-1 0 0 1 9.86719 13.3002)" fill="url(#paint1_linear)"/>
<path d="M6.03473 24.2302C6.21177 24.2302 6.38156 24.16 6.50675 24.0352C6.63194 23.9103 6.70227 23.7409 6.70227 23.5644V6.58049C6.70227 6.5765 6.70227 6.57272 6.70227 6.56873C6.70283 4.9494 8.06127 3.63192 9.7309 3.63192C10.4317 3.62557 11.1127 3.8633 11.6565 4.30412C12.2004 4.74494 12.573 5.36122 12.7101 6.04671L10.8508 6.48228C10.7644 6.50121 10.6826 6.53708 10.6102 6.58782C10.5378 6.63856 10.4763 6.70314 10.4291 6.77782C10.382 6.8525 10.3502 6.93578 10.3356 7.02282C10.321 7.10986 10.3239 7.19893 10.3441 7.28484C10.3644 7.37076 10.5276 7.83006 10.5795 7.90152C10.6314 7.97299 10.697 8.03345 10.7726 8.07939C10.8481 8.12533 10.9321 8.15583 11.0195 8.16913C11.107 8.18242 11.1962 8.17823 11.2821 8.15682L13.6185 7.60949C13.6751 7.60372 13.7308 7.59066 13.7841 7.57065L16.1041 7.02688C16.1899 7.0074 16.2711 6.97116 16.3428 6.92026C16.4146 6.86936 16.4755 6.80481 16.5222 6.73032C16.5688 6.65582 16.6002 6.57286 16.6146 6.48621C16.6289 6.39956 16.6259 6.31093 16.6058 6.22543C16.5857 6.13993 16.4227 5.681 16.3712 5.60978C16.3197 5.53856 16.2545 5.47821 16.1795 5.4322C16.1045 5.3862 16.0211 5.35545 15.9342 5.34172C15.8472 5.328 15.7584 5.33157 15.6728 5.35224L14.0108 5.74153C13.8038 4.76408 13.2649 3.88786 12.4851 3.26088C11.7053 2.6339 10.7325 2.29458 9.7309 2.30024C7.33666 2.30024 5.38733 4.19689 5.36863 6.53499C5.36863 6.54476 5.36719 6.55419 5.36719 6.56407V23.5644C5.36719 23.7409 5.43752 23.9103 5.56271 24.0352C5.68789 24.16 5.85769 24.2302 6.03473 24.2302Z" fill="#979898"/>
<path d="M6.03473 24.2302C6.21177 24.2302 6.38156 24.16 6.50675 24.0352C6.63194 23.9103 6.70227 23.7409 6.70227 23.5644V6.58049C6.70227 6.5765 6.70227 6.57272 6.70227 6.56873C6.70283 4.9494 8.06127 3.63192 9.7309 3.63192C10.4317 3.62557 11.1127 3.8633 11.6565 4.30412C12.2004 4.74494 12.573 5.36122 12.7101 6.04671L10.8508 6.48228C10.7644 6.50121 10.6826 6.53708 10.6102 6.58782C10.5378 6.63856 10.4763 6.70314 10.4291 6.77782C10.382 6.8525 10.3502 6.93578 10.3356 7.02282C10.321 7.10986 10.3239 7.19893 10.3441 7.28484C10.3644 7.37076 10.5276 7.83006 10.5795 7.90152C10.6314 7.97299 10.697 8.03345 10.7726 8.07939C10.8481 8.12533 10.9321 8.15583 11.0195 8.16913C11.107 8.18242 11.1962 8.17823 11.2821 8.15682L13.6185 7.60949C13.6751 7.60372 13.7308 7.59066 13.7841 7.57065L16.1041 7.02688C16.1899 7.0074 16.2711 6.97116 16.3428 6.92026C16.4146 6.86936 16.4755 6.80481 16.5222 6.73032C16.5688 6.65582 16.6002 6.57286 16.6146 6.48621C16.6289 6.39956 16.6259 6.31093 16.6058 6.22543C16.5857 6.13993 16.4227 5.681 16.3712 5.60978C16.3197 5.53856 16.2545 5.47821 16.1795 5.4322C16.1045 5.3862 16.0211 5.35545 15.9342 5.34172C15.8472 5.328 15.7584 5.33157 15.6728 5.35224L14.0108 5.74153C13.8038 4.76408 13.2649 3.88786 12.4851 3.26088C11.7053 2.6339 10.7325 2.29458 9.7309 2.30024C7.33666 2.30024 5.38733 4.19689 5.36863 6.53499C5.36863 6.54476 5.36719 6.55419 5.36719 6.56407V23.5644C5.36719 23.7409 5.43752 23.9103 5.56271 24.0352C5.68789 24.16 5.85769 24.2302 6.03473 24.2302Z" fill="url(#paint2_linear)"/>
<path d="M9.97306 9.20903C9.74533 8.57194 10.1362 7.88118 10.7996 7.74835L16.8315 6.54068C17.4069 6.42547 17.9703 6.78631 18.1064 7.35718C18.249 7.95565 17.8686 8.55354 17.2661 8.67795L11.2416 9.92184C10.7002 10.0336 10.1591 9.7296 9.97306 9.20903Z" fill="url(#paint3_linear)"/>
<path d="M10.5499 7.72166L16.6019 6.46082C17.1949 6.31255 17.5463 6.52841 17.8623 6.83919L9.91895 8.60438C10.0937 8.15353 10.2202 7.8479 10.5499 7.72166Z" fill="#A4C9FF"/>
<path d="M29.7261 18.3002H25.6598H20.3263H3.41064C2.93828 18.3002 2.56836 18.7497 2.56836 19.3234V19.442C2.56836 19.8649 2.76971 20.2195 3.06456 20.3775C3.1731 24.2642 6.07331 27.4928 9.90567 29.1239C10.1789 29.2392 10.4774 29.2988 10.7796 29.2986L22.4378 29.3002H22.4383C22.7541 29.3003 23.0656 29.2352 23.3485 29.11C25.3511 28.2169 27.0311 26.9362 28.207 25.4066C29.3755 23.8864 30.0147 22.1539 30.0638 20.3822C30.3635 20.2265 30.5684 19.8689 30.5684 19.442V19.3234C30.5684 18.7497 30.1984 18.3002 29.7261 18.3002Z" fill="#979898"/>
<path d="M29.7261 18.3002H25.6598H20.3263H3.41064C2.93828 18.3002 2.56836 18.7497 2.56836 19.3234V19.442C2.56836 19.8649 2.76971 20.2195 3.06456 20.3775C3.1731 24.2642 6.07331 27.4928 9.90567 29.1239C10.1789 29.2392 10.4774 29.2988 10.7796 29.2986L22.4378 29.3002H22.4383C22.7541 29.3003 23.0656 29.2352 23.3485 29.11C25.3511 28.2169 27.0311 26.9362 28.207 25.4066C29.3755 23.8864 30.0147 22.1539 30.0638 20.3822C30.3635 20.2265 30.5684 19.8689 30.5684 19.442V19.3234C30.5684 18.7497 30.1984 18.3002 29.7261 18.3002Z" fill="url(#paint4_linear)"/>
<path d="M27.5677 26.4704C27.5677 27.4793 26.714 28.3002 25.6649 28.3002H21.4712C20.4218 28.3002 19.5684 27.4793 19.5684 26.4704C19.5684 23.951 20.0832 16.0622 19.9492 18.9122C19.8152 21.7621 19.9775 18.9126 20.1256 18.9122C22.6063 18.9122 25.087 18.9153 27.5677 18.9122C27.5692 21.4316 27.5677 23.951 27.5677 26.4704Z" fill="black" fill-opacity="0.05"/>
<path d="M20.5684 18.6626V23.9358C20.5684 24.6881 21.3155 25.3002 22.2335 25.3002H25.9032C26.8214 25.3002 27.5683 24.6881 27.5683 23.9358V18.6626C27.5684 18.5668 27.5683 18.3002 27.5683 18.3002C27.5683 18.3002 27.2103 18.3005 27.0806 18.3002H21.0561C20.9166 18.3005 20.5684 18.3002 20.5684 18.3002C20.5684 18.3002 20.5683 18.5689 20.5684 18.6626Z" fill="#979898"/>
<path d="M20.5684 18.6626V23.9358C20.5684 24.6881 21.3155 25.3002 22.2335 25.3002H25.9032C26.8214 25.3002 27.5683 24.6881 27.5683 23.9358V18.6626C27.5684 18.5668 27.5683 18.3002 27.5683 18.3002C27.5683 18.3002 27.2103 18.3005 27.0806 18.3002H21.0561C20.9166 18.3005 20.5684 18.3002 20.5684 18.3002C20.5684 18.3002 20.5683 18.5689 20.5684 18.6626Z" fill="url(#paint5_linear)"/>
<path d="M3.26294 18.4999V18.355C3.26294 18.0505 3.38991 17.8707 3.441 17.85H1.5765C1.52541 17.8707 1.39844 18.0506 1.39844 18.355V18.4999C1.39844 18.8037 1.52547 18.9838 1.57668 19.0049H3.44118C3.38997 18.9838 3.26294 18.8037 3.26294 18.4999Z" fill="white" fill-opacity="0.05"/>
<rect x="12" y="10.906" width="0.8" height="2" rx="0.4" transform="rotate(-13.4348 12 10.906)" fill="url(#paint6_linear)"/>
<rect x="13.9199" y="10.3958" width="0.8" height="2" rx="0.4" transform="rotate(-13.4348 13.9199 10.3958)" fill="url(#paint7_linear)"/>
<rect x="15.9395" y="9.7854" width="0.8" height="2" rx="0.4" transform="rotate(-13.4348 15.9395 9.7854)" fill="url(#paint8_linear)"/>
<path d="M11.3105 29.7518C11.0913 29.7522 10.8748 29.704 10.6766 29.6108C6.38907 27.5681 3.78008 23.883 3.63403 19.7003H1.76953C1.91558 23.883 4.52458 27.5685 8.81218 29.6111C9.01047 29.7043 9.22697 29.7525 9.44611 29.7521L22.1776 29.754H22.1868L11.3105 29.7518Z" fill="url(#paint9_linear)" fill-opacity="0.05"/>
<defs>
<linearGradient id="paint0_linear" x1="1" y1="0" x2="1" y2="4" gradientUnits="userSpaceOnUse">
<stop stop-color="#A2B4CC"/>
<stop offset="1" stop-color="#404E62"/>
</linearGradient>
<linearGradient id="paint1_linear" x1="0.75" y1="0" x2="0.75" y2="4" gradientUnits="userSpaceOnUse">
<stop stop-color="#A2B4CC"/>
<stop offset="1" stop-color="#404E62"/>
</linearGradient>
<linearGradient id="paint2_linear" x1="10.9323" y1="2.30017" x2="10.9323" y2="19.6911" gradientUnits="userSpaceOnUse">
<stop stop-color="#A2B4CC"/>
<stop offset="1" stop-color="#404E62"/>
</linearGradient>
<linearGradient id="paint3_linear" x1="14.3098" y1="6.64949" x2="14.3098" y2="9.8016" gradientUnits="userSpaceOnUse">
<stop stop-color="#A2B4CC"/>
<stop offset="1" stop-color="#404E62"/>
</linearGradient>
<linearGradient id="paint4_linear" x1="-3.79857" y1="8.15231" x2="-3.79857" y2="29.3002" gradientUnits="userSpaceOnUse">
<stop stop-color="#00E0FF"/>
<stop offset="1" stop-color="#0085FF"/>
</linearGradient>
<linearGradient id="paint5_linear" x1="24.0684" y1="18.3002" x2="24.0684" y2="25.3002" gradientUnits="userSpaceOnUse">
<stop stop-color="#7CFFE7"/>
<stop offset="1" stop-color="#5FCAEC"/>
</linearGradient>
<linearGradient id="paint6_linear" x1="11.8181" y1="9.06094" x2="11.8181" y2="12.906" gradientUnits="userSpaceOnUse">
<stop stop-color="#00E0FF"/>
<stop offset="1" stop-color="#0085FF"/>
</linearGradient>
<linearGradient id="paint7_linear" x1="13.738" y1="8.55069" x2="13.738" y2="12.3958" gradientUnits="userSpaceOnUse">
<stop stop-color="#00E0FF"/>
<stop offset="1" stop-color="#0085FF"/>
</linearGradient>
<linearGradient id="paint8_linear" x1="15.7575" y1="7.94034" x2="15.7575" y2="11.7854" gradientUnits="userSpaceOnUse">
<stop stop-color="#00E0FF"/>
<stop offset="1" stop-color="#0085FF"/>
</linearGradient>
<linearGradient id="paint9_linear" x1="11.9782" y1="19.7003" x2="11.9782" y2="29.754" gradientUnits="userSpaceOnUse">
<stop stop-color="white"/>
<stop offset="1" stop-color="white" stop-opacity="0"/>
</linearGradient>
</defs>
</svg>
