<svg width="32" height="32" viewBox="0 0 32 32" fill="none" xmlns="http://www.w3.org/2000/svg">
<path d="M30.0379 26.2683H1.96206C1.43061 26.2683 1 25.8006 1 25.2233V6.60628C1 6.02902 1.43061 5.56128 1.96206 5.56128H30.0375C30.5694 5.56128 31 6.02902 31 6.60628V25.2233C31 25.8006 30.5694 26.2683 30.0379 26.2683Z" fill="url(#paint0_linear)"/>
<path d="M28.478 24.6117H3.52167C3.04927 24.6117 2.6665 24.2188 2.6665 23.7339V8.09557C2.6665 7.61067 3.04927 7.21777 3.52167 7.21777H28.4776C28.9504 7.21777 29.3332 7.61067 29.3332 8.09557V23.7339C29.3332 24.2188 28.9504 24.6117 28.478 24.6117Z" fill="#6770E6"/>
<path d="M28.478 24.6117H3.52167C3.04927 24.6117 2.6665 24.2188 2.6665 23.7339V8.09557C2.6665 7.61067 3.04927 7.21777 3.52167 7.21777H28.4776C28.9504 7.21777 29.3332 7.61067 29.3332 8.09557V23.7339C29.3332 24.2188 28.9504 24.6117 28.478 24.6117Z" fill="url(#paint1_linear)"/>
<g filter="url(#filter0_d)">
<path d="M4.3335 22.1171V9.71305C4.3335 9.47866 4.51398 9.28857 4.73611 9.28857H13.9309C14.153 9.28857 14.3335 9.47866 14.3335 9.71305V22.1171C14.3335 22.351 14.153 22.5411 13.9309 22.5411H4.73611C4.51398 22.5411 4.3335 22.351 4.3335 22.1171Z" fill="url(#paint2_linear)"/>
</g>
<g filter="url(#filter1_d)">
<path d="M17.6665 22.1171V9.71305C17.6665 9.47866 17.8466 9.28857 18.0691 9.28857H27.2635C27.486 9.28857 27.6665 9.47866 27.6665 9.71305V22.1171C27.6665 22.351 27.486 22.5411 27.2635 22.5411H18.0691C17.8466 22.5411 17.6665 22.351 17.6665 22.1171Z" fill="url(#paint3_linear)"/>
</g>
<rect width="1.3" height="4" rx="0.65" transform="matrix(-1 0 0 1 20.3057 14.5983)" fill="url(#paint4_linear)"/>
<rect x="11.6943" y="14.5981" width="1.3" height="4" rx="0.65" fill="url(#paint5_linear)"/>
<rect width="1.3" height="3" rx="0.65" transform="matrix(0 -1 -1 0 22 15.8947)" fill="url(#paint6_linear)"/>
<rect x="10" y="15.8945" width="1.3" height="3" rx="0.65" transform="rotate(-90 10 15.8945)" fill="url(#paint7_linear)"/>
<defs>
<filter id="filter0_d" x="0.333496" y="5.28857" width="18" height="21.2525" filterUnits="userSpaceOnUse" color-interpolation-filters="sRGB">
<feFlood flood-opacity="0" result="BackgroundImageFix"/>
<feColorMatrix in="SourceAlpha" type="matrix" values="0 0 0 0 0 0 0 0 0 0 0 0 0 0 0 0 0 0 127 0"/>
<feOffset/>
<feGaussianBlur stdDeviation="2"/>
<feColorMatrix type="matrix" values="0 0 0 0 0 0 0 0 0 0 0 0 0 0 0 0 0 0 0.1 0"/>
<feBlend mode="normal" in2="BackgroundImageFix" result="effect1_dropShadow"/>
<feBlend mode="normal" in="SourceGraphic" in2="effect1_dropShadow" result="shape"/>
</filter>
<filter id="filter1_d" x="13.6665" y="5.28857" width="18" height="21.2525" filterUnits="userSpaceOnUse" color-interpolation-filters="sRGB">
<feFlood flood-opacity="0" result="BackgroundImageFix"/>
<feColorMatrix in="SourceAlpha" type="matrix" values="0 0 0 0 0 0 0 0 0 0 0 0 0 0 0 0 0 0 127 0"/>
<feOffset/>
<feGaussianBlur stdDeviation="2"/>
<feColorMatrix type="matrix" values="0 0 0 0 0 0 0 0 0 0 0 0 0 0 0 0 0 0 0.1 0"/>
<feBlend mode="normal" in2="BackgroundImageFix" result="effect1_dropShadow"/>
<feBlend mode="normal" in="SourceGraphic" in2="effect1_dropShadow" result="shape"/>
</filter>
<linearGradient id="paint0_linear" x1="16" y1="5.56128" x2="16" y2="26.2683" gradientUnits="userSpaceOnUse">
<stop stop-color="#A2B4CC"/>
<stop offset="1" stop-color="#404E62"/>
</linearGradient>
<linearGradient id="paint1_linear" x1="-3.39724" y1="-8.8287" x2="-3.39724" y2="24.6117" gradientUnits="userSpaceOnUse">
<stop stop-color="#00E0FF"/>
<stop offset="1" stop-color="#0085FF"/>
</linearGradient>
<linearGradient id="paint2_linear" x1="14.3335" y1="14.8105" x2="-17.8574" y2="16.1894" gradientUnits="userSpaceOnUse">
<stop stop-color="#7FF5E0"/>
<stop offset="1" stop-color="#5FCAEC"/>
</linearGradient>
<linearGradient id="paint3_linear" x1="27.6665" y1="14.8105" x2="-4.52443" y2="16.1894" gradientUnits="userSpaceOnUse">
<stop stop-color="#7FF5E0"/>
<stop offset="1" stop-color="#5FCAEC"/>
</linearGradient>
<linearGradient id="paint4_linear" x1="0.65" y1="0" x2="0.65" y2="4" gradientUnits="userSpaceOnUse">
<stop stop-color="#A2B4CC"/>
<stop offset="1" stop-color="#404E62"/>
</linearGradient>
<linearGradient id="paint5_linear" x1="12.3443" y1="14.5981" x2="12.3443" y2="18.5981" gradientUnits="userSpaceOnUse">
<stop stop-color="#A2B4CC"/>
<stop offset="1" stop-color="#404E62"/>
</linearGradient>
<linearGradient id="paint6_linear" x1="0.65" y1="0" x2="0.65" y2="3" gradientUnits="userSpaceOnUse">
<stop stop-color="#A2B4CC"/>
<stop offset="1" stop-color="#404E62"/>
</linearGradient>
<linearGradient id="paint7_linear" x1="10.65" y1="15.8945" x2="10.65" y2="18.8945" gradientUnits="userSpaceOnUse">
<stop stop-color="#A2B4CC"/>
<stop offset="1" stop-color="#404E62"/>
</linearGradient>
</defs>
</svg>
