<svg width="32" height="32" viewBox="0 0 32 32" fill="none" xmlns="http://www.w3.org/2000/svg">
<path d="M15.9999 26.5004C11.0294 26.5004 7 23.7452 7 20.3466V15.5004H25V20.3466C24.9998 23.7452 20.9704 26.5004 15.9999 26.5004Z" fill="#F8EC7D"/>
<path d="M16 17.5004C15.4477 17.5004 15 17.2859 15 17.0214V0.979374C15 0.714834 15.4477 0.500366 16 0.500366C16.5523 0.500366 17 0.714834 17 0.979374V17.0214C17 17.2859 16.5523 17.5004 16 17.5004Z" fill="url(#paint0_linear)"/>
<path d="M19.4994 14.3395H12.4995V7.96513C12.4995 7.06734 13.304 6.33948 14.2966 6.33948H17.7025C18.6949 6.33948 19.4995 7.06726 19.4995 7.96513V14.3395H19.4994Z" fill="url(#paint1_linear)"/>
<path d="M18.7151 9.72253V9.83446L14.5014 9.50037C9.13533 10.1885 5 14.5186 5 19.7586V22.7879C5 23.1814 5.33888 23.5004 5.75694 23.5004H26.2431C26.6611 23.5004 27 23.1814 27 22.7879V19.7586C27.0001 14.9222 23.4771 10.8605 18.7151 9.72253Z" fill="url(#paint2_linear)"/>
<path d="M16.4417 9.50037C15.9526 9.50037 15.4715 9.53348 15 9.59618C20.1491 10.2811 24.1167 14.5809 24.1167 19.7841V22.7927C24.1167 23.1835 23.7914 23.5004 23.3901 23.5004H26.2734C26.6747 23.5004 27 23.1835 27 22.7927V19.7841C27.0001 14.1045 22.2729 9.50037 16.4417 9.50037Z" fill="url(#paint3_linear)"/>
<path d="M13.5583 27.5005C13.4175 27.5005 13.2822 27.5542 13.1797 27.6509L11.1731 29.5442C11.0298 29.6794 10.9695 29.8811 11.0149 30.073C11.0605 30.2646 11.2048 30.4177 11.3938 30.4743C11.5825 30.5307 11.7873 30.4822 11.9306 30.3469L13.9372 28.4536C14.1015 28.2986 14.1548 28.0586 14.0713 27.8486C13.9878 27.6384 13.7844 27.5005 13.5583 27.5005Z" fill="#F3D55B"/>
<path d="M18.3727 27.5004C18.1467 27.5004 17.9433 27.6384 17.8598 27.8486C17.7763 28.0585 17.8295 28.2985 17.9941 28.4535L20.0004 30.3468C20.2221 30.5561 20.5715 30.5461 20.7807 30.3244C20.9897 30.1027 20.9797 29.7533 20.758 29.5441L18.7516 27.6508C18.6491 27.5541 18.5136 27.5004 18.3727 27.5004Z" fill="#F3D55B"/>
<defs>
<linearGradient id="paint0_linear" x1="16" y1="0.500366" x2="16" y2="17.5004" gradientUnits="userSpaceOnUse">
<stop stop-color="#A2B4CC"/>
<stop offset="1" stop-color="#404E62"/>
</linearGradient>
<linearGradient id="paint1_linear" x1="10.9078" y1="-1.04078" x2="10.9078" y2="14.3395" gradientUnits="userSpaceOnUse">
<stop stop-color="#066F7D"/>
<stop offset="1" stop-color="#0085FF"/>
</linearGradient>
<linearGradient id="paint2_linear" x1="-0.00258741" y1="-3.41509" x2="-0.00258741" y2="23.5004" gradientUnits="userSpaceOnUse">
<stop stop-color="#00E0FF"/>
<stop offset="1" stop-color="#0085FF"/>
</linearGradient>
<linearGradient id="paint3_linear" x1="12.2713" y1="-3.41509" x2="12.2713" y2="23.5004" gradientUnits="userSpaceOnUse">
<stop stop-color="#066F7D"/>
<stop offset="1" stop-color="#0085FF"/>
</linearGradient>
</defs>
</svg>
