<svg width="32" height="33" viewBox="0 0 32 33" fill="none" xmlns="http://www.w3.org/2000/svg">
<g clip-path="url(#clip0)">
<path d="M25.931 8.27136C25.2083 8.27136 24.5628 8.341 24 8.46381C23.4372 8.341 22.7917 8.27136 22.0689 8.27136C21.3461 8.27136 20.7007 8.341 20.1378 8.46381C19.5751 8.341 18.9296 8.27136 18.2068 8.27136C15.4642 8.27136 13.793 9.2535 13.793 10.4649V11.5616H15.4482V17.0454H20.9654H24.8275H28.6895V11.5616H30.3447V10.4649C30.3448 9.2535 28.6736 8.27136 25.931 8.27136Z" fill="#3A2B1B"/>
<path d="M14.8965 5.52945C14.5919 5.52945 14.3447 5.28376 14.3447 4.98104V2.78754C14.3447 2.48483 14.5919 2.23914 14.8965 2.23914C15.201 2.23914 15.4482 2.48483 15.4482 2.78754V4.98104C15.4482 5.28382 15.201 5.52945 14.8965 5.52945Z" fill="url(#paint0_linear)"/>
<path d="M30.3447 5.52945C30.0402 5.52945 29.793 5.28376 29.793 4.98104V2.78754C29.793 2.48483 30.0402 2.23914 30.3447 2.23914C30.6493 2.23914 30.8965 2.48483 30.8965 2.78754V4.98104C30.8965 5.28382 30.6493 5.52945 30.3447 5.52945Z" fill="url(#paint1_linear)"/>
<path d="M18.207 6.6262C17.9025 6.6262 17.6553 6.38051 17.6553 6.07779V2.78754C17.6553 2.48483 17.9025 2.23914 18.207 2.23914C18.5116 2.23914 18.7588 2.48483 18.7588 2.78754V6.07785C18.7588 6.38057 18.5116 6.6262 18.207 6.6262Z" fill="url(#paint2_linear)"/>
<path d="M18.207 8.81961C17.9025 8.81961 17.6553 8.57392 17.6553 8.2712C17.6553 7.96849 17.9025 7.7228 18.207 7.7228C18.511 7.7228 18.7588 7.47655 18.7588 7.17439C18.7588 6.87224 18.511 6.62599 18.207 6.62599C17.9025 6.62599 17.6553 6.3803 17.6553 6.07758C17.6553 5.77486 17.9025 5.52917 18.207 5.52917C19.1196 5.52917 19.8622 6.2673 19.8622 7.17433C19.8622 8.08136 19.1196 8.81961 18.207 8.81961Z" fill="url(#paint3_linear)"/>
<path d="M22.6206 6.6262C22.316 6.6262 22.0688 6.38051 22.0688 6.07779V2.78754C22.0688 2.48483 22.316 2.23914 22.6206 2.23914C22.9252 2.23914 23.1723 2.48483 23.1723 2.78754V6.07785C23.1723 6.38057 22.9252 6.6262 22.6206 6.6262Z" fill="url(#paint4_linear)"/>
<path d="M22.6206 8.81961C22.316 8.81961 22.0688 8.57392 22.0688 8.2712C22.0688 7.96849 22.316 7.7228 22.6206 7.7228C22.9246 7.7228 23.1723 7.47655 23.1723 7.17439C23.1723 6.87224 22.9246 6.62599 22.6206 6.62599C22.316 6.62599 22.0688 6.3803 22.0688 6.07758C22.0688 5.77486 22.316 5.52917 22.6206 5.52917C23.5332 5.52917 24.2758 6.2673 24.2758 7.17433C24.2758 8.08136 23.5332 8.81961 22.6206 8.81961Z" fill="url(#paint5_linear)"/>
<path d="M27.0342 6.6262C26.7296 6.6262 26.4824 6.38051 26.4824 6.07779V2.78754C26.4824 2.48483 26.7296 2.23914 27.0342 2.23914C27.3387 2.23914 27.5859 2.48483 27.5859 2.78754V6.07785C27.5859 6.38057 27.3387 6.6262 27.0342 6.6262Z" fill="url(#paint6_linear)"/>
<path d="M27.0342 8.81961C26.7296 8.81961 26.4824 8.57392 26.4824 8.2712C26.4824 7.96849 26.7296 7.7228 27.0342 7.7228C27.3382 7.7228 27.5859 7.47655 27.5859 7.17439C27.5859 6.87224 27.3382 6.62599 27.0342 6.62599C26.7296 6.62599 26.4824 6.3803 26.4824 6.07758C26.4824 5.77486 26.7296 5.52917 27.0342 5.52917C27.9467 5.52917 28.6894 6.2673 28.6894 7.17433C28.6894 8.08136 27.9467 8.81961 27.0342 8.81961Z" fill="url(#paint7_linear)"/>
<path d="M32.0002 23.626H11.0347V32.4001H32.0002V23.626Z" fill="url(#paint8_linear)"/>
<path d="M29.7934 25.8195H13.2417V30.2065H29.7934V25.8195Z" fill="url(#paint9_linear)"/>
<path d="M11.0345 0.593994H0V32.4001H11.0345V0.593994Z" fill="url(#paint10_linear)"/>
<path d="M32.0002 0.593994H11.0347V2.78749H32.0002V0.593994Z" fill="url(#paint11_linear)"/>
<path d="M8.27579 17.0455H6.6206C6.31604 17.0455 6.06885 16.7999 6.06885 16.4971C6.06885 16.1944 6.31604 15.9487 6.6206 15.9487H8.27579C8.58035 15.9487 8.82754 16.1944 8.82754 16.4971C8.82754 16.7999 8.58035 17.0455 8.27579 17.0455Z" fill="#A4C9FF"/>
<path d="M6.6206 18.6906C6.31604 18.6906 6.06885 18.4449 6.06885 18.1422V16.4971C6.06885 16.1944 6.31604 15.9487 6.6206 15.9487C6.92516 15.9487 7.17235 16.1944 7.17235 16.4971V18.1423C7.17235 18.445 6.92516 18.6906 6.6206 18.6906Z" fill="#A4C9FF"/>
<path d="M23.1727 28.0131H19.8623C19.5577 28.0131 19.3105 27.7674 19.3105 27.4647C19.3105 27.1619 19.5577 26.9163 19.8623 26.9163H23.1727C23.4772 26.9163 23.7244 27.1619 23.7244 27.4647C23.7244 27.7674 23.4772 28.0131 23.1727 28.0131Z" fill="#A4C9FF"/>
<path d="M21.5171 29.1098C21.2125 29.1098 20.9653 28.8641 20.9653 28.5614V27.4647C20.9653 27.1619 21.2125 26.9163 21.5171 26.9163C21.8216 26.9163 22.0688 27.1619 22.0688 27.4647V28.5614C22.0688 28.8642 21.8216 29.1098 21.5171 29.1098Z" fill="#A4C9FF"/>
<path d="M22.0688 8.27136C21.346 8.27136 20.7005 8.341 20.1377 8.46381C21.7112 8.80598 22.6204 9.57262 22.6204 10.4649V11.5616H20.9653V17.0454H24.8273V11.5616H26.4825V10.4649C26.4826 9.2535 24.8114 8.27136 22.0688 8.27136Z" fill="#2ED47A"/>
<path d="M25.9311 8.27136C25.2083 8.27136 24.5628 8.341 24 8.46381C25.5735 8.80598 26.4827 9.57262 26.4827 10.4649V11.5616H24.8276V17.0454H28.6896V11.5616H30.3448V10.4649C30.3448 9.2535 28.6736 8.27136 25.9311 8.27136Z" fill="url(#paint12_linear)"/>
<path d="M30.8967 21.4324H11.0347V23.6259H30.8967V21.4324Z" fill="url(#paint13_linear)"/>
<path d="M20.9654 11.5617H22.6206V10.465C22.6206 9.25362 20.9494 8.27148 18.2068 8.27148C15.4642 8.27148 13.793 9.25362 13.793 10.465V11.5617H15.4482V17.0455H20.9654V11.5617Z" fill="#366DB6"/>
</g>
<defs>
<linearGradient id="paint0_linear" x1="14.0938" y1="-0.796284" x2="14.0938" y2="5.52945" gradientUnits="userSpaceOnUse">
<stop stop-color="#00E0FF"/>
<stop offset="1" stop-color="#0085FF"/>
</linearGradient>
<linearGradient id="paint1_linear" x1="29.542" y1="-0.796284" x2="29.542" y2="5.52945" gradientUnits="userSpaceOnUse">
<stop stop-color="#00E0FF"/>
<stop offset="1" stop-color="#0085FF"/>
</linearGradient>
<linearGradient id="paint2_linear" x1="17.4043" y1="-1.80807" x2="17.4043" y2="6.6262" gradientUnits="userSpaceOnUse">
<stop stop-color="#00E0FF"/>
<stop offset="1" stop-color="#0085FF"/>
</linearGradient>
<linearGradient id="paint3_linear" x1="17.1534" y1="2.49364" x2="17.1534" y2="8.81961" gradientUnits="userSpaceOnUse">
<stop stop-color="#00E0FF"/>
<stop offset="1" stop-color="#0085FF"/>
</linearGradient>
<linearGradient id="paint4_linear" x1="21.8179" y1="-1.80807" x2="21.8179" y2="6.6262" gradientUnits="userSpaceOnUse">
<stop stop-color="#00E0FF"/>
<stop offset="1" stop-color="#0085FF"/>
</linearGradient>
<linearGradient id="paint5_linear" x1="21.567" y1="2.49364" x2="21.567" y2="8.81961" gradientUnits="userSpaceOnUse">
<stop stop-color="#00E0FF"/>
<stop offset="1" stop-color="#0085FF"/>
</linearGradient>
<linearGradient id="paint6_linear" x1="26.2315" y1="-1.80807" x2="26.2315" y2="6.6262" gradientUnits="userSpaceOnUse">
<stop stop-color="#00E0FF"/>
<stop offset="1" stop-color="#0085FF"/>
</linearGradient>
<linearGradient id="paint7_linear" x1="25.9806" y1="2.49364" x2="25.9806" y2="8.81961" gradientUnits="userSpaceOnUse">
<stop stop-color="#00E0FF"/>
<stop offset="1" stop-color="#0085FF"/>
</linearGradient>
<linearGradient id="paint8_linear" x1="21.5174" y1="23.626" x2="21.5174" y2="32.4001" gradientUnits="userSpaceOnUse">
<stop stop-color="#A2B4CC"/>
<stop offset="1" stop-color="#404E62"/>
</linearGradient>
<linearGradient id="paint9_linear" x1="9.47799" y1="21.7723" x2="9.47799" y2="30.2065" gradientUnits="userSpaceOnUse">
<stop stop-color="#00E0FF"/>
<stop offset="1" stop-color="#0085FF"/>
</linearGradient>
<linearGradient id="paint10_linear" x1="-2.50914" y1="-28.7481" x2="-2.50914" y2="32.4001" gradientUnits="userSpaceOnUse">
<stop stop-color="#00E0FF"/>
<stop offset="1" stop-color="#0085FF"/>
</linearGradient>
<linearGradient id="paint11_linear" x1="21.5174" y1="0.593994" x2="21.5174" y2="2.78749" gradientUnits="userSpaceOnUse">
<stop stop-color="#A2B4CC"/>
<stop offset="1" stop-color="#404E62"/>
</linearGradient>
<linearGradient id="paint12_linear" x1="27.1724" y1="8.27136" x2="27.1724" y2="17.0454" gradientUnits="userSpaceOnUse">
<stop stop-color="#A2B4CC"/>
<stop offset="1" stop-color="#404E62"/>
</linearGradient>
<linearGradient id="paint13_linear" x1="6.51823" y1="19.4088" x2="6.51823" y2="23.6259" gradientUnits="userSpaceOnUse">
<stop stop-color="#00E0FF"/>
<stop offset="1" stop-color="#0085FF"/>
</linearGradient>
<clipPath id="clip0">
<rect width="32" height="31.8061" fill="white" transform="translate(0 0.593994)"/>
</clipPath>
</defs>
</svg>
