<svg width="32" height="32" viewBox="0 0 32 32" fill="none" xmlns="http://www.w3.org/2000/svg">
<g clip-path="url(#clip0)">
<path d="M5 0C4.72396 0 4.5 0.236753 4.5 0.529181V7.47082C4.5 7.76297 4.72396 8 5 8C5.27604 8 5.5 7.76297 5.5 7.47082V0.529181C5.5 0.237029 5.27604 0 5 0Z" fill="url(#paint0_linear)"/>
<path d="M7 8.5C7 9.60465 6.10465 10.5 5 10.5C3.89535 10.5 3 9.60465 3 8.5C3 7.39535 3.89535 6.5 5 6.5C6.10465 6.5 7 7.39535 7 8.5Z" fill="url(#paint1_linear)"/>
<path d="M7.69997 9H2.30003C2.13423 9 2 8.86577 2 8.69997C2 7.20893 3.20865 6 4.69997 6H5.30003C6.79107 6 8 7.20893 8 8.69997C8 8.86577 7.86577 9 7.69997 9Z" fill="url(#paint2_linear)"/>
<path d="M16 0C15.724 0 15.5 0.236753 15.5 0.529181V7.47082C15.5 7.76297 15.724 8 16 8C16.276 8 16.5 7.76297 16.5 7.47082V0.529181C16.5 0.237029 16.276 0 16 0Z" fill="url(#paint3_linear)"/>
<path d="M18 8.5C18 9.60465 17.1047 10.5 16 10.5C14.8953 10.5 14 9.60465 14 8.5C14 7.39535 14.8953 6.5 16 6.5C17.1047 6.5 18 7.39535 18 8.5Z" fill="url(#paint4_linear)"/>
<path d="M18.7 9H13.3C13.1342 9 13 8.86577 13 8.69997C13 7.20893 14.2086 6 15.7 6H16.3C17.7911 6 19 7.20893 19 8.69997C19 8.86577 18.8658 9 18.7 9Z" fill="url(#paint5_linear)"/>
<path d="M27 0C26.724 0 26.5 0.236753 26.5 0.529181V7.47082C26.5 7.76297 26.724 8 27 8C27.276 8 27.5 7.76297 27.5 7.47082V0.529181C27.5 0.237029 27.276 0 27 0Z" fill="url(#paint6_linear)"/>
<path d="M29 8.5C29 9.60465 28.1047 10.5 27 10.5C25.8953 10.5 25 9.60465 25 8.5C25 7.39535 25.8953 6.5 27 6.5C28.1047 6.5 29 7.39535 29 8.5Z" fill="url(#paint7_linear)"/>
<path d="M29.7 9H24.3C24.1342 9 24 8.86577 24 8.69997C24 7.20893 25.2086 6 26.7 6H27.3C28.7911 6 30 7.20893 30 8.69997C30 8.86577 29.8658 9 29.7 9Z" fill="url(#paint8_linear)"/>
<path d="M30 32H2C0 32 0 31 0 29.8948V17.0623H32V30C32 32 31 32 30 32Z" fill="url(#paint9_linear)"/>
<path d="M2.62935 20.8H14.1714C14.298 20.8 14.4004 20.8976 14.4004 21.0177V29.3824C14.4004 29.5027 14.298 29.6 14.1714 29.6H2.62935C2.5028 29.6 2.40039 29.5027 2.40039 29.3824V21.0177C2.40039 20.8976 2.5028 20.8 2.62935 20.8Z" fill="#0065C2"/>
<path d="M29.5996 21.0177V29.3824C29.5996 29.5027 29.4972 29.6 29.3706 29.6H17.8286C17.702 29.6 17.5996 29.5027 17.5996 29.3824V21.0177C17.5996 20.8976 17.702 20.8 17.8286 20.8H29.3706C29.4972 20.8 29.5996 20.8976 29.5996 21.0177Z" fill="#0065C2"/>
<path d="M31.9999 18H-8.03508e-05C-0.138264 18 -0.000188846 17.9163 -0.000188846 17.7781C-0.000188846 17.7781 -0.000188846 17.5 -0.000188846 17C-0.000188846 16.5 -0.000188828 16 0.999811 16C1.99981 16 30.9998 16 30.9998 16C31.9998 16 31.9998 16.5 31.9998 17V17.7781C31.9998 17.9163 32.1381 18 31.9999 18Z" fill="url(#paint10_linear)"/>
<path d="M31.5 2.5H0.5C0.361816 2.5 0 2.17853 0 2V0.5C0 0.321158 0.361816 0 0.5 0H31.5C31.6382 0 32 0.321158 32 0.5V2C32 2.17853 31.6382 2.5 31.5 2.5Z" fill="url(#paint11_linear)"/>
<path d="M27.5949 22H19.6055C19.3815 22 19.2002 22.1869 19.2002 22.4176V27.9824C19.2002 28.2129 19.3815 28.4 19.6055 28.4H27.5949C27.8188 28.4 28.0002 28.2129 28.0002 27.9824V22.4176C28.0002 22.1869 27.8188 22 27.5949 22ZM27.0814 27.5645H20.119C20.0592 27.5645 20.0109 27.5147 20.0109 27.4531V22.9467C20.0109 22.8851 20.0592 22.8353 20.119 22.8353H27.0814C27.1412 22.8353 27.1895 22.8851 27.1895 22.9467V27.4531C27.1895 27.5147 27.1412 27.5645 27.0814 27.5645Z" fill="url(#paint12_linear)"/>
<path d="M12.3947 22H4.40534C4.18135 22 4 22.1869 4 22.4176V27.9824C4 28.2129 4.18135 28.4 4.40534 28.4H12.3947C12.6187 28.4 12.8 28.2129 12.8 27.9824V22.4176C12.8 22.1869 12.6187 22 12.3947 22ZM11.8812 27.5645H4.91876C4.85902 27.5645 4.81067 27.5147 4.81067 27.4531V22.9467C4.81067 22.8851 4.85902 22.8353 4.91876 22.8353H11.8812C11.941 22.8353 11.9893 22.8851 11.9893 22.9467V27.4531C11.9893 27.5147 11.941 27.5645 11.8812 27.5645Z" fill="url(#paint13_linear)"/>
</g>
<defs>
<linearGradient id="paint0_linear" x1="5" y1="0.320003" x2="5" y2="8.00008" gradientUnits="userSpaceOnUse">
<stop stop-color="#A2B4CC"/>
<stop offset="1" stop-color="#404E62"/>
</linearGradient>
<linearGradient id="paint1_linear" x1="7" y1="6.5" x2="-7.08018" y2="8.57498" gradientUnits="userSpaceOnUse">
<stop stop-color="#7FF5E0"/>
<stop offset="0.862937" stop-color="#5FCAEC"/>
</linearGradient>
<linearGradient id="paint2_linear" x1="0.635658" y1="3.2324" x2="0.635658" y2="9" gradientUnits="userSpaceOnUse">
<stop stop-color="#00E0FF"/>
<stop offset="1" stop-color="#0085FF"/>
</linearGradient>
<linearGradient id="paint3_linear" x1="16" y1="0.320003" x2="16" y2="8.00008" gradientUnits="userSpaceOnUse">
<stop stop-color="#A2B4CC"/>
<stop offset="1" stop-color="#404E62"/>
</linearGradient>
<linearGradient id="paint4_linear" x1="18" y1="6.5" x2="3.91982" y2="8.57498" gradientUnits="userSpaceOnUse">
<stop stop-color="#7FF5E0"/>
<stop offset="0.862937" stop-color="#5FCAEC"/>
</linearGradient>
<linearGradient id="paint5_linear" x1="11.6357" y1="3.2324" x2="11.6357" y2="9" gradientUnits="userSpaceOnUse">
<stop stop-color="#00E0FF"/>
<stop offset="1" stop-color="#0085FF"/>
</linearGradient>
<linearGradient id="paint6_linear" x1="27" y1="0.320003" x2="27" y2="8.00008" gradientUnits="userSpaceOnUse">
<stop stop-color="#A2B4CC"/>
<stop offset="1" stop-color="#404E62"/>
</linearGradient>
<linearGradient id="paint7_linear" x1="29" y1="6.5" x2="14.9198" y2="8.57498" gradientUnits="userSpaceOnUse">
<stop stop-color="#7FF5E0"/>
<stop offset="0.862937" stop-color="#5FCAEC"/>
</linearGradient>
<linearGradient id="paint8_linear" x1="22.6357" y1="3.2324" x2="22.6357" y2="9" gradientUnits="userSpaceOnUse">
<stop stop-color="#00E0FF"/>
<stop offset="1" stop-color="#0085FF"/>
</linearGradient>
<linearGradient id="paint9_linear" x1="-7.27649" y1="10.0945" x2="-7.27649" y2="24.6151" gradientUnits="userSpaceOnUse">
<stop stop-color="#00E0FF"/>
<stop offset="1" stop-color="#0672D6"/>
</linearGradient>
<linearGradient id="paint10_linear" x1="16" y1="16.1739" x2="16" y2="18.0281" gradientUnits="userSpaceOnUse">
<stop stop-color="#A2B4CC"/>
<stop offset="1" stop-color="#404E62"/>
</linearGradient>
<linearGradient id="paint11_linear" x1="16" y1="0.100001" x2="16" y2="2.50003" gradientUnits="userSpaceOnUse">
<stop stop-color="#A2B4CC"/>
<stop offset="1" stop-color="#404E62"/>
</linearGradient>
<linearGradient id="paint12_linear" x1="23.6002" y1="22.256" x2="23.6002" y2="28.4001" gradientUnits="userSpaceOnUse">
<stop stop-color="#A2B4CC"/>
<stop offset="1" stop-color="#404E62"/>
</linearGradient>
<linearGradient id="paint13_linear" x1="8.39999" y1="22.256" x2="8.39999" y2="28.4001" gradientUnits="userSpaceOnUse">
<stop stop-color="#A2B4CC"/>
<stop offset="1" stop-color="#404E62"/>
</linearGradient>
<clipPath id="clip0">
<rect width="32" height="32" fill="white"/>
</clipPath>
</defs>
</svg>
