<svg width="32" height="32" viewBox="0 0 32 32" fill="none" xmlns="http://www.w3.org/2000/svg">
<path d="M7.51326 30.5895H5.74429C5.13582 30.5895 4.64258 30.0849 4.64258 29.4623V28.25H8.61498V29.4623C8.61498 30.0848 8.12174 30.5895 7.51326 30.5895Z" fill="url(#paint0_linear)"/>
<path d="M26.442 30.5895H24.673C24.0645 30.5895 23.5713 30.0849 23.5713 29.4623V28.25H27.5437V29.4623C27.5437 30.0848 27.0504 30.5895 26.442 30.5895Z" fill="url(#paint1_linear)"/>
<path d="M29.25 7.86572V26.3571C29.25 27.6778 29.0984 28.25 27.7778 28.25H4.22222C2.90159 28.25 2.75 27.6778 2.75 26.3571V7.86572L16 5.54187L29.25 7.86572Z" fill="url(#paint2_linear)"/>
<path d="M5 15.143V6H27V15.143L16 17L5 15.143Z" fill="url(#paint3_linear)"/>
<path d="M27 15.7102V26H5V15.7102L6.37484 15.2276C7.23992 14.9241 8.26008 14.9241 9.12516 15.2276C9.55738 15.3795 10.0285 15.4554 10.5 15.4554C10.9715 15.4554 11.4426 15.3795 11.8748 15.2276C12.3071 15.0756 12.7788 15.0001 13.2503 15.0001C13.7214 15.0001 14.1923 15.0756 14.6252 15.2276C15.0574 15.3795 15.5289 15.4554 16 15.4554C16.4711 15.4554 16.9426 15.3795 17.3748 15.2276C17.8077 15.0756 18.2786 15.0001 18.7497 15.0001C19.2212 15.0001 19.6929 15.0756 20.1252 15.2276C20.5574 15.3795 21.0285 15.4554 21.5 15.4554C21.9715 15.4554 22.4426 15.3795 22.8748 15.2276C23.3071 15.0756 23.7786 15.0001 24.2503 15.0001C24.7212 15.0001 25.1923 15.0756 25.6252 15.2276L27 15.7102Z" fill="url(#paint4_linear)"/>
<path d="M29.25 3.77713V7.99999L2.75 8V3.77713C2.75 2.4565 2.90159 1.88428 4.22222 1.88428H27.7778C29.0984 1.88428 29.25 2.4565 29.25 3.77713Z" fill="url(#paint5_linear)"/>
<path d="M25.9613 3.50891H17.212C16.8673 3.50891 16.5879 3.78812 16.5879 4.13284V5.48278C16.5879 5.8275 16.8673 6.10691 17.212 6.10691H25.9613C26.3058 6.10691 26.5854 5.8275 26.5854 5.48278V4.13284C26.5854 3.78812 26.306 3.50891 25.9613 3.50891Z" fill="url(#paint6_linear)"/>
<path d="M9.15716 4.80805C9.15716 5.46655 8.62341 6.0003 7.96471 6.0003C7.30621 6.0003 6.77246 5.46655 6.77246 4.80805C6.77246 4.14935 7.30621 3.6156 7.96471 3.6156C8.62341 3.6156 9.15716 4.14935 9.15716 4.80805Z" fill="url(#paint7_linear)"/>
<path d="M13.2548 4.80805C13.2548 5.46655 12.7211 6.0003 12.0624 6.0003C11.4039 6.0003 10.8701 5.46655 10.8701 4.80805C10.8701 4.14935 11.4039 3.6156 12.0624 3.6156C12.7211 3.6156 13.2548 4.14935 13.2548 4.80805Z" fill="url(#paint8_linear)"/>
<rect opacity="0.32" x="5" y="8" width="22" height="15" fill="white"/>
<defs>
<linearGradient id="paint0_linear" x1="6.62878" y1="28.25" x2="6.62878" y2="30.5895" gradientUnits="userSpaceOnUse">
<stop stop-color="#A2B4CC"/>
<stop offset="1" stop-color="#404E62"/>
</linearGradient>
<linearGradient id="paint1_linear" x1="25.5575" y1="28.25" x2="25.5575" y2="30.5895" gradientUnits="userSpaceOnUse">
<stop stop-color="#A2B4CC"/>
<stop offset="1" stop-color="#404E62"/>
</linearGradient>
<linearGradient id="paint2_linear" x1="-3.27584" y1="-5.05039" x2="-3.27584" y2="17.0236" gradientUnits="userSpaceOnUse">
<stop stop-color="#00E0FF"/>
<stop offset="1" stop-color="#0672D6"/>
</linearGradient>
<linearGradient id="paint3_linear" x1="-0.00258741" y1="0.869027" x2="-0.00258741" y2="11.5618" gradientUnits="userSpaceOnUse">
<stop stop-color="#002E34"/>
<stop offset="1" stop-color="#0672D6"/>
</linearGradient>
<linearGradient id="paint4_linear" x1="27" y1="15" x2="-45.7988" y2="36.4565" gradientUnits="userSpaceOnUse">
<stop stop-color="#7FF5E0"/>
<stop offset="0.862937" stop-color="#5FCAEC"/>
</linearGradient>
<linearGradient id="paint5_linear" x1="-3.27584" y1="-1.10269" x2="-3.27584" y2="4.84223" gradientUnits="userSpaceOnUse">
<stop stop-color="#00E0FF"/>
<stop offset="1" stop-color="#0672D6"/>
</linearGradient>
<linearGradient id="paint6_linear" x1="26.5854" y1="3.50891" x2="-0.621022" y2="18.9377" gradientUnits="userSpaceOnUse">
<stop stop-color="#7FF5E0"/>
<stop offset="0.862937" stop-color="#5FCAEC"/>
</linearGradient>
<linearGradient id="paint7_linear" x1="9.15716" y1="3.6156" x2="0.762908" y2="4.85265" gradientUnits="userSpaceOnUse">
<stop stop-color="#7FF5E0"/>
<stop offset="0.862937" stop-color="#5FCAEC"/>
</linearGradient>
<linearGradient id="paint8_linear" x1="13.2548" y1="3.6156" x2="4.86056" y2="4.85265" gradientUnits="userSpaceOnUse">
<stop stop-color="#7FF5E0"/>
<stop offset="0.862937" stop-color="#5FCAEC"/>
</linearGradient>
</defs>
</svg>
