<svg width="32" height="32" viewBox="0 0 32 32" fill="none" xmlns="http://www.w3.org/2000/svg">
<path d="M13.6178 20.3209C12.9409 20.7126 12.3254 21.5023 11.9931 22.4039C11.8823 22.7086 11.8577 22.9138 11.8577 23.6102C11.8515 24.5989 11.95 25.0217 12.4485 26.1285C13.1439 27.6643 13.3778 28.653 13.2424 29.4675C13.1501 30.0334 12.9901 30.3691 12.5839 30.8231C12.2269 31.2272 12.1962 31.3391 12.3439 31.6625C12.4977 31.9858 12.8362 32.0853 13.1686 31.9112C13.4394 31.7744 13.9625 31.1464 14.1533 30.7298C14.7687 29.4178 14.6271 27.969 13.6794 25.8798C13.2793 24.9906 13.1132 24.431 13.0701 23.8589C12.9962 22.8019 13.3963 21.9811 14.2887 21.3717C14.6518 21.1168 14.7379 20.9862 14.7256 20.6567C14.7195 20.4017 14.4117 20.1281 14.1409 20.1281C14.0363 20.1281 13.7963 20.2152 13.6178 20.3209Z" fill="url(#paint0_linear)"/>
<path d="M16.7135 20.3087C16.3011 20.5512 15.7288 21.1481 15.4334 21.6331C15.0641 22.2549 14.9287 22.771 14.9287 23.6104C14.9287 24.6364 15.0087 24.9348 15.8026 26.7816C16.2334 27.7764 16.3381 28.2304 16.3381 29.02C16.3319 29.8595 16.1965 30.2388 15.7103 30.7735C15.4088 31.0968 15.3595 31.1839 15.3595 31.3953C15.3595 31.5943 15.4026 31.6813 15.5626 31.8243C15.9073 32.1352 16.2211 32.042 16.732 31.4761C17.3597 30.7859 17.6428 29.8968 17.5874 28.8024C17.5382 27.8448 17.3597 27.2168 16.7135 25.7556C16.5289 25.3452 16.3381 24.8416 16.2827 24.6364C15.9134 23.2125 16.2765 22.1181 17.3659 21.3657C17.889 21.0051 17.9751 20.6133 17.5997 20.2589C17.4028 20.0724 17.0828 20.091 16.7135 20.3087Z" fill="url(#paint1_linear)"/>
<path d="M19.863 20.2591C19.5184 20.4394 18.7737 21.1855 18.5398 21.5773C18.0721 22.3545 17.8874 23.3618 18.0351 24.2759C18.1398 24.935 18.2998 25.4448 18.6629 26.2532C19.0999 27.2232 19.2476 27.6522 19.3645 28.2305C19.5676 29.2254 19.3768 30.1145 18.8414 30.7114C18.6814 30.8918 18.5152 31.1032 18.4721 31.184C18.3613 31.3892 18.4413 31.6628 18.6691 31.8555C18.8291 31.9923 18.9029 32.011 19.1122 31.9861C19.3153 31.955 19.4199 31.8866 19.7461 31.5384C20.4477 30.7923 20.7247 29.9466 20.6631 28.7466C20.62 27.8885 20.4046 27.1361 19.8569 25.8925C19.3522 24.7609 19.2476 24.3629 19.2414 23.6105C19.2414 23.138 19.2722 22.9452 19.383 22.6592C19.5676 22.1804 19.9184 21.7514 20.3985 21.4032C20.8416 21.086 20.977 20.8311 20.8724 20.5451C20.7185 20.1347 20.3123 20.0166 19.863 20.2591Z" fill="url(#paint2_linear)"/>
<path d="M19.1067 1.00317H13.8281V7.02202H19.1067V1.00317Z" fill="url(#paint3_linear)"/>
<rect x="5.64258" y="13.0409" width="21.75" height="1.00314" fill="#D4E1F4"/>
<path d="M2.53571 12.5393H5.125H27.9107H29.4643C29.9821 12.5393 30.5 13.0409 30.5 13.5425V19.0597C30.5 19.5613 29.9821 20.0629 29.4643 20.0629H2.53571C2.01786 20.0629 1.5 19.5613 1.5 19.0597V13.5425C1.5 13.0409 2.01786 12.5393 2.53571 12.5393Z" fill="url(#paint4_linear)"/>
<path d="M27.9107 12.5393H5.125L8.75 6.62048H24.2857L27.9107 12.5393Z" fill="url(#paint5_linear)"/>
<path d="M28.9456 19.0597H3.05273V14.0439H28.9456V19.0597Z" fill="url(#paint6_linear)"/>
<path d="M12.4005 1L12.4004 6.6H13.9005V1.5H19.1005V6.6H20.7005V1C20.7005 0.5 20.0005 0 19.5005 0H13.5005C13.0005 0 12.4005 0.5 12.4005 1Z" fill="url(#paint7_linear)"/>
<path d="M20.4699 15.6263C20.1745 15.7258 20.0391 16.0181 20.0391 16.5404C20.0391 17.0565 20.1806 17.3114 20.5129 17.4047C21.0053 17.5477 21.553 17.4482 21.7622 17.1808C21.8607 17.0502 21.8853 16.9321 21.8853 16.5093C21.8853 16.0865 21.8607 15.9683 21.7622 15.8377C21.5468 15.5641 20.9376 15.4647 20.4699 15.6263Z" fill="#D4E1F4"/>
<path d="M22.9308 15.6202C22.6416 15.7259 22.5 16.0243 22.5 16.5093C22.5 17.2555 22.8077 17.5167 23.6078 17.4483C23.9524 17.4172 24.0324 17.3861 24.1802 17.2244C24.334 17.0503 24.3463 16.9943 24.3463 16.5093C24.3463 16.0243 24.334 15.9684 24.1802 15.7943C24.0263 15.6202 23.9647 15.6015 23.577 15.5704C23.3124 15.558 23.0601 15.5766 22.9308 15.6202Z" fill="#D4E1F4"/>
<path d="M25.5168 15.5831C25.0921 15.7385 24.9629 15.9562 24.9629 16.4971C24.9629 17.2433 25.166 17.4423 25.9353 17.4423C26.44 17.4423 26.4584 17.436 26.6307 17.2371C26.7969 17.0505 26.8092 17.007 26.8092 16.4909C26.8092 15.9624 26.8031 15.9375 26.6307 15.7696C26.4707 15.6142 26.3907 15.5893 26.0276 15.5707C25.7999 15.5582 25.566 15.5644 25.5168 15.5831Z" fill="#D4E1F4"/>
<defs>
<linearGradient id="paint0_linear" x1="11.205" y1="42.9444" x2="11.205" y2="20.1281" gradientUnits="userSpaceOnUse">
<stop stop-color="#00E0FF"/>
<stop offset="1" stop-color="#0085FF"/>
</linearGradient>
<linearGradient id="paint1_linear" x1="14.2689" y1="42.9494" x2="14.2689" y2="20.1311" gradientUnits="userSpaceOnUse">
<stop stop-color="#00E0FF"/>
<stop offset="1" stop-color="#0085FF"/>
</linearGradient>
<linearGradient id="paint2_linear" x1="17.3212" y1="42.9381" x2="17.3212" y2="20.134" gradientUnits="userSpaceOnUse">
<stop stop-color="#00E0FF"/>
<stop offset="1" stop-color="#0085FF"/>
</linearGradient>
<linearGradient id="paint3_linear" x1="12.7507" y1="-4.54941" x2="12.7507" y2="7.02203" gradientUnits="userSpaceOnUse">
<stop stop-color="#00E0FF"/>
<stop offset="1" stop-color="#0085FF"/>
</linearGradient>
<linearGradient id="paint4_linear" x1="16" y1="1.50476" x2="16" y2="20.0629" gradientUnits="userSpaceOnUse">
<stop stop-color="#A2B4CC"/>
<stop offset="1" stop-color="#404E62"/>
</linearGradient>
<linearGradient id="paint5_linear" x1="-0.056251" y1="0.967922" x2="-0.056251" y2="12.5394" gradientUnits="userSpaceOnUse">
<stop stop-color="#00E0FF"/>
<stop offset="1" stop-color="#0085FF"/>
</linearGradient>
<linearGradient id="paint6_linear" x1="-2.83505" y1="9.41679" x2="-2.83505" y2="19.0597" gradientUnits="userSpaceOnUse">
<stop stop-color="#00E0FF"/>
<stop offset="1" stop-color="#0085FF"/>
</linearGradient>
<linearGradient id="paint7_linear" x1="16.5504" y1="0" x2="16.5504" y2="6.6" gradientUnits="userSpaceOnUse">
<stop stop-color="#A2B4CC"/>
<stop offset="1" stop-color="#404E62"/>
</linearGradient>
</defs>
</svg>
