<svg width="32" height="32" viewBox="0 0 32 32" fill="none" xmlns="http://www.w3.org/2000/svg">
<g clip-path="url(#clip0)">
<path d="M31 0H1C0.447715 0 0 0.447715 0 1V30.8061C0 31.3583 0.447715 31.8061 1 31.8061H31C31.5523 31.8061 32 31.3583 32 30.8061V1C32 0.447715 31.5523 0 31 0Z" fill="#D4E1F4"/>
<path d="M7 0H0V6.95758H7V0Z" fill="url(#paint0_linear)"/>
<path d="M32 16.897H25V23.8545H32V16.897Z" fill="url(#paint1_linear)"/>
<path d="M7 16.897H0V23.8545H7V16.897Z" fill="url(#paint2_linear)"/>
<path d="M16.5161 24.738H32V31.8061H16.5161V24.738Z" fill="url(#paint3_linear)"/>
<path d="M16.5161 8.24597H32V15.314H16.5161V8.24597Z" fill="url(#paint4_linear)"/>
<path d="M32 0H25V6.95758H32V0Z" fill="url(#paint5_linear)"/>
<path d="M24 0H8V6.95758H24V0Z" fill="url(#paint6_linear)"/>
<path d="M24 16.897H8V23.8545H24V16.897Z" fill="url(#paint7_linear)"/>
<path d="M1.43051e-05 24.738H15.4839V31.8061H1.43051e-05V24.738Z" fill="url(#paint8_linear)"/>
<path d="M1.43051e-05 8.24597H15.4839V15.314H1.43051e-05V8.24597Z" fill="url(#paint9_linear)"/>
<g clip-path="url(#clip1)">
<g clip-path="url(#clip2)">
<path d="M24.7061 26.505L32.0002 31.8061V21.2041L24.7061 26.505Z" fill="#D4E1F4"/>
<path d="M31.9999 10.6019L18.9169 18.8023L10.6665 31.806H21.3332L25.2516 30.0318L26.6665 26.5049L31.9999 21.204V10.6019Z" fill="url(#paint10_linear)"/>
<path d="M21.3335 31.8061H32.0001L26.6668 26.505L21.3335 31.8061Z" fill="url(#paint11_linear)"/>
<path d="M32 0L12.9307 15.903L21.3334 21.2041L32 10.602V0Z" fill="url(#paint12_linear)"/>
<path d="M21.3334 0L8.83806 8.7845L0 21.2041L1.61088 24.9256L5.33337 26.505L26.6666 5.30105L25.3388 1.86078L21.3334 0Z" fill="url(#paint13_linear)"/>
<path d="M32.0001 0H21.3335L26.6667 5.30105L32.0001 0Z" fill="#D4E1F4"/>
<path d="M0 31.8061H10.6666L21.3334 21.2041L16 15.9031L5.33337 26.5051L2.04625 27.6086L0 31.8061Z" fill="#D4E1F4"/>
<path d="M0 31.8061L5.33337 26.505L0 21.2041V31.8061Z" fill="url(#paint14_linear)"/>
<path d="M10.6666 0L3.37256 5.30105L10.6666 10.602L21.3333 0H10.6666Z" fill="#D4E1F4"/>
<path d="M0 10.602V21.2041L10.6666 10.602L5.33337 5.30103L1.95919 6.53432L0 10.602Z" fill="url(#paint15_linear)"/>
<path d="M0 0V10.602L10.6666 0H0Z" fill="url(#paint16_linear)"/>
</g>
</g>
</g>
<defs>
<linearGradient id="paint0_linear" x1="3.5" y1="0" x2="3.5" y2="6.95758" gradientUnits="userSpaceOnUse">
<stop stop-color="#7CFFE7"/>
<stop offset="1" stop-color="#5FCAEC"/>
</linearGradient>
<linearGradient id="paint1_linear" x1="23.4083" y1="10.4784" x2="23.4083" y2="23.8546" gradientUnits="userSpaceOnUse">
<stop stop-color="#00E0FF"/>
<stop offset="1" stop-color="#0085FF"/>
</linearGradient>
<linearGradient id="paint2_linear" x1="3.5" y1="16.897" x2="3.5" y2="23.8545" gradientUnits="userSpaceOnUse">
<stop stop-color="#7CFFE7"/>
<stop offset="1" stop-color="#5FCAEC"/>
</linearGradient>
<linearGradient id="paint3_linear" x1="24.2581" y1="24.738" x2="24.2581" y2="31.8061" gradientUnits="userSpaceOnUse">
<stop stop-color="#7CFFE7"/>
<stop offset="1" stop-color="#5FCAEC"/>
</linearGradient>
<linearGradient id="paint4_linear" x1="24.2581" y1="8.24597" x2="24.2581" y2="15.314" gradientUnits="userSpaceOnUse">
<stop stop-color="#7CFFE7"/>
<stop offset="1" stop-color="#5FCAEC"/>
</linearGradient>
<linearGradient id="paint5_linear" x1="23.4083" y1="-6.41859" x2="23.4083" y2="6.95758" gradientUnits="userSpaceOnUse">
<stop stop-color="#00E0FF"/>
<stop offset="1" stop-color="#0085FF"/>
</linearGradient>
<linearGradient id="paint6_linear" x1="4.36175" y1="-6.41859" x2="4.36175" y2="6.95758" gradientUnits="userSpaceOnUse">
<stop stop-color="#00E0FF"/>
<stop offset="1" stop-color="#0085FF"/>
</linearGradient>
<linearGradient id="paint7_linear" x1="4.36175" y1="10.4784" x2="4.36175" y2="23.8546" gradientUnits="userSpaceOnUse">
<stop stop-color="#00E0FF"/>
<stop offset="1" stop-color="#0085FF"/>
</linearGradient>
<linearGradient id="paint8_linear" x1="19.0048" y1="18.2176" x2="19.0048" y2="31.8061" gradientUnits="userSpaceOnUse">
<stop stop-color="#00E0FF"/>
<stop offset="1" stop-color="#0085FF"/>
</linearGradient>
<linearGradient id="paint9_linear" x1="19.0048" y1="1.7255" x2="19.0048" y2="15.314" gradientUnits="userSpaceOnUse">
<stop stop-color="#00E0FF"/>
<stop offset="1" stop-color="#0085FF"/>
</linearGradient>
<linearGradient id="paint10_linear" x1="21.3332" y1="10.6019" x2="21.3332" y2="31.806" gradientUnits="userSpaceOnUse">
<stop stop-color="#7CFFE7"/>
<stop offset="1" stop-color="#5FCAEC"/>
</linearGradient>
<linearGradient id="paint11_linear" x1="18.908" y1="21.6146" x2="18.908" y2="31.8061" gradientUnits="userSpaceOnUse">
<stop stop-color="#00E0FF"/>
<stop offset="1" stop-color="#0085FF"/>
</linearGradient>
<linearGradient id="paint12_linear" x1="8.59447" y1="-19.5615" x2="8.59447" y2="21.2041" gradientUnits="userSpaceOnUse">
<stop stop-color="#00E0FF"/>
<stop offset="1" stop-color="#0085FF"/>
</linearGradient>
<linearGradient id="paint13_linear" x1="13.3333" y1="0" x2="13.3333" y2="26.505" gradientUnits="userSpaceOnUse">
<stop stop-color="#7CFFE7"/>
<stop offset="1" stop-color="#5FCAEC"/>
</linearGradient>
<linearGradient id="paint14_linear" x1="-1.21276" y1="11.4234" x2="-1.21276" y2="31.8061" gradientUnits="userSpaceOnUse">
<stop stop-color="#00E0FF"/>
<stop offset="1" stop-color="#0085FF"/>
</linearGradient>
<linearGradient id="paint15_linear" x1="-2.42549" y1="-9.37004" x2="-2.42549" y2="21.2041" gradientUnits="userSpaceOnUse">
<stop stop-color="#00E0FF"/>
<stop offset="1" stop-color="#0085FF"/>
</linearGradient>
<linearGradient id="paint16_linear" x1="5.33331" y1="0" x2="5.33331" y2="10.602" gradientUnits="userSpaceOnUse">
<stop stop-color="#7CFFE7"/>
<stop offset="1" stop-color="#5FCAEC"/>
</linearGradient>
<clipPath id="clip0">
<rect width="32" height="31.8061" fill="white"/>
</clipPath>
<clipPath id="clip1">
<rect width="32" height="31.8061" rx="1" fill="white"/>
</clipPath>
<clipPath id="clip2">
<rect width="32" height="31.8061" fill="white"/>
</clipPath>
</defs>
</svg>
