<svg width="32" height="32" viewBox="0 0 32 32" fill="none" xmlns="http://www.w3.org/2000/svg">
<g clip-path="url(#clip0)">
<path d="M7.13867 29.5765V30.9718C7.13867 31.4327 7.51448 31.8061 7.97805 31.8061H9.09705C9.56061 31.8061 9.93642 31.4327 9.93642 30.9718V29.5765H7.13867Z" fill="url(#paint0_linear)"/>
<path d="M22.1387 29.5765V30.9718C22.1387 31.4327 22.5145 31.8061 22.978 31.8061H24.097C24.5606 31.8061 24.9364 31.4327 24.9364 30.9718V29.5765H22.1387Z" fill="url(#paint1_linear)"/>
<path d="M11.6758 29.8182H7.47486C6.10796 29.8182 5 28.9 5 27.7675V2.0507C4.99992 0.918011 6.10789 0 7.47479 0H24.5251C25.892 0 27 0.918011 27 2.0507V8.92086V27.7674C27 28.8999 25.892 29.8181 24.5251 29.8181H11.6758" fill="url(#paint2_linear)"/>
<path d="M26.9999 2.00942C26.9999 0.89953 25.892 0 24.5251 0H7.47484C6.10795 0 5 0.89953 5 2.00942V11.9273H27V3.649" fill="url(#paint3_linear)"/>
<path d="M5 11.9318V13.6699H5.83331H8.63119H10.0301C10.4937 13.6699 10.8695 13.2963 10.8695 12.8356V11.9318H5Z" fill="url(#paint4_linear)"/>
<path d="M7.55556 8.94545C7.24879 8.94545 7 8.68453 7 8.3625V3.56476C7 3.24273 7.24873 2.98181 7.55556 2.98181H8.44444C8.75134 2.98181 9 3.24273 9 3.56476C9 3.88665 8.75134 4.1477 8.44444 4.1477H8.11113V8.36257C8.11106 8.68446 7.86233 8.94545 7.55556 8.94545Z" fill="url(#paint5_linear)"/>
<path opacity="0.15" d="M6.76216 27.7674V2.0507C6.76216 0.918009 8.21166 0 10 0H8.23774C6.44949 0 5 0.918009 5 2.0507V27.7675C5 28.8999 6.44949 29.8182 8.23774 29.8182H10C8.21166 29.8181 6.76216 28.8999 6.76216 27.7674Z" fill="black"/>
<path d="M24.5246 10.1688C24.2349 10.1688 24 9.93538 24 9.64732V2.43673C24 2.14867 24.2349 1.91528 24.5246 1.91528C24.8144 1.91528 25.0493 2.14867 25.0493 2.43673V9.64739C25.0493 9.93532 24.8144 10.1688 24.5246 10.1688Z" fill="#A8F2F4"/>
<path d="M24.5246 27.2009C24.2349 27.2009 24 26.9675 24 26.6794V26.3293C24 26.0413 24.2349 25.8079 24.5246 25.8079C24.8144 25.8079 25.0493 26.0413 25.0493 26.3293V26.6794C25.0493 26.9675 24.8144 27.2009 24.5246 27.2009Z" fill="#A8F2F4"/>
<path d="M24.5246 25.1587C24.2349 25.1587 24 24.9253 24 24.6372V14.5798C24 14.2917 24.2349 14.0583 24.5246 14.0583C24.8144 14.0583 25.0493 14.2917 25.0493 14.5798V24.6372C25.0493 24.9253 24.8144 25.1587 24.5246 25.1587Z" fill="#A8F2F4"/>
</g>
<defs>
<linearGradient id="paint0_linear" x1="8.53755" y1="29.5765" x2="8.53755" y2="31.8061" gradientUnits="userSpaceOnUse">
<stop stop-color="#A2B4CC"/>
<stop offset="1" stop-color="#404E62"/>
</linearGradient>
<linearGradient id="paint1_linear" x1="23.5375" y1="29.5765" x2="23.5375" y2="31.8061" gradientUnits="userSpaceOnUse">
<stop stop-color="#A2B4CC"/>
<stop offset="1" stop-color="#404E62"/>
</linearGradient>
<linearGradient id="paint2_linear" x1="-0.00258741" y1="-27.5082" x2="-0.00258741" y2="29.8182" gradientUnits="userSpaceOnUse">
<stop stop-color="#079FB4"/>
<stop offset="1" stop-color="#0085FF"/>
</linearGradient>
<linearGradient id="paint3_linear" x1="-0.00258741" y1="-11.0033" x2="-0.00258741" y2="11.9273" gradientUnits="userSpaceOnUse">
<stop stop-color="#00E0FF"/>
<stop offset="1" stop-color="#0085FF"/>
</linearGradient>
<linearGradient id="paint4_linear" x1="7.93475" y1="11.9318" x2="7.93475" y2="13.6699" gradientUnits="userSpaceOnUse">
<stop stop-color="#A2B4CC"/>
<stop offset="1" stop-color="#404E62"/>
</linearGradient>
<linearGradient id="paint5_linear" x1="8" y1="2.98181" x2="8" y2="8.94545" gradientUnits="userSpaceOnUse">
<stop stop-color="#A2B4CC"/>
<stop offset="1" stop-color="#404E62"/>
</linearGradient>
<clipPath id="clip0">
<rect width="32" height="31.8061" fill="white"/>
</clipPath>
</defs>
</svg>
