<svg width="32" height="32" viewBox="0 0 32 32" fill="none" xmlns="http://www.w3.org/2000/svg">
<g clip-path="url(#clip0)">
<path d="M25.3845 20.2732C25.3799 20.3098 25.3779 20.3467 25.3792 20.3835V26.7285C25.3762 27.489 24.7603 28.105 23.9998 28.1077C23.238 28.1074 22.6206 27.49 22.6204 26.7285V24.5215C22.6233 22.6936 21.2485 21.157 19.4314 20.9575C19.332 20.9473 19.2319 20.9509 19.1335 20.9685H19.1279L19.1226 23.1367C19.1431 23.1475 19.1658 23.1531 19.1887 23.1533C19.8855 23.2317 20.4126 23.8203 20.4136 24.5215V26.7285C20.4175 28.7075 22.0208 30.3108 23.9998 30.3147C25.9778 30.3083 27.5796 28.7063 27.5859 26.7285V20.3835C27.5869 20.3467 27.5852 20.3098 27.5806 20.2732H25.3845Z" fill="url(#paint0_linear)"/>
<path d="M20.9658 14.8665C20.9658 17.9136 23.436 20.3835 26.4829 20.3835C29.53 20.3835 32.0002 17.9136 32.0002 14.8665C32.0002 14.8665 32.0002 14.7395 31.9893 14.5078C31.8887 12.5759 31.4421 10.678 30.6711 8.90381C30.4917 8.50513 30.0959 8.24805 29.6589 8.24561H23.3071C22.8699 8.24805 22.4744 8.50513 22.2949 8.90381C21.5237 10.678 21.0774 12.5759 20.9768 14.5078V14.5188C20.9768 14.5684 20.9712 14.6125 20.9712 14.6511C20.9658 14.7891 20.9658 14.8665 20.9658 14.8665Z" fill="#F0C419"/>
<path d="M22.6206 13.6626C22.6206 16.1543 24.3508 18.1768 26.4827 18.1768C28.6145 18.1768 30.3447 16.1543 30.3447 13.6626C30.3447 13.6626 30.3447 13.5588 30.3372 13.3691C30.2656 11.606 29.8757 9.87012 29.1863 8.24561H23.7793C23.0898 9.87012 22.7 11.606 22.6284 13.3691V13.3782C22.6284 13.4187 22.6245 13.4551 22.6245 13.4866C22.6206 13.5994 22.6206 13.6626 22.6206 13.6626Z" fill="#F3D55B"/>
<path d="M26.4827 5.48706C26.7874 5.48706 27.0344 5.23999 27.0344 4.9353V2.17676C27.0344 1.87207 26.7874 1.625 26.4827 1.625C26.178 1.625 25.9312 1.87207 25.9312 2.17676V4.9353C25.9312 5.23999 26.178 5.48706 26.4827 5.48706Z" fill="#F3D55B"/>
<path d="M28.8903 6.52535C29.0312 6.52535 29.1665 6.47163 29.269 6.37495L31.2756 4.48164C31.4973 4.27242 31.5073 3.92305 31.298 3.70137C31.0891 3.47969 30.7397 3.46968 30.518 3.67891L28.5114 5.57222C28.3471 5.72725 28.2939 5.96724 28.3774 6.1772C28.4609 6.38741 28.6643 6.52535 28.8903 6.52535Z" fill="#F3D55B"/>
<path d="M24.0754 6.52535C24.3015 6.52535 24.5049 6.38741 24.5884 6.1772C24.6719 5.96724 24.6186 5.72725 24.4541 5.57222L22.4477 3.67891C22.2261 3.46968 21.8767 3.47969 21.6675 3.70137C21.4585 3.92305 21.4685 4.27242 21.6902 4.48164L23.6965 6.37495C23.7991 6.47163 23.9346 6.52535 24.0754 6.52535Z" fill="#F3D55B"/>
<path d="M6.61526 20.2732C6.61989 20.3098 6.62185 20.3467 6.62063 20.3835V26.7285C6.62356 27.489 7.23952 28.105 8.00002 28.1077C8.76174 28.1074 9.37917 27.49 9.37942 26.7285V24.5215C9.37649 22.6936 10.7512 21.157 12.5684 20.9575C12.6677 20.9473 12.7678 20.9509 12.8662 20.9685H12.8718L12.8772 23.1367C12.8567 23.1475 12.834 23.1531 12.8111 23.1533C12.1143 23.2317 11.5872 23.8203 11.5862 24.5215V26.7285C11.5823 28.7075 9.97902 30.3108 8.00002 30.3147C6.02199 30.3083 4.42019 28.7063 4.41384 26.7285V20.3835C4.41286 20.3467 4.41457 20.3098 4.41921 20.2732H6.61526Z" fill="url(#paint1_linear)"/>
<path d="M19.3105 22.0388C19.3105 23.8669 17.8286 25.3491 16.0002 25.3491C14.1719 25.3491 12.6899 23.8669 12.6899 22.0388C12.6899 20.2104 14.1719 18.7285 16.0002 18.7285C17.8286 18.7285 19.3105 20.2104 19.3105 22.0388Z" fill="url(#paint2_linear)"/>
<path d="M17.1035 22.0388C17.1035 22.6482 16.6094 23.1423 16 23.1423C15.3906 23.1423 14.8965 22.6482 14.8965 22.0388C14.8965 21.4294 15.3906 20.9353 16 20.9353C16.6094 20.9353 17.1035 21.4294 17.1035 22.0388Z" fill="#8697CB"/>
<path d="M11.0344 14.8665C11.0344 17.9136 8.56421 20.3835 5.51733 20.3835C2.47021 20.3835 0 17.9136 0 14.8665C0 14.8665 0 14.7395 0.0109863 14.5078C0.111572 12.5759 0.558106 10.678 1.3291 8.90381C1.50854 8.50513 1.9043 8.24805 2.34131 8.24561H8.69312C9.13037 8.24805 9.52588 8.50513 9.70532 8.90381C10.4766 10.678 10.9229 12.5759 11.0234 14.5078V14.5188C11.0234 14.5684 11.0291 14.6125 11.0291 14.6511C11.0344 14.7891 11.0344 14.8665 11.0344 14.8665Z" fill="#F0C419"/>
<path d="M9.37939 13.6626C9.37939 16.1543 7.64917 18.1768 5.51733 18.1768C3.3855 18.1768 1.65527 16.1543 1.65527 13.6626C1.65527 13.6626 1.65527 13.5588 1.66284 13.3691C1.73437 11.606 2.12427 9.87012 2.81372 8.24561H8.2207C8.91016 9.87012 9.30005 11.606 9.37158 13.3691V13.3782C9.37158 13.4187 9.37549 13.4551 9.37549 13.4866C9.37939 13.5994 9.37939 13.6626 9.37939 13.6626Z" fill="#F3D55B"/>
<path d="M5.51758 5.48706C5.21289 5.48706 4.96582 5.23999 4.96582 4.9353V2.17676C4.96582 1.87207 5.21289 1.625 5.51758 1.625C5.82227 1.625 6.06909 1.87207 6.06909 2.17676V4.9353C6.06909 5.23999 5.82227 5.48706 5.51758 5.48706Z" fill="#F3D55B"/>
<path d="M3.11008 6.52529C2.96921 6.52529 2.83396 6.47158 2.73142 6.3749L0.724824 4.48159C0.581513 4.34633 0.521211 4.14467 0.566621 3.95278C0.612275 3.76113 0.756562 3.60805 0.945527 3.55141C1.13425 3.49501 1.33908 3.5436 1.48239 3.67885L3.48898 5.57216C3.65329 5.72719 3.70651 5.96718 3.62302 6.17714C3.53952 6.38735 3.33615 6.52529 3.11008 6.52529Z" fill="#F3D55B"/>
<path d="M7.9245 6.52535C7.69842 6.52535 7.49505 6.38741 7.41156 6.1772C7.32806 5.96724 7.38128 5.72725 7.54584 5.57222L9.55219 3.67891C9.77387 3.46968 10.1232 3.47969 10.3325 3.70137C10.5414 3.92305 10.5314 4.27242 10.3098 4.48164L8.30341 6.37495C8.20087 6.47163 8.06537 6.52535 7.9245 6.52535Z" fill="#F3D55B"/>
</g>
<defs>
<linearGradient id="paint0_linear" x1="17.198" y1="11.0096" x2="17.198" y2="30.3147" gradientUnits="userSpaceOnUse">
<stop stop-color="#00E0FF"/>
<stop offset="1" stop-color="#0085FF"/>
</linearGradient>
<linearGradient id="paint1_linear" x1="2.48902" y1="11.0096" x2="2.48902" y2="30.3147" gradientUnits="userSpaceOnUse">
<stop stop-color="#00E0FF"/>
<stop offset="1" stop-color="#0085FF"/>
</linearGradient>
<linearGradient id="paint2_linear" x1="16.0002" y1="18.7285" x2="16.0002" y2="25.3491" gradientUnits="userSpaceOnUse">
<stop stop-color="#A2B4CC"/>
<stop offset="1" stop-color="#404E62"/>
</linearGradient>
<clipPath id="clip0">
<rect width="32" height="32" fill="white"/>
</clipPath>
</defs>
</svg>
