<svg width="32" height="32" viewBox="0 0 32 32" fill="none" xmlns="http://www.w3.org/2000/svg">
<path d="M5.62327 27.4599H3.61621C2.92584 27.4599 2.36621 26.9037 2.36621 26.2175V24.8813H6.87327V26.2175C6.87327 26.9036 6.31365 27.4599 5.62327 27.4599Z" fill="url(#paint0_linear)"/>
<path d="M28.384 27.4599H26.377C25.6866 27.4599 25.127 26.9037 25.127 26.2175V24.8813H29.634V26.2175C29.634 26.9036 29.0744 27.4599 28.384 27.4599Z" fill="url(#paint1_linear)"/>
<path d="M32 5.30615V24.5612C32 25.0911 31.5673 25.5212 31.0342 25.5212H23.662L23.1791 25.1372L22.6963 25.5212H0.965813C0.432688 25.5212 0 25.0911 0 24.5612V5.30615C0 4.77626 0.432688 4.34619 0.965813 4.34619H22.6962L23.1791 4.66618L23.6619 4.34619H31.0342C31.5673 4.34619 32 4.77626 32 5.30615Z" fill="url(#paint2_linear)"/>
<path d="M22.6963 4.34619H23.6621V25.5211H22.6963V4.34619Z" fill="#EEFAFF"/>
<path d="M28.7618 12.722H26.4175C26.1759 12.722 25.98 12.5273 25.98 12.2872V7.34098C25.98 7.10082 26.1759 6.90613 26.4175 6.90613H28.7618C29.0034 6.90613 29.1993 7.10082 29.1993 7.34098V12.2872C29.1993 12.5273 29.0034 12.722 28.7618 12.722Z" fill="url(#paint3_linear)"/>
<path d="M27.5897 18.1617C28.4787 18.1617 29.1994 17.4453 29.1994 16.5617C29.1994 15.6781 28.4787 14.9618 27.5897 14.9618C26.7007 14.9618 25.98 15.6781 25.98 16.5617C25.98 17.4453 26.7007 18.1617 27.5897 18.1617Z" fill="#D4E1F4"/>
<path d="M29.1993 21.1271H25.9799C25.7132 21.1271 25.4971 20.9123 25.4971 20.6472C25.4971 20.3821 25.7133 20.1672 25.9799 20.1672H29.1993C29.466 20.1672 29.6821 20.3821 29.6821 20.6472C29.6821 20.9123 29.466 21.1271 29.1993 21.1271Z" fill="#D4E1F4"/>
<path d="M29.1993 23.4413H25.9799C25.7132 23.4413 25.4971 23.2265 25.4971 22.9614C25.4971 22.6963 25.7133 22.4814 25.9799 22.4814H29.1993C29.466 22.4814 29.6821 22.6963 29.6821 22.9614C29.6821 23.2265 29.466 23.4413 29.1993 23.4413Z" fill="#D4E1F4"/>
<path d="M3.21907 22.3214L2.5752 20.0074V7.34098C2.5752 7.10082 2.77107 6.90613 3.0127 6.90613H20.1659C20.4075 6.90613 20.6034 7.10082 20.6034 7.34098V20.0073L19.9595 22.3214L3.21907 22.3214Z" fill="url(#paint4_linear)"/>
<path d="M20.6034 20.0073H2.5752V22.5265C2.5752 22.7667 2.77107 22.9614 3.0127 22.9614H20.1659C20.4075 22.9614 20.6034 22.7667 20.6034 22.5265V20.0073Z" fill="#01D0FB"/>
<path d="M4.50682 20.0073V22.9614H3.0127C2.77107 22.9614 2.5752 22.7667 2.5752 22.5265V20.0073H4.50682Z" fill="#08A9F1"/>
<path d="M3.2002 16.1H5.23482L16.2002 8.09998H14.1656L3.2002 16.1Z" fill="#A4F9FF"/>
<path d="M7.2002 19.1H9.23482L20.2002 11.1H18.1656L7.2002 19.1Z" fill="#A4F9FF"/>
<defs>
<linearGradient id="paint0_linear" x1="4.61974" y1="24.8813" x2="4.61974" y2="27.4599" gradientUnits="userSpaceOnUse">
<stop stop-color="#A2B4CC"/>
<stop offset="1" stop-color="#404E62"/>
</linearGradient>
<linearGradient id="paint1_linear" x1="27.3805" y1="24.8813" x2="27.3805" y2="27.4599" gradientUnits="userSpaceOnUse">
<stop stop-color="#A2B4CC"/>
<stop offset="1" stop-color="#404E62"/>
</linearGradient>
<linearGradient id="paint2_linear" x1="-7.27649" y1="-15.1884" x2="-7.27649" y2="25.5212" gradientUnits="userSpaceOnUse">
<stop stop-color="#0AA0B5"/>
<stop offset="1" stop-color="#0085FF"/>
</linearGradient>
<linearGradient id="paint3_linear" x1="29.1993" y1="6.90613" x2="17.6976" y2="7.84437" gradientUnits="userSpaceOnUse">
<stop stop-color="#7FF5E0"/>
<stop offset="0.862937" stop-color="#5FCAEC"/>
</linearGradient>
<linearGradient id="paint4_linear" x1="20.6034" y1="6.90613" x2="-42.3645" y2="17.7585" gradientUnits="userSpaceOnUse">
<stop stop-color="#00FFD1"/>
<stop offset="0.862937" stop-color="#5FCAEC"/>
</linearGradient>
</defs>
</svg>
