<svg width="32" height="32" viewBox="0 0 32 32" fill="none" xmlns="http://www.w3.org/2000/svg">
<path d="M3.8125 1H28.1875V31H3.8125V1Z" fill="url(#paint0_linear)"/>
<path d="M3.77094 31H1.04156C1.01861 31 1 30.8129 1 30.582V1.41801C1 1.18711 1.01861 1 1.04156 1H3.77094C3.79389 1 3.8125 1.18711 3.8125 1.41801V30.582C3.8125 30.8128 3.79389 31 3.77094 31Z" fill="url(#paint1_linear)"/>
<path d="M30.9584 31H28.2291C28.2061 31 28.1875 30.8129 28.1875 30.582V1.41801C28.1875 1.18711 28.2061 1 28.2291 1H30.9584C30.9814 1 31 1.18711 31 1.41801V30.582C31 30.8128 30.9814 31 30.9584 31Z" fill="url(#paint2_linear)"/>
<path d="M9.4375 14.1455H11.3697L21.7828 3.79541H19.8507L9.4375 14.1455Z" fill="#A4F9FF"/>
<path d="M9.4375 23.4637H11.3697L21.7828 13.1136H19.8507L9.4375 23.4637Z" fill="#A4F9FF"/>
<defs>
<linearGradient id="paint0_linear" x1="28.1875" y1="1.00001" x2="-58.2379" y2="11.3483" gradientUnits="userSpaceOnUse">
<stop stop-color="#7FF5E0"/>
<stop offset="0.862937" stop-color="#5FCAEC"/>
</linearGradient>
<linearGradient id="paint1_linear" x1="0.360465" y1="-26.676" x2="0.360465" y2="31" gradientUnits="userSpaceOnUse">
<stop stop-color="#00E0FF"/>
<stop offset="1" stop-color="#0085FF"/>
</linearGradient>
<linearGradient id="paint2_linear" x1="27.548" y1="-26.676" x2="27.548" y2="31" gradientUnits="userSpaceOnUse">
<stop stop-color="#00E0FF"/>
<stop offset="1" stop-color="#0085FF"/>
</linearGradient>
</defs>
</svg>
