<svg width="34" height="32" viewBox="0 0 34 32" fill="none" xmlns="http://www.w3.org/2000/svg">
<path d="M31.8003 7.51516H2V2.90457C2 2.37423 2.42038 1.9447 2.93887 1.9447H30.8615C31.38 1.9447 31.8003 2.37423 31.8003 2.90457V7.51516Z" fill="url(#paint0_linear)"/>
<path d="M31.8003 7.51514H2V27.439C2 27.9693 2.42038 28.3993 2.93887 28.3993H30.8615C31.38 28.3993 31.8003 27.9693 31.8003 27.439V7.51514Z" fill="url(#paint1_linear)"/>
<g filter="url(#filter0_d)">
<path d="M29.4724 12.2297V26.0422H4.32861V12.2297H29.4724Z" fill="url(#paint2_linear)"/>
</g>
<g filter="url(#filter1_d)">
<path d="M27.6094 14.1156V24.1567H6.19043V14.1156H27.6094Z" fill="#69EBFC"/>
<path d="M27.6094 14.1156V24.1567H6.19043V14.1156H27.6094Z" fill="url(#paint3_linear)"/>
<path d="M27.6094 14.1156V24.1567H6.19043V14.1156H27.6094Z" fill="url(#paint4_linear)"/>
</g>
<rect x="5.7251" y="13.5581" width="22.3503" height="11.5037" fill="url(#paint5_linear)"/>
<path d="M14.1064 15.3817H19.694V17.2874H14.1064V15.3817Z" fill="url(#paint6_linear)"/>
<path d="M3.8623 8.71179H29.9376V10.6175H3.8623V8.71179Z" fill="url(#paint7_linear)"/>
<path d="M3.85617 10.9729H3.42229C3.16125 10.9729 2.94971 10.7565 2.94971 10.4895V8.7838C2.94971 8.51679 3.16125 8.30042 3.42229 8.30042H3.85617C4.11722 8.30042 4.32876 8.51679 4.32876 8.7838V10.4895C4.32876 10.7565 4.11722 10.9729 3.85617 10.9729Z" fill="url(#paint8_linear)"/>
<path d="M30.5017 10.9729H30.0678C29.8068 10.9729 29.5952 10.7565 29.5952 10.4895V8.7838C29.5952 8.51679 29.8068 8.30042 30.0678 8.30042H30.5017C30.7623 8.30042 30.9738 8.51679 30.9738 8.7838V10.4895C30.9738 10.7565 30.7623 10.9729 30.5017 10.9729Z" fill="url(#paint9_linear)"/>
<path d="M6.6562 4.8052C6.6562 3.75272 5.82238 2.89954 4.79391 2.89954C3.76496 2.89954 2.93115 3.75272 2.93115 4.8052C2.93115 5.85767 3.76496 6.71086 4.79391 6.71086C5.82238 6.71086 6.6562 5.85767 6.6562 4.8052Z" fill="#6770E6"/>
<path d="M6.6562 4.8052C6.6562 3.75272 5.82238 2.89954 4.79391 2.89954C3.76496 2.89954 2.93115 3.75272 2.93115 4.8052C2.93115 5.85767 3.76496 6.71086 4.79391 6.71086C5.82238 6.71086 6.6562 5.85767 6.6562 4.8052Z" fill="url(#paint10_linear)"/>
<path d="M16.822 4.86419C16.822 4.07499 16.19 3.43469 15.4105 3.43469C14.6305 3.43469 13.9985 4.07499 13.9985 4.86419C13.9985 5.65339 14.6305 6.29319 15.4105 6.29319C16.19 6.29319 16.822 5.65339 16.822 4.86419Z" fill="#6770E6"/>
<path d="M16.822 4.86419C16.822 4.07499 16.19 3.43469 15.4105 3.43469C14.6305 3.43469 13.9985 4.07499 13.9985 4.86419C13.9985 5.65339 14.6305 6.29319 15.4105 6.29319C16.19 6.29319 16.822 5.65339 16.822 4.86419Z" fill="url(#paint11_linear)"/>
<path d="M21.508 4.86419C21.508 4.07499 20.8761 3.43469 20.0965 3.43469C19.3165 3.43469 18.6846 4.07499 18.6846 4.86419C18.6846 5.65339 19.3165 6.29319 20.0965 6.29319C20.8761 6.29319 21.508 5.65339 21.508 4.86419Z" fill="#6770E6"/>
<path d="M21.508 4.86419C21.508 4.07499 20.8761 3.43469 20.0965 3.43469C19.3165 3.43469 18.6846 4.07499 18.6846 4.86419C18.6846 5.65339 19.3165 6.29319 20.0965 6.29319C20.8761 6.29319 21.508 5.65339 21.508 4.86419Z" fill="url(#paint12_linear)"/>
<path d="M26.194 4.86419C26.194 4.07499 25.5621 3.43469 24.7826 3.43469C24.0026 3.43469 23.3706 4.07499 23.3706 4.86419C23.3706 5.65339 24.0026 6.29319 24.7826 6.29319C25.5621 6.29319 26.194 5.65339 26.194 4.86419Z" fill="#6770E6"/>
<path d="M26.194 4.86419C26.194 4.07499 25.5621 3.43469 24.7826 3.43469C24.0026 3.43469 23.3706 4.07499 23.3706 4.86419C23.3706 5.65339 24.0026 6.29319 24.7826 6.29319C25.5621 6.29319 26.194 5.65339 26.194 4.86419Z" fill="url(#paint13_linear)"/>
<path d="M30.8801 4.86419C30.8801 4.07499 30.2481 3.43469 29.4681 3.43469C28.6886 3.43469 28.0566 4.07499 28.0566 4.86419C28.0566 5.65339 28.6886 6.29319 29.4681 6.29319C30.2481 6.29319 30.8801 5.65339 30.8801 4.86419Z" fill="#6770E6"/>
<path d="M30.8801 4.86419C30.8801 4.07499 30.2481 3.43469 29.4681 3.43469C28.6886 3.43469 28.0566 4.07499 28.0566 4.86419C28.0566 5.65339 28.6886 6.29319 29.4681 6.29319C30.2481 6.29319 30.8801 5.65339 30.8801 4.86419Z" fill="url(#paint14_linear)"/>
<path d="M14.6184 0.993896H5.16441C4.70263 0.993896 4.32861 1.42006 4.32861 1.94673H15.4546C15.4542 1.42006 15.0802 0.993896 14.6184 0.993896Z" fill="#5861C7"/>
<path d="M14.6184 0.993896H5.16441C4.70263 0.993896 4.32861 1.42006 4.32861 1.94673H15.4546C15.4542 1.42006 15.0802 0.993896 14.6184 0.993896Z" fill="url(#paint15_linear)"/>
<path d="M28.6365 0.993896H19.0677C18.606 0.993896 18.2319 1.42006 18.2319 1.94673H29.4723C29.4723 1.42006 29.0982 0.993896 28.6365 0.993896Z" fill="#5861C7"/>
<path d="M28.6365 0.993896H19.0677C18.606 0.993896 18.2319 1.42006 18.2319 1.94673H29.4723C29.4723 1.42006 29.0982 0.993896 28.6365 0.993896Z" fill="url(#paint16_linear)"/>
<path d="M15.0376 24.765H17.0849L28.1183 13.476H26.0711L15.0376 24.765Z" fill="#A4F9FF"/>
<path d="M6.89548 30.8122H5.02638C4.38346 30.8122 3.8623 30.2789 3.8623 29.6211V28.3402H8.05956V29.6211C8.05956 30.2789 7.5384 30.8122 6.89548 30.8122Z" fill="url(#paint17_linear)"/>
<path d="M29.2461 30.8122H27.377C26.734 30.8122 26.2129 30.2789 26.2129 29.6211V28.3402H30.4101V29.6211C30.4101 30.2789 29.889 30.8122 29.2461 30.8122Z" fill="url(#paint18_linear)"/>
<defs>
<filter id="filter0_d" x="0.328613" y="8.22974" width="33.1438" height="21.8124" filterUnits="userSpaceOnUse" color-interpolation-filters="sRGB">
<feFlood flood-opacity="0" result="BackgroundImageFix"/>
<feColorMatrix in="SourceAlpha" type="matrix" values="0 0 0 0 0 0 0 0 0 0 0 0 0 0 0 0 0 0 127 0"/>
<feOffset/>
<feGaussianBlur stdDeviation="2"/>
<feColorMatrix type="matrix" values="0 0 0 0 0 0 0 0 0 0 0 0 0 0 0 0 0 0 0.1 0"/>
<feBlend mode="normal" in2="BackgroundImageFix" result="effect1_dropShadow"/>
<feBlend mode="normal" in="SourceGraphic" in2="effect1_dropShadow" result="shape"/>
</filter>
<filter id="filter1_d" x="2.19043" y="10.1156" width="29.4189" height="18.0411" filterUnits="userSpaceOnUse" color-interpolation-filters="sRGB">
<feFlood flood-opacity="0" result="BackgroundImageFix"/>
<feColorMatrix in="SourceAlpha" type="matrix" values="0 0 0 0 0 0 0 0 0 0 0 0 0 0 0 0 0 0 127 0"/>
<feOffset/>
<feGaussianBlur stdDeviation="2"/>
<feColorMatrix type="matrix" values="0 0 0 0 0 0 0 0 0 0 0 0 0 0 0 0 0 0 0.1 0"/>
<feBlend mode="normal" in2="BackgroundImageFix" result="effect1_dropShadow"/>
<feBlend mode="normal" in="SourceGraphic" in2="effect1_dropShadow" result="shape"/>
</filter>
<linearGradient id="paint0_linear" x1="-4.77631" y1="-3.19423" x2="-4.77631" y2="7.51516" gradientUnits="userSpaceOnUse">
<stop stop-color="#00E0FF"/>
<stop offset="1" stop-color="#0085FF"/>
</linearGradient>
<linearGradient id="paint1_linear" x1="-4.77631" y1="-11.7512" x2="-4.77631" y2="28.3993" gradientUnits="userSpaceOnUse">
<stop stop-color="#00E0FF"/>
<stop offset="1" stop-color="#0085FF"/>
</linearGradient>
<linearGradient id="paint2_linear" x1="16.9005" y1="12.2297" x2="16.9005" y2="26.0422" gradientUnits="userSpaceOnUse">
<stop stop-color="#BBC9DE"/>
<stop offset="1" stop-color="#66758A"/>
</linearGradient>
<linearGradient id="paint3_linear" x1="16.8999" y1="14.1156" x2="16.8999" y2="24.1567" gradientUnits="userSpaceOnUse">
<stop stop-color="#7CFFE7"/>
<stop offset="1" stop-color="#5FCAEC"/>
</linearGradient>
<linearGradient id="paint4_linear" x1="1.31997" y1="4.85237" x2="1.31997" y2="24.1567" gradientUnits="userSpaceOnUse">
<stop stop-color="#00E0FF"/>
<stop offset="1" stop-color="#0085FF"/>
</linearGradient>
<linearGradient id="paint5_linear" x1="28.0754" y1="13.5581" x2="-46.2168" y2="34.8293" gradientUnits="userSpaceOnUse">
<stop stop-color="#7FF5E0"/>
<stop offset="0.862937" stop-color="#5FCAEC"/>
</linearGradient>
<linearGradient id="paint6_linear" x1="16.9002" y1="15.3817" x2="16.9002" y2="17.2874" gradientUnits="userSpaceOnUse">
<stop stop-color="#A2B4CC"/>
<stop offset="1" stop-color="#404E62"/>
</linearGradient>
<linearGradient id="paint7_linear" x1="16.9" y1="8.71179" x2="16.9" y2="10.6175" gradientUnits="userSpaceOnUse">
<stop stop-color="#BBC9DE"/>
<stop offset="1" stop-color="#66758A"/>
</linearGradient>
<linearGradient id="paint8_linear" x1="3.63923" y1="8.30042" x2="3.63923" y2="10.9729" gradientUnits="userSpaceOnUse">
<stop stop-color="#7CFFE7"/>
<stop offset="1" stop-color="#5FCAEC"/>
</linearGradient>
<linearGradient id="paint9_linear" x1="30.2845" y1="8.30042" x2="30.2845" y2="10.9729" gradientUnits="userSpaceOnUse">
<stop stop-color="#7CFFE7"/>
<stop offset="1" stop-color="#5FCAEC"/>
</linearGradient>
<linearGradient id="paint10_linear" x1="4.79367" y1="2.89954" x2="4.79367" y2="6.71086" gradientUnits="userSpaceOnUse">
<stop stop-color="#7CFFE7"/>
<stop offset="1" stop-color="#5FCAEC"/>
</linearGradient>
<linearGradient id="paint11_linear" x1="15.4103" y1="3.43469" x2="15.4103" y2="6.29319" gradientUnits="userSpaceOnUse">
<stop stop-color="#7CFFE7"/>
<stop offset="1" stop-color="#5FCAEC"/>
</linearGradient>
<linearGradient id="paint12_linear" x1="20.0963" y1="3.43469" x2="20.0963" y2="6.29319" gradientUnits="userSpaceOnUse">
<stop stop-color="#7CFFE7"/>
<stop offset="1" stop-color="#5FCAEC"/>
</linearGradient>
<linearGradient id="paint13_linear" x1="24.7823" y1="3.43469" x2="24.7823" y2="6.29319" gradientUnits="userSpaceOnUse">
<stop stop-color="#7CFFE7"/>
<stop offset="1" stop-color="#5FCAEC"/>
</linearGradient>
<linearGradient id="paint14_linear" x1="29.4684" y1="3.43469" x2="29.4684" y2="6.29319" gradientUnits="userSpaceOnUse">
<stop stop-color="#7CFFE7"/>
<stop offset="1" stop-color="#5FCAEC"/>
</linearGradient>
<linearGradient id="paint15_linear" x1="9.89162" y1="0.993896" x2="9.89162" y2="1.94673" gradientUnits="userSpaceOnUse">
<stop stop-color="#A2B4CC"/>
<stop offset="1" stop-color="#404E62"/>
</linearGradient>
<linearGradient id="paint16_linear" x1="23.8521" y1="0.993896" x2="23.8521" y2="1.94673" gradientUnits="userSpaceOnUse">
<stop stop-color="#A2B4CC"/>
<stop offset="1" stop-color="#404E62"/>
</linearGradient>
<linearGradient id="paint17_linear" x1="5.96093" y1="28.3402" x2="5.96093" y2="30.8122" gradientUnits="userSpaceOnUse">
<stop stop-color="#A2B4CC"/>
<stop offset="1" stop-color="#404E62"/>
</linearGradient>
<linearGradient id="paint18_linear" x1="28.3115" y1="28.3402" x2="28.3115" y2="30.8122" gradientUnits="userSpaceOnUse">
<stop stop-color="#A2B4CC"/>
<stop offset="1" stop-color="#404E62"/>
</linearGradient>
</defs>
</svg>
