<svg width="33" height="32" viewBox="0 0 33 32" fill="none" xmlns="http://www.w3.org/2000/svg">
<rect x="2" y="2" width="28" height="28" fill="url(#paint0_linear)"/>
<rect x="5.7334" y="5.7334" width="20.5333" height="20.5333" fill="url(#paint1_linear)"/>
<circle cx="16.0002" cy="16" r="4.66667" fill="#F8EC7D"/>
<circle cx="16" cy="16" r="1.86667" fill="white"/>
<rect width="22.4" height="3.73333" transform="matrix(0 -1 -1 0 8.5332 27.2001)" fill="url(#paint2_linear)"/>
<rect x="23.4668" y="27.2001" width="22.4" height="3.73333" transform="rotate(-90 23.4668 27.2001)" fill="url(#paint3_linear)"/>
<rect x="4.80029" y="23.4667" width="22.4" height="3.73333" fill="url(#paint4_linear)"/>
<rect x="4.80029" y="4.80005" width="22.4" height="3.73333" fill="url(#paint5_linear)"/>
<defs>
<linearGradient id="paint0_linear" x1="16" y1="2" x2="16" y2="30" gradientUnits="userSpaceOnUse">
<stop stop-color="#A2B4CC"/>
<stop offset="1" stop-color="#404E62"/>
</linearGradient>
<linearGradient id="paint1_linear" x1="1.06432" y1="-13.2093" x2="1.06432" y2="26.2667" gradientUnits="userSpaceOnUse">
<stop stop-color="#E3E6E7"/>
<stop offset="1" stop-color="#0085FF"/>
</linearGradient>
<linearGradient id="paint2_linear" x1="-5.09354" y1="-3.44412" x2="-5.09354" y2="3.73333" gradientUnits="userSpaceOnUse">
<stop stop-color="#003C44"/>
<stop offset="1" stop-color="#0085FF"/>
</linearGradient>
<linearGradient id="paint3_linear" x1="18.3733" y1="23.756" x2="18.3733" y2="30.9334" gradientUnits="userSpaceOnUse">
<stop stop-color="#003C44"/>
<stop offset="1" stop-color="#0085FF"/>
</linearGradient>
<linearGradient id="paint4_linear" x1="-0.29325" y1="20.0226" x2="-0.29325" y2="27.2" gradientUnits="userSpaceOnUse">
<stop stop-color="#003C44"/>
<stop offset="1" stop-color="#0085FF"/>
</linearGradient>
<linearGradient id="paint5_linear" x1="-0.29325" y1="1.35593" x2="-0.29325" y2="8.53338" gradientUnits="userSpaceOnUse">
<stop stop-color="#003C44"/>
<stop offset="1" stop-color="#0085FF"/>
</linearGradient>
</defs>
</svg>
