<svg width="32" height="32" viewBox="0 0 32 32" fill="none" xmlns="http://www.w3.org/2000/svg">
<rect width="2" height="4" rx="1" transform="matrix(0 -1 -1 0 10.7988 20)" fill="url(#paint0_linear)"/>
<rect width="1.5" height="4" rx="0.75" transform="matrix(-1 0 0 1 11.2988 17)" fill="url(#paint1_linear)"/>
<path d="M7.46637 27.4305C7.64341 27.4305 7.8132 27.3604 7.93839 27.2355C8.06358 27.1106 8.13391 26.9413 8.13391 26.7647V9.78081C8.13391 9.77681 8.13391 9.77304 8.13391 9.76905C8.13447 8.14972 9.49291 6.83224 11.1625 6.83224C11.8633 6.82589 12.5443 7.06361 13.0882 7.50443C13.632 7.94525 14.0047 8.56154 14.1418 9.24703L12.2825 9.6826C12.196 9.70153 12.1143 9.7374 12.0419 9.78814C11.9695 9.83887 11.9079 9.90346 11.8608 9.97814C11.8136 10.0528 11.7818 10.1361 11.7672 10.2231C11.7526 10.3102 11.7555 10.3992 11.7758 10.4852C11.796 10.5711 11.9592 11.0304 12.0111 11.1018C12.063 11.1733 12.1287 11.2338 12.2042 11.2797C12.2798 11.3256 12.3637 11.3562 12.4512 11.3694C12.5386 11.3827 12.6279 11.3786 12.7137 11.3571L15.0501 10.8098C15.1068 10.804 15.1625 10.791 15.2158 10.771L17.5357 10.2272C17.6216 10.2077 17.7027 10.1715 17.7745 10.1206C17.8462 10.0697 17.9072 10.0051 17.9538 9.93063C18.0004 9.85614 18.0318 9.77318 18.0462 9.68653C18.0606 9.59988 18.0576 9.51125 18.0375 9.42575C18.0173 9.34025 17.8544 8.88131 17.8028 8.81009C17.7513 8.73887 17.6862 8.67852 17.6112 8.63252C17.5362 8.58651 17.4528 8.55576 17.3658 8.54204C17.2788 8.52832 17.19 8.53189 17.1044 8.55255L15.4425 8.94185C15.2354 7.9644 14.6965 7.08818 13.9167 6.4612C13.1369 5.83422 12.1641 5.4949 11.1625 5.50056C8.7683 5.50056 6.81897 7.39721 6.80027 9.73531C6.80027 9.74508 6.79883 9.75451 6.79883 9.76439V26.7647C6.79883 26.9413 6.86916 27.1106 6.99435 27.2355C7.11953 27.3604 7.28933 27.4305 7.46637 27.4305Z" fill="#979898"/>
<path d="M7.46637 27.4305C7.64341 27.4305 7.8132 27.3604 7.93839 27.2355C8.06358 27.1106 8.13391 26.9413 8.13391 26.7647V9.78081C8.13391 9.77681 8.13391 9.77304 8.13391 9.76905C8.13447 8.14972 9.49291 6.83224 11.1625 6.83224C11.8633 6.82589 12.5443 7.06361 13.0882 7.50443C13.632 7.94525 14.0047 8.56154 14.1418 9.24703L12.2825 9.6826C12.196 9.70153 12.1143 9.7374 12.0419 9.78814C11.9695 9.83887 11.9079 9.90346 11.8608 9.97814C11.8136 10.0528 11.7818 10.1361 11.7672 10.2231C11.7526 10.3102 11.7555 10.3992 11.7758 10.4852C11.796 10.5711 11.9592 11.0304 12.0111 11.1018C12.063 11.1733 12.1287 11.2338 12.2042 11.2797C12.2798 11.3256 12.3637 11.3562 12.4512 11.3694C12.5386 11.3827 12.6279 11.3786 12.7137 11.3571L15.0501 10.8098C15.1068 10.804 15.1625 10.791 15.2158 10.771L17.5357 10.2272C17.6216 10.2077 17.7027 10.1715 17.7745 10.1206C17.8462 10.0697 17.9072 10.0051 17.9538 9.93063C18.0004 9.85614 18.0318 9.77318 18.0462 9.68653C18.0606 9.59988 18.0576 9.51125 18.0375 9.42575C18.0173 9.34025 17.8544 8.88131 17.8028 8.81009C17.7513 8.73887 17.6862 8.67852 17.6112 8.63252C17.5362 8.58651 17.4528 8.55576 17.3658 8.54204C17.2788 8.52832 17.19 8.53189 17.1044 8.55255L15.4425 8.94185C15.2354 7.9644 14.6965 7.08818 13.9167 6.4612C13.1369 5.83422 12.1641 5.4949 11.1625 5.50056C8.7683 5.50056 6.81897 7.39721 6.80027 9.73531C6.80027 9.74508 6.79883 9.75451 6.79883 9.76439V26.7647C6.79883 26.9413 6.86916 27.1106 6.99435 27.2355C7.11953 27.3604 7.28933 27.4305 7.46637 27.4305Z" fill="url(#paint2_linear)"/>
<path d="M11.4047 12.4094C11.177 11.7723 11.5679 11.0815 12.2313 10.9487L18.2631 9.74099C18.8385 9.62578 19.402 9.98662 19.538 10.5575C19.6806 11.156 19.3002 11.7539 18.6977 11.8783L12.6732 13.1222C12.1318 13.2339 11.5908 12.9299 11.4047 12.4094Z" fill="url(#paint3_linear)"/>
<path d="M11.9815 10.922L18.0336 9.66113C18.6265 9.51287 18.9779 9.72872 19.2939 10.0395L11.3506 11.8047C11.5253 11.3538 11.6519 11.0482 11.9815 10.922Z" fill="#A4C9FF"/>
<rect x="13.6973" y="14.1082" width="0.8" height="2" rx="0.4" transform="rotate(-13.4348 13.6973 14.1082)" fill="url(#paint4_linear)"/>
<rect x="15.6172" y="13.5979" width="0.8" height="2" rx="0.4" transform="rotate(-13.4348 15.6172 13.5979)" fill="url(#paint5_linear)"/>
<rect x="17.6367" y="12.9875" width="0.8" height="2" rx="0.4" transform="rotate(-13.4348 17.6367 12.9875)" fill="url(#paint6_linear)"/>
<path d="M10.5409 26.5564C10.3218 26.5568 10.1053 26.5086 9.90702 26.4153C5.61954 24.3727 3.01055 20.6876 2.8645 16.5049H1C1.14605 20.6876 3.75505 24.3731 8.04265 26.4156C8.24094 26.5089 8.45744 26.5571 8.67658 26.5567L21.4081 26.5586H21.4173L10.5409 26.5564Z" fill="url(#paint7_linear)" fill-opacity="0.05"/>
<path d="M26.0656 27H29.9866C30.4421 27 30.7988 27.6477 30.7988 28.4744V28.6452C30.7988 29.2604 30.6013 29.7756 30.3123 30L4.27731 29.9931C3.99299 29.7656 3.79883 29.2545 3.79883 28.6452V28.4744C3.79883 27.6477 4.15554 27 4.61102 27H20.9225H26.0656Z" fill="url(#paint8_linear)"/>
<path d="M3.79883 6.73323L3.79883 2.81219C3.79883 2.35671 4.4465 2 5.27322 2H5.44399C6.05921 2 6.57444 2.19756 6.79883 2.48655L6.79194 28.5215C6.5644 28.8058 6.05335 29 5.44399 29H5.27322C4.4465 29 3.79883 28.6433 3.79883 28.1878L3.79883 11.8763L3.79883 6.73323Z" fill="url(#paint9_linear)"/>
<defs>
<linearGradient id="paint0_linear" x1="1" y1="0" x2="1" y2="4" gradientUnits="userSpaceOnUse">
<stop stop-color="#A2B4CC"/>
<stop offset="1" stop-color="#404E62"/>
</linearGradient>
<linearGradient id="paint1_linear" x1="0.75" y1="0" x2="0.75" y2="4" gradientUnits="userSpaceOnUse">
<stop stop-color="#A2B4CC"/>
<stop offset="1" stop-color="#404E62"/>
</linearGradient>
<linearGradient id="paint2_linear" x1="12.3639" y1="5.50049" x2="12.3639" y2="22.8914" gradientUnits="userSpaceOnUse">
<stop stop-color="#A2B4CC"/>
<stop offset="1" stop-color="#404E62"/>
</linearGradient>
<linearGradient id="paint3_linear" x1="15.7415" y1="9.84981" x2="15.7415" y2="13.0019" gradientUnits="userSpaceOnUse">
<stop stop-color="#A2B4CC"/>
<stop offset="1" stop-color="#404E62"/>
</linearGradient>
<linearGradient id="paint4_linear" x1="13.5154" y1="12.2631" x2="13.5154" y2="16.1082" gradientUnits="userSpaceOnUse">
<stop stop-color="#00E0FF"/>
<stop offset="1" stop-color="#0085FF"/>
</linearGradient>
<linearGradient id="paint5_linear" x1="15.4353" y1="11.7528" x2="15.4353" y2="15.5979" gradientUnits="userSpaceOnUse">
<stop stop-color="#00E0FF"/>
<stop offset="1" stop-color="#0085FF"/>
</linearGradient>
<linearGradient id="paint6_linear" x1="17.4548" y1="11.1425" x2="17.4548" y2="14.9875" gradientUnits="userSpaceOnUse">
<stop stop-color="#00E0FF"/>
<stop offset="1" stop-color="#0085FF"/>
</linearGradient>
<linearGradient id="paint7_linear" x1="11.2087" y1="16.5049" x2="11.2087" y2="26.5586" gradientUnits="userSpaceOnUse">
<stop stop-color="white"/>
<stop offset="1" stop-color="white" stop-opacity="0"/>
</linearGradient>
<linearGradient id="paint8_linear" x1="-2.34071" y1="24.2324" x2="-2.34071" y2="30" gradientUnits="userSpaceOnUse">
<stop stop-color="#00E0FF"/>
<stop offset="1" stop-color="#0085FF"/>
</linearGradient>
<linearGradient id="paint9_linear" x1="1.03123" y1="35.1395" x2="6.79883" y2="35.1395" gradientUnits="userSpaceOnUse">
<stop stop-color="#00E0FF"/>
<stop offset="1" stop-color="#0085FF"/>
</linearGradient>
</defs>
</svg>
