<svg width="32" height="32" viewBox="0 0 32 32" fill="none" xmlns="http://www.w3.org/2000/svg">
<g clip-path="url(#clip0)">
<path d="M15.778 31.8061H14.7928L8.60022 31.8061L2.3136 31.8061H1.3284C1.14704 31.8061 1 31.5912 1 31.3261V0.479971C1 0.214899 1.14704 0 1.3284 0H15.778C15.9594 0 16.1064 0.214899 16.1064 0.479971V31.3261C16.1064 31.5912 15.9594 31.8061 15.778 31.8061Z" fill="url(#paint0_linear)"/>
<path d="M1.97705 0.993896H15.2233V30.8121H1.97705V0.993896Z" fill="url(#paint1_linear)"/>
<rect x="3.10645" y="3" width="1" height="5" fill="url(#paint2_linear)"/>
<rect x="3.10645" y="24" width="1" height="5" fill="url(#paint3_linear)"/>
<rect x="4.10645" y="3" width="4" height="1" fill="url(#paint4_linear)"/>
<rect x="4.10645" y="28" width="4" height="1" fill="url(#paint5_linear)"/>
<rect x="13.1064" y="14" width="1.3" height="4" rx="0.65" fill="url(#paint6_linear)"/>
<path d="M15.4348 31.8061H16.42L22.6127 31.8061L28.8993 31.8061H29.8845C30.0659 31.8061 30.2129 31.5912 30.2129 31.3261V0.479971C30.2129 0.214899 30.0659 0 29.8845 0H15.4348C15.2535 0 15.1064 0.214899 15.1064 0.479971V31.3261C15.1064 31.5912 15.2535 31.8061 15.4348 31.8061Z" fill="url(#paint7_linear)"/>
<path d="M29.2358 0.993896H15.9896V30.8121H29.2358V0.993896Z" fill="url(#paint8_linear)"/>
<rect width="1" height="5" transform="matrix(-1 0 0 1 28.1064 3)" fill="url(#paint9_linear)"/>
<rect width="1" height="5" transform="matrix(-1 0 0 1 28.1064 24)" fill="url(#paint10_linear)"/>
<rect width="4" height="1" transform="matrix(-1 0 0 1 27.1064 3)" fill="url(#paint11_linear)"/>
<rect width="4" height="1" transform="matrix(-1 0 0 1 27.1064 28)" fill="url(#paint12_linear)"/>
<rect width="1.3" height="4" rx="0.65" transform="matrix(-1 0 0 1 18.1064 14)" fill="url(#paint13_linear)"/>
<path d="M2 19.9855H4.06098L15.1684 8.94543H13.1074L2 19.9855Z" fill="#A4F9FF"/>
<path d="M16 24.9552H18.061L29.1684 13.9152H27.1074L16 24.9552Z" fill="#A4F9FF"/>
</g>
<defs>
<linearGradient id="paint0_linear" x1="-2.43506" y1="-29.3421" x2="-2.43506" y2="31.8061" gradientUnits="userSpaceOnUse">
<stop stop-color="#00E0FF"/>
<stop offset="1" stop-color="#0085FF"/>
</linearGradient>
<linearGradient id="paint1_linear" x1="15.2233" y1="0.993907" x2="-32.2135" y2="4.09941" gradientUnits="userSpaceOnUse">
<stop stop-color="#7FF5E0"/>
<stop offset="0.862937" stop-color="#5FCAEC"/>
</linearGradient>
<linearGradient id="paint2_linear" x1="3.60645" y1="3" x2="3.60645" y2="8" gradientUnits="userSpaceOnUse">
<stop stop-color="#A2B4CC"/>
<stop offset="1" stop-color="#404E62"/>
</linearGradient>
<linearGradient id="paint3_linear" x1="3.60645" y1="24" x2="3.60645" y2="29" gradientUnits="userSpaceOnUse">
<stop stop-color="#A2B4CC"/>
<stop offset="1" stop-color="#404E62"/>
</linearGradient>
<linearGradient id="paint4_linear" x1="6.10645" y1="3" x2="6.10645" y2="4" gradientUnits="userSpaceOnUse">
<stop stop-color="#A2B4CC"/>
<stop offset="1" stop-color="#404E62"/>
</linearGradient>
<linearGradient id="paint5_linear" x1="6.10645" y1="28" x2="6.10645" y2="29" gradientUnits="userSpaceOnUse">
<stop stop-color="#A2B4CC"/>
<stop offset="1" stop-color="#404E62"/>
</linearGradient>
<linearGradient id="paint6_linear" x1="13.7564" y1="14" x2="13.7564" y2="18" gradientUnits="userSpaceOnUse">
<stop stop-color="#A2B4CC"/>
<stop offset="1" stop-color="#404E62"/>
</linearGradient>
<linearGradient id="paint7_linear" x1="33.648" y1="-29.3421" x2="33.648" y2="31.8061" gradientUnits="userSpaceOnUse">
<stop stop-color="#00E0FF"/>
<stop offset="1" stop-color="#0085FF"/>
</linearGradient>
<linearGradient id="paint8_linear" x1="15.9896" y1="0.993907" x2="63.4264" y2="4.09941" gradientUnits="userSpaceOnUse">
<stop stop-color="#7FF5E0"/>
<stop offset="0.862937" stop-color="#5FCAEC"/>
</linearGradient>
<linearGradient id="paint9_linear" x1="0.5" y1="0" x2="0.5" y2="5" gradientUnits="userSpaceOnUse">
<stop stop-color="#A2B4CC"/>
<stop offset="1" stop-color="#404E62"/>
</linearGradient>
<linearGradient id="paint10_linear" x1="0.5" y1="0" x2="0.5" y2="5" gradientUnits="userSpaceOnUse">
<stop stop-color="#A2B4CC"/>
<stop offset="1" stop-color="#404E62"/>
</linearGradient>
<linearGradient id="paint11_linear" x1="2" y1="0" x2="2" y2="1" gradientUnits="userSpaceOnUse">
<stop stop-color="#A2B4CC"/>
<stop offset="1" stop-color="#404E62"/>
</linearGradient>
<linearGradient id="paint12_linear" x1="2" y1="0" x2="2" y2="1" gradientUnits="userSpaceOnUse">
<stop stop-color="#A2B4CC"/>
<stop offset="1" stop-color="#404E62"/>
</linearGradient>
<linearGradient id="paint13_linear" x1="0.65" y1="0" x2="0.65" y2="4" gradientUnits="userSpaceOnUse">
<stop stop-color="#A2B4CC"/>
<stop offset="1" stop-color="#404E62"/>
</linearGradient>
<clipPath id="clip0">
<rect width="32" height="31.8061" fill="white"/>
</clipPath>
</defs>
</svg>
