<svg width="32" height="32" viewBox="0 0 32 32" fill="none" xmlns="http://www.w3.org/2000/svg">
<path d="M8 0.19397H24V32H8V0.19397Z" fill="url(#paint0_linear)"/>
<path d="M7.88177 32H0.118226C0.0529402 32 0 31.8017 0 31.5569V0.637147C0 0.392349 0.0529402 0.19397 0.118226 0.19397H7.88177C7.94706 0.19397 8 0.392349 8 0.637147V31.5569C8 31.8016 7.94708 32 7.88177 32Z" fill="url(#paint1_linear)"/>
<path d="M31.8818 32H24.1182C24.0529 32 24 31.8017 24 31.5569V0.637147C24 0.392349 24.0529 0.19397 24.1182 0.19397H31.8818C31.9471 0.19397 32 0.392349 32 0.637147V31.5569C32 31.8016 31.9471 32 31.8818 32Z" fill="url(#paint2_linear)"/>
<rect x="24.8003" y="6.15857" width="6.5" height="3.97576" fill="url(#paint3_linear)"/>
<path d="M24.8003 6.15857V6.50645V6.85433L31.3003 6.85433V6.15857H24.8003Z" fill="url(#paint4_linear)"/>
<rect width="1" height="3" rx="0.5" transform="matrix(0 -1 -1 0 29.5498 8.89404)" fill="url(#paint5_linear)"/>
<rect x="0.799805" y="6.15857" width="6.5" height="3.97576" fill="url(#paint6_linear)"/>
<path d="M0.799805 6.15857V6.50645V6.85433L7.2998 6.85433V6.15857H0.799805Z" fill="url(#paint7_linear)"/>
<rect width="1" height="3" rx="0.5" transform="matrix(0 -1 -1 0 5.54932 8.89404)" fill="url(#paint8_linear)"/>
<rect x="24.8003" y="14.1101" width="6.5" height="3.97576" fill="url(#paint9_linear)"/>
<path d="M24.8003 14.1101V14.458V14.8059L31.3003 14.8059V14.1101H24.8003Z" fill="url(#paint10_linear)"/>
<rect width="1" height="3" rx="0.5" transform="matrix(0 -1 -1 0 29.5498 16.8942)" fill="url(#paint11_linear)"/>
<rect x="0.799805" y="14.1101" width="6.5" height="3.97576" fill="url(#paint12_linear)"/>
<path d="M0.799805 14.1101V14.458V14.8059L7.2998 14.8059V14.1101H0.799805Z" fill="url(#paint13_linear)"/>
<rect width="1" height="3" rx="0.5" transform="matrix(0 -1 -1 0 5.54932 16.8942)" fill="url(#paint14_linear)"/>
<rect x="24.8003" y="22.0616" width="6.5" height="3.97576" fill="url(#paint15_linear)"/>
<path d="M24.8003 22.0616V22.4095V22.7574L31.3003 22.7574V22.0616H24.8003Z" fill="url(#paint16_linear)"/>
<rect width="1" height="3" rx="0.5" transform="matrix(0 -1 -1 0 29.5498 24.8942)" fill="url(#paint17_linear)"/>
<rect x="0.799805" y="22.0616" width="6.5" height="3.97576" fill="url(#paint18_linear)"/>
<path d="M0.799805 22.0616V22.4095V22.7574L7.2998 22.7574V22.0616H0.799805Z" fill="url(#paint19_linear)"/>
<rect width="1" height="3" rx="0.5" transform="matrix(0 -1 -1 0 5.54932 24.8942)" fill="url(#paint20_linear)"/>
<path d="M9 14.2159H11.061L22.1684 3.17578H20.1074L9 14.2159Z" fill="#A4F9FF"/>
<path d="M9 24.1553H11.061L22.1684 13.1152H20.1074L9 24.1553Z" fill="#A4F9FF"/>
<defs>
<linearGradient id="paint0_linear" x1="24" y1="0.193981" x2="-33.2293" y2="4.43659" gradientUnits="userSpaceOnUse">
<stop stop-color="#7FF5E0"/>
<stop offset="0.862937" stop-color="#5FCAEC"/>
</linearGradient>
<linearGradient id="paint1_linear" x1="-1.81912" y1="-29.1482" x2="-1.81912" y2="32" gradientUnits="userSpaceOnUse">
<stop stop-color="#00E0FF"/>
<stop offset="1" stop-color="#0085FF"/>
</linearGradient>
<linearGradient id="paint2_linear" x1="22.1809" y1="-29.1482" x2="22.1809" y2="32" gradientUnits="userSpaceOnUse">
<stop stop-color="#00E0FF"/>
<stop offset="1" stop-color="#0085FF"/>
</linearGradient>
<linearGradient id="paint3_linear" x1="23.3223" y1="2.4908" x2="23.3223" y2="10.1343" gradientUnits="userSpaceOnUse">
<stop stop-color="#003C44"/>
<stop offset="1" stop-color="#0085FF"/>
</linearGradient>
<linearGradient id="paint4_linear" x1="28.0503" y1="6.15857" x2="28.0503" y2="6.85433" gradientUnits="userSpaceOnUse">
<stop stop-color="#A2B4CC"/>
<stop offset="1" stop-color="#404E62"/>
</linearGradient>
<linearGradient id="paint5_linear" x1="0.5" y1="0" x2="0.5" y2="3" gradientUnits="userSpaceOnUse">
<stop stop-color="#0098FF"/>
<stop offset="1" stop-color="#404E62"/>
</linearGradient>
<linearGradient id="paint6_linear" x1="-0.678233" y1="2.4908" x2="-0.678233" y2="10.1343" gradientUnits="userSpaceOnUse">
<stop stop-color="#003C44"/>
<stop offset="1" stop-color="#0085FF"/>
</linearGradient>
<linearGradient id="paint7_linear" x1="4.0498" y1="6.15857" x2="4.0498" y2="6.85433" gradientUnits="userSpaceOnUse">
<stop stop-color="#A2B4CC"/>
<stop offset="1" stop-color="#404E62"/>
</linearGradient>
<linearGradient id="paint8_linear" x1="0.5" y1="0" x2="0.5" y2="3" gradientUnits="userSpaceOnUse">
<stop stop-color="#0098FF"/>
<stop offset="1" stop-color="#404E62"/>
</linearGradient>
<linearGradient id="paint9_linear" x1="23.3223" y1="10.4423" x2="23.3223" y2="18.0859" gradientUnits="userSpaceOnUse">
<stop stop-color="#003C44"/>
<stop offset="1" stop-color="#0085FF"/>
</linearGradient>
<linearGradient id="paint10_linear" x1="28.0503" y1="14.1101" x2="28.0503" y2="14.8059" gradientUnits="userSpaceOnUse">
<stop stop-color="#A2B4CC"/>
<stop offset="1" stop-color="#404E62"/>
</linearGradient>
<linearGradient id="paint11_linear" x1="0.5" y1="0" x2="0.5" y2="3" gradientUnits="userSpaceOnUse">
<stop stop-color="#0098FF"/>
<stop offset="1" stop-color="#404E62"/>
</linearGradient>
<linearGradient id="paint12_linear" x1="-0.678233" y1="10.4423" x2="-0.678233" y2="18.0859" gradientUnits="userSpaceOnUse">
<stop stop-color="#003C44"/>
<stop offset="1" stop-color="#0085FF"/>
</linearGradient>
<linearGradient id="paint13_linear" x1="4.0498" y1="14.1101" x2="4.0498" y2="14.8059" gradientUnits="userSpaceOnUse">
<stop stop-color="#A2B4CC"/>
<stop offset="1" stop-color="#404E62"/>
</linearGradient>
<linearGradient id="paint14_linear" x1="0.5" y1="0" x2="0.5" y2="3" gradientUnits="userSpaceOnUse">
<stop stop-color="#0098FF"/>
<stop offset="1" stop-color="#404E62"/>
</linearGradient>
<linearGradient id="paint15_linear" x1="23.3223" y1="18.3939" x2="23.3223" y2="26.0374" gradientUnits="userSpaceOnUse">
<stop stop-color="#003C44"/>
<stop offset="1" stop-color="#0085FF"/>
</linearGradient>
<linearGradient id="paint16_linear" x1="28.0503" y1="22.0616" x2="28.0503" y2="22.7574" gradientUnits="userSpaceOnUse">
<stop stop-color="#A2B4CC"/>
<stop offset="1" stop-color="#404E62"/>
</linearGradient>
<linearGradient id="paint17_linear" x1="0.5" y1="0" x2="0.5" y2="3" gradientUnits="userSpaceOnUse">
<stop stop-color="#0098FF"/>
<stop offset="1" stop-color="#404E62"/>
</linearGradient>
<linearGradient id="paint18_linear" x1="-0.678233" y1="18.3939" x2="-0.678233" y2="26.0374" gradientUnits="userSpaceOnUse">
<stop stop-color="#003C44"/>
<stop offset="1" stop-color="#0085FF"/>
</linearGradient>
<linearGradient id="paint19_linear" x1="4.0498" y1="22.0616" x2="4.0498" y2="22.7574" gradientUnits="userSpaceOnUse">
<stop stop-color="#A2B4CC"/>
<stop offset="1" stop-color="#404E62"/>
</linearGradient>
<linearGradient id="paint20_linear" x1="0.5" y1="0" x2="0.5" y2="3" gradientUnits="userSpaceOnUse">
<stop stop-color="#0098FF"/>
<stop offset="1" stop-color="#404E62"/>
</linearGradient>
</defs>
</svg>
