<svg width="32" height="32" viewBox="0 0 32 32" fill="none" xmlns="http://www.w3.org/2000/svg">
<rect x="2" y="2.87976" width="11" height="19.8788" fill="url(#paint0_linear)"/>
<rect x="13" y="2.87976" width="11" height="19.8788" fill="url(#paint1_linear)"/>
<path d="M24 3.37671L30 6.8555L29.5 26.2373L24 23.0546V3.37671Z" fill="url(#paint2_linear)"/>
<path d="M1.99064 2.99376C1.90531 3.17753 1.84842 6.57018 1.84842 13.0303V22.7983L2.49975 23.0546L1.77441 23.4221L1.79575 23.8603L1.81708 24.2985L1.85975 25.175L12.2733 25.3145L24.0493 25.3428L26.9222 27.1805C29.7524 28.9899 29.8093 29.0182 30.62 29.0182H30.5V28.0242C30.5 27.0347 30.5 27.0303 30.5 26.5333L30.4351 26.4454V16.4937V6.55604L29.8235 6.1461C29.4964 5.91992 28.1311 5.05762 26.7942 4.2236L24.348 2.72518H13.2546C2.41731 2.72518 2.13287 2.72518 1.99064 2.99376ZM12.7995 13.1152V22.657H7.82175H2.84398V13.1152V3.57334H7.82175H12.7995V13.1152ZM23.7506 13.1152V22.657L18.7444 22.6287L13.724 22.5863L13.6813 13.0728L13.6529 3.57334H18.7018H23.7506V13.1152ZM27.164 5.50998L29.5818 7.00839V16.3947C29.5818 21.5402 29.5391 25.7669 29.4822 25.7669C29.4111 25.7669 28.316 25.1025 27.0218 24.2968L24.6751 22.8266L24.6324 13.412C24.6182 8.23823 24.6324 3.99742 24.6751 3.99742C24.7178 3.99742 25.8413 4.67595 27.164 5.50998ZM23.7506 23.9999V24.4947H12.5151C5.19279 24.4947 2.84154 24.4878 2.11967 24.4079C1.87409 24.3808 1.81708 24.3452 1.81708 24.2985C2.22521 23.9968 2.47555 23.7683 2.61093 23.6059C3.03379 23.0985 2.33509 23.2358 1.81998 23.802C1.98618 23.7102 2.13291 23.6482 2.61093 23.6059C3.60314 23.518 6.0227 23.5147 13.0065 23.5052C13.0228 23.5052 13.0392 23.5052 13.0555 23.5051H23.7506V23.9999ZM27.676 25.7245C30.0369 27.2088 30.5 27.7698 30.5 28.0242C30.5 28.2363 30.492 28.17 30.3355 28.17C30.1933 28.17 28.8706 27.3784 27.3773 26.4313C25.0875 24.947 24.6751 24.636 24.6324 24.3109C24.604 24.0989 24.6324 23.9292 24.6751 23.9292C24.732 23.9292 26.0831 24.735 27.676 25.7245Z" fill="url(#paint3_linear)"/>
<path d="M1.84842 22.7983L2.49975 23.0546L1.77441 23.4221L1.84842 22.7983Z" fill="url(#paint4_linear)"/>
<path d="M27.676 25.7245C30.0369 27.2088 30.5 27.7698 30.5 28.0242C30.5 28.2363 30.492 28.17 30.3355 28.17C30.1933 28.17 28.8706 27.3784 27.3773 26.4313C25.0875 24.947 24.6751 24.636 24.6324 24.3109C24.604 24.0989 24.6324 23.9292 24.6751 23.9292C24.732 23.9292 26.0831 24.735 27.676 25.7245Z" fill="url(#paint5_linear)"/>
<path d="M23.7506 23.9999V24.4947H12.5151C5.19279 24.4947 2.84154 24.4878 2.11967 24.4079L1.81708 24.2985C2.22521 23.9968 2.47555 23.7683 2.61093 23.6059C3.60314 23.518 6.0227 23.5147 13.0065 23.5052L13.0555 23.5051H23.7506V23.9999Z" fill="url(#paint6_linear)"/>
<defs>
<linearGradient id="paint0_linear" x1="-0.501294" y1="-15.4591" x2="-0.501294" y2="22.7586" gradientUnits="userSpaceOnUse">
<stop stop-color="#00E0FF"/>
<stop offset="1" stop-color="#0085FF"/>
</linearGradient>
<linearGradient id="paint1_linear" x1="10.4987" y1="-15.4591" x2="10.4987" y2="22.7586" gradientUnits="userSpaceOnUse">
<stop stop-color="#00E0FF"/>
<stop offset="1" stop-color="#0085FF"/>
</linearGradient>
<linearGradient id="paint2_linear" x1="21.4987" y1="-14.4651" x2="21.4987" y2="23.7525" gradientUnits="userSpaceOnUse">
<stop stop-color="#086673"/>
<stop offset="1" stop-color="#0085FF"/>
</linearGradient>
<linearGradient id="paint3_linear" x1="15.9214" y1="29.0182" x2="15.9214" y2="2.72518" gradientUnits="userSpaceOnUse">
<stop stop-color="#A2B4CC"/>
<stop offset="1" stop-color="#404E62"/>
</linearGradient>
<linearGradient id="paint4_linear" x1="15.9214" y1="29.0182" x2="15.9214" y2="2.72518" gradientUnits="userSpaceOnUse">
<stop stop-color="#A2B4CC"/>
<stop offset="1" stop-color="#404E62"/>
</linearGradient>
<linearGradient id="paint5_linear" x1="15.9214" y1="29.0182" x2="15.9214" y2="2.72518" gradientUnits="userSpaceOnUse">
<stop stop-color="#A2B4CC"/>
<stop offset="1" stop-color="#404E62"/>
</linearGradient>
<linearGradient id="paint6_linear" x1="15.9214" y1="29.0182" x2="15.9214" y2="2.72518" gradientUnits="userSpaceOnUse">
<stop stop-color="#A2B4CC"/>
<stop offset="1" stop-color="#404E62"/>
</linearGradient>
</defs>
</svg>
