<svg width="32" height="32" viewBox="0 0 32 32" fill="none" xmlns="http://www.w3.org/2000/svg">
<g clip-path="url(#clip0)">
<path d="M31 0H1C0.447715 0 0 0.447715 0 1V30.8061C0 31.3583 0.447715 31.8061 1 31.8061H31C31.5523 31.8061 32 31.3583 32 30.8061V1C32 0.447715 31.5523 0 31 0Z" fill="#D4E1F4"/>
<path d="M7 0H0V6.95758H7V0Z" fill="url(#paint0_linear)"/>
<path d="M32 16.897H25V23.8545H32V16.897Z" fill="url(#paint1_linear)"/>
<path d="M7 16.897H0V23.8545H7V16.897Z" fill="url(#paint2_linear)"/>
<path d="M16.5161 24.738H32V31.8061H16.5161V24.738Z" fill="url(#paint3_linear)"/>
<path d="M16.5161 8.24597H32V15.314H16.5161V8.24597Z" fill="url(#paint4_linear)"/>
<path d="M32 0H25V6.95758H32V0Z" fill="url(#paint5_linear)"/>
<path d="M24 0H8V6.95758H24V0Z" fill="url(#paint6_linear)"/>
<path d="M24 16.897H8V23.8545H24V16.897Z" fill="url(#paint7_linear)"/>
<path d="M0.000502586 24.738H15.4844V31.8061H0.000502586V24.738Z" fill="url(#paint8_linear)"/>
<path d="M0.000502586 8.24597H15.4844V15.314H0.000502586V8.24597Z" fill="url(#paint9_linear)"/>
</g>
<defs>
<linearGradient id="paint0_linear" x1="3.5" y1="0" x2="3.5" y2="6.95758" gradientUnits="userSpaceOnUse">
<stop stop-color="#7CFFE7"/>
<stop offset="1" stop-color="#5FCAEC"/>
</linearGradient>
<linearGradient id="paint1_linear" x1="23.4083" y1="10.4784" x2="23.4083" y2="23.8546" gradientUnits="userSpaceOnUse">
<stop stop-color="#00E0FF"/>
<stop offset="1" stop-color="#0085FF"/>
</linearGradient>
<linearGradient id="paint2_linear" x1="3.5" y1="16.897" x2="3.5" y2="23.8545" gradientUnits="userSpaceOnUse">
<stop stop-color="#7CFFE7"/>
<stop offset="1" stop-color="#5FCAEC"/>
</linearGradient>
<linearGradient id="paint3_linear" x1="24.2581" y1="24.738" x2="24.2581" y2="31.8061" gradientUnits="userSpaceOnUse">
<stop stop-color="#7CFFE7"/>
<stop offset="1" stop-color="#5FCAEC"/>
</linearGradient>
<linearGradient id="paint4_linear" x1="24.2581" y1="8.24597" x2="24.2581" y2="15.314" gradientUnits="userSpaceOnUse">
<stop stop-color="#7CFFE7"/>
<stop offset="1" stop-color="#5FCAEC"/>
</linearGradient>
<linearGradient id="paint5_linear" x1="23.4083" y1="-6.41859" x2="23.4083" y2="6.95758" gradientUnits="userSpaceOnUse">
<stop stop-color="#00E0FF"/>
<stop offset="1" stop-color="#0085FF"/>
</linearGradient>
<linearGradient id="paint6_linear" x1="4.36175" y1="-6.41859" x2="4.36175" y2="6.95758" gradientUnits="userSpaceOnUse">
<stop stop-color="#00E0FF"/>
<stop offset="1" stop-color="#0085FF"/>
</linearGradient>
<linearGradient id="paint7_linear" x1="4.36175" y1="10.4784" x2="4.36175" y2="23.8546" gradientUnits="userSpaceOnUse">
<stop stop-color="#00E0FF"/>
<stop offset="1" stop-color="#0085FF"/>
</linearGradient>
<linearGradient id="paint8_linear" x1="19.0053" y1="18.2176" x2="19.0053" y2="31.8061" gradientUnits="userSpaceOnUse">
<stop stop-color="#00E0FF"/>
<stop offset="1" stop-color="#0085FF"/>
</linearGradient>
<linearGradient id="paint9_linear" x1="19.0053" y1="1.7255" x2="19.0053" y2="15.314" gradientUnits="userSpaceOnUse">
<stop stop-color="#00E0FF"/>
<stop offset="1" stop-color="#0085FF"/>
</linearGradient>
<clipPath id="clip0">
<rect width="32" height="31.8061" fill="white"/>
</clipPath>
</defs>
</svg>
