<svg width="439" height="383" viewBox="0 0 439 383" fill="none" xmlns="http://www.w3.org/2000/svg">
<path d="M404.651 0H67V382.063H404.651V0Z" fill="#E6E6E6"/>
<path d="M398.041 8.08252H73.0205V373.981H398.041V8.08252Z" fill="white"/>
<path d="M348.05 338H128.105V348.705H348.05V338Z" fill="url(#paint0_linear)"/>
<path d="M236.035 364.5C247.922 364.5 257.569 354.88 257.569 343C257.569 331.12 247.922 321.5 236.035 321.5C224.148 321.5 214.5 331.12 214.5 343C214.5 354.88 224.148 364.5 236.035 364.5Z" fill="url(#paint1_linear)" stroke="white" stroke-width="7"/>
<path fill-rule="evenodd" clip-rule="evenodd" d="M233.954 352.6C234.5 352.6 234.972 352.342 235.326 351.781L245.24 335.811C245.461 335.478 245.653 335.068 245.653 334.704C245.653 333.9 244.96 333.4 244.237 333.4C243.809 333.4 243.381 333.658 243.057 334.173L233.881 349.172L228.998 342.879C228.614 342.378 228.216 342.196 227.744 342.196C227.021 342.196 226.416 342.788 226.416 343.591C226.416 343.971 226.564 344.38 226.814 344.698L232.509 351.796C232.966 352.372 233.409 352.6 233.954 352.6Z" fill="white"/>
<path d="M232.748 137.603H128.105V148.308H232.748V137.603Z" fill="#E6E6E6"/>
<path d="M286.039 169.681H128.105V180.386H286.039V169.681Z" fill="url(#paint2_linear)"/>
<path d="M270.537 201.961H128.105V212.666H270.537V201.961Z" fill="#E6E6E6"/>
<path d="M348.05 233.388H128.105V244.093H348.05V233.388Z" fill="url(#paint3_linear)"/>
<path d="M309.642 263.317H130.393V274.022H309.642V263.317Z" fill="#E6E6E6"/>
<path d="M235.533 29.7568C227.87 29.7564 220.38 32.0283 214.008 36.2851C207.637 40.5418 202.671 46.5924 199.738 53.6715C196.805 60.7507 196.038 68.5405 197.532 76.056C199.027 83.5714 202.716 90.4749 208.134 95.8934C213.552 101.312 220.455 105.002 227.971 106.498C235.486 107.993 243.276 107.226 250.355 104.294C257.435 101.362 263.486 96.3966 267.743 90.0256C272.001 83.6546 274.273 76.1642 274.274 68.5016V68.4996C274.274 63.4118 273.272 58.3739 271.325 53.6734C269.378 48.9729 266.524 44.7019 262.926 41.1043C259.329 37.5067 255.058 34.6529 250.357 32.7059C245.657 30.7589 240.619 29.7568 235.531 29.7568H235.533ZM235.533 41.3786C237.831 41.3786 240.078 42.0602 241.99 43.3372C243.901 44.6142 245.39 46.4293 246.27 48.5529C247.15 50.6765 247.38 53.0133 246.931 55.2677C246.483 57.5221 245.376 59.5929 243.751 61.2182C242.125 62.8436 240.055 63.9504 237.8 64.3989C235.546 64.8473 233.209 64.6172 231.085 63.7376C228.962 62.858 227.147 61.3684 225.87 59.4572C224.593 57.546 223.911 55.299 223.911 53.0005C223.911 49.9182 225.136 46.9621 227.315 44.7826C229.495 42.6031 232.451 41.3786 235.533 41.3786ZM235.533 97.3312C230.941 97.3101 226.424 96.1693 222.374 94.0075C218.323 91.8457 214.861 88.7283 212.287 84.9256C212.474 77.177 227.784 72.9119 235.533 72.9119C243.281 72.9119 258.592 77.177 258.778 84.9256C256.202 88.7255 252.74 91.8408 248.689 94.0022C244.639 96.1637 240.124 97.3062 235.533 97.3312Z" fill="url(#paint4_linear)"/>
<path d="M438.91 206.675C438.91 226.385 422.873 257.843 403.09 257.843C383.308 257.843 367.271 226.385 367.271 206.675C367.271 197.209 371.044 188.131 377.762 181.438C384.479 174.745 393.59 170.985 403.09 170.985C412.59 170.985 421.701 174.745 428.419 181.438C435.136 188.131 438.91 197.209 438.91 206.675Z" fill="url(#paint5_linear)"/>
<path d="M404.416 259.113C399.915 260.657 398.837 266.773 400.386 271.259C401.934 275.744 405.213 279.465 406.863 283.914C407.616 286.158 408.157 288.467 408.477 290.812C409.42 296.393 410.365 302.073 409.639 307.687C408.95 313.012 406.785 318.033 404.369 322.832C399.69 332.125 393.999 340.877 387.398 348.929" stroke="#65748A" stroke-width="2"/>
<path d="M0 197.689C0 217.4 16.0371 248.858 35.8198 248.858C55.6025 248.858 71.6395 217.4 71.6395 197.689C71.6395 188.224 67.8657 179.146 61.1482 172.453C54.4307 165.76 45.3198 162 35.8198 162C26.3198 162 17.2089 165.76 10.4914 172.453C3.77386 179.146 0 188.224 0 197.689Z" fill="url(#paint6_linear)"/>
<path d="M34.4938 250.127C38.9952 251.672 40.0728 257.788 38.5245 262.273C36.9762 266.759 33.6969 270.479 32.0469 274.929C31.2941 277.173 30.7536 279.482 30.4327 281.826C29.4901 287.408 28.5449 293.088 29.2712 298.702C29.9601 304.027 32.1255 309.047 34.5413 313.847C39.22 323.14 44.911 331.891 51.5116 339.944" stroke="#65748A" stroke-width="2"/>
<path d="M353.924 136.127C349.423 137.672 348.345 143.788 349.893 148.273C351.442 152.759 354.721 156.479 356.371 160.929C357.124 163.173 357.664 165.482 357.985 167.826C358.928 173.408 359.873 179.088 359.147 184.702C358.458 190.027 356.292 195.047 353.877 199.847C349.198 209.14 343.507 217.891 336.906 225.944" stroke="#65748A" stroke-width="2"/>
<path d="M388.417 83.6892C388.417 103.4 372.38 134.858 352.597 134.858C332.814 134.858 316.777 103.4 316.777 83.6892C316.777 74.2238 320.551 65.1461 327.269 58.4531C333.986 51.7601 343.097 48 352.597 48C362.097 48 371.208 51.7601 377.926 58.4531C384.643 65.1461 388.417 74.2238 388.417 83.6892Z" fill="url(#paint7_linear)"/>
<defs>
<linearGradient id="paint0_linear" x1="78.0923" y1="328.124" x2="78.0923" y2="348.705" gradientUnits="userSpaceOnUse">
<stop stop-color="#00E0FF"/>
<stop offset="1" stop-color="#0085FF"/>
</linearGradient>
<linearGradient id="paint1_linear" x1="209.798" y1="291.789" x2="209.798" y2="361" gradientUnits="userSpaceOnUse">
<stop stop-color="#00E0FF"/>
<stop offset="1" stop-color="#0085FF"/>
</linearGradient>
<linearGradient id="paint2_linear" x1="92.1928" y1="159.806" x2="92.1928" y2="180.386" gradientUnits="userSpaceOnUse">
<stop stop-color="#00E0FF"/>
<stop offset="1" stop-color="#0085FF"/>
</linearGradient>
<linearGradient id="paint3_linear" x1="78.0923" y1="223.513" x2="78.0923" y2="244.093" gradientUnits="userSpaceOnUse">
<stop stop-color="#00E0FF"/>
<stop offset="1" stop-color="#0085FF"/>
</linearGradient>
<linearGradient id="paint4_linear" x1="179.169" y1="-41.7261" x2="179.169" y2="107.242" gradientUnits="userSpaceOnUse">
<stop stop-color="#00E0FF"/>
<stop offset="1" stop-color="#0085FF"/>
</linearGradient>
<linearGradient id="paint5_linear" x1="403.09" y1="170.985" x2="403.09" y2="257.843" gradientUnits="userSpaceOnUse">
<stop stop-color="#7CFFE7"/>
<stop offset="1" stop-color="#5FCAEC"/>
</linearGradient>
<linearGradient id="paint6_linear" x1="35.8198" y1="162" x2="35.8198" y2="248.858" gradientUnits="userSpaceOnUse">
<stop stop-color="#7CFFE7"/>
<stop offset="1" stop-color="#5FCAEC"/>
</linearGradient>
<linearGradient id="paint7_linear" x1="352.597" y1="48" x2="352.597" y2="134.858" gradientUnits="userSpaceOnUse">
<stop stop-color="#7CFFE7"/>
<stop offset="1" stop-color="#5FCAEC"/>
</linearGradient>
</defs>
</svg>
