<svg width="16" height="18" viewBox="0 0 16 18" stroke-width="0" xmlns="http://www.w3.org/2000/svg">
<path d="M8 0.575195C3.82143 0.575195 0.5 3.89662 0.5 8.0752C0.5 10.1109 1.25 12.0395 2.75 13.4323C2.85714 13.5395 7.14286 17.3966 7.25 17.5038C7.67857 17.8252 8.32143 17.8252 8.64286 17.5038C8.75 17.3966 13.1429 13.5395 13.1429 13.4323C14.6429 12.0395 15.3929 10.1109 15.3929 8.0752C15.5 3.89662 12.1786 0.575195 8 0.575195ZM8 10.2181C6.82143 10.2181 5.85714 9.25377 5.85714 8.0752C5.85714 6.89662 6.82143 5.93234 8 5.93234C9.17857 5.93234 10.1429 6.89662 10.1429 8.0752C10.1429 9.25377 9.17857 10.2181 8 10.2181Z" />
</svg>
