<svg width="19" height="20" viewBox="0 0 19 20" xmlns="http://www.w3.org/2000/svg">
  <path d="M6.2 7C6.2 5.45285 7.45285 4.2 9 4.2C10.5472 4.2 11.8 5.45285 11.8 7C11.8 8.54715 10.5472 9.8 9 9.8C7.45285 9.8 6.2 8.54715 6.2 7ZM2.7 14.875C2.7 14.5502 2.85714 14.2139 3.23997 13.8606C3.62757 13.5029 4.19795 13.1769 4.88422 12.902C6.25787 12.3517 7.91938 12.075 9 12.075C10.0806 12.075 11.7421 12.3517 13.1158 12.902C13.802 13.1769 14.3724 13.5029 14.76 13.8606C15.1429 14.2139 15.3 14.5502 15.3 14.875V16.8H2.7V14.875Z" fill="none" stroke-width="1.4"/>
  <g stroke-width="0">
    <path d="M16.1992 2.93656L15.2992 0.600098L14.3992 2.93656H11.6992L13.8997 4.49367L13.0348 6.9001L15.2992 5.41296L17.5636 6.9001L16.6987 4.49367L18.8992 2.93656H16.1992Z" />
  </g>
</svg>
