<svg width="78" height="93" viewBox="0 0 78 93" stroke-width="0" xmlns="http://www.w3.org/2000/svg">
<path d="M40.7715 30.6637L3.54285 53.3664V93H40.7715V30.6637Z" fill="#C4C4C4"/>
<path d="M40.7715 30.6637L3.54285 53.3664V93H40.7715V30.6637Z" fill="url(#paint0_linear)"/>
<g opacity="0.15">
<line x1="7.3542" y1="49.6146" x2="7.3542" y2="92.9999" stroke="url(#paint1_linear)" stroke-width="0.6"/>
<line x1="10.8173" y1="48.0275" x2="10.8173" y2="93" stroke="url(#paint2_linear)" stroke-width="0.6"/>
<line x1="14.2803" y1="45.911" x2="14.2803" y2="92.9999" stroke="url(#paint3_linear)" stroke-width="0.6"/>
<line x1="17.7436" y1="43.7947" x2="17.7436" y2="93" stroke="url(#paint4_linear)" stroke-width="0.6"/>
<line x1="21.2067" y1="41.6783" x2="21.2067" y2="93" stroke="url(#paint5_linear)" stroke-width="0.6"/>
<line x1="24.6699" y1="39.0328" x2="24.6699" y2="92.9999" stroke="url(#paint6_linear)" stroke-width="0.6"/>
<line x1="28.133" y1="39.0328" x2="28.133" y2="92.9999" stroke="url(#paint7_linear)" stroke-width="0.6"/>
<line x1="31.5961" y1="39.0328" x2="31.5961" y2="92.9999" stroke="url(#paint8_linear)" stroke-width="0.6"/>
<line x1="34.7111" y1="86.3237" x2="3.5429" y2="86.3237" stroke="url(#paint9_linear)" stroke-width="0.5"/>
<line x1="34.7111" y1="79.3975" x2="3.5429" y2="79.3975" stroke="url(#paint10_linear)" stroke-width="0.5"/>
<line x1="34.7111" y1="72.4713" x2="3.5429" y2="72.4713" stroke="url(#paint11_linear)" stroke-width="0.5"/>
<line x1="34.7111" y1="65.5449" x2="3.5429" y2="65.5449" stroke="url(#paint12_linear)" stroke-width="0.5"/>
<line x1="34.7111" y1="58.6187" x2="3.5429" y2="58.6187" stroke="url(#paint13_linear)" stroke-width="0.5"/>
<line x1="34.7111" y1="51.6925" x2="10.4692" y2="51.6925" stroke="url(#paint14_linear)" stroke-width="0.5"/>
<line x1="34.7111" y1="44.7662" x2="18.2612" y2="44.7662" stroke="url(#paint15_linear)" stroke-width="0.5"/>
<line x1="33.8452" y1="43.0347" x2="25.1874" y2="43.0347" stroke="url(#paint16_linear)" stroke-width="0.5"/>
</g>
<path d="M3.54285 55.7714V53.174L34.711 36.2913V38.8886L3.54285 55.7714Z" fill="black" fill-opacity="0.05"/>
<line x1="2.40251" y1="52.4835" x2="35.2711" y2="34.4013" stroke="black" stroke-width="3" stroke-linecap="round" stroke-linejoin="round"/>
<line x1="2.40251" y1="52.4835" x2="35.2711" y2="34.4013" stroke="url(#paint17_linear)" stroke-width="3" stroke-linecap="round" stroke-linejoin="round"/>
<path d="M76.2685 1.22705L34.7109 25.9018V93H76.2685V1.22705Z" fill="#C4C4C4"/>
<path d="M76.2685 1.22705L34.7109 25.9018V93H76.2685V1.22705Z" fill="url(#paint18_linear)"/>
<g opacity="0.15">
<line x1="40.4059" y1="22.0059" x2="40.4059" y2="93" stroke="url(#paint19_linear)"/>
<line x1="46.4663" y1="19.4084" x2="46.4663" y2="92.9999" stroke="url(#paint20_linear)"/>
<line x1="52.5267" y1="15.9453" x2="52.5267" y2="92.9999" stroke="url(#paint21_linear)"/>
<line x1="58.5872" y1="12.4822" x2="58.5872" y2="92.9999" stroke="url(#paint22_linear)"/>
<line x1="64.6478" y1="9.01917" x2="64.6478" y2="93" stroke="url(#paint23_linear)"/>
<line x1="70.7083" y1="4.69019" x2="70.7083" y2="93" stroke="url(#paint24_linear)"/>
<line x1="76.2687" y1="81.379" x2="34.7111" y2="81.379" stroke="url(#paint25_linear)"/>
<line x1="76.2687" y1="69.2581" x2="34.7111" y2="69.2581" stroke="url(#paint26_linear)"/>
<line x1="76.2687" y1="57.1371" x2="34.7111" y2="57.1371" stroke="url(#paint27_linear)"/>
<line x1="76.2687" y1="45.0162" x2="34.7111" y2="45.0162" stroke="url(#paint28_linear)"/>
<line x1="76.2687" y1="32.8953" x2="34.7111" y2="32.8953" stroke="url(#paint29_linear)"/>
<line x1="76.2687" y1="20.7743" x2="44.2347" y2="20.7743" stroke="url(#paint30_linear)"/>
<line x1="75.403" y1="8.65332" x2="64.1478" y2="8.65332" stroke="url(#paint31_linear)"/>
</g>
<line x1="33.4997" y1="26.8756" x2="75.9435" y2="1.57256" stroke="black" stroke-width="3" stroke-linecap="round" stroke-linejoin="round"/>
<line x1="33.4997" y1="26.8756" x2="75.9435" y2="1.57256" stroke="url(#paint32_linear)" stroke-width="3" stroke-linecap="round" stroke-linejoin="round"/>
<path d="M34.7111 29.7979V27.6334L76.2686 2.95862V5.55596L34.7111 29.7979Z" fill="black" fill-opacity="0.05"/>
<defs>
<linearGradient id="paint0_linear" x1="22.1572" y1="30.6637" x2="22.1572" y2="93" gradientUnits="userSpaceOnUse">
<stop stop-color="#7CFFE7"/>
<stop offset="1" stop-color="#5FCAEC"/>
</linearGradient>
<linearGradient id="paint1_linear" x1="7.0542" y1="71.3073" x2="6.0542" y2="71.3073" gradientUnits="userSpaceOnUse">
<stop stop-color="#7CFFE7"/>
<stop offset="1" stop-color="#5FCAEC"/>
</linearGradient>
<linearGradient id="paint2_linear" x1="10.5173" y1="70.5138" x2="9.51733" y2="70.5138" gradientUnits="userSpaceOnUse">
<stop stop-color="#7CFFE7"/>
<stop offset="1" stop-color="#5FCAEC"/>
</linearGradient>
<linearGradient id="paint3_linear" x1="13.9803" y1="69.4555" x2="12.9803" y2="69.4555" gradientUnits="userSpaceOnUse">
<stop stop-color="#7CFFE7"/>
<stop offset="1" stop-color="#5FCAEC"/>
</linearGradient>
<linearGradient id="paint4_linear" x1="17.4436" y1="68.3973" x2="16.4436" y2="68.3973" gradientUnits="userSpaceOnUse">
<stop stop-color="#7CFFE7"/>
<stop offset="1" stop-color="#5FCAEC"/>
</linearGradient>
<linearGradient id="paint5_linear" x1="20.9067" y1="67.3392" x2="19.9067" y2="67.3392" gradientUnits="userSpaceOnUse">
<stop stop-color="#7CFFE7"/>
<stop offset="1" stop-color="#5FCAEC"/>
</linearGradient>
<linearGradient id="paint6_linear" x1="24.3699" y1="66.0164" x2="23.3699" y2="66.0164" gradientUnits="userSpaceOnUse">
<stop stop-color="#7CFFE7"/>
<stop offset="1" stop-color="#5FCAEC"/>
</linearGradient>
<linearGradient id="paint7_linear" x1="27.833" y1="66.0164" x2="26.833" y2="66.0164" gradientUnits="userSpaceOnUse">
<stop stop-color="#7CFFE7"/>
<stop offset="1" stop-color="#5FCAEC"/>
</linearGradient>
<linearGradient id="paint8_linear" x1="31.2961" y1="66.0164" x2="30.2961" y2="66.0164" gradientUnits="userSpaceOnUse">
<stop stop-color="#7CFFE7"/>
<stop offset="1" stop-color="#5FCAEC"/>
</linearGradient>
<linearGradient id="paint9_linear" x1="19.127" y1="86.0737" x2="19.127" y2="85.0737" gradientUnits="userSpaceOnUse">
<stop stop-color="#7CFFE7"/>
<stop offset="1" stop-color="#5FCAEC"/>
</linearGradient>
<linearGradient id="paint10_linear" x1="19.127" y1="79.1475" x2="19.127" y2="78.1475" gradientUnits="userSpaceOnUse">
<stop stop-color="#7CFFE7"/>
<stop offset="1" stop-color="#5FCAEC"/>
</linearGradient>
<linearGradient id="paint11_linear" x1="19.127" y1="72.2213" x2="19.127" y2="71.2213" gradientUnits="userSpaceOnUse">
<stop stop-color="#7CFFE7"/>
<stop offset="1" stop-color="#5FCAEC"/>
</linearGradient>
<linearGradient id="paint12_linear" x1="19.127" y1="65.2949" x2="19.127" y2="64.2949" gradientUnits="userSpaceOnUse">
<stop stop-color="#7CFFE7"/>
<stop offset="1" stop-color="#5FCAEC"/>
</linearGradient>
<linearGradient id="paint13_linear" x1="19.127" y1="58.3687" x2="19.127" y2="57.3687" gradientUnits="userSpaceOnUse">
<stop stop-color="#7CFFE7"/>
<stop offset="1" stop-color="#5FCAEC"/>
</linearGradient>
<linearGradient id="paint14_linear" x1="22.5901" y1="51.4425" x2="22.5901" y2="50.4425" gradientUnits="userSpaceOnUse">
<stop stop-color="#7CFFE7"/>
<stop offset="1" stop-color="#5FCAEC"/>
</linearGradient>
<linearGradient id="paint15_linear" x1="26.4861" y1="44.5162" x2="26.4861" y2="43.5162" gradientUnits="userSpaceOnUse">
<stop stop-color="#7CFFE7"/>
<stop offset="1" stop-color="#5FCAEC"/>
</linearGradient>
<linearGradient id="paint16_linear" x1="29.5163" y1="42.7847" x2="29.5163" y2="41.7847" gradientUnits="userSpaceOnUse">
<stop stop-color="#7CFFE7"/>
<stop offset="1" stop-color="#5FCAEC"/>
</linearGradient>
<linearGradient id="paint17_linear" x1="19.5598" y1="44.7567" x2="20.0418" y2="45.6328" gradientUnits="userSpaceOnUse">
<stop stop-color="#00E0FF"/>
<stop offset="1" stop-color="#0085FF"/>
</linearGradient>
<linearGradient id="paint18_linear" x1="55.4897" y1="1.22705" x2="55.4897" y2="93" gradientUnits="userSpaceOnUse">
<stop stop-color="#00E0FF"/>
<stop offset="1" stop-color="#0085FF"/>
</linearGradient>
<linearGradient id="paint19_linear" x1="39.9059" y1="57.5029" x2="38.9059" y2="57.5029" gradientUnits="userSpaceOnUse">
<stop stop-color="#00DBFF"/>
<stop offset="1" stop-color="#0085FF"/>
</linearGradient>
<linearGradient id="paint20_linear" x1="45.9663" y1="56.2042" x2="44.9663" y2="56.2042" gradientUnits="userSpaceOnUse">
<stop stop-color="#00DBFF"/>
<stop offset="1" stop-color="#0085FF"/>
</linearGradient>
<linearGradient id="paint21_linear" x1="52.0267" y1="54.4726" x2="51.0267" y2="54.4726" gradientUnits="userSpaceOnUse">
<stop stop-color="#00DBFF"/>
<stop offset="1" stop-color="#0085FF"/>
</linearGradient>
<linearGradient id="paint22_linear" x1="58.0872" y1="52.741" x2="57.0872" y2="52.741" gradientUnits="userSpaceOnUse">
<stop stop-color="#00DBFF"/>
<stop offset="1" stop-color="#0085FF"/>
</linearGradient>
<linearGradient id="paint23_linear" x1="64.1478" y1="51.0096" x2="63.1478" y2="51.0096" gradientUnits="userSpaceOnUse">
<stop stop-color="#00DBFF"/>
<stop offset="1" stop-color="#0085FF"/>
</linearGradient>
<linearGradient id="paint24_linear" x1="70.2083" y1="48.8451" x2="69.2083" y2="48.8451" gradientUnits="userSpaceOnUse">
<stop stop-color="#00DBFF"/>
<stop offset="1" stop-color="#0085FF"/>
</linearGradient>
<linearGradient id="paint25_linear" x1="55.4899" y1="80.879" x2="55.4899" y2="79.879" gradientUnits="userSpaceOnUse">
<stop stop-color="#00DBFF"/>
<stop offset="1" stop-color="#0085FF"/>
</linearGradient>
<linearGradient id="paint26_linear" x1="55.4899" y1="68.7581" x2="55.4899" y2="67.7581" gradientUnits="userSpaceOnUse">
<stop stop-color="#00DBFF"/>
<stop offset="1" stop-color="#0085FF"/>
</linearGradient>
<linearGradient id="paint27_linear" x1="55.4899" y1="56.6371" x2="55.4899" y2="55.6371" gradientUnits="userSpaceOnUse">
<stop stop-color="#00DBFF"/>
<stop offset="1" stop-color="#0085FF"/>
</linearGradient>
<linearGradient id="paint28_linear" x1="55.4899" y1="44.5162" x2="55.4899" y2="43.5162" gradientUnits="userSpaceOnUse">
<stop stop-color="#00DBFF"/>
<stop offset="1" stop-color="#0085FF"/>
</linearGradient>
<linearGradient id="paint29_linear" x1="55.4899" y1="32.3953" x2="55.4899" y2="31.3953" gradientUnits="userSpaceOnUse">
<stop stop-color="#00DBFF"/>
<stop offset="1" stop-color="#0085FF"/>
</linearGradient>
<linearGradient id="paint30_linear" x1="60.2517" y1="20.2743" x2="60.2517" y2="19.2743" gradientUnits="userSpaceOnUse">
<stop stop-color="#00DBFF"/>
<stop offset="1" stop-color="#0085FF"/>
</linearGradient>
<linearGradient id="paint31_linear" x1="69.7754" y1="8.15332" x2="69.7754" y2="7.15332" gradientUnits="userSpaceOnUse">
<stop stop-color="#00DBFF"/>
<stop offset="1" stop-color="#0085FF"/>
</linearGradient>
<linearGradient id="paint32_linear" x1="55.4897" y1="15.5125" x2="56.0018" y2="16.3715" gradientUnits="userSpaceOnUse">
<stop stop-color="#7CFFE7"/>
<stop offset="1" stop-color="#5FCAEC"/>
</linearGradient>
</defs>
</svg>
