<svg width="28" height="28" viewBox="0 0 28 28" xmlns="http://www.w3.org/2000/svg">
  <path d="M6.58362 12.2298H12.4952C12.8163 12.2298 13.0788 11.9597 13.0788 11.6298C13.0788 11.2997 12.8163 11.0298 12.4952 11.0298H6.58362C6.26254 11.0298 6 11.2997 6 11.6298C6 11.9597 6.26254 12.2298 6.58362 12.2298Z" />
  <path d="M6.74201 15.2H14.258C14.6662 15.2 15 14.9299 15 14.6C15 14.2699 14.6662 14 14.258 14H6.74201C6.3338 14 6 14.2699 6 14.6C6 14.9299 6.3338 15.2 6.74201 15.2Z" />
  <path d="M6.82446 18.1702H15.1755C15.6291 18.1702 16 17.9001 16 17.5702C16 17.2401 15.6291 16.9702 15.1755 16.9702H6.82446C6.37088 16.9702 6 17.2401 6 17.5702C6 17.9001 6.37088 18.1702 6.82446 18.1702Z" />
  <path d="M1.7 21V3C1.7 1.72975 2.72975 0.7 4 0.7H13.6257C14.2256 0.7 14.8018 0.934398 15.2313 1.3532L19.3037 5.32379C19.9408 5.94489 20.3 6.79689 20.3 7.68659V21C20.3 22.2703 19.2703 23.3 18 23.3H4C2.72974 23.3 1.7 22.2703 1.7 21Z" fill="none" stroke-width="1.4"/>
  <path d="M14 1V6C14 6.55228 14.4477 7 15 7H20" fill="none" />
  <path d="M26.1254 17.9304L25.7719 17.5768L25.4183 17.9304L19.9369 23.4118C19.0788 24.2699 17.6889 24.2699 16.8308 23.4118C15.9727 22.5537 15.9727 21.1639 16.8308 20.3057L22.7889 14.3477C23.2514 13.8852 24.0025 13.8852 24.465 14.3477C24.9275 14.8102 24.9275 15.5613 24.465 16.0238L19.4602 21.0286C19.3933 21.0955 19.2809 21.0955 19.214 21.0286C19.1472 20.9617 19.1472 20.8493 19.214 20.7824L23.7422 16.2542L24.0957 15.9007L23.7422 15.5471L23.0272 14.8322L22.6737 14.4786L22.3201 14.8322L17.792 19.3603C16.9389 20.2133 16.9389 21.5976 17.792 22.4506C18.645 23.3037 20.0293 23.3037 20.8823 22.4506L25.8871 17.4459C27.1357 16.1972 27.1357 14.1742 25.8871 12.9256C24.6384 11.6769 22.6155 11.6769 21.3668 12.9256L15.4087 18.8837C13.7645 20.5279 13.7645 23.1896 15.4087 24.8339C17.053 26.4781 19.7147 26.4781 21.359 24.8339L26.8404 19.3524L27.1939 18.9989L26.8404 18.6453L26.1254 17.9304Z" stroke="white"/>
</svg>
