<svg width="28" height="28" viewBox="0 0 28 28" xmlns="http://www.w3.org/2000/svg">
<g stroke-width="0">
  <path d="M6.58362 11.2298H12.4952C12.8163 11.2298 13.0788 10.9597 13.0788 10.6298C13.0788 10.2997 12.8163 10.0298 12.4952 10.0298H6.58362C6.26254 10.0298 6 10.2997 6 10.6298C6 10.9597 6.26254 11.2298 6.58362 11.2298Z" />
  <path d="M6.74201 14.2H14.258C14.6662 14.2 15 13.9299 15 13.6C15 13.2699 14.6662 13 14.258 13H6.74201C6.3338 13 6 13.2699 6 13.6C6 13.9299 6.3338 14.2 6.74201 14.2Z" />
  <path d="M6.82446 17.1707H15.1755C15.6291 17.1707 16 16.9006 16 16.5707C16 16.2406 15.6291 15.9707 15.1755 15.9707H6.82446C6.37088 15.9707 6 16.2406 6 16.5707C6 16.9006 6.37088 17.1707 6.82446 17.1707Z" />
</g>
<path d="M1.7 21V3C1.7 1.72975 2.72975 0.7 4 0.7H13.6257C14.2256 0.7 14.8018 0.934398 15.2313 1.3532L19.3037 5.32379C19.9408 5.94489 20.3 6.79689 20.3 7.68659V21C20.3 22.2703 19.2703 23.3 18 23.3H4C2.72974 23.3 1.7 22.2703 1.7 21Z" fill="none" stroke-width="1.4"/>
<path d="M14 1V6C14 6.55228 14.4477 7 15 7H20" />
<circle cx="19" cy="20" r="7.5" fill="white" />
<g stroke-width="0">
  <path d="M21.9961 19.8592L19.5977 22.4445V16.0719C19.5977 15.7508 19.335 15.4883 19.0141 15.4883C18.693 15.4883 18.4305 15.7508 18.4305 16.0719V22.4445L16.0144 19.8592C15.7927 19.6259 15.4193 19.6084 15.1858 19.8302C14.9523 20.0519 14.9348 20.4196 15.1567 20.653L18.5706 24.3237C18.6815 24.4404 18.8332 24.5104 18.9966 24.5104C19.16 24.5104 19.3117 24.4404 19.4226 24.3237L22.8425 20.653C23.0642 20.4196 23.0524 20.0461 22.819 19.8302C22.5797 19.6084 22.218 19.6259 21.9961 19.8592Z" />
</g>
</svg>
