<svg width="42" height="42" viewBox="0 0 42 42" stroke-width="0" xmlns="http://www.w3.org/2000/svg">
<path d="M35.8713 15.4056L33.8636 13.9058V6.875C34.3835 6.875 34.8049 6.45525 34.8049 5.9375C34.8049 5.41975 34.3835 5 33.8636 5H28.2162C27.6964 5 27.2749 5.41975 27.2749 5.9375C27.2749 6.45525 27.6964 6.875 28.2162 6.875V9.687L22.6937 5.56163C21.6964 4.81762 20.3035 4.81756 19.3059 5.56194L6.12857 15.4057C4.88281 16.3365 4.62942 18.1029 5.56376 19.3434C6.01681 19.9447 6.67769 20.3342 7.42472 20.4403C7.56007 20.4596 7.69517 20.4691 7.82946 20.469C8.15004 20.469 8.46511 20.4143 8.76386 20.3088V36.0625C8.76386 36.5802 9.18528 37 9.7051 37H32.2949C32.8147 37 33.2361 36.5802 33.2361 36.0625V20.3083C33.535 20.4136 33.8513 20.4683 34.176 20.4683C35.0608 20.4683 35.9057 20.0477 36.4364 19.3433C37.3706 18.1029 37.1171 16.3365 35.8713 15.4056ZM30.0987 6.875H31.9812V12.4995L30.0987 11.0932V6.875ZM22.5687 23.875H19.4313V18.125H22.5687V23.875ZM24.4512 23.875V17.1875C24.4512 16.6698 24.0298 16.25 23.51 16.25H18.49C17.9702 16.25 17.5488 16.6698 17.5488 17.1875V23.875H10.6464V19.0623L21 11.3278L31.3537 19.0623V23.875H24.4512ZM10.6464 25.75H23.8237V27.625H21C20.4802 27.625 20.0588 28.0448 20.0588 28.5625V31.375H17.235C16.7152 31.375 16.2938 31.7948 16.2938 32.3125V35.125H10.6463L10.6464 25.75ZM18.1763 35.125V33.25H21C21.5198 33.25 21.9412 32.8302 21.9412 32.3125V29.5H24.765C25.2848 29.5 25.7062 29.0802 25.7062 28.5625V25.75H31.3537V35.125H18.1763ZM34.9305 18.2181C34.7509 18.4565 34.4759 18.5933 34.176 18.5933C33.9714 18.5933 33.7766 18.5286 33.6126 18.4061L21.5647 9.40588C21.2301 9.15588 20.7699 9.15588 20.4353 9.40588L8.38686 18.4064C8.1865 18.5563 7.93908 18.6194 7.69047 18.5841C7.44116 18.5487 7.2206 18.4186 7.0695 18.2181C6.7582 17.8047 6.84285 17.2159 7.25812 16.9056L20.4349 7.06231C20.6014 6.93813 20.8008 6.87612 21.0001 6.87612C21.1994 6.87612 21.3985 6.93813 21.5646 7.062L34.7418 16.9056C35.1572 17.2159 35.2418 17.8047 34.9305 18.2181Z" />
</svg>
