<svg width="28" height="28" viewBox="0 0 28 28" stroke-width="0" xmlns="http://www.w3.org/2000/svg">
<g clip-path="url(#clip0)">
<path d="M12.7857 5.78277H15.2134C15.2337 5.99048 15.4088 6.15279 15.6218 6.15279C15.8485 6.15279 16.0323 5.96904 16.0323 5.74236C16.0323 5.31202 15.6821 4.96191 15.2518 4.96191H12.7472C12.3169 4.96191 11.9668 5.31202 11.9668 5.74236C11.9668 5.96904 12.1505 6.15279 12.3772 6.15279C12.5902 6.15279 12.7654 5.99048 12.7857 5.78277Z" />
<path d="M15.2518 12.6025H12.7472C12.3169 12.6025 11.9668 12.9526 11.9668 13.383C11.9668 13.6097 12.1505 13.7934 12.3772 13.7934C12.5903 13.7934 12.7654 13.6311 12.7857 13.4234H15.2134C15.2337 13.6311 15.4088 13.7934 15.6218 13.7934C15.8485 13.7934 16.0323 13.6097 16.0323 13.383C16.0323 12.9526 15.6821 12.6025 15.2518 12.6025Z" />
<path d="M12.7472 20.4478C12.3169 20.4478 11.9668 20.7979 11.9668 21.2282C11.9668 21.4549 12.1505 21.6386 12.3772 21.6386C12.5903 21.6386 12.7654 21.4763 12.7857 21.2686H15.2134C15.2337 21.4763 15.4088 21.6386 15.6218 21.6386C15.8485 21.6386 16.0323 21.4549 16.0323 21.2282C16.0323 20.7979 15.6821 20.4478 15.2518 20.4478H12.7472Z" />
<path d="M23.3481 0H4.65107C3.68037 0 2.89062 0.789742 2.89062 1.76045V24.6354C2.89062 25.4084 3.39151 26.066 4.0856 26.3022V27.3282C4.0856 27.6987 4.38693 28 4.75738 28H6.15104C6.52144 28 6.82282 27.6987 6.82282 27.3282V26.3959H21.1951V27.3282C21.1951 27.6987 21.4965 28 21.8669 28H23.2606C23.631 28 23.9324 27.6987 23.9324 27.3282V26.2958C24.6167 26.0543 25.1085 25.4014 25.1085 24.6354V1.76045C25.1085 0.789742 24.3188 0 23.3481 0V0ZM6.00196 27.1791H4.90641V26.3959H6.00196V27.1791ZM22.016 27.1791V26.3959H23.1115V27.1791H22.016ZM24.2877 24.6354C24.2877 25.1535 23.8661 25.575 23.348 25.575H4.65107C4.13296 25.575 3.71143 25.1535 3.71143 24.6354V1.76045C3.71143 1.24234 4.13296 0.820859 4.65107 0.820859H23.348C23.8661 0.820859 24.2877 1.24234 24.2877 1.76045V24.6354Z" />
<path d="M21.9297 2.04529H6.07031C5.49412 2.04529 5.02539 2.51401 5.02539 3.0902V4.41293C5.02539 4.63961 5.20914 4.82336 5.43582 4.82336C5.6625 4.82336 5.84625 4.63961 5.84625 4.41293V3.0902C5.84625 2.96666 5.94677 2.86615 6.07031 2.86615H21.9297C22.0532 2.86615 22.1537 2.96666 22.1537 3.0902V7.65441C22.1537 7.7779 22.0532 7.87842 21.9297 7.87842H6.07031C5.94677 7.87842 5.84625 7.7779 5.84625 7.65441V6.33169C5.84625 6.10501 5.6625 5.92126 5.43582 5.92126C5.20914 5.92126 5.02539 6.10501 5.02539 6.33169V7.65441C5.02539 8.23055 5.49412 8.69927 6.07031 8.69927H21.9297C22.5059 8.69927 22.9746 8.23055 22.9746 7.65441V3.0902C22.9746 2.51401 22.5059 2.04529 21.9297 2.04529Z" />
<path d="M21.9297 17.7163H6.07031C5.49412 17.7163 5.02539 18.185 5.02539 18.7612V23.3254C5.02539 23.9016 5.49412 24.3703 6.07031 24.3703H21.9297C22.5059 24.3703 22.9746 23.9016 22.9746 23.3254V21.8176C22.9746 21.5909 22.7908 21.4072 22.5642 21.4072C22.3375 21.4072 22.1537 21.5909 22.1537 21.8176V23.3254C22.1537 23.4489 22.0532 23.5494 21.9297 23.5494H6.07031C5.94677 23.5494 5.84625 23.4489 5.84625 23.3254V18.7612C5.84625 18.6377 5.94677 18.5372 6.07031 18.5372H21.9297C22.0532 18.5372 22.1537 18.6377 22.1537 18.7612V19.8988C22.1537 20.1255 22.3375 20.3093 22.5642 20.3093C22.7908 20.3093 22.9746 20.1255 22.9746 19.8988V18.7612C22.9746 18.185 22.5059 17.7163 21.9297 17.7163Z" />
<path d="M21.9297 9.88086H6.07031C5.49412 9.88086 5.02539 10.3496 5.02539 10.9258V15.4899C5.02539 16.066 5.49412 16.5347 6.07031 16.5347H21.9297C22.5059 16.5347 22.9746 16.066 22.9746 15.4899V10.9258C22.9746 10.3496 22.5059 9.88086 21.9297 9.88086ZM22.1537 15.4899C22.1537 15.6134 22.0532 15.7139 21.9297 15.7139H6.07031C5.94677 15.7139 5.84625 15.6134 5.84625 15.4899V10.9258C5.84625 10.8022 5.94677 10.7017 6.07031 10.7017H21.9297C22.0532 10.7017 22.1537 10.8022 22.1537 10.9258V15.4899Z" />
</g>
<defs>
<clipPath id="clip0">
<rect width="28" height="28" stroke-width="0" />
</clipPath>
</defs>
</svg>
