<svg width="46" height="43" viewBox="0 0 46 43" stroke-width="0" xmlns="http://www.w3.org/2000/svg">
<path fill-rule="evenodd" clip-rule="evenodd" d="M39.3342 1.17685C38.4161 0.420326 37.2309 0.345778 35.8647 0.734251C34.4679 0.269647 33.3664 0.00461596 32.3722 5.99745e-05C31.2968 -0.00486858 30.3986 0.294068 29.4254 0.858761L28.7764 1.23542L29.2176 1.84273L34.6296 9.29045L35.103 9.94193L35.6629 9.36312C36.9645 8.01716 37.3576 5.62574 36.6447 1.93555C37.5369 1.75311 38.091 1.90643 38.4745 2.2223C38.9897 2.64684 39.3991 3.51695 39.6605 5.04033C40.1168 7.69891 40.0466 11.8009 39.9521 17.3243C39.9388 18.0935 39.9252 18.8903 39.9125 19.7147L41.2652 19.7356C41.278 18.911 41.2918 18.1103 41.3053 17.3342L41.3053 17.3341C41.4 11.8572 41.4736 7.60564 40.994 4.81114C40.7217 3.22485 40.2465 1.92846 39.3342 1.17685ZM32.366 1.35417C33.1094 1.35758 33.9991 1.54956 35.2712 1.96434C35.8689 4.90666 35.6833 6.68486 35.1683 7.72961L30.777 1.68654C31.3136 1.45473 31.8103 1.35163 32.366 1.35417ZM2.03003 20.4023C0.909213 20.4023 0.000643174 21.3117 0.000677028 22.4335C0.000710886 23.5554 0.909333 24.4647 2.03015 24.4647H43.9713C45.0921 24.4647 46.0007 23.5554 46.0007 22.4335C46.0006 21.3117 45.092 20.4023 43.9712 20.4023H2.03003ZM1.35362 22.4335C1.35361 22.0596 1.65647 21.7564 2.03007 21.7564H43.9712C44.3448 21.7564 44.6477 22.0596 44.6477 22.4335C44.6477 22.8075 44.3448 23.1105 43.9713 23.1105H2.03011C1.65651 23.1105 1.35363 22.8075 1.35362 22.4335ZM1.35372 25.8188H0.448129L0.705069 26.688C1.74327 30.2 2.84782 32.788 4.42216 34.7229C6.01343 36.6787 8.04089 37.9153 10.8197 38.812C11.6298 39.0733 12.1777 39.7898 12.1777 40.5825C12.1777 41.4032 12.8424 42.0684 13.6623 42.0684H14.8836C15.6309 42.0684 16.2365 41.4621 16.2365 40.7142C16.2365 39.9665 16.8422 39.3601 17.5894 39.3601H28.413C29.1602 39.3601 29.7659 39.9665 29.7659 40.7142C29.766 41.4621 30.3717 42.0684 31.1189 42.0684H32.9404C33.8023 42.0684 34.5012 41.369 34.5012 40.5061C34.5012 39.6928 35.0053 38.9587 35.7755 38.6484C37.9248 37.7823 39.7593 36.8716 41.3333 35.0928C42.8979 33.3245 44.1531 30.7588 45.299 26.6792L45.5408 25.8188H44.6478H1.35372ZM5.47125 33.8679C4.18921 32.2921 3.20739 30.1684 2.26702 27.1729H43.7463C42.6984 30.6483 41.5886 32.7616 40.3204 34.195C38.96 35.7325 37.366 36.5476 35.2701 37.3922C34.0043 37.9023 33.1482 39.1226 33.1483 40.5061C33.1483 40.6211 33.0552 40.7142 32.9403 40.7142H31.1189C31.1188 39.2186 29.9074 38.006 28.4129 38.006H17.5894C16.0949 38.006 14.8835 39.2186 14.8836 40.7142H13.6623C13.5896 40.7142 13.5306 40.6553 13.5306 40.5825C13.5306 39.1439 12.5466 37.9464 11.2348 37.5231C8.63581 36.6843 6.85702 35.5711 5.47125 33.8679ZM27.4611 7.05544C26.5766 7.74423 25.6734 8.06335 25.444 7.7682C25.2146 7.47305 25.7459 6.67542 26.6304 5.98662C27.5151 5.29783 28.4181 4.97872 28.6476 5.27386C28.8769 5.56901 28.3458 6.36665 27.4611 7.05544ZM30.1671 9.7637C29.2826 10.4525 28.3793 10.7716 28.15 10.4765C27.9205 10.1813 28.4518 9.38368 29.3364 8.69489C30.221 8.00609 31.1241 7.68698 31.3536 7.98213C31.5829 8.27727 31.0518 9.07491 30.1671 9.7637ZM21.5085 12.4402C21.8052 12.6674 22.5977 12.1291 23.2785 11.2379C23.9591 10.3468 24.2704 9.44023 23.9737 9.2131C23.6769 8.98597 22.8845 9.52426 22.2037 10.4154C21.5229 11.3066 21.2116 12.2131 21.5085 12.4402ZM27.3374 12.592C26.6566 13.4832 25.8641 14.0215 25.5674 13.7944C25.2705 13.5673 25.5818 12.6607 26.2626 11.7695C26.9433 10.8784 27.7357 10.3401 28.0326 10.5672C28.3293 10.7944 28.018 11.7009 27.3374 12.592ZM18.8765 16.8243C19.2139 16.9847 19.8772 16.2933 20.358 15.28C20.8388 14.2666 20.955 13.3151 20.6176 13.1547C20.28 12.9943 19.6167 13.6857 19.1359 14.6991C18.6551 15.7124 18.539 16.6639 18.8765 16.8243ZM24.4169 16.6341C23.9361 17.6474 23.2728 18.3389 22.9353 18.1784C22.5979 18.0181 22.714 17.0665 23.1948 16.0532C23.6756 15.0398 24.3389 14.3484 24.6765 14.5088C25.0139 14.6693 24.8977 15.6207 24.4169 16.6341Z" />
</svg>
