<svg width="42" height="42" viewBox="0 0 42 42" stroke-width="0" xmlns="http://www.w3.org/2000/svg">
<path d="M41.0312 28.6562H40.375V23.4062C40.3741 22.7103 40.0972 22.0432 39.6051 21.5511C39.1131 21.059 38.4459 20.7822 37.75 20.7812V9.625C37.7491 8.92909 37.4722 8.26194 36.9801 7.76985C36.4881 7.27777 35.8209 7.00091 35.125 7H7.5625C6.86659 7.00091 6.19944 7.27777 5.70735 7.76985C5.21527 8.26194 4.93841 8.92909 4.9375 9.625V20.7812C4.24159 20.7822 3.57444 21.059 3.08235 21.5511C2.59027 22.0432 2.31341 22.7103 2.3125 23.4062V28.6562H1.65625C1.4822 28.6562 1.31528 28.7254 1.19221 28.8485C1.06914 28.9715 1 29.1385 1 29.3125V31.9375C1 32.1115 1.06914 32.2785 1.19221 32.4015C1.31528 32.5246 1.4822 32.5938 1.65625 32.5938H2.3125V35.2188C2.3125 35.3928 2.38164 35.5597 2.50471 35.6828C2.62778 35.8059 2.7947 35.875 2.96875 35.875H4.9375C5.08917 35.8751 5.23618 35.8225 5.35345 35.7264C5.47073 35.6302 5.55101 35.4963 5.58063 35.3475L6.13188 32.5938H36.5556L37.1069 35.3475C37.1365 35.4963 37.2168 35.6302 37.334 35.7264C37.4513 35.8225 37.5983 35.8751 37.75 35.875H39.7188C39.8928 35.875 40.0597 35.8059 40.1828 35.6828C40.3059 35.5597 40.375 35.3928 40.375 35.2188V32.5938H41.0312C41.2053 32.5938 41.3722 32.5246 41.4953 32.4015C41.6184 32.2785 41.6875 32.1115 41.6875 31.9375V29.3125C41.6875 29.1385 41.6184 28.9715 41.4953 28.8485C41.3722 28.7254 41.2053 28.6562 41.0312 28.6562ZM6.25 9.625C6.25046 9.27704 6.38888 8.94347 6.63493 8.69743C6.88097 8.45138 7.21454 8.31296 7.5625 8.3125H35.125C35.473 8.31296 35.8065 8.45138 36.0526 8.69743C36.2986 8.94347 36.437 9.27704 36.4375 9.625V20.7812H35.125V18.1562C35.1241 17.4603 34.8472 16.7932 34.3551 16.3011C33.8631 15.809 33.1959 15.5322 32.5 15.5312H24.625C23.9291 15.5322 23.2619 15.809 22.7699 16.3011C22.2778 16.7932 22.0009 17.4603 22 18.1562V20.7812H20.6875V18.1562C20.6866 17.4603 20.4097 16.7932 19.9176 16.3011C19.4256 15.809 18.7584 15.5322 18.0625 15.5312H10.1875C9.49159 15.5322 8.82444 15.809 8.33235 16.3011C7.84027 16.7932 7.56341 17.4603 7.5625 18.1562V20.7812H6.25V9.625ZM33.8125 18.1562V20.7812H23.3125V18.1562C23.313 17.8083 23.4514 17.4747 23.6974 17.2287C23.9435 16.9826 24.277 16.8442 24.625 16.8438H32.5C32.848 16.8442 33.1815 16.9826 33.4276 17.2287C33.6736 17.4747 33.812 17.8083 33.8125 18.1562ZM19.375 18.1562V20.7812H8.875V18.1562C8.87546 17.8083 9.01388 17.4747 9.25993 17.2287C9.50597 16.9826 9.83954 16.8442 10.1875 16.8438H18.0625C18.4105 16.8442 18.744 16.9826 18.9901 17.2287C19.2361 17.4747 19.3745 17.8083 19.375 18.1562ZM3.625 23.4062C3.62546 23.0583 3.76388 22.7247 4.00993 22.4787C4.25597 22.2326 4.58954 22.0942 4.9375 22.0938H37.75C38.098 22.0942 38.4315 22.2326 38.6776 22.4787C38.9236 22.7247 39.062 23.0583 39.0625 23.4062V28.6562H3.625V23.4062ZM4.39937 34.5625H3.625V32.5938H4.79313L4.39937 34.5625ZM39.0625 34.5625H38.2881L37.8944 32.5938H39.0625V34.5625ZM40.375 31.2812H2.3125V29.9688H40.375V31.2812Z" />
</svg>