<svg width="18" height="18" viewBox="0 0 18 18" stroke-width="0" xmlns="http://www.w3.org/2000/svg">
  <path d="M15.5625 16.875V16.2188V9.65625H16.2188C16.6125 9.65625 16.875 9.91875 16.875 10.3125V16.2188C16.875 16.6125 16.6125 16.875 16.2188 16.875H15.5625ZM2.4375 16.2188V16.875H1.78125C1.3875 16.875 1.125 16.6125 1.125 16.2188V10.3125C1.125 9.91875 1.3875 9.65625 1.78125 9.65625H2.4375V16.2188ZM13.5938 1.125C13.9875 1.125 14.25 1.3875 14.25 1.78125V16.2188C14.25 16.6125 13.9875 16.875 13.5938 16.875H9.65625V14.25H8.34375V16.875H4.40625C4.0125 16.875 3.75 16.6125 3.75 16.2188V1.78125C3.75 1.3875 4.0125 1.125 4.40625 1.125H13.5938ZM7.6875 12.2812V10.9688H5.71875V12.2812H7.6875ZM7.6875 9.65625V8.34375H5.71875V9.65625H7.6875ZM7.6875 7.03125V5.71875H5.71875V7.03125H7.6875ZM7.6875 4.40625V3.09375H5.71875V4.40625H7.6875ZM12.2812 12.2812V10.9688H10.3125V12.2812H12.2812ZM12.2812 9.65625V8.34375H10.3125V9.65625H12.2812ZM12.2812 7.03125V5.71875H10.3125V7.03125H12.2812ZM12.2812 4.40625V3.09375H10.3125V4.40625H12.2812Z" />
</svg>
