<svg width="29" height="18" viewBox="0 0 29 18"  xmlns="http://www.w3.org/2000/svg">
<rect x="0.5" y="0.5" width="28" height="17" rx="0.5" fill="none" />
<path d="M11.1356 8.6639C11.3036 8.8319 11.3996 9.0635 11.3996 9.2999C11.3996 9.5375 11.3036 9.7691 11.1356 9.9371C10.9688 10.1039 10.736 10.1999 10.4996 10.1999C10.262 10.1999 10.0304 10.1039 9.86241 9.9371C9.69561 9.7691 9.59961 9.5375 9.59961 9.2999C9.59961 9.0635 9.69561 8.8319 9.86241 8.6639C10.0304 8.4971 10.262 8.3999 10.4996 8.3999C10.736 8.3999 10.9688 8.4971 11.1356 8.6639Z" fill="none" />
<path d="M18.9364 8.6639C19.1044 8.8319 19.2004 9.0635 19.2004 9.2999C19.2004 9.5375 19.1044 9.7691 18.9364 9.9371C18.7696 10.1039 18.5368 10.1999 18.3004 10.1999C18.0628 10.1999 17.8312 10.1039 17.6632 9.9371C17.4964 9.7691 17.4004 9.5375 17.4004 9.2999C17.4004 9.0635 17.4964 8.8319 17.6632 8.6639C17.8312 8.4971 18.0628 8.3999 18.3004 8.3999C18.5368 8.3999 18.7696 8.4971 18.9364 8.6639Z" fill="none" />
<rect x="2.25" y="2.25" width="12.266" height="13.5" fill="none" stroke-width="0.5"/>
<rect x="14.4844" y="2.25" width="12.266" height="13.5" fill="none" stroke-width="0.5"/>
</svg>
