<svg width="37" height="37" viewBox="0 0 37 37" stroke-width="0" xmlns="http://www.w3.org/2000/svg">
<g clip-path="url(#clip0)">
<path d="M32.3137 37H4.68705C3.86969 37 3.20703 36.3374 3.20703 35.52V1.48002C3.20703 0.662581 3.86969 0 4.68705 0H32.3137C33.1311 0 33.7938 0.662581 33.7938 1.48002V35.52C33.7937 36.3373 33.1311 37 32.3137 37Z" fill="#1C75A1"/>
<path d="M32.3137 37H4.68705C3.86969 37 3.20703 36.3374 3.20703 35.52V1.48002C3.20703 0.662581 3.86969 0 4.68705 0H32.3137C33.1311 0 33.7938 0.662581 33.7938 1.48002V35.52C33.7937 36.3373 33.1311 37 32.3137 37Z" fill="url(#paint0Linear)"/>
<path d="M24.4689 29.0474H5.67285V34.1311H24.4689V29.0474Z" fill="#F0F0F0"/>
<path d="M31.3269 29.0474H26.2432V34.1311H31.3269V29.0474Z" fill="#44C4A1"/>
<path d="M31.3269 29.0474H26.2432V34.1311H31.3269V29.0474Z" fill="url(#paint1Linear)"/>
<path d="M10.7566 21.9927H5.67285V27.0764H10.7566V21.9927Z" fill="#D5D6DB"/>
<path d="M10.7566 21.9927H5.67285V27.0764H10.7566V21.9927Z" fill="#F0F0F0"/>
<path d="M17.6131 21.9927H12.5293V27.0764H17.6131V21.9927Z" fill="#D5D6DB"/>
<path d="M17.6131 21.9927H12.5293V27.0764H17.6131V21.9927Z" fill="#F0F0F0"/>
<path d="M24.4695 21.9927H19.3857V27.0764H24.4695V21.9927Z" fill="#D5D6DB"/>
<path d="M24.4695 21.9927H19.3857V27.0764H24.4695V21.9927Z" fill="#F0F0F0"/>
<path d="M31.3269 21.9927H26.2432V27.0764H31.3269V21.9927Z" fill="#E56353"/>
<path d="M31.3269 21.9927H26.2432V27.0764H31.3269V21.9927Z" fill="url(#paint2Linear)"/>
<rect x="5.65234" y="2.85205" width="25.6944" height="8.22222" rx="3" fill="#C4C4C4"/>
<rect x="5.65234" y="2.85205" width="25.6944" height="8.22222" rx="3" fill="url(#paint3Linear)"/>
<path d="M5.65234 4.368V9.61152C5.65234 10.1749 6.16623 11.0383 7.1294 11.0743H9.70674L24.1523 2.85205H7.19401C6.16623 2.87258 5.65234 3.72564 5.65234 4.368Z" fill="white" fill-opacity="0.15"/>
<path d="M10.7566 14.9353H5.67285V20.0191H10.7566V14.9353Z" fill="#D5D6DB"/>
<path d="M10.7566 14.9353H5.67285V20.0191H10.7566V14.9353Z" fill="#F0F0F0"/>
<path d="M17.6131 14.9353H12.5293V20.0191H17.6131V14.9353Z" fill="#D5D6DB"/>
<path d="M17.6131 14.9353H12.5293V20.0191H17.6131V14.9353Z" fill="#F0F0F0"/>
<path d="M24.4695 14.9353H19.3857V20.0191H24.4695V14.9353Z" fill="#D5D6DB"/>
<path d="M24.4695 14.9353H19.3857V20.0191H24.4695V14.9353Z" fill="#F0F0F0"/>
<path d="M31.3269 14.9353H26.2432V20.0191H31.3269V14.9353Z" fill="url(#paint4Linear)"/>
<path d="M10.7566 19.0771H5.67285V20.0184H10.7566V19.0771Z" />
<path d="M17.6131 19.0771H12.5293V20.0184H17.6131V19.0771Z" />
<path d="M24.4695 19.0771H19.3857V20.0184H24.4695V19.0771Z" />
<path d="M31.3269 19.0771H26.2432V20.0184H31.3269V19.0771Z" />
<path d="M10.7566 26.1367H5.67285V27.078H10.7566V26.1367Z"  />
<path d="M17.6131 26.1367H12.5293V27.078H17.6131V26.1367Z"  />
<path d="M24.4695 26.1367H19.3857V27.078H24.4695V26.1367Z"  />
<path d="M31.3269 26.1367H26.2432V27.078H31.3269V26.1367Z"  />
<path d="M24.4689 33.1924H5.67285V34.1336H24.4689V33.1924Z" />
<path d="M31.3269 33.1924H26.2432V34.1336H31.3269V33.1924Z" />
<path d="M32.8037 35.5825H4.06768C3.52375 35.5825 3.08301 35.0669 3.08301 34.4307V35.6362C3.08301 36.3116 3.72269 37.0001 4.4494 37.0001H32.3747C33.0427 37.0001 33.7879 36.4068 33.7879 35.5825V34.4307C33.7883 35.0669 33.3476 35.5825 32.8037 35.5825Z"  fill-opacity="0.1"/>
</g>
<defs>
<linearGradient id="paint0Linear" x1="-3.74809" y1="-34.1337" x2="-3.74809" y2="37" gradientUnits="userSpaceOnUse">
<stop stop-color="#00E0FF"/>
<stop offset="1" stop-color="#0085FF"/>
</linearGradient>
<linearGradient id="paint1Linear" x1="28.785" y1="29.0474" x2="28.785" y2="34.1311" gradientUnits="userSpaceOnUse">
<stop stop-color="#7CFFE7"/>
<stop offset="1" stop-color="#5FCAEC"/>
</linearGradient>
<linearGradient id="paint2Linear" x1="28.785" y1="21.9927" x2="28.785" y2="27.0764" gradientUnits="userSpaceOnUse">
<stop stop-color="#7CFFE7"/>
<stop offset="1" stop-color="#5FCAEC"/>
</linearGradient>
<linearGradient id="paint3Linear" x1="18.4996" y1="2.85205" x2="18.4996" y2="11.0743" gradientUnits="userSpaceOnUse">
<stop stop-color="#A2B4CC"/>
<stop offset="1" stop-color="#404E62"/>
</linearGradient>
<linearGradient id="paint4Linear" x1="28.785" y1="14.9353" x2="28.785" y2="20.0191" gradientUnits="userSpaceOnUse">
<stop stop-color="#7CFFE7"/>
<stop offset="1" stop-color="#5FCAEC"/>
</linearGradient>
<clipPath id="clip0">
<rect width="37" height="37" fill="white"/>
</clipPath>
</defs>
</svg>
