<svg width="18" height="19" viewBox="0 0 18 19" stroke-width="0" xmlns="http://www.w3.org/2000/svg">
<g clip-path="url(#clip0)">
  <path d="M2.99695 0.577501C2.9049 0.634774 2.8599 0.679774 2.81899 0.755456L2.76172 0.857729V2.14227V3.42682L2.81081 3.53523C2.90286 3.73773 3.09104 3.81341 3.48786 3.80727C3.69649 3.80318 3.74967 3.795 3.84172 3.75409C3.97058 3.69682 4.08308 3.57409 4.11376 3.4575C4.13831 3.36546 4.14445 1.00091 4.1199 0.870001C4.09536 0.739092 4.01354 0.645001 3.83967 0.544774C3.76808 0.503865 3.73536 0.499774 3.44081 0.50182H3.11967L2.99695 0.577501Z" />
  <path d="M10.8112 0.526466C10.6435 0.626694 10.5923 0.673739 10.5453 0.765785L10.4941 0.866012V2.14851V3.43101L10.5391 3.52306C10.6516 3.74397 10.848 3.82374 11.2428 3.80942C11.4412 3.80124 11.5046 3.79101 11.5843 3.75215C11.703 3.69692 11.8237 3.55988 11.8584 3.43919C11.8953 3.31851 11.8973 1.0051 11.8605 0.88033C11.8175 0.728966 11.7439 0.643057 11.5721 0.544875C11.5005 0.503966 11.4678 0.499876 11.1732 0.501921C10.9625 0.501921 10.8378 0.510103 10.8112 0.526466Z" />
  <path d="M0.773182 2.1832C0.521591 2.26501 0.255682 2.49001 0.137045 2.7191C0.114545 2.7641 0.0736364 2.86842 0.0470455 2.95229L0 3.10365V8.5916V14.0816L0.0552273 14.2391C0.122727 14.4355 0.141136 14.4723 0.249545 14.6134C0.409091 14.8221 0.683182 14.9877 0.928636 15.0246C0.998182 15.0348 2.63455 15.043 4.56545 15.043H8.0775L8.06727 14.9366C8.06114 14.8773 8.04682 14.7955 8.03659 14.7566C8.00795 14.6441 7.97114 14.0284 7.98545 13.8525C7.99364 13.74 7.98955 13.6909 7.97114 13.6787C7.95682 13.6705 6.62114 13.6623 5.00114 13.6602C1.81636 13.6582 1.91659 13.6623 1.70182 13.5518C1.57909 13.4905 1.42568 13.3227 1.35 13.1693L1.27841 13.0282L1.27227 9.53456L1.26818 6.04297L7.31659 6.04706L13.367 6.05319L13.3732 7.3541L13.3773 8.65501L13.7352 8.65706C13.9316 8.6591 14.132 8.66933 14.1811 8.67956C14.2282 8.69183 14.3448 8.70615 14.4368 8.71433L14.6045 8.72865V5.88138V3.03615L14.5534 2.88888C14.4368 2.55342 14.2077 2.32024 13.8702 2.19342L13.7148 2.13615H13.1584H12.6041L12.5939 2.81524C12.5877 3.38183 12.5795 3.51683 12.5509 3.61706C12.4773 3.8666 12.3239 4.10183 12.1439 4.23888C11.8923 4.43115 11.6714 4.50479 11.2807 4.5232C10.6486 4.55388 10.1986 4.35138 9.94705 3.92592C9.78955 3.66001 9.78955 3.65797 9.77727 2.86229L9.76705 2.14638L7.31864 2.14024L4.86818 2.13615L4.86614 2.23229C4.86409 2.28751 4.86205 2.57797 4.85795 2.88274C4.85182 3.49433 4.83955 3.6007 4.73523 3.82365C4.50614 4.31251 4.00705 4.56206 3.34023 4.5232C2.69182 4.48638 2.33386 4.2491 2.10068 3.70092C2.05977 3.60479 2.05568 3.5557 2.04545 2.87251L2.03523 2.14638L1.47273 2.14229C0.947045 2.14024 0.902045 2.14229 0.773182 2.1832Z" />
  <path d="M3.67642 7.09684C3.25506 7.21343 2.94415 7.57138 2.86437 8.03161C2.81324 8.3282 2.94619 8.70252 3.1896 8.94388C3.64983 9.40206 4.39437 9.36933 4.8096 8.87433C5.08778 8.53888 5.1471 8.06025 4.95687 7.67979C4.81164 7.38934 4.51301 7.15002 4.21846 7.08866C4.07528 7.05798 3.79915 7.06207 3.67642 7.09684Z" />
  <path d="M7.02486 7.09479C6.89805 7.12547 6.671 7.25024 6.56259 7.34843C6.18827 7.68593 6.10236 8.31797 6.37236 8.74343C6.5135 8.96843 6.75486 9.15048 7.00646 9.22616C7.27441 9.30593 7.65282 9.25684 7.886 9.10957C7.98828 9.04616 8.22351 8.83138 8.22351 8.8007C8.22351 8.79252 8.25214 8.73729 8.28896 8.68002C8.41987 8.46525 8.45055 8.1482 8.37078 7.84138C8.28691 7.51615 7.94532 7.18683 7.59759 7.09888C7.45032 7.06002 7.17418 7.05797 7.02486 7.09479Z" />
  <path d="M10.3778 7.09648C10.03 7.18035 9.7355 7.46057 9.61073 7.82261C9.52482 8.0742 9.55755 8.48943 9.67823 8.66534C9.69868 8.69397 9.71504 8.72465 9.71504 8.73488C9.71504 8.74306 9.74982 8.79215 9.79277 8.84329C10.026 9.12965 10.3123 9.2667 10.6764 9.26261C10.973 9.26056 11.2184 9.15624 11.4394 8.94147C11.7994 8.58966 11.8689 8.00057 11.5989 7.57921C11.4537 7.35421 11.1939 7.16398 10.9403 7.09648C10.8073 7.05966 10.521 7.05966 10.3778 7.09648Z" />
  <path d="M13.2248 9.80684C12.5437 9.87025 11.8258 10.128 11.2305 10.5248C10.5883 10.9543 10.0769 11.5393 9.74348 12.2205C9.59621 12.5232 9.60439 12.5027 9.52462 12.7421C9.38552 13.1552 9.33643 13.4109 9.30575 13.8609C9.2628 14.5257 9.37734 15.2396 9.61462 15.7898C9.78439 16.1805 9.99712 16.5487 10.1976 16.7921C10.2262 16.8248 10.2814 16.8943 10.3223 16.9455C10.4758 17.1357 10.8071 17.4527 11.0219 17.6143C11.2735 17.8046 11.6642 18.0296 11.9383 18.1421C12.2921 18.2893 12.5539 18.3671 12.8873 18.4202C12.961 18.4305 13.0817 18.453 13.1553 18.4693C13.3128 18.5041 13.9264 18.5102 14.0737 18.4775C14.1248 18.4673 14.2353 18.4489 14.3192 18.4387C14.5176 18.4121 14.9246 18.3098 15.0453 18.2566C15.0678 18.2464 15.1435 18.2177 15.2151 18.1932C15.346 18.1482 15.7203 17.9662 15.8553 17.8823C15.8962 17.8557 15.9801 17.8046 16.0394 17.7677C16.1989 17.6716 16.5692 17.3709 16.7205 17.2196C16.8862 17.0518 17.1808 16.6857 17.2769 16.5282C17.3096 16.475 17.3567 16.3973 17.3833 16.3564C17.4098 16.3134 17.4876 16.16 17.5592 16.0148C17.7473 15.6302 17.8885 15.1823 17.9396 14.8182C17.9498 14.7343 17.9683 14.6239 17.9785 14.5727C18.0112 14.4296 18.0051 13.8037 17.9723 13.6727C17.958 13.6114 17.9396 13.505 17.9314 13.4396C17.8701 12.8914 17.5183 12.0446 17.1521 11.5762C17.1173 11.5312 17.0744 11.4718 17.056 11.4432C16.9987 11.3512 16.5958 10.94 16.4423 10.8193C16.3605 10.7518 16.2828 10.6884 16.2726 10.6782C16.203 10.6046 15.7653 10.3366 15.526 10.2221C14.8183 9.88252 14.0021 9.73525 13.2248 9.80684ZM14.0328 11.2816C14.1289 11.2918 14.2701 11.3205 14.3498 11.343C14.4276 11.3655 14.5258 11.3941 14.5646 11.4043C14.6526 11.4289 14.673 11.4371 14.9021 11.5475C15.6896 11.9218 16.2869 12.6848 16.4648 13.5398C16.5508 13.953 16.5405 14.4418 16.4362 14.8591C16.2603 15.575 15.7571 16.2439 15.1087 16.6264C14.1514 17.1909 12.9058 17.148 12.0139 16.52C11.5067 16.1621 11.2264 15.8102 10.9421 15.1762C10.8971 15.0739 10.801 14.6893 10.7805 14.5318C10.7539 14.3109 10.7539 13.9755 10.7805 13.7546C10.8071 13.5357 10.9094 13.1737 10.9953 12.9875C11.0321 12.9077 11.0648 12.8341 11.0689 12.8218C11.1098 12.7032 11.4289 12.2675 11.6008 12.0977C11.7808 11.9218 12.2062 11.6089 12.3228 11.568C12.3351 11.5639 12.4108 11.5312 12.4905 11.4943C12.6358 11.4248 12.6808 11.4105 12.9426 11.3409C13.2269 11.2632 13.6892 11.2387 14.0328 11.2816Z" />
  <path d="M13.2301 12.9505L13.224 13.7237L12.4529 13.7299L11.6797 13.7339V14.2146V14.6953H12.9376H14.1956V13.4374V12.1794H13.7149H13.2342L13.2301 12.9505Z" />
  <path d="M3.65114 10.4733C3.20318 10.637 2.94137 10.9499 2.86364 11.4122C2.84523 11.5329 2.84728 11.584 2.87387 11.719C3.01705 12.4206 3.70841 12.8154 4.35887 12.5699C4.73114 12.4288 4.99909 12.0913 5.05432 11.6986C5.10546 11.3283 4.99705 11.0133 4.72705 10.7515C4.59409 10.6206 4.49387 10.5592 4.29341 10.4815C4.15637 10.4304 3.78205 10.4263 3.65114 10.4733Z" />
  <path d="M7.01657 10.4656C6.79771 10.5576 6.66066 10.6415 6.55225 10.7438C6.33134 10.9545 6.2168 11.2204 6.2168 11.5231C6.2168 11.8544 6.30884 12.0835 6.53589 12.3147C6.75884 12.5417 6.98998 12.6358 7.32339 12.6338C7.50543 12.6338 7.55862 12.6256 7.67112 12.5826C7.88384 12.4988 7.92884 12.4701 8.07612 12.3269C8.37475 12.0365 8.48316 11.6499 8.38089 11.2531C8.31339 10.9954 8.11089 10.7254 7.88589 10.5945C7.69157 10.4799 7.54021 10.441 7.29475 10.4431C7.16998 10.4431 7.04521 10.4533 7.01657 10.4656Z" />
</g>
<defs>
  <clipPath id="clip0">
    <rect width="18" height="18" fill="white" transform="translate(0 0.5)"/>
  </clipPath>
</defs>
</svg>
