<svg width="18" height="18" viewBox="0 0 18 18" stroke-width="0" xmlns="http://www.w3.org/2000/svg">
  <path d="M16.1712 13.2377C16.5541 13.6226 16.5531 14.2438 16.1692 14.6277L13.9219 16.875C6.85406 16.875 1.125 11.1459 1.125 4.07812L1.12894 4.08108L3.38906 1.82194C3.77395 1.43705 4.39706 1.43705 4.78195 1.82194L7.32164 4.36556C7.70555 4.75045 7.70456 5.37356 7.32066 5.75747L5.0625 8.01562L9.98438 12.9375L12.2396 10.6823C12.6245 10.2974 13.2495 10.2974 13.6335 10.6843L16.1712 13.2377ZM16.875 9H14.9062C14.9062 5.7427 12.2573 3.09375 9 3.09375V1.125C13.3421 1.125 16.875 4.65792 16.875 9ZM12.9375 9H10.9688C10.9688 7.91423 10.0858 7.03125 9 7.03125V5.0625C11.1715 5.0625 12.9375 6.82847 12.9375 9Z" />
</svg>
