<svg width="18" height="18" viewBox="0 0 18 18" stroke-width="0" xmlns="http://www.w3.org/2000/svg">
  <path d="M11.5 14.125H15.25V15.375C15.25 15.72 14.97 16 14.625 16H12.125C11.78 16 11.5 15.72 11.5 15.375V14.125ZM2.125 13.5C1.78 13.5 1.5 13.22 1.5 12.875V9.125C1.5 8.95938 1.56562 8.8 1.68312 8.68313L2.81062 7.55563L4.01875 2.72313C4.08812 2.445 4.33812 2.25 4.625 2.25H13.375C13.6619 2.25 13.9119 2.445 13.9812 2.72313L15.1894 7.55563L16.3169 8.68313C16.4344 8.8 16.5 8.95938 16.5 9.125V12.875C16.5 13.22 16.22 13.5 15.875 13.5H2.125ZM14 10.6875C14 10.17 13.58 9.75 13.0625 9.75C12.545 9.75 12.125 10.17 12.125 10.6875C12.125 11.205 12.545 11.625 13.0625 11.625C13.58 11.625 14 11.205 14 10.6875ZM5.11312 3.5L4.17562 7.25H13.8244L12.8869 3.5H5.11312ZM4.9375 9.75C4.42 9.75 4 10.17 4 10.6875C4 11.205 4.42 11.625 4.9375 11.625C5.455 11.625 5.875 11.205 5.875 10.6875C5.875 10.17 5.455 9.75 4.9375 9.75ZM2.75 14.125H6.5V15.375C6.5 15.72 6.22 16 5.875 16H3.375C3.03 16 2.75 15.72 2.75 15.375V14.125Z" />
  <path d="M11.5 14.125H15.25V15.375C15.25 15.72 14.97 16 14.625 16H12.125C11.78 16 11.5 15.72 11.5 15.375V14.125ZM2.125 13.5C1.78 13.5 1.5 13.22 1.5 12.875V9.125C1.5 8.95938 1.56562 8.8 1.68312 8.68313L2.81062 7.55563L4.01875 2.72313C4.08812 2.445 4.33812 2.25 4.625 2.25H13.375C13.6619 2.25 13.9119 2.445 13.9812 2.72313L15.1894 7.55563L16.3169 8.68313C16.4344 8.8 16.5 8.95938 16.5 9.125V12.875C16.5 13.22 16.22 13.5 15.875 13.5H2.125ZM14 10.6875C14 10.17 13.58 9.75 13.0625 9.75C12.545 9.75 12.125 10.17 12.125 10.6875C12.125 11.205 12.545 11.625 13.0625 11.625C13.58 11.625 14 11.205 14 10.6875ZM5.11312 3.5L4.17562 7.25H13.8244L12.8869 3.5H5.11312ZM4.9375 9.75C4.42 9.75 4 10.17 4 10.6875C4 11.205 4.42 11.625 4.9375 11.625C5.455 11.625 5.875 11.205 5.875 10.6875C5.875 10.17 5.455 9.75 4.9375 9.75ZM2.75 14.125H6.5V15.375C6.5 15.72 6.22 16 5.875 16H3.375C3.03 16 2.75 15.72 2.75 15.375V14.125Z" />
</svg>
