<svg width="34" height="34" viewBox="0 0 34 34" stroke-width="0" xmlns="http://www.w3.org/2000/svg">
<path fill-rule="evenodd" clip-rule="evenodd" d="M5.80795 4.5332C5.29207 4.5332 5.00383 5.12851 5.32377 5.5332L10.0146 11.4667C10.2042 11.7066 10.4932 11.8465 10.799 11.8465H22.4451C22.751 11.8465 23.04 11.7066 23.2296 11.4667L27.9204 5.5332C28.2403 5.12851 27.9521 4.5332 27.4362 4.5332H5.80795ZM8.66383 5.5332C7.82801 5.5332 7.36101 6.4977 7.87936 7.15337L10.4988 10.4667C10.6884 10.7066 10.9774 10.8465 11.2832 10.8465H21.961C22.2668 10.8465 22.5558 10.7066 22.7454 10.4667L25.3648 7.15337C25.8832 6.4977 25.4162 5.5332 24.5803 5.5332H8.66383ZM24.5059 12.7385C24.5059 12.5327 24.5694 12.332 24.6877 12.1636L26.8926 9.02603C27.4542 8.22685 28.7107 8.62421 28.7107 9.60099V27.3787C28.7107 27.931 28.263 28.3787 27.7107 28.3787H25.5059C24.9536 28.3787 24.5059 27.931 24.5059 27.3787V12.7385ZM8.73803 13.0706C8.73803 12.8648 8.67454 12.664 8.55622 12.4957L6.35139 9.3581C5.78978 8.55892 4.5332 8.95628 4.5332 9.93306V27.7107C4.5332 28.263 4.98092 28.7107 5.5332 28.7107H7.73803C8.29032 28.7107 8.73803 28.263 8.73803 27.7107V13.0706ZM10.4424 17.1196V14.7709V13.4222C10.4424 12.8699 10.8902 12.4222 11.4424 12.4222H12.2794H15.697H19.2427H21.7885C22.3407 12.4222 22.7885 12.8699 22.7885 13.4222V14.7709V17.1196V19.5802L22.7966 25.7993L22.8 26.384V27.3786C22.8 27.9308 22.3522 28.3786 21.8 28.3786H20.9515H19.1786H15.697H12.5357H11.4424C10.8902 28.3786 10.4424 27.9308 10.4424 27.3786V26.384V24.3895V21.9848V19.5802V17.1196Z" />
</svg>
