<svg width="20" height="20" viewBox="0 0 20 20" stroke-width="0" xmlns="http://www.w3.org/2000/svg">
  <path d="M11.2381 10.0002L18.786 17.5481C19.1277 17.8898 19.1277 18.4438 18.786 18.7856C18.4443 19.1273 17.8903 19.1273 17.5486 18.7856L10.0007 11.2376L2.4527 18.7856C2.11099 19.1273 1.55697 19.1273 1.21527 18.7856C0.873557 18.4438 0.873557 17.8898 1.21527 17.5481L8.76322 10.0002L1.21527 2.45221C0.873557 2.11051 0.873557 1.55649 1.21527 1.21478C1.55697 0.873069 2.11099 0.873069 2.4527 1.21478L10.0007 8.76273L17.5486 1.21478C17.8903 0.873069 18.4443 0.873069 18.786 1.21478C19.1277 1.55649 19.1277 2.11051 18.786 2.45221L11.2381 10.0002Z" />
</svg>
