<svg width="22" height="23" viewBox="0 0 22 23" stroke-width="0" xmlns="http://www.w3.org/2000/svg">
  <path fill-rule="evenodd" clip-rule="evenodd" d="M3 3.5H18V6.23684H3V3.5ZM2 3.5C2 2.94771 2.44772 2.5 3 2.5H18C18.5523 2.5 19 2.94772 19 3.5V6.23684V6.28947V7.23684V7.28947V18.5C19 19.6046 18.1046 20.5 17 20.5H4C2.89543 20.5 2 19.6046 2 18.5V7.28947V7.23684V6.28947V6.23684V3.5ZM3 7.28947H18V18.5C18 19.0523 17.5523 19.5 17 19.5H4C3.44772 19.5 3 19.0523 3 18.5V7.28947ZM5.77747 10.5263C6.02147 10.5263 6.22191 10.3275 6.22191 10.079C6.22191 9.83043 6.02147 9.63159 5.77747 9.63159C5.53347 9.63159 5.33303 9.83043 5.33303 10.079C5.33303 10.3275 5.53347 10.5263 5.77747 10.5263ZM5.77747 11.0263C6.29907 11.0263 6.72191 10.6022 6.72191 10.079C6.72191 9.55574 6.29907 9.13159 5.77747 9.13159C5.25587 9.13159 4.83303 9.55574 4.83303 10.079C4.83303 10.6022 5.25587 11.0263 5.77747 11.0263ZM10.9446 10.079C10.9446 10.3275 10.7442 10.5263 10.5002 10.5263C10.2562 10.5263 10.0557 10.3275 10.0557 10.079C10.0557 9.83043 10.2562 9.63159 10.5002 9.63159C10.7442 9.63159 10.9446 9.83043 10.9446 10.079ZM11.4446 10.079C11.4446 10.6022 11.0218 11.0263 10.5002 11.0263C9.97855 11.0263 9.55571 10.6022 9.55571 10.079C9.55571 9.55574 9.97855 9.13159 10.5002 9.13159C11.0218 9.13159 11.4446 9.55574 11.4446 10.079ZM15.2219 10.5263C15.4659 10.5263 15.6663 10.3275 15.6663 10.079C15.6663 9.83043 15.4659 9.63159 15.2219 9.63159C14.9779 9.63159 14.7774 9.83043 14.7774 10.079C14.7774 10.3275 14.9779 10.5263 15.2219 10.5263ZM15.2219 11.0263C15.7435 11.0263 16.1663 10.6022 16.1663 10.079C16.1663 9.55574 15.7435 9.13159 15.2219 9.13159C14.7003 9.13159 14.2774 9.55574 14.2774 10.079C14.2774 10.6022 14.7003 11.0263 15.2219 11.0263ZM15.6663 14.8158C15.6663 15.0643 15.4659 15.2631 15.2219 15.2631C14.9779 15.2631 14.7774 15.0643 14.7774 14.8158C14.7774 14.5672 14.9779 14.3684 15.2219 14.3684C15.4659 14.3684 15.6663 14.5672 15.6663 14.8158ZM16.1663 14.8158C16.1663 15.339 15.7435 15.7631 15.2219 15.7631C14.7003 15.7631 14.2774 15.339 14.2774 14.8158C14.2774 14.2926 14.7003 13.8684 15.2219 13.8684C15.7435 13.8684 16.1663 14.2926 16.1663 14.8158ZM10.5002 15.2631C10.7442 15.2631 10.9446 15.0643 10.9446 14.8158C10.9446 14.5672 10.7442 14.3684 10.5002 14.3684C10.2562 14.3684 10.0557 14.5672 10.0557 14.8158C10.0557 15.0643 10.2562 15.2631 10.5002 15.2631ZM10.5002 15.7631C11.0218 15.7631 11.4446 15.339 11.4446 14.8158C11.4446 14.2926 11.0218 13.8684 10.5002 13.8684C9.97855 13.8684 9.55571 14.2926 9.55571 14.8158C9.55571 15.339 9.97855 15.7631 10.5002 15.7631ZM6.22191 14.8158C6.22191 15.0643 6.02147 15.2631 5.77747 15.2631C5.53347 15.2631 5.33303 15.0643 5.33303 14.8158C5.33303 14.5672 5.53347 14.3684 5.77747 14.3684C6.02147 14.3684 6.22191 14.5672 6.22191 14.8158ZM6.72191 14.8158C6.72191 15.339 6.29907 15.7631 5.77747 15.7631C5.25587 15.7631 4.83303 15.339 4.83303 14.8158C4.83303 14.2926 5.25587 13.8684 5.77747 13.8684C6.29907 13.8684 6.72191 14.2926 6.72191 14.8158Z" />
</svg>
