<svg width="18" height="18" viewBox="0 0 18 18" stroke-width="0" xmlns="http://www.w3.org/2000/svg">
  <path d="M11.9531 1.125C13.0359 1.125 13.9219 2.01094 13.9219 3.09375V14.9062C13.9219 15.9891 13.0359 16.875 11.9531 16.875H1.125V1.125H11.9531ZM10.9688 8.01562V4.07812H4.07812V8.01562H10.9688ZM15.8906 3.09375C16.4343 3.09375 16.875 3.53447 16.875 4.07812V5.0625C16.875 5.60616 16.4343 6.04688 15.8906 6.04688C15.347 6.04688 14.9062 5.60616 14.9062 5.0625V4.07812C14.9062 3.53447 15.347 3.09375 15.8906 3.09375ZM15.8906 7.03125C16.4343 7.03125 16.875 7.47197 16.875 8.01562V9C16.875 9.54366 16.4343 9.98438 15.8906 9.98438C15.347 9.98438 14.9062 9.54366 14.9062 9V8.01562C14.9062 7.47197 15.347 7.03125 15.8906 7.03125Z" />
</svg>
