<svg width="18" height="18" viewBox="0 0 18 18" xmlns="http://www.w3.org/2000/svg">
  <path d="M2.95508 2C2.95508 1.17157 3.62665 0.5 4.45508 0.5H9.69121C10.5196 0.5 11.1912 1.17157 11.1912 2V10.2892C11.1912 11.1176 10.5196 11.7892 9.69121 11.7892H4.45508C3.62665 11.7892 2.95508 11.1176 2.95508 10.2892V2Z" fill="white" />
  <path d="M6.81055 7.71094C6.81055 6.88251 7.48212 6.21094 8.31055 6.21094H13.5467C14.3751 6.21094 15.0467 6.88251 15.0467 7.71094V16.0001C15.0467 16.8285 14.3751 17.5001 13.5467 17.5001H8.31055C7.48212 17.5001 6.81055 16.8285 6.81055 16.0001V7.71094Z" fill="white" />
</svg>
