<svg width="28" height="28" viewBox="0 0 28 28" stroke-width="0" xmlns="http://www.w3.org/2000/svg">
<path d="M27.5898 13.6719H0.410156C0.183716 13.6719 0 13.8554 0 14.082V19.3171C0 19.5438 0.183716 19.7273 0.410156 19.7273C0.636597 19.7273 0.820312 19.5438 0.820312 19.3171V16.1328H27.1797V27.1797H0.820312V19.2682C0.820312 19.0417 0.636597 18.858 0.410156 18.858C0.183716 18.858 0 19.0417 0 19.2682V27.5898C0 27.8165 0.183716 28 0.410156 28H27.5898C27.8165 28 28 27.8165 28 27.5898V14.082C28 13.8554 27.8165 13.6719 27.5898 13.6719ZM0.820312 15.3125V14.4922H27.1797V15.3125H0.820312Z" />
<path d="M27.5898 0H0.410156C0.183716 0 0 0.183502 0 0.410156V2.05078C0 2.27744 0.183716 2.46094 0.410156 2.46094H5.38672V4.95691C4.16415 5.05475 3.19922 6.08078 3.19922 7.32812C3.19922 7.67484 3.48141 7.95703 3.82812 7.95703H4.56662C4.56641 7.96494 4.56641 7.97263 4.56641 7.98053C4.56641 8.659 5.11841 9.211 5.79688 9.211C6.47534 9.211 7.02734 8.659 7.02734 7.98053C7.02734 7.97263 7.02713 7.96494 7.02713 7.95703H7.76562C8.11234 7.95703 8.39453 7.67484 8.39453 7.32812C8.39453 6.08078 7.4296 5.05475 6.20703 4.95691V2.46094H13.5898V4.95691C12.3673 5.05475 11.4023 6.08078 11.4023 7.32812C11.4023 7.67484 11.6845 7.95703 12.0312 7.95703H12.7697C12.7695 7.96494 12.7695 7.97263 12.7695 7.98053C12.7695 8.659 13.3215 9.211 14 9.211C14.6785 9.211 15.2305 8.659 15.2305 7.98053C15.2305 7.97263 15.2303 7.96494 15.2303 7.95703H15.9688C16.3155 7.95703 16.5977 7.67484 16.5977 7.32812C16.5977 6.08078 15.6327 5.05475 14.4102 4.95691V2.46094H19.25C19.4767 2.46094 19.6602 2.27744 19.6602 2.05078C19.6602 1.82413 19.4767 1.64062 19.25 1.64062H0.820312V0.820312H27.1797V1.64062H19.0909C18.8643 1.64062 18.6808 1.82413 18.6808 2.05078C18.6808 2.27744 18.8643 2.46094 19.0909 2.46094H21.793V4.95691C20.5704 5.05475 19.6055 6.08078 19.6055 7.32812C19.6055 7.67484 19.8877 7.95703 20.2344 7.95703H20.9729C20.9727 7.96494 20.9727 7.97263 20.9727 7.98053C20.9727 8.659 21.5247 9.211 22.2031 9.211C22.8816 9.211 23.4336 8.659 23.4336 7.98053C23.4336 7.97263 23.4334 7.96494 23.4334 7.95703H24.1719C24.5186 7.95703 24.8008 7.67484 24.8008 7.32812C24.8008 6.08078 23.8358 5.05475 22.6133 4.95691V2.46094H27.5898C27.8165 2.46094 28 2.27744 28 2.05078V0.410156C28 0.183502 27.8165 0 27.5898 0ZM6.20703 7.98053C6.20703 8.20676 6.0231 8.39069 5.79688 8.39069C5.57065 8.39069 5.38672 8.20676 5.38672 7.98053C5.38672 7.97263 5.38693 7.96472 5.38736 7.95703H6.20639C6.20682 7.96472 6.20703 7.97263 6.20703 7.98053ZM7.56247 7.13672H6.49969C6.495 7.13672 6.4903 7.13672 6.48538 7.13672H5.1088C5.10367 7.13651 5.09875 7.13651 5.09363 7.13672H4.03128C4.12592 6.36725 4.78345 5.76953 5.57812 5.76953H6.01562C6.8103 5.76953 7.46783 6.36725 7.56247 7.13672ZM14.4102 7.98053C14.4102 8.20676 14.2262 8.39069 14 8.39069C13.7738 8.39069 13.5898 8.20676 13.5898 7.98053C13.5898 7.97263 13.5901 7.96472 13.5905 7.95703H14.4095C14.4099 7.96472 14.4102 7.97263 14.4102 7.98053ZM15.7656 7.13672H14.7013C14.6975 7.13672 14.6936 7.13672 14.6898 7.13672H13.3119C13.3068 7.13651 13.3019 7.13651 13.2968 7.13672H12.2344C12.3288 6.36725 12.9866 5.76953 13.7812 5.76953H14.2188C15.0134 5.76953 15.671 6.36725 15.7656 7.13672ZM22.6133 7.98053C22.6133 8.20676 22.4294 8.39069 22.2031 8.39069C21.9769 8.39069 21.793 8.20676 21.793 7.98053C21.793 7.97263 21.7932 7.96472 21.7936 7.95703H22.6126C22.6131 7.96472 22.6133 7.97263 22.6133 7.98053ZM23.9687 7.13672H22.9044C22.9006 7.13672 22.8968 7.13672 22.8929 7.13672H21.5133C21.5095 7.13672 21.5056 7.13672 21.5018 7.13672H20.4375C20.5322 6.36725 21.1899 5.76953 21.9844 5.76953H22.4219C23.2166 5.76953 23.8741 6.36725 23.9687 7.13672Z" />
<path d="M11.5391 18.5938H3.69141C3.46497 18.5938 3.28125 18.7773 3.28125 19.0039V24.3086C3.28125 24.5352 3.46497 24.7188 3.69141 24.7188H11.5391C11.7655 24.7188 11.9492 24.5352 11.9492 24.3086V19.0039C11.9492 18.7773 11.7655 18.5938 11.5391 18.5938ZM11.1289 23.8984H4.10156V19.4141H11.1289V23.8984Z" />
<path d="M24.7188 24.3086V19.0039C24.7188 18.7773 24.5352 18.5938 24.3086 18.5938H16.4609C16.2343 18.5938 16.0508 18.7773 16.0508 19.0039V24.3086C16.0508 24.5352 16.2343 24.7188 16.4609 24.7188H24.3086C24.5352 24.7188 24.7188 24.5352 24.7188 24.3086ZM23.8984 23.8984H16.8711V19.4141H23.8984V23.8984Z" />
</svg>
