<svg width="20" height="20" viewBox="0 0 20 20" fill="none" xmlns="http://www.w3.org/2000/svg">
<g clip-path="url(#clip0)">
<path d="M18.75 5H1.25C0.560833 5 0 4.43917 0 3.75V1.25C0 0.560833 0.560833 0 1.25 0H18.75C19.4392 0 20 0.560833 20 1.25V3.75C20 4.43917 19.4392 5 18.75 5ZM1.25 0.833333C1.02083 0.833333 0.833333 1.02 0.833333 1.25V3.75C0.833333 3.98 1.02083 4.16667 1.25 4.16667H18.75C18.9792 4.16667 19.1667 3.98 19.1667 3.75V1.25C19.1667 1.02 18.9792 0.833333 18.75 0.833333H1.25Z" fill="#416BDB"/>
<path d="M17.5 12.5C16.1217 12.5 15 11.3783 15 10C15 8.62167 16.1217 7.5 17.5 7.5C18.8783 7.5 20 8.62167 20 10C20 11.3783 18.8783 12.5 17.5 12.5ZM17.5 8.33333C16.5808 8.33333 15.8333 9.08083 15.8333 10C15.8333 10.9192 16.5808 11.6667 17.5 11.6667C18.4192 11.6667 19.1667 10.9192 19.1667 10C19.1667 9.08083 18.4192 8.33333 17.5 8.33333Z" fill="#416BDB"/>
<path d="M17.5 20C16.1217 20 15 18.8783 15 17.5C15 16.1217 16.1217 15 17.5 15C18.8783 15 20 16.1217 20 17.5C20 18.8783 18.8783 20 17.5 20ZM17.5 15.8333C16.5808 15.8333 15.8333 16.5808 15.8333 17.5C15.8333 18.4192 16.5808 19.1667 17.5 19.1667C18.4192 19.1667 19.1667 18.4192 19.1667 17.5C19.1667 16.5808 18.4192 15.8333 17.5 15.8333Z" fill="#416BDB"/>
<path d="M12.9167 9.16732H0.416667C0.186667 9.16732 0 8.98066 0 8.75065C0 8.52065 0.186667 8.33398 0.416667 8.33398H12.9167C13.1467 8.33398 13.3333 8.52065 13.3333 8.75065C13.3333 8.98066 13.1467 9.16732 12.9167 9.16732Z" fill="#416BDB"/>
<path d="M12.9167 11.6673H0.416667C0.186667 11.6673 0 11.4806 0 11.2506C0 11.0206 0.186667 10.834 0.416667 10.834H12.9167C13.1467 10.834 13.3333 11.0206 13.3333 11.2506C13.3333 11.4806 13.1467 11.6673 12.9167 11.6673Z" fill="#416BDB"/>
<path d="M12.9167 16.6673H0.416667C0.186667 16.6673 0 16.4806 0 16.2506C0 16.0206 0.186667 15.834 0.416667 15.834H12.9167C13.1467 15.834 13.3333 16.0206 13.3333 16.2506C13.3333 16.4806 13.1467 16.6673 12.9167 16.6673Z" fill="#416BDB"/>
<path d="M12.9167 19.1673H0.416667C0.186667 19.1673 0 18.9806 0 18.7506C0 18.5206 0.186667 18.334 0.416667 18.334H12.9167C13.1467 18.334 13.3333 18.5206 13.3333 18.7506C13.3333 18.9806 13.1467 19.1673 12.9167 19.1673Z" fill="#416BDB"/>
</g>
<defs>
<clipPath id="clip0">
<rect width="20" height="20" fill="white"/>
</clipPath>
</defs>
</svg>
