<svg width="42" height="42" viewBox="0 0 42 42" stroke-width="0" xmlns="http://www.w3.org/2000/svg">
<path d="M30.8 10H11.2C10.78 10 10.5 10.28 10.5 10.7V12.66C10.5 13.85 11.48 14.9 12.74 14.9H17.5V15.6C17.5 16.79 18.41 17.7 19.6 17.7H20.3V26.8H18.2C17.01 26.8 16.1 27.71 16.1 28.9V30.3C16.1 30.72 16.38 31 16.8 31H25.2C25.62 31 25.9 30.72 25.9 30.3V28.9C25.9 27.71 24.99 26.8 23.8 26.8H21.7V17.7H22.4C23.59 17.7 24.5 16.79 24.5 15.6V14.9H29.26C30.45 14.9 31.5 13.92 31.5 12.66V10.7C31.5 10.28 31.22 10 30.8 10ZM23.8 28.2C24.22 28.2 24.5 28.48 24.5 28.9V29.6H17.5V28.9C17.5 28.48 17.78 28.2 18.2 28.2H23.8ZM23.1 15.6C23.1 16.02 22.82 16.3 22.4 16.3H19.6C19.18 16.3 18.9 16.02 18.9 15.6V14.9H23.1V15.6ZM30.1 12.66C30.1 13.08 29.75 13.5 29.26 13.5H12.74C12.25 13.5 11.9 13.15 11.9 12.66V11.4H30.1V12.66Z" />
<path d="M9.1 19.6004H4.2V10.5004C4.2 9.31039 3.29 8.40039 2.1 8.40039H0.7C0.28 8.40039 0 8.68039 0 9.10039V32.9004C0 33.3204 0.28 33.6004 0.7 33.6004C1.12 33.6004 1.4 33.3204 1.4 32.9004V23.8004H9.8V32.9004C9.8 33.3204 10.08 33.6004 10.5 33.6004C10.92 33.6004 11.2 33.3204 11.2 32.9004V21.7004C11.2 20.5104 10.29 19.6004 9.1 19.6004ZM1.4 9.80039H2.1C2.52 9.80039 2.8 10.0804 2.8 10.5004V19.6004H1.4V9.80039ZM9.8 22.4004H1.4V21.0004H9.1C9.52 21.0004 9.8 21.2804 9.8 21.7004V22.4004Z" />
<path d="M41.3008 8.40039H39.9008C38.7108 8.40039 37.8008 9.31039 37.8008 10.5004V19.6004H32.9008C31.7108 19.6004 30.8008 20.5104 30.8008 21.7004V32.9004C30.8008 33.3204 31.0808 33.6004 31.5008 33.6004C31.9208 33.6004 32.2008 33.3204 32.2008 32.9004V23.8004H40.6008V32.9004C40.6008 33.3204 40.8808 33.6004 41.3008 33.6004C41.7208 33.6004 42.0008 33.3204 42.0008 32.9004V9.10039C42.0008 8.68039 41.7208 8.40039 41.3008 8.40039ZM40.6008 22.4004H32.2008V21.7004C32.2008 21.2804 32.4808 21.0004 32.9008 21.0004H40.6008V22.4004ZM40.6008 19.6004H39.2008V10.5004C39.2008 10.0804 39.4808 9.80039 39.9008 9.80039H40.6008V19.6004Z" />
</svg>
