<svg width="22" height="22" viewBox="0 0 22 22" stroke-width="0" xmlns="http://www.w3.org/2000/svg">
<path d="M14.8328 2.60858C15.0878 2.60858 15.2945 2.40187 15.2945 2.14688C15.2945 1.89189 15.0878 1.68518 14.8328 1.68518C14.5778 1.68518 14.3711 1.89189 14.3711 2.14688C14.3711 2.40187 14.5778 2.60858 14.8328 2.60858Z" />
<path d="M13.3562 2.60858C13.6112 2.60858 13.8179 2.40187 13.8179 2.14688C13.8179 1.89189 13.6112 1.68518 13.3562 1.68518C13.1012 1.68518 12.8945 1.89189 12.8945 2.14688C12.8945 2.40187 13.1012 2.60858 13.3562 2.60858Z" />
<path d="M13.2387 5.42493H8.76018C8.50624 5.42493 8.27539 5.63269 8.27539 5.90971C8.27539 6.16365 8.50624 6.3945 8.76018 6.3945H13.2387C13.4926 6.3945 13.7235 6.18673 13.7235 5.90971C13.7235 5.65578 13.5157 5.42493 13.2387 5.42493Z" />
<path d="M17.4176 3.32415C18.0678 3.32415 18.5949 2.79704 18.5949 2.14682C18.5949 1.49659 18.0678 0.969482 17.4176 0.969482C16.7673 0.969482 16.2402 1.49659 16.2402 2.14682C16.2402 2.79704 16.7673 3.32415 17.4176 3.32415Z" />
<path d="M20.2115 0H1.78963C1.58187 0 1.44336 0.161595 1.44336 0.346275V20.8688C1.44336 21.0766 1.60495 21.2151 1.78963 21.2151H3.26707V21.2382C3.29016 21.6537 3.63643 22 4.07505 22H5.85259C6.26812 22 6.6144 21.6768 6.66057 21.2382H15.3636C15.3867 21.6537 15.733 22 16.1716 22H17.926C18.3416 22 18.6879 21.6768 18.734 21.2382H20.2115C20.4192 21.2382 20.5577 21.0766 20.5577 20.8919V0.346275C20.5577 0.13851 20.3961 0 20.2115 0ZM5.66791 0.715635H8.23035V3.57817H5.66791V0.715635ZM2.15899 0.715635H4.95228V3.57817H2.15899V0.715635ZM2.15899 4.27072H19.8421V18.191H2.15899V4.27072ZM19.8652 20.5226H2.15899V18.9297H19.8652V20.5226ZM19.8652 3.57817H19.8421H8.94598V0.715635H19.8652V3.57817Z" />
</svg>
