<svg width="16" height="16" viewBox="0 0 16 16" stroke-width="0" xmlns="http://www.w3.org/2000/svg">
  <path d="M8.00078 9.0999C7.2552 9.0999 6.65078 8.49549 6.65078 7.7499C6.65078 7.00432 7.2552 6.3999 8.00078 6.3999C8.74637 6.3999 9.35078 7.00432 9.35078 7.7499C9.35078 8.49549 8.74637 9.0999 8.00078 9.0999ZM2.15078 9.0999C1.4052 9.0999 0.800781 8.49549 0.800781 7.7499C0.800781 7.00432 1.4052 6.3999 2.15078 6.3999C2.89637 6.3999 3.50078 7.00432 3.50078 7.7499C3.50078 8.49549 2.89637 9.0999 2.15078 9.0999ZM13.8508 9.0999C13.1052 9.0999 12.5008 8.49549 12.5008 7.7499C12.5008 7.00432 13.1052 6.3999 13.8508 6.3999C14.5964 6.3999 15.2008 7.00432 15.2008 7.7499C15.2008 8.49549 14.5964 9.0999 13.8508 9.0999Z" />
</svg>
