<svg width="4" height="19" viewBox="0 0 4 19" stroke-width="0" xmlns="http://www.w3.org/2000/svg">
  <path d="M3.375 9.5C3.375 10.432 2.61948 11.1875 1.6875 11.1875C0.755519 11.1875 0 10.432 0 9.5C0 8.56802 0.755519 7.8125 1.6875 7.8125C2.61948 7.8125 3.375 8.56802 3.375 9.5ZM3.375 16.8125C3.375 17.7445 2.61948 18.5 1.6875 18.5C0.755519 18.5 0 17.7445 0 16.8125C0 15.8805 0.755519 15.125 1.6875 15.125C2.61948 15.125 3.375 15.8805 3.375 16.8125ZM3.375 2.1875C3.375 3.11948 2.61948 3.875 1.6875 3.875C0.755519 3.875 0 3.11948 0 2.1875C0 1.25552 0.755519 0.5 1.6875 0.5C2.61948 0.5 3.375 1.25552 3.375 2.1875Z" />
</svg>
