<svg width="45" height="39" viewBox="0 0 45 39" stroke-width="0" xmlns="http://www.w3.org/2000/svg">
  <path d="M39.7486 13.1138C39.7486 13.0575 39.7486 13.0013 39.7486 12.945C39.752 5.90225 34.0454 0.190295 27.0026 0.187013C22.719 0.18495 18.7205 2.33385 16.3585 5.90741C11.6374 4.3315 6.5327 6.88115 4.9568 11.6022C4.65084 12.5189 4.49426 13.4788 4.49313 14.4452C4.49313 14.509 4.49313 14.5735 4.49313 14.638C1.28535 15.4713 -0.639543 18.7473 0.193743 21.9549C0.8801 24.5971 3.26341 26.4432 5.99336 26.4471H19.446C19.8602 26.4471 20.1961 26.1113 20.1961 25.697C20.1961 25.2827 19.8602 24.9469 19.446 24.9469H5.99336C3.50776 24.9321 1.50476 22.9052 1.51948 20.4195C1.5327 18.1911 3.17471 16.308 5.38052 15.9912C5.77733 15.9379 6.06228 15.5822 6.02787 15.1834C6.00762 14.9418 5.99336 14.6935 5.99336 14.4452C5.99871 10.2971 9.3658 6.93863 13.5139 6.94398C14.4976 6.94519 15.4715 7.13976 16.3802 7.51641C16.7246 7.65949 17.1219 7.52785 17.3126 7.20736C20.4767 1.85902 27.3773 0.0883726 32.7257 3.25237C36.1513 5.279 38.2514 8.9647 38.2484 12.945C38.2484 13.1933 38.2416 13.4341 38.2214 13.6756C38.1866 14.0792 38.4785 14.4375 38.8807 14.485C41.7587 14.8411 43.8031 17.4629 43.447 20.3409C43.1221 22.9667 40.8942 24.9406 38.2484 24.9469C38.0228 24.9472 37.7973 24.9339 37.5733 24.9071C37.4656 24.8939 37.3563 24.9076 37.2552 24.9469H25.4694C25.0551 24.9469 24.7193 25.2827 24.7193 25.697C24.7193 26.1113 25.0551 26.4471 25.4694 26.4471H37.4983C37.5556 26.4469 37.6126 26.4391 37.6678 26.4239C37.8576 26.4396 38.0519 26.4471 38.2484 26.4471C41.9769 26.4472 44.9995 23.4247 44.9995 19.6962C44.9996 16.5456 42.8204 13.8138 39.7486 13.1138Z" />
  <path d="M28.3307 31.1677L23.2464 36.252V15.1954C23.2464 14.7812 22.9106 14.4453 22.4963 14.4453C22.0821 14.4453 21.7462 14.7812 21.7462 15.1954V36.252L16.6619 31.1677C16.3639 30.8798 15.8891 30.8881 15.6012 31.1861C15.3205 31.4767 15.3205 31.9376 15.6012 32.2283L21.966 38.5931C22.2589 38.8859 22.7337 38.8859 23.0267 38.5931L29.3914 32.2283C29.6793 31.9304 29.671 31.4555 29.373 31.1677C29.0824 30.8868 28.6214 30.8868 28.3307 31.1677Z" />
</svg>
