<svg width="18" height="18" viewBox="0 0 18 18" stroke-width="0" xmlns="http://www.w3.org/2000/svg">
  <path d="M9.25266 8.07188C7.33734 7.57406 6.72141 7.05937 6.72141 6.25781C6.72141 5.33812 7.57359 4.69687 8.99953 4.69687C10.5014 4.69687 11.0583 5.41406 11.1089 6.46875H12.9736C12.9145 5.0175 12.0286 3.68438 10.2652 3.25406V1.40625H7.73391V3.22875C6.09703 3.58313 4.78078 4.64625 4.78078 6.27469C4.78078 8.22375 6.39234 9.19406 8.74641 9.75938C10.8558 10.2656 11.2777 11.0081 11.2777 11.7928C11.2777 12.375 10.8642 13.3031 8.99953 13.3031C7.26141 13.3031 6.57797 12.5269 6.48516 11.5312H4.62891C4.73016 13.3791 6.11391 14.4169 7.73391 14.7628V16.5938H10.2652V14.7797C11.9105 14.4675 13.2183 13.5141 13.2183 11.7844C13.2183 9.38813 11.168 8.56969 9.25266 8.07188Z" />
</svg>
