<svg width="30" height="28" viewBox="0 0 30 28" stroke-width="0" xmlns="http://www.w3.org/2000/svg">
<g clip-path="url(#clip0)">
<path d="M12.971 0.0742903C12.7166 0.222892 12.7166 0.228199 12.7115 2.84995V5.30718H10.8799C9.38413 5.30718 9.01782 5.3231 8.9008 5.38148C8.79905 5.43986 8.39203 6.10856 7.288 8.02977L5.81765 10.6038L4.5966 10.625C3.28906 10.6409 3.22292 10.6568 3.08555 10.9275C2.98888 11.1186 2.98888 15.4758 3.09064 15.6668C3.24327 15.964 2.46994 15.9481 15.001 15.9481C27.532 15.9481 26.7587 15.964 26.9113 15.6668C27.013 15.4758 27.013 11.1186 26.9164 10.9275C26.7841 10.6674 26.6925 10.6409 25.6648 10.6144L24.6981 10.5878L23.2227 8.02446C22.2408 6.32616 21.7015 5.43455 21.615 5.38679C21.5132 5.32841 21.152 5.31249 19.9004 5.30718H18.308V2.86587C18.308 0.212277 18.308 0.196356 18.0281 0.0636759C17.8246 -0.0318537 13.1389 -0.0212393 12.971 0.0742903ZM17.2904 3.1843V5.30718H15.5097H13.729V3.1843V1.06143H15.5097H17.2904V3.1843ZM22.2917 8.48088L23.5076 10.5878L19.3815 10.6038C17.1124 10.6091 13.3983 10.6091 11.1343 10.6038L7.01326 10.5878L8.21905 8.48088L9.42992 6.36862H15.2553H21.0808L22.2917 8.48088ZM25.9395 13.3051V14.9132H15.001H4.06239V13.3051V11.7023H15.001H25.9395V13.3051Z" />
<path d="M18.155 12.2754C17.9108 12.3603 17.7988 12.6098 17.7988 13.0556C17.7988 13.4961 17.9158 13.7136 18.1906 13.7933C18.5976 13.9153 19.0504 13.8304 19.2233 13.6022C19.3047 13.4907 19.3251 13.3899 19.3251 13.029C19.3251 12.6681 19.3047 12.5673 19.2233 12.4558C19.0453 12.2223 18.5416 12.1374 18.155 12.2754Z" />
<path d="M20.1901 12.2702C19.951 12.3604 19.834 12.6152 19.834 13.0291C19.834 13.666 20.0884 13.8889 20.7498 13.8305C21.0347 13.804 21.1008 13.7775 21.2229 13.6395C21.3501 13.4909 21.3603 13.4431 21.3603 13.0291C21.3603 12.6152 21.3501 12.5674 21.2229 12.4188C21.0957 12.2702 21.0449 12.2543 20.7243 12.2278C20.5056 12.2171 20.297 12.2331 20.1901 12.2702Z" />
<path d="M22.327 12.2385C21.976 12.3712 21.8691 12.5569 21.8691 13.0186C21.8691 13.6555 22.037 13.8253 22.673 13.8253C23.0902 13.8253 23.1055 13.82 23.2479 13.6502C23.3853 13.491 23.3955 13.4538 23.3955 13.0133C23.3955 12.5622 23.3904 12.541 23.2479 12.3977C23.1156 12.265 23.0495 12.2438 22.7493 12.2279C22.5611 12.2172 22.3677 12.2226 22.327 12.2385Z" />
<path d="M12.6701 17.2004C12.1105 17.5348 11.6017 18.2088 11.327 18.9784C11.2354 19.2384 11.2151 19.4135 11.2151 20.008C11.21 20.8518 11.2914 21.2127 11.7035 22.1574C12.2784 23.4682 12.4717 24.3121 12.3598 25.0073C12.2835 25.4903 12.1512 25.7769 11.8154 26.1643C11.5203 26.5093 11.4949 26.6048 11.617 26.8808C11.7442 27.1567 12.024 27.2417 12.2987 27.0931C12.5226 26.9763 12.955 26.4403 13.1128 26.0847C13.6215 24.9649 13.5045 23.7283 12.721 21.9451C12.3903 21.1861 12.2529 20.7085 12.2173 20.2202C12.1563 19.318 12.487 18.6175 13.2247 18.0974C13.5249 17.8798 13.5961 17.7683 13.5859 17.487C13.5808 17.2694 13.3265 17.0359 13.1026 17.0359C13.0161 17.0359 12.8177 17.1102 12.6701 17.2004Z" />
<path d="M15.2293 17.19C14.8885 17.397 14.4153 17.9065 14.1711 18.3204C13.8658 18.8511 13.7539 19.2916 13.7539 20.0081C13.7539 20.8838 13.82 21.1385 14.4764 22.7148C14.8325 23.5639 14.919 23.9513 14.919 24.6254C14.9139 25.3418 14.802 25.6656 14.4 26.122C14.1507 26.398 14.11 26.4723 14.11 26.6527C14.11 26.8225 14.1457 26.8968 14.2779 27.0189C14.5629 27.2843 14.8223 27.2047 15.2446 26.7217C15.7636 26.1326 15.9976 25.3737 15.9518 24.4396C15.9111 23.6223 15.7636 23.0863 15.2293 21.8391C15.0767 21.4888 14.919 21.0589 14.8732 20.8838C14.5679 19.6684 14.8681 18.7344 15.7686 18.0922C16.2011 17.7844 16.2723 17.45 15.962 17.1475C15.7992 16.9883 15.5346 17.0042 15.2293 17.19Z" />
<path d="M17.8335 17.1476C17.5486 17.3015 16.9329 17.9384 16.7396 18.2727C16.3529 18.9361 16.2003 19.7959 16.3224 20.576C16.4089 21.1386 16.5412 21.5738 16.8414 22.2637C17.2026 23.0916 17.3247 23.4578 17.4214 23.9514C17.5893 24.8005 17.4315 25.5595 16.9889 26.069C16.8566 26.2229 16.7193 26.4033 16.6836 26.4723C16.5921 26.6474 16.6582 26.881 16.8465 27.0455C16.9787 27.1622 17.0398 27.1782 17.2128 27.1569C17.3807 27.1304 17.4672 27.072 17.7368 26.7748C18.3168 26.138 18.5458 25.4162 18.4949 24.3919C18.4593 23.6595 18.2812 23.0173 17.8284 21.9559C17.4112 20.99 17.3247 20.6503 17.3196 20.0082C17.3196 19.6048 17.3451 19.4403 17.4366 19.1962C17.5893 18.7875 17.8793 18.4213 18.2761 18.1241C18.6424 17.8534 18.7544 17.6359 18.6679 17.3917C18.5407 17.0415 18.2049 16.9406 17.8335 17.1476Z" />
</g>
<defs>
<clipPath id="clip0">
<rect width="30" height="28" stroke-width="0" />
</clipPath>
</defs>
</svg>
