<svg width="16" height="12" viewBox="0 0 16 12" stroke-width="0" xmlns="http://www.w3.org/2000/svg">
  <path d="M8 0.86377C4.36364 0.86377 1.25818 3.12559 0 6.31832C1.25818 9.51104 4.36364 11.7729 8 11.7729C11.6364 11.7729 14.7418 9.51104 16 6.31832C14.7418 3.12559 11.6364 0.86377 8 0.86377ZM8 9.95468C5.99273 9.95468 4.36364 8.32559 4.36364 6.31832C4.36364 4.31104 5.99273 2.68195 8 2.68195C10.0073 2.68195 11.6364 4.31104 11.6364 6.31832C11.6364 8.32559 10.0073 9.95468 8 9.95468ZM8 4.1365C6.79273 4.1365 5.81818 5.11104 5.81818 6.31832C5.81818 7.52559 6.79273 8.50013 8 8.50013C9.20727 8.50013 10.1818 7.52559 10.1818 6.31832C10.1818 5.11104 9.20727 4.1365 8 4.1365Z" />
</svg>
