<svg width="16" height="15" viewBox="0 0 16 15" stroke-width="0" xmlns="http://www.w3.org/2000/svg">
  <path d="M15.8978 7.47804C16.0341 7.69486 16.0341 7.97054 15.8978 8.18736C15.7698 8.39069 12.7139 13.1659 8 13.1659C7.26747 13.1613 6.54003 13.0437 5.84338 12.8173L13.7099 4.95076C14.5431 5.69732 15.2783 6.54652 15.8978 7.47804ZM15.1372 0.694854C15.3974 0.955182 15.3974 1.37717 15.1372 1.6375L2.47078 14.3039C2.30429 14.4812 2.05444 14.5538 1.81887 14.4932C1.58331 14.4327 1.39941 14.2486 1.33903 14.013C1.27866 13.7774 1.35139 13.5276 1.5288 13.3612L3.34143 11.5486C2.0718 10.6281 0.975126 9.49014 0.102168 8.18736C-0.0340561 7.97054 -0.0340561 7.69486 0.102168 7.47804C0.230166 7.27471 3.2861 2.49948 8 2.49948C9.2192 2.51176 10.417 2.82089 11.4899 3.40013L14.1952 0.694854C14.4555 0.435049 14.8769 0.435049 15.1372 0.694854ZM5.33339 7.8327C5.33631 8.30611 5.46864 8.76971 5.71605 9.17334L9.3413 5.54875C8.93761 5.30094 8.47368 5.16859 8 5.16609C6.52727 5.16609 5.33339 6.35997 5.33339 7.8327Z" />
</svg>
