<svg width="20" height="20" viewBox="0 0 20 20" stroke-width="0" xmlns="http://www.w3.org/2000/svg">
<path d="M17.082 5.89453L11.6563 0.416016C11.5684 0.328125 11.4727 0.253906 11.3691 0.191406C11.3418 0.175781 11.3145 0.160156 11.2852 0.146484C11.2676 0.136719 11.248 0.128906 11.2305 0.121094C11.0547 0.0429688 10.8613 0 10.6641 0H3.92578C3.14844 0 2.5 0.628906 2.5 1.40625V18.5938C2.5 19.3711 3.14844 20 3.92578 20H16.0938C16.8711 20 17.4805 19.3711 17.4805 18.5938V6.88477C17.4805 6.51367 17.3438 6.1582 17.082 5.89453ZM11.3867 2.15625L15.3086 6.09375H11.3867V2.15625ZM16.0742 18.5938H3.90625V1.40625H9.98047V6.09375C9.98047 6.87109 10.6289 7.5 11.4063 7.5H16.0742V18.5938ZM6.83594 13.6035C6.83594 14.0762 6.68945 14.2168 6.4082 14.2168C6.23242 14.2168 6.04883 14.1035 5.92383 13.8555L5.33008 14.2969C5.5918 14.7441 5.96094 14.9648 6.52734 14.9648C7.33984 14.9648 7.71484 14.3809 7.71484 13.6719V11.2695H6.83594V13.6035ZM9.79102 11.2695H8.53516V14.9023H9.39453V13.6914H9.81641C10.5801 13.6914 11.2441 13.3086 11.2441 12.4492C11.2441 11.5547 10.5898 11.2695 9.79102 11.2695ZM9.77539 13.0078H9.39453V11.9727H9.75C10.1699 11.9727 10.4023 12.0938 10.4023 12.459C10.4023 12.8125 10.1973 13.0078 9.77539 13.0078ZM13.3398 12.832V13.5352H13.9258V14.123C13.8477 14.1797 13.7109 14.2148 13.5801 14.2148C12.9102 14.2148 12.5898 13.7969 12.5898 13.0781C12.5898 12.373 12.9746 11.957 13.5098 11.957C13.8086 11.957 13.998 12.0781 14.1738 12.2383L14.6367 11.6855C14.3887 11.4355 14.0098 11.2129 13.4805 11.2129C12.5117 11.2129 11.7012 11.9023 11.7012 13.1074C11.7012 14.332 12.4824 14.9648 13.4883 14.9648C13.9941 14.9648 14.4492 14.7656 14.6895 14.5234V12.832H13.3398Z" />
</svg>
