<svg width="18" height="22" viewBox="0 0 18 22" xmlns="http://www.w3.org/2000/svg">
<path d="M5.55591 11.2522H10.623C10.8982 11.2522 11.1232 11.0207 11.1232 10.7379C11.1232 10.455 10.8982 10.2236 10.623 10.2236H5.55591C5.2807 10.2236 5.05566 10.455 5.05566 10.7379C5.05566 11.0207 5.2807 11.2522 5.55591 11.2522Z" stroke-width="0" />
<path d="M5.63938 13.7981H11.5519C11.8731 13.7981 12.1357 13.5666 12.1357 13.2838C12.1357 13.0009 11.8731 12.7695 11.5519 12.7695H5.63938C5.31825 12.7695 5.05566 13.0009 5.05566 13.2838C5.05566 13.5666 5.31825 13.7981 5.63938 13.7981Z" stroke-width="0" />
<path d="M5.71548 16.5676H12.3989C12.7619 16.5676 13.0587 16.3361 13.0587 16.0533C13.0587 15.7704 12.7619 15.5391 12.3989 15.5391H5.71548C5.35249 15.5391 5.05566 15.7704 5.05566 16.0533C5.05566 16.3361 5.35249 16.5676 5.71548 16.5676Z" stroke-width="0" />
<path d="M1.46953 18.341V3.76953C1.46953 2.49928 2.49928 1.46953 3.76953 1.46953H11.4172C12.0171 1.46953 12.5933 1.70393 13.0228 2.12273L16.2161 5.23618C16.8531 5.85728 17.2124 6.70928 17.2124 7.59898V18.341C17.2124 19.6112 16.1826 20.641 14.9124 20.641H3.76953C2.49928 20.641 1.46953 19.6112 1.46953 18.341Z" fill="none" stroke-width="1.4"/>
<path d="M11.9121 1.62695V5.76981C11.9121 6.32209 12.3598 6.76981 12.9121 6.76981H17.055" fill="none" />
</svg>
