<svg width="24" height="24" viewBox="0 0 24 24" stroke-width="0" xmlns="http://www.w3.org/2000/svg">
<path fill-rule="evenodd" clip-rule="evenodd" d="M22.5 13C22.5 12.4477 22.0523 12 21.5 12H13.25C12.6977 12 12.25 12.4477 12.25 13V21.5225C12.25 22.0748 12.6977 22.5225 13.25 22.5225H21.5C22.0523 22.5225 22.5 22.0748 22.5 21.5225V13ZM22.5 10C22.5 10.5523 22.0523 11 21.5 11H13.25C12.6977 11 12.25 10.5523 12.25 10V2C12.25 1.44772 12.6977 1 13.25 1H21.5C22.0523 1 22.5 1.44772 22.5 2V10ZM23.5 11V12V22.5225V22.5532C23.5 23.0885 23.0661 23.5225 22.5308 23.5225H0.969225C0.433937 23.5225 0 23.0885 0 22.5532V22.5225V12V11V1V0.5C0 0.223858 0.223858 0 0.5 0H11.75H23C23.2761 0 23.5 0.223858 23.5 0.5V1V11ZM10.25 12C10.8023 12 11.25 12.4477 11.25 13V21.5225C11.25 22.0748 10.8023 22.5225 10.25 22.5225H2C1.44772 22.5225 1 22.0748 1 21.5225V13C1 12.4477 1.44772 12 2 12H10.25ZM2 1C1.44772 1 1 1.44772 1 2V10C1 10.5523 1.44772 11 2 11H10.25C10.8023 11 11.25 10.5523 11.25 10V2C11.25 1.44772 10.8023 1 10.25 1H2Z" stroke-width="0" />
<rect x="20" y="2" width="1" height="8" rx="0.5" stroke-width="0" />
<rect x="2" y="13" width="1" height="8" rx="0.5" stroke-width="0" />
</svg>
