<svg width="20" height="20" viewBox="0 0 20 20" stroke-width="0" xmlns="http://www.w3.org/2000/svg">
<path d="M3.66637 16.6667H11.6664H19.6664C19.8664 16.6667 19.9997 16.5334 19.9997 16.3334V10.3334V4.33336V0.33332C19.9997 0.13332 19.8664 0 19.6664 0H13.333H9.66633H3.66633C3.46633 0 3.33301 0.13332 3.33301 0.33332V8.33332V11V15V16.3333C3.33301 16.5333 3.46637 16.6667 3.66637 16.6667ZM3.99969 11.3333H7.33301C7.16633 13.1 5.76633 14.5 3.99969 14.6666V11.3333ZM3.99969 0.66668H9.33301V2.66668H8.99969C8.79969 2.66668 8.66637 2.8 8.66637 3C8.66637 3.2 8.79969 3.33332 8.99969 3.33332H10.333C10.533 3.33332 10.6663 3.2 10.6663 3C10.6663 2.8 10.533 2.66668 10.333 2.66668H9.99969V0.66668H12.9997V4.33336C12.9997 4.53336 13.133 4.66668 13.333 4.66668H14.6663V5C14.6663 5.2 14.7996 5.33332 14.9996 5.33332C15.1996 5.33332 15.333 5.2 15.333 5V3.66668C15.333 3.46668 15.1996 3.33336 14.9996 3.33336C14.7996 3.33336 14.6663 3.46668 14.6663 3.66668V4H13.6663V0.66668H19.333V4H17.9997V3.66668C17.9997 3.46668 17.8664 3.33336 17.6664 3.33336C17.4664 3.33336 17.333 3.46668 17.333 3.66668V5C17.333 5.2 17.4664 5.33332 17.6664 5.33332C17.8664 5.33332 17.9997 5.2 17.9997 5V4.66668H19.333V10H17.333V9.66668C17.333 9.46668 17.1997 9.33336 16.9997 9.33336C16.7997 9.33336 16.6664 9.46668 16.6664 9.66668V11C16.6664 11.2 16.7997 11.3333 16.9997 11.3333C17.1997 11.3333 17.333 11.2 17.333 11V10.6667H19.333V16H11.9997V10.6667H13.9997V11C13.9997 11.2 14.133 11.3333 14.333 11.3333C14.533 11.3333 14.6663 11.2 14.6663 11V9.66668C14.6663 9.46668 14.533 9.33336 14.333 9.33336C14.133 9.33336 13.9997 9.46668 13.9997 9.66668V10H11.6664C11.4664 10 11.333 10.1333 11.333 10.3333V16H3.99969V15.3208C6.24285 15.1516 7.99969 13.2878 7.99969 11C7.99969 10.8 7.86637 10.6667 7.66637 10.6667H3.99969V8.66668H9.66637C9.86637 8.66668 9.99969 8.53336 9.99969 8.33336V6H10.333C10.533 6 10.6663 5.86668 10.6663 5.66668C10.6663 5.46668 10.533 5.33336 10.333 5.33336H8.99969C8.79969 5.33336 8.66637 5.46668 8.66637 5.66668C8.66637 5.86668 8.79969 6 8.99969 6H9.33301V8H3.99969V0.66668Z" />
<path d="M2.56667 16.5667C2.69999 16.4334 2.69999 16.2334 2.56667 16.1C2.43335 15.9667 2.23335 15.9667 2.09999 16.1L1.66667 16.5333V1.13332L2.09999 1.56668C2.16667 1.63336 2.23331 1.66668 2.33331 1.66668C2.43331 1.66668 2.49999 1.63336 2.56663 1.56668C2.69995 1.43336 2.69995 1.23336 2.56663 1.1L1.6237 0.157031C1.56921 0.0590234 1.46608 0 1.33331 0C1.20054 0 1.09745 0.0590234 1.04292 0.157031L0.0999902 1.1C-0.0333301 1.23332 -0.0333301 1.43332 0.0999902 1.56668C0.233311 1.70004 0.433311 1.7 0.56667 1.56668L0.99999 1.13332V16.5333L0.56667 16.1C0.43335 15.9667 0.23335 15.9667 0.0999902 16.1C-0.0333301 16.2333 -0.0333301 16.4333 0.0999902 16.5667L1.04296 17.5096C1.09745 17.6077 1.20054 17.6667 1.33335 17.6667C1.46612 17.6667 1.56921 17.6077 1.6237 17.5096L2.56667 16.5667Z" />
<path d="M20.0007 18.6667C20.0007 18.6665 20.0007 18.6663 20.0007 18.666C20.0006 18.5334 19.9416 18.4304 19.8436 18.376L18.9007 17.433C18.7673 17.2997 18.5673 17.2997 18.434 17.433C18.3007 17.5663 18.3007 17.7663 18.434 17.8997L18.8673 18.333H3.46734L3.90066 17.8997C4.03398 17.7664 4.03398 17.5664 3.90066 17.433C3.76734 17.2997 3.56734 17.2997 3.43398 17.433L2.49102 18.376C2.39301 18.4305 2.33398 18.5336 2.33398 18.6664C2.33398 18.7992 2.39301 18.9022 2.49102 18.9568L3.43398 19.8997C3.50066 19.9664 3.5673 19.9997 3.6673 19.9997C3.7673 19.9997 3.83398 19.9664 3.90062 19.8997C4.03395 19.7664 4.03395 19.5664 3.90062 19.4331L3.46734 18.9997H18.8673L18.434 19.433C18.3007 19.5663 18.3007 19.7663 18.434 19.8997C18.5007 19.9664 18.5673 19.9997 18.6673 19.9997C18.7673 19.9997 18.834 19.9664 18.9007 19.8997L19.8436 18.9567C19.9416 18.9023 20.0005 18.7993 20.0007 18.6667Z" />
</svg>
