<svg width="32" height="32" viewBox="0 0 32 32" stroke-width="0" xmlns="http://www.w3.org/2000/svg">
<g clip-path="url(#clip0)">
<path fill-rule="evenodd" clip-rule="evenodd" d="M6.25759 4.64698C6.32521 4.4213 6.53289 4.26672 6.76848 4.26672H12.9065H19.0445H24.8756C25.1112 4.26672 25.3189 4.42131 25.3865 4.64698L30.9107 23.0841L30.9332 23.159V23.2372V26.8445V27.3778H30.3998H20.579H10.7582H1.24427H0.710938V26.8445V23.2372V23.159L0.733377 23.0841L6.25759 4.64698ZM7.16544 5.33339L1.96083 22.7039H4.00638H4.79658C4.64944 19.9366 5.50333 17.8585 6.38819 16.162C6.58097 15.7924 6.77199 15.4465 6.95424 15.1166C7.19817 14.6749 7.42649 14.2614 7.6223 13.8576C7.96072 13.1598 8.17753 12.536 8.1776 11.9348V11.9337V11.9326V11.9315V11.9304V11.9294V11.9283V11.9272V11.9261V11.925V11.9239V11.9228V11.9218V11.9207V11.9196V11.9186V11.9175V11.9164V11.9154V11.9143V11.9132V11.9122L8.53316 11.9112V11.9122V11.9133V11.9144V11.9154V11.9166V11.9176V11.9187V11.9198V11.9208V11.922V11.9231V11.9242V11.9252V11.9264V11.9275V11.9286V11.9297V11.9308V11.9319V11.9329V11.9341V11.9367V11.9386V11.9406V11.9427V11.9449V11.9471V11.9494V11.9518V11.9542V11.9567V11.9592V11.9619V11.9646V11.9673V11.9701V11.973V11.9759V11.979V11.9821V11.9853V11.9885V11.9917V11.9951V11.9985V12.0019V12.0055V12.009V12.0127V12.0164V12.0202V12.024V12.0279V12.0318V12.0359V12.0399V12.0441V12.0483V12.0525V12.0569V12.0612V12.0657V12.0702V12.0747V12.0793V12.084V12.0887V12.0934V12.0983V12.1032V12.1081V12.1131V12.1181V12.1232V12.1284V12.1336V12.1389V12.1442V12.1496V12.155V12.1605V12.166V12.1716V12.1773V12.1829V12.1886V12.1945V12.2003V12.2062V12.2121V12.2181V12.2241V12.2302V12.2364V12.2425V12.2488V12.2551V12.2614V12.2678V12.2743V12.2807V12.2872V12.2938V12.3004V12.307V12.3138V12.3205V12.3273V12.3341V12.341V12.3479V12.3549V12.3619V12.369V12.3761V12.3833V12.3905V12.3976V12.405V12.4123V12.4196V12.427V12.4344V12.4419V12.4494V12.457V12.4646V12.4722V12.4799V12.4876V12.4953V12.5032V12.511V12.5188V12.5267V12.5347V12.5426V12.5507V12.5587V12.5668V12.5749V12.5831V12.5913V12.5995V12.6078V12.616V12.6243V12.6327V12.6411V12.6495V12.658V12.6665V12.675V12.6836V12.6922V12.7008V12.7094V12.7181V12.7268V12.7356V12.7443V12.7531V12.7619V12.7708V12.7797V12.7886V12.7976V12.8065V12.8156V12.8245V12.8336V12.8427V12.8518V12.8609V12.8701V12.8793V12.8884V12.8977V12.9069V12.9163V12.9256V12.9349V12.9443V12.9537V12.963V12.9724V12.9819V12.9913V13.0009V13.0103V13.0199V13.0295V13.0391V13.0486V13.0583V13.0679V13.0775V13.0872V13.0969V13.1066V13.1164V13.1261V13.1358V13.1457V13.1554V13.1652V13.1751V13.1849V13.1948V13.2047V13.2146V13.2245V13.2344V13.2444V13.2543V13.2643V13.2743V13.2843V13.2943V13.3043V13.3143V13.3244V13.3345V13.3446V13.3547V13.3647V13.3748V13.3849V13.3951V13.4052V13.4154V13.4255V13.4357V13.4459V13.4561V13.4662V13.4765V13.4866V13.4969V13.5071V13.5174V13.5276V13.5378V13.5481V13.5583V13.5686V13.5789V13.5891V13.5994V13.6097V13.62V13.6303V13.6406V13.6508V13.6611V13.6715V13.6818V13.6921V13.7024V13.7127V13.723V13.7333V13.7436V13.7539V13.7643V13.7746V13.7849V13.7952V13.8055V13.8158V13.8261V13.8364V13.8467V13.8571V13.8673V13.8776V13.8879V13.8982V13.9085V13.9188V13.929V13.9393V13.9496V13.9598V13.9701V13.9804V13.9906V14.0008V14.0111V14.0212V14.0315V14.0417V14.0519V14.0621V14.0723V14.0825V14.0926V14.1027V14.1129V14.1231V14.1332V14.1433V14.1534V14.1635V14.1736V14.1837V14.1937V14.2038V14.2138V14.2238V14.2338V14.2438V14.2538V14.2638V14.2738V14.2836V14.2936V14.3035V14.3134V14.3233V14.3331V14.343V14.3528V14.3627V14.3725V14.3822V14.3919V14.4017V14.4114V14.4212V14.4308V14.4405V14.4502V14.4598V14.4694V14.479V14.4886V14.4981V14.5076V14.5172V14.5266V14.5361V14.5456V14.5549V14.5643V14.5737V14.5831V14.5924V14.6017V14.611V14.6202V14.6295V14.6386V14.6479V14.657V14.6662V14.6753V14.6843V14.6933V14.7023V14.7114V14.7203V14.7292V14.7382V14.7471V14.7559V14.7647V14.7735V14.7823V14.791V14.7997V14.8084V14.8171V14.8257V14.8343V14.8428V14.8513V14.8598V14.8683V14.8766V14.885V14.8934V14.9017V14.91V14.9182V14.9265V14.9347V14.9428V14.9509V14.959V14.967V14.975V14.983V14.9909V14.9988V15.0067V15.0145V15.0223V15.03V15.0377V15.0454V15.053V15.0606V15.0681V15.0757V15.0831V15.0905V15.0979V15.1053V15.1126V15.1198V15.127V15.1342V15.1414V15.1484V15.1555V15.1625V15.1695V15.1764V15.1833V15.1901V15.1969V15.2036V15.2103V15.217V15.2236V15.2301V15.2366V15.2431V15.2495V15.2559V15.2622V15.2685V15.2747V15.2809V15.287V15.2931V15.2991V15.3051V15.3111V15.3169V15.3227V15.3286V15.3342V15.3399V15.3455V15.3511V15.3566V15.3621V15.3675V15.3729V15.3782V15.3835V15.3886V15.3938V15.3989V15.4039V15.4089V15.4138V15.4187V15.4236V15.4283V15.433V15.4376V15.4423V15.4467V15.4512V15.4556V15.46V15.4643V15.4686V15.4728V15.4769V15.4809V15.4849V15.4888V15.4928V15.4966V15.5004V15.5041V15.5077V15.5112V15.5148V15.5182V15.5216V15.5249V15.5282V15.5314V15.5345V15.5376V15.5406V15.5435V15.5464V15.5492V15.552V15.5546V15.5572V15.5598V15.5623V15.5647V15.5671V15.5693V15.5715V15.5737V15.5757V15.5777V15.5796V15.5816V15.5833V15.5851V15.5867V15.5883V15.5898V15.5912V15.5927V15.5939V15.5951V15.5963V15.5974V15.5993V15.601V15.6023V15.6034V15.6045L8.35538 15.6048L8.1776 15.6047V15.6034V15.6023V15.601V15.5993V15.5974V15.5963V15.5951V15.5939V15.5927V15.5912V15.5898V15.5883V15.5867V15.5851V15.5833V15.5816V15.5796V15.5777V15.5757V15.5737V15.5715V15.5693V15.5671V15.5647V15.5623V15.5598V15.5572V15.5546V15.552V15.5492V15.5464V15.5435V15.5406V15.5376V15.5345V15.5314V15.5282V15.5249V15.5216V15.5182V15.5148V15.5112V15.5077V15.5041V15.5004V15.4966V15.4928V15.4888V15.4849V15.4809V15.4769V15.4728V15.4686V15.4643V15.46V15.4556V15.4512V15.4467V15.4423V15.4376V15.433V15.4283V15.4236V15.4187V15.4138V15.4089V15.4039V15.3989V15.3938V15.3886V15.3835V15.3782V15.3729V15.3675V15.3621V15.3566V15.3511V15.3455V15.3399V15.3342V15.3286V15.3227V15.3169V15.3111V15.3051V15.2991V15.2931V15.287V15.2809V15.2747V15.2685V15.2622V15.2559V15.2495V15.2431V15.2366V15.2301V15.2236V15.217V15.2103V15.2036V15.1969V15.1901V15.1833V15.1764V15.1695V15.1625V15.1555V15.1484V15.1414V15.1342V15.127V15.1198V15.1126V15.1053V15.0979V15.0905V15.0831V15.0757V15.0681V15.0606V15.053V15.0454V15.0377V15.03V15.0223V15.0145V15.0067V14.9988V14.9909V14.983V14.975V14.967V14.959V14.9509V14.9428V14.9347V14.9265V14.9182V14.91V14.9017V14.8934V14.885V14.8766V14.8683V14.8598V14.8513V14.8428V14.8343V14.8257V14.8171V14.8084V14.7997V14.791V14.7823V14.7735V14.7647V14.7559V14.7471V14.7382V14.7292V14.7203V14.7114V14.7023V14.6933V14.6843V14.6753V14.6662V14.657V14.6479V14.6386V14.6295V14.6202V14.611V14.6017V14.5924V14.5831V14.5737V14.5643V14.5549V14.5456V14.5361V14.5266V14.5172V14.5076V14.4981V14.4886V14.479V14.4694V14.4598V14.4502V14.4405V14.4308V14.4212V14.4114V14.4017V14.3919V14.3822V14.3725V14.3627V14.3528V14.343V14.3331V14.3233V14.3134V14.3035V14.2936V14.2836V14.2738V14.2638V14.2538V14.2438V14.2338V14.2238V14.2138V14.2038V14.1937V14.1837V14.1736V14.1635V14.1534V14.1433V14.1332V14.1231V14.1129V14.1027V14.0926V14.0825V14.0723V14.0621V14.0519V14.0417V14.0315V14.0212V14.0111V14.0008V13.9906V13.9804V13.9701V13.9598V13.9496V13.9393V13.929V13.9188V13.9085V13.8982V13.8879V13.8776V13.8673V13.8571V13.8467V13.8364V13.8261V13.8158V13.8055V13.7952V13.7849V13.7746V13.7643V13.7539V13.7436V13.7333V13.723V13.7127V13.7024V13.6921V13.6818V13.6715V13.6611V13.6508V13.6406V13.6303V13.62V13.6097V13.5994V13.5891V13.5789V13.5686V13.5583V13.5481V13.5378V13.5276V13.5174V13.5071V13.4969V13.4902C8.10671 13.6629 8.02749 13.837 7.94223 14.0128C7.74487 14.4198 7.50673 14.8513 7.25714 15.3037C7.07488 15.634 6.8865 15.9755 6.70344 16.3265C5.8302 18.0006 5.00545 20.0178 5.15265 22.7039H6.35183L6.27905 22.6248C7.09209 21.877 7.86265 20.8521 8.1776 18.5288V15.6047L8.35538 15.6048L8.53316 15.6045V18.5408V18.5527L8.53159 18.5645C8.23044 20.8008 7.51196 21.912 6.71138 22.7039H8.9168H10.2834L12.3074 5.33339H7.16544ZM13.3813 5.33339L13.07 8.00523L12.8315 11.5486C12.8133 11.8184 12.8849 12.0887 13.0323 12.318C13.7228 13.3921 14.0344 13.9757 14.2548 14.518C14.3646 14.7878 14.4508 15.0454 14.5494 15.3424L14.5645 15.3881C14.6595 15.6749 14.7683 16.0025 14.9222 16.4212L14.9332 16.451V16.4826V17.2953V17.3072L14.9316 17.319L14.2205 22.6016L13.8681 22.5541L14.5776 17.2834V16.5142C14.4273 16.1042 14.3201 15.7807 14.2272 15.5006L14.2119 15.4543C14.1131 15.1565 14.0302 14.9094 13.9254 14.6519C13.7172 14.1394 13.4191 13.5772 12.7332 12.5103C12.6718 12.4147 12.6206 12.3133 12.5802 12.208L12.276 14.819L12.722 16.7457C12.7737 16.9692 12.7998 17.1978 12.7998 17.4272V17.8662C12.7998 18.1554 12.7568 18.4396 12.6857 18.7143C12.4842 19.493 12.2996 20.4633 12.1904 21.2382C12.1358 21.6262 12.1007 21.9606 12.0913 22.1955C12.0865 22.3145 12.0887 22.3993 12.0957 22.4504C12.0978 22.4663 12.0999 22.4743 12.1005 22.4768L12.0992 22.4742C12.0979 22.4715 12.0624 22.4001 11.9702 22.4001V22.7039H19.9995L19.1953 13.0424C19.1983 13.1142 19.1998 13.1859 19.1998 13.2577V17.2953V17.3072L19.1983 17.319L18.4872 22.6016L18.1347 22.5541L18.8443 17.2834V13.2577C18.8443 12.9803 18.8202 12.7035 18.7724 12.4303L18.1358 8.7926L18.1332 8.7774V8.76196V5.51117H18.4887V8.74652L19.1227 12.369C19.1372 12.4519 19.1496 12.5351 19.1601 12.6185L18.5537 5.33339H13.3813ZM11.8349 22.7039C11.8054 22.6772 11.7876 22.6466 11.7787 22.6283C11.7583 22.5857 11.7488 22.5379 11.7434 22.4984C11.7321 22.4156 11.731 22.3056 11.736 22.1812C11.7461 21.9289 11.7831 21.5811 11.8383 21.1887C11.9491 20.4026 12.1361 19.4189 12.3415 18.6252C12.4065 18.3742 12.4443 18.1202 12.4443 17.8662V17.4272C12.4443 17.2248 12.4212 17.0231 12.3756 16.8258L12.1539 15.8678L11.3573 22.7039H11.8349ZM20.6858 18.0901L21.0698 22.7039H29.6832L27.022 13.822V16.281C27.022 16.5489 27.0539 16.8158 27.117 17.0761L28.4393 22.536L28.0937 22.6196L26.7714 17.1598C26.7017 16.872 26.6665 16.5771 26.6665 16.281V12.6354L24.4787 5.33339H23.6539L24.0986 6.66754C24.2033 6.98151 24.2566 7.3103 24.2566 7.64126C24.2566 8.10117 24.313 8.55935 24.4246 9.00552L24.4765 9.21332C24.5928 9.67866 24.6517 10.1565 24.6517 10.6362V14.4281C24.6517 15.0969 24.7595 15.7613 24.971 16.3958L27.0129 22.5216L26.6756 22.6341L24.6336 16.5082C24.4101 15.8375 24.2961 15.1351 24.2961 14.4281V10.6362C24.2961 10.1856 24.2409 9.7367 24.1316 9.29956L24.0796 9.09175C23.961 8.61737 23.9011 8.13024 23.9011 7.64126C23.9011 7.34852 23.8538 7.05769 23.7613 6.77998L23.2791 5.33339H22.9738L23.2766 6.11829C23.5364 6.79186 23.6697 7.50761 23.6697 8.22954V11.5161V11.5225L23.6692 11.529L23.3787 15.5124L24.8847 22.5406L24.7109 22.5778L24.5491 22.6514L22.5984 18.36C21.7419 16.4756 21.2177 14.4572 21.0489 12.3942L20.9782 11.5306L20.9776 11.5234V11.5161V8.28907C20.9776 7.5273 21.1259 6.77281 21.4144 6.06775L21.7148 5.33339H19.6241L20.6403 17.5425C21.3999 18.2836 21.9523 18.933 22.3882 19.687C22.8377 20.4642 23.1584 21.3436 23.461 22.534L23.1164 22.6216C22.818 21.4481 22.5073 20.6032 22.0804 19.8649C21.7231 19.2471 21.2808 18.6977 20.6858 18.0901ZM22.099 5.33339L21.7435 6.20238C21.4725 6.86471 21.3332 7.57346 21.3332 8.28907V11.5088L21.4032 12.3651C21.5687 14.3874 22.0825 16.3658 22.9221 18.2129L24.1928 21.0083L23.0257 15.562L23.0133 15.504L23.023 15.5019L23.3141 11.5096V8.22954C23.3141 7.55136 23.1889 6.879 22.9449 6.24625L22.5927 5.33339H22.099ZM29.8665 23.7706H21.1124V26.3112H29.8665V23.7706ZM20.0457 26.3112V23.7706H11.2915V26.3112H20.0457ZM10.2248 26.3112V23.7706H8.9168H4.00638H1.7776V26.3112H10.2248ZM22.9405 12.8735C23.0673 12.1764 23.1465 11.2076 23.1465 10.1334C23.1465 9.05921 23.0673 8.09035 22.9405 7.39326C22.8769 7.04355 22.8026 6.76929 22.7237 6.5858C22.6841 6.49351 22.6466 6.43219 22.6146 6.3962C22.5947 6.37387 22.5824 6.367 22.5776 6.36502C22.5728 6.367 22.5605 6.37387 22.5406 6.3962C22.5086 6.43219 22.4711 6.49351 22.4315 6.5858C22.3526 6.76929 22.2783 7.04355 22.2147 7.39326C22.0879 8.09035 22.0087 9.05921 22.0087 10.1334C22.0087 11.2076 22.0879 12.1764 22.2147 12.8735C22.2783 13.2232 22.3526 13.4975 22.4315 13.681C22.4711 13.7733 22.5086 13.8346 22.5406 13.8706C22.5605 13.8929 22.5728 13.8998 22.5776 13.9018C22.5824 13.8998 22.5947 13.8929 22.6146 13.8706C22.6466 13.8346 22.6841 13.7733 22.7237 13.681C22.8026 13.4975 22.8769 13.2232 22.9405 12.8735ZM22.5776 14.0445C22.9703 14.0445 23.2887 12.2935 23.2887 10.1334C23.2887 7.97334 22.9703 6.22228 22.5776 6.22228C22.1849 6.22228 21.8665 7.97334 21.8665 10.1334C21.8665 12.2935 22.1849 14.0445 22.5776 14.0445ZM14.222 6.73022V5.51117H13.8665V6.73022V9.78171C13.8665 10.2175 14.0454 10.6327 14.3548 10.9364C15.3103 11.8743 15.9995 12.6344 16.4895 13.4249C16.975 14.2083 17.2684 15.0278 17.422 16.089V17.6803L16.2419 22.5359L16.5874 22.6198L17.7726 17.7436L17.7776 17.7229V17.7017V16.0762V16.0636L17.7758 16.051C17.6165 14.9407 17.3077 14.0702 16.7917 13.2376C16.2782 12.4092 15.5634 11.6246 14.6038 10.6827C14.3609 10.4442 14.222 10.1198 14.222 9.78171V6.73022ZM10.6665 6.73022V5.51117H10.3109V6.70035C8.9392 10.6753 9.07389 13.2226 9.59983 16.4968V18.5106C9.55424 19.5981 9.45071 20.3403 9.2415 20.9306C9.03414 21.5158 8.71897 21.9627 8.22966 22.4522L8.48111 22.7036C8.99673 22.1877 9.34695 21.6973 9.57664 21.0494C9.8042 20.4072 9.9093 19.6212 9.95524 18.5217L9.95538 18.5143V16.4826V16.4684L9.95311 16.4544C9.43001 13.2028 9.29768 10.7128 10.6567 6.78839L10.6665 6.76013V6.73022ZM8.17703 5.51234C8.18343 6.47628 8.13622 6.99547 7.88662 7.9017C6.6695 12.2509 5.80974 14.4355 4.03857 18.0294L4.02329 18.0604L4.02074 18.0948C3.88562 19.9201 3.86336 20.9125 4.02103 22.5944L4.37504 22.5613C4.22077 20.9155 4.24089 19.9461 4.37278 18.1556C6.14343 14.5602 7.00956 12.3552 8.22916 7.99717C8.48943 7.05245 8.53913 6.49891 8.53259 5.50999L8.17703 5.51234ZM7.25925 18.7783C7.1047 19.4312 6.89731 19.9887 6.69132 20.3621C6.58757 20.5501 6.48995 20.6808 6.40741 20.7551C6.35348 20.8036 6.32183 20.8148 6.30913 20.8175C6.29967 20.8065 6.27808 20.7753 6.25407 20.6974C6.21733 20.5783 6.19249 20.4015 6.18747 20.1726C6.1775 19.718 6.24643 19.1083 6.40097 18.4555C6.55552 17.8027 6.76291 17.2451 6.96891 16.8717C7.07264 16.6837 7.17027 16.553 7.25282 16.4787C7.30675 16.4301 7.33839 16.4189 7.35109 16.4163C7.36056 16.4273 7.38214 16.4585 7.40615 16.5364C7.4429 16.6556 7.46773 16.8323 7.47275 17.0612C7.48272 17.5159 7.4138 18.1255 7.25925 18.7783ZM7.45892 18.8535C7.14371 20.1849 6.60665 21.1584 6.25936 21.0278C5.91208 20.8971 5.88608 19.7118 6.2013 18.3804C6.51651 17.0489 7.05358 16.0754 7.40086 16.2061C7.74814 16.3367 7.77414 17.522 7.45892 18.8535Z" />
</g>
<defs>
<clipPath id="clip0">
<rect x="0.710938" y="4.26672" width="30.5778" height="23.4667" rx="2" fill="none"/>
</clipPath>
</defs>
</svg>
