<svg width="24" height="25" viewBox="0 0 24 25" stroke-width="0" xmlns="http://www.w3.org/2000/svg">
  <path d="M4.19001 5.35962C4.17829 5.36056 4.14126 5.36524 4.10798 5.3704C3.63501 5.43837 3.22673 5.73369 3.0111 6.16261C2.94313 6.29808 2.89767 6.43964 2.87188 6.59855L2.8611 6.66184L2.86017 7.80092C2.85876 8.72063 2.86017 8.95032 2.86485 8.99392C2.87001 9.03845 2.87001 9.05814 2.86485 9.10783C2.8597 9.15705 2.85876 9.83769 2.8597 12.9006L2.8611 16.6333L2.95345 16.2883C3.03876 15.97 3.25954 15.1464 3.68142 13.5714C3.84032 12.9784 3.87173 12.8607 3.95282 12.5574C3.97204 12.4862 4.07892 12.0877 4.19001 11.6729C4.41595 10.8296 4.42063 10.8122 4.45204 10.7265C4.56407 10.4241 4.73845 10.1499 4.97048 9.91316C5.17391 9.70549 5.38016 9.55409 5.63235 9.42799C5.87235 9.30799 6.1011 9.23955 6.37438 9.20627C6.43907 9.1983 6.75454 9.19783 12.7977 9.19689L19.1525 9.19548V9.17251C19.1525 9.10454 19.1286 8.94657 19.1033 8.84813C19.0723 8.72672 19.04 8.6386 18.9842 8.52281C18.7719 8.08312 18.3795 7.75217 17.9127 7.61811C17.7898 7.58295 17.6769 7.56326 17.5447 7.55482C17.5025 7.55201 15.5849 7.55014 12.5188 7.55014H7.56126L7.55891 7.1245C7.55704 6.72043 7.55657 6.69559 7.54673 6.62668C7.49095 6.22964 7.29032 5.88557 6.97579 5.64838C6.7597 5.48619 6.50563 5.38728 6.23423 5.36103C6.18923 5.35681 4.24298 5.3554 4.19001 5.35962Z" />
  <path d="M6.45722 9.77858C5.7569 9.83717 5.08097 10.3701 4.848 11.0461C4.83487 11.0836 4.77956 11.2809 4.72518 11.4844C4.67081 11.6878 4.50815 12.2939 4.36425 12.8315C3.86503 14.6939 3.71643 15.2484 3.68222 15.3769C3.663 15.4476 3.57675 15.7706 3.49003 16.094C3.40331 16.4175 3.31659 16.7409 3.29737 16.8122C3.26222 16.9434 3.21487 17.1215 3.16706 17.2987C2.87925 18.374 2.89284 18.322 2.88112 18.3862C2.85159 18.5475 2.85206 18.7411 2.883 18.8901C2.94722 19.2009 3.13378 19.4667 3.39956 19.6251C3.54675 19.7128 3.71972 19.7681 3.90956 19.7878C3.93862 19.7906 6.31659 19.7925 10.7336 19.7925C16.8147 19.7925 17.5202 19.7915 17.5821 19.7854C17.9252 19.7494 18.273 19.5965 18.566 19.3528C18.6349 19.2951 18.76 19.1719 18.8121 19.1104C18.9367 18.9614 19.0371 18.8015 19.106 18.6412C19.1524 18.5329 19.1678 18.4837 19.2494 18.1795C19.2897 18.029 19.346 17.819 19.3746 17.7136C19.4027 17.6076 19.4964 17.2575 19.5827 16.9354C19.6694 16.6129 19.7716 16.2314 19.81 16.087C19.8489 15.9426 19.8921 15.7814 19.9061 15.7289C19.9394 15.6042 20.2652 14.3897 20.5966 13.1526C20.741 12.6136 20.9097 11.9831 20.9721 11.7511C21.1436 11.1108 21.138 11.1394 21.1385 10.9355C21.1385 10.8019 21.1357 10.7695 21.1169 10.6762C21.0691 10.44 20.9388 10.2131 20.7649 10.0631C20.5736 9.89764 20.3552 9.8067 20.0866 9.77998C20.0538 9.7767 17.8797 9.77576 13.2569 9.77623C9.52753 9.7767 6.46753 9.77764 6.45722 9.77858Z" />
</svg>
