<svg width="26" height="26" viewBox="0 0 26 26" stroke-width="0" xmlns="http://www.w3.org/2000/svg">
<g clip-path="url(#clip0)">
<path d="M21.6599 4.24389C21.8702 4.24389 22.0407 4.07337 22.0407 3.86303V1.42452C22.0407 0.639031 21.4016 0 20.6162 0H5.3835C4.59802 0 3.95898 0.639031 3.95898 1.42457V22.9872C3.95898 23.7727 4.59802 24.4118 5.38355 24.4118H5.64959V25.1056C5.64959 25.5988 6.05082 26 6.544 26H7.62427C8.11746 26 8.51868 25.5988 8.51868 25.1056V24.4118H17.4812V25.1056C17.4812 25.5988 17.8824 26 18.3756 26H19.4559C19.9491 26 20.3503 25.5988 20.3503 25.1056V24.4118H20.6164C21.4018 24.4118 22.0409 23.7728 22.0409 22.9872V5.64352C22.0409 5.43319 21.8704 5.26266 21.6601 5.26266C21.4497 5.26266 21.2792 5.43319 21.2792 5.64352V8.74489H10.4379C10.2275 8.74489 10.057 8.91541 10.057 9.12575C10.057 9.33608 10.2275 9.50661 10.4379 9.50661H21.279V22.9873C21.279 23.3528 20.9817 23.6501 20.6162 23.6501H5.3835C5.01803 23.6501 4.72065 23.3528 4.72065 22.9873V9.50655H8.65742C8.86776 9.50655 9.03828 9.33603 9.03828 9.1257C9.03828 8.91536 8.86776 8.74484 8.65742 8.74484H4.72065V1.42457C4.72065 1.05909 5.01803 0.761719 5.3835 0.761719H20.6162C20.9817 0.761719 21.279 1.05909 21.279 1.42457V3.86308C21.279 4.07337 21.4495 4.24389 21.6599 4.24389ZM7.75686 25.1056C7.75686 25.1788 7.69735 25.2383 7.62417 25.2383H6.5439C6.47073 25.2383 6.41121 25.1788 6.41121 25.1056V24.4118H7.75686V25.1056ZM19.5884 25.1056C19.5884 25.1788 19.5289 25.2383 19.4557 25.2383H18.3754C18.3023 25.2383 18.2427 25.1788 18.2427 25.1056V24.4118H19.5884V25.1056Z" />
<path d="M5.6875 2.97689V6.52964C5.6875 7.12445 6.17139 7.60834 6.7662 7.60834C7.361 7.60834 7.84489 7.12445 7.84489 6.52964V2.97689C7.84489 2.38209 7.361 1.89819 6.7662 1.89819C6.17139 1.89819 5.6875 2.38209 5.6875 2.97689ZM7.08322 2.97689V6.52964C7.08322 6.70443 6.94098 6.84662 6.7662 6.84662C6.59141 6.84662 6.44917 6.70443 6.44917 6.52964V2.97689C6.44917 2.8021 6.59141 2.65986 6.7662 2.65986C6.94098 2.65986 7.08322 2.8021 7.08322 2.97689Z" />
<path d="M5.6875 11.4798V15.0326C5.6875 15.6274 6.17139 16.1113 6.7662 16.1113C7.361 16.1113 7.84489 15.6274 7.84489 15.0326V11.4798C7.84489 10.885 7.361 10.4011 6.7662 10.4011C6.17139 10.4011 5.6875 10.885 5.6875 11.4798ZM7.08322 11.4798V15.0326C7.08322 15.2074 6.94098 15.3496 6.7662 15.3496C6.59141 15.3496 6.44917 15.2074 6.44917 15.0326V11.4798C6.44917 11.305 6.59141 11.1628 6.7662 11.1628C6.94098 11.1628 7.08322 11.305 7.08322 11.4798Z" />
</g>
<defs>
<clipPath id="clip0">
<rect width="26" height="26" stroke-width="0" />
</clipPath>
</defs>
</svg>
