<svg width="42" height="42" viewBox="0 0 42 42" stroke-width="0" xmlns="http://www.w3.org/2000/svg">
<path d="M5.368 3.5311C5.032 3.7201 4.78 3.9301 4.78 4.0141C4.78 4.0771 6.817 7.3111 9.295 11.2171L13.81 18.3151V24.2161V30.1381L12.97 30.6211L12.13 31.1041V26.4001C12.13 22.8721 12.067 21.6331 11.878 21.4861C11.29 21.0451 6.88 19.2811 6.523 19.3651C6.166 19.4281 6.145 19.8481 6.082 27.0931L6.04 34.7581L4.297 35.7871C3.352 36.3541 2.218 37.0471 1.777 37.3201L1 37.8031L1.336 38.4541C1.546 38.8951 1.756 39.0631 1.987 38.9791C2.155 38.8951 5.137 37.1521 8.602 35.0731L14.881 31.2931H21.16H27.439L33.718 35.0731C37.183 37.1521 40.165 38.8951 40.333 38.9791C40.564 39.0631 40.774 38.8951 40.984 38.4541L41.32 37.8031L40.543 37.3201C40.102 37.0471 38.821 36.2701 37.708 35.6191L35.65 34.4011L35.608 26.9041L35.545 19.4281L35.02 19.3861C34.726 19.3441 33.613 19.7851 32.395 20.4361L30.295 21.5281L30.232 26.3161L30.19 31.0831L29.35 30.6211L28.51 30.1381V24.2371V18.3361L33.34 11.2381C36.007 7.3531 38.17 4.1191 38.17 4.0561C38.17 3.9091 37.267 3.1741 37.078 3.1531C36.994 3.1531 34.747 6.3661 32.08 10.2931L27.229 17.4331H21.16H15.112L10.765 10.5451C8.35 6.7651 6.292 3.5731 6.166 3.4261C5.998 3.2371 5.809 3.2581 5.368 3.5311ZM27.04 24.3631V29.8231H25.78H24.52V26.0851C24.52 23.4601 24.436 22.2631 24.268 22.0951C23.911 21.7381 18.409 21.7381 18.052 22.0951C17.884 22.2631 17.8 23.4601 17.8 26.0851V29.8231H16.54H15.28V24.3631V18.9031H21.16H27.04V24.3631ZM10.66 24.5101C10.66 26.3161 10.639 26.4631 10.24 26.4631C9.904 26.4631 9.82 26.6101 9.82 27.1981C9.82 27.7861 9.904 27.9331 10.24 27.9331C10.639 27.9331 10.66 28.0801 10.66 29.9701C10.66 31.9861 10.639 32.0281 10.072 32.3641C9.757 32.5321 9.064 32.9521 8.518 33.2671L7.51 33.8551V27.5551V21.2551L9.085 21.9061L10.66 22.5781V24.5101ZM34.18 27.4291C34.18 30.7261 34.117 33.3931 34.012 33.3511C33.928 33.3091 33.361 32.9941 32.752 32.6581L31.66 32.0281V30.3901C31.66 28.9201 31.702 28.7731 32.08 28.7731C32.437 28.7731 32.5 28.6261 32.5 27.9331C32.5 27.2401 32.437 27.0931 32.08 27.0931C31.681 27.0931 31.66 26.9461 31.66 24.8251V22.5571L32.773 22.0111C33.361 21.6961 33.928 21.4441 34.033 21.4441C34.117 21.4231 34.18 24.1321 34.18 27.4291ZM23.05 24.6781C23.05 25.8121 23.05 25.8331 22.42 25.8331C21.832 25.8331 21.79 25.8961 21.79 26.5681C21.79 27.2401 21.832 27.3031 22.42 27.3031H23.05V28.5631V29.8231H21.16H19.27V26.6731V23.5231H21.16H23.05V24.6781Z" />
</svg>
