<svg width="18" height="18" viewBox="0 0 18 18" stroke-width="0" xmlns="http://www.w3.org/2000/svg">
  <path d="M8.74625 0.0659723C8.68754 0.0913525 8.63066 0.120636 8.61781 0.13235C8.30222 0.393955 0.293043 7.29525 0.232492 7.35773C0.0435016 7.551 -0.0243883 7.83018 0.0526759 8.09959C0.0875383 8.21868 0.12607 8.28701 0.324236 8.56619C0.612309 8.97421 0.691208 9.06011 0.832492 9.13039C0.92974 9.17725 0.966437 9.18506 1.10956 9.18506C1.26002 9.18506 1.2857 9.1792 1.39396 9.12063C1.47836 9.07573 2.61781 8.1074 5.35543 5.74905L9.1958 2.43994L9.28203 2.51608C10.0472 3.19352 16.5774 8.81413 16.638 8.84731C16.7114 8.88441 16.7518 8.89222 16.9169 8.89222C17.1224 8.89222 17.1848 8.87074 17.3334 8.75361C17.416 8.68723 17.882 8.02541 17.9407 7.8907C17.9811 7.79699 17.9885 7.75209 17.9885 7.61348C17.9885 7.41825 17.9444 7.27573 17.8453 7.15079C17.7352 7.01608 9.84901 0.212394 9.71323 0.136254C9.59763 0.0718298 9.57928 0.0679245 9.3958 0.0640202C9.28937 0.0640202 9.17194 0.0523062 9.13708 0.0405931C9.02882 0.00349998 8.86369 0.015213 8.74625 0.0659723Z" />
  <path d="M5.97409 7.43426L2.75391 10.2787L2.75758 13.8416L2.76125 17.4045L2.81262 17.5158C2.89152 17.6876 3.00895 17.8126 3.17042 17.8965L3.30987 17.9707H9.28235H15.2567L15.3796 17.9082C15.5411 17.8282 15.6732 17.6876 15.7484 17.5158L15.8071 17.385L15.8126 13.7245L15.8163 10.064L12.6658 7.45769C10.9337 6.02472 9.44381 4.79283 9.35574 4.7206L9.19611 4.58784L5.97409 7.43426ZM10.9723 12.4848V15.1106H9.3117H7.65115V12.4848V9.85899H9.3117H10.9723V12.4848Z" />
</svg>
