<svg width="27" height="27" viewBox="0 0 27 27" stroke-width="0" xmlns="http://www.w3.org/2000/svg">
<g clip-path="url(#clip0)">
<path d="M14.4475 3.65396C10.0051 3.12768 5.97716 6.30238 5.45089 10.7448C5.11659 13.5668 6.28558 16.3577 8.53136 18.099C9.10196 18.5268 9.4412 19.1957 9.44936 19.9089V22.95C9.4511 24.069 9.91404 25.1379 10.7292 25.9047C11.4767 26.6111 12.4672 27.0032 13.4958 27C13.5858 27 13.6758 26.9973 13.7658 26.9914C15.9254 26.8137 17.5787 24.9942 17.5494 22.8276V19.9075C17.5551 19.199 17.8905 18.5336 18.4566 18.1075C21.996 15.3717 22.6476 10.2847 19.9119 6.74518C18.58 5.02213 16.6105 3.90787 14.4475 3.65396ZM13.7086 26.0932H13.7109C12.8393 26.155 11.9818 25.8484 11.347 25.2481C11.3304 25.2328 11.3164 25.2157 11.302 25.2H15.6711C15.147 25.7259 14.4495 26.0434 13.7086 26.0932ZM16.3119 24.3H10.654C10.5846 24.1547 10.5267 24.0042 10.4808 23.85H16.4892C16.441 24.004 16.3818 24.1544 16.3119 24.3ZM16.6435 22.95H10.3494V22.5H16.6494C16.6494 22.5 16.6453 22.909 16.6435 22.95ZM16.6494 21.6H10.3494V21.15H16.6494V21.6ZM20.6495 12.5437C20.4226 14.4635 19.4332 16.2115 17.904 17.3943L17.908 17.3938C17.1196 17.9897 16.6541 18.9192 16.6494 19.9075V20.25H10.3494V19.9089C10.342 18.9178 9.87416 17.9865 9.08351 17.3889C5.94161 14.9515 5.37045 10.4287 7.80782 7.28675C9.16997 5.53085 11.2667 4.50232 13.489 4.49996C13.7747 4.50018 14.0602 4.51638 14.344 4.54856C18.293 5.01515 21.1161 8.59468 20.6495 12.5437Z" />
<path d="M15.9081 5.87509C15.6778 5.78177 15.4153 5.89286 15.3221 6.1232C15.2299 6.35074 15.3371 6.6101 15.5629 6.70624C17.3573 7.44519 18.6154 9.09219 18.8565 11.0177C18.8861 11.2645 19.1101 11.4406 19.3569 11.411C19.6037 11.3814 19.7798 11.1574 19.7502 10.9106C19.47 8.66255 18.0023 6.73903 15.9081 5.87509Z" />
<path d="M14.2436 5.44265V5.4449C13.9964 5.41582 13.7477 5.4008 13.4988 5.3999C13.2503 5.3999 13.0488 5.60139 13.0488 5.8499C13.0488 6.09842 13.2503 6.2999 13.4988 6.2999C13.7137 6.29996 13.9284 6.31228 14.1419 6.3368C14.1589 6.3386 14.176 6.3395 14.1932 6.3395C14.4417 6.33804 14.642 6.13537 14.6405 5.8868C14.6391 5.65983 14.469 5.46943 14.2436 5.44265Z" />
<path d="M13.4988 2.7C13.7473 2.7 13.9488 2.49851 13.9488 2.25V0.45C13.9488 0.201488 13.7473 0 13.4988 0C13.2503 0 13.0488 0.201488 13.0488 0.45V2.25C13.0488 2.49851 13.2503 2.7 13.4988 2.7Z" />
<path d="M8.16004 3.80118C8.28289 4.01723 8.55762 4.09278 8.77368 3.96993C8.98973 3.84708 9.06528 3.57235 8.94243 3.3563C8.94147 3.35455 8.94046 3.35287 8.93944 3.35112L8.03944 1.79232C7.91378 1.5779 7.63804 1.50601 7.42367 1.63167C7.21127 1.75621 7.13837 2.02829 7.26004 2.24232L8.16004 3.80118Z" />
<path d="M3.14242 6.68962L4.70122 7.58961C4.91728 7.71246 5.19201 7.63692 5.31486 7.42086C5.43658 7.20683 5.36363 6.93475 5.15122 6.81021L3.59242 5.91022C3.37637 5.78737 3.10164 5.86291 2.97879 6.07897C2.85712 6.293 2.93002 6.56508 3.14242 6.68962Z" />
<path d="M4.04961 12.15C4.04961 11.9014 3.84812 11.7 3.59961 11.7H1.79961C1.5511 11.7 1.34961 11.9014 1.34961 12.15C1.34961 12.3985 1.5511 12.6 1.79961 12.6H3.59961C3.84812 12.6 4.04961 12.3985 4.04961 12.15Z" />
<path d="M4.70581 16.7073C4.70406 16.7083 4.70232 16.7093 4.70058 16.7103L3.14177 17.6103C2.92572 17.7331 2.85012 18.0078 2.97291 18.2239C3.0957 18.4399 3.37043 18.5155 3.58649 18.3928C3.58823 18.3917 3.58997 18.3907 3.59172 18.3897L5.15052 17.4897C5.36658 17.3669 5.44218 17.0922 5.31938 16.8761C5.19659 16.6601 4.92192 16.5845 4.70581 16.7073Z" />
<path d="M23.8576 17.6103L22.2988 16.7103C22.0844 16.5846 21.8087 16.6565 21.683 16.8709C21.5573 17.0852 21.6292 17.361 21.8435 17.4867C21.8453 17.4877 21.847 17.4887 21.8488 17.4897L23.4075 18.3897C23.6236 18.5125 23.8983 18.4369 24.0211 18.2208C24.1428 18.0069 24.0699 17.7348 23.8576 17.6103Z" />
<path d="M25.1992 11.7H23.3992C23.1507 11.7 22.9492 11.9014 22.9492 12.15C22.9492 12.3985 23.1507 12.6 23.3992 12.6H25.1992C25.4477 12.6 25.6492 12.3985 25.6492 12.15C25.6492 11.9014 25.4477 11.7 25.1992 11.7Z" />
<path d="M22.0731 7.64988C22.1521 7.64988 22.2297 7.62906 22.2981 7.58958L23.8569 6.68958C24.0713 6.56392 24.1432 6.28818 24.0175 6.07382C23.893 5.86142 23.6209 5.78852 23.4069 5.91019L21.8481 6.81018C21.6329 6.93444 21.5591 7.20967 21.6834 7.42488C21.7638 7.56409 21.9123 7.64988 22.0731 7.64988Z" />
<path d="M18.2251 3.96577C18.4403 4.09003 18.7155 4.01629 18.8397 3.80107L19.7397 2.24227C19.8625 2.02621 19.7869 1.75149 19.5709 1.62869C19.3568 1.50703 19.0848 1.57993 18.9603 1.79227L18.0604 3.35107C17.9361 3.56629 18.0098 3.84152 18.2251 3.96577Z" />
</g>
<defs>
<clipPath id="clip0">
<rect width="27" height="27" fill="white"/>
</clipPath>
</defs>
</svg>
