<svg width="26" height="26" viewBox="0 0 26 26" stroke-width="0" xmlns="http://www.w3.org/2000/svg">
  <path d="M13 2.1665C7.02631 2.1665 2.16666 7.02616 2.16666 12.9998C2.16666 18.9735 7.02631 23.8332 13 23.8332C18.9737 23.8332 23.8333 18.9735 23.8333 12.9998C23.8333 7.02616 18.9737 2.1665 13 2.1665ZM15.3996 18.6729C14.8028 18.9076 12.7346 19.8953 11.5429 18.8453C11.1872 18.533 11.0103 18.1366 11.0103 17.6555C11.0103 16.7545 11.3064 15.9691 11.8399 14.0832C11.9338 13.7266 12.0485 13.2644 12.0485 12.8978C12.0485 12.265 11.8083 12.0971 11.1574 12.0971C10.8396 12.0971 10.4876 12.2099 10.1689 12.3291L10.3449 11.6078C11.0554 11.3189 11.9474 10.9668 12.7111 10.9668C13.8567 10.9668 14.6999 11.5382 14.6999 12.6252C14.6999 12.9384 14.6458 13.4873 14.532 13.8665L13.873 16.1975C13.7367 16.6687 13.4902 17.7078 13.8721 18.0157C14.2476 18.3199 15.1369 18.1583 15.5756 17.9516L15.3996 18.6729ZM14.3108 9.38873C13.5633 9.38873 12.9567 8.78206 12.9567 8.03456C12.9567 7.28706 13.5633 6.68039 14.3108 6.68039C15.0583 6.68039 15.665 7.28706 15.665 8.03456C15.665 8.78206 15.0583 9.38873 14.3108 9.38873Z" />
</svg>
