<svg width="20" height="20" viewBox="0 0 20 19" stroke-width="0" xmlns="http://www.w3.org/2000/svg">
<mask id="path-1-inside-1" fill="white">
<path fill-rule="evenodd" clip-rule="evenodd" d="M9.33681 5.42802L8.83396 5.20619L8.10472 4.99997H6.99998L6.33329 5.20619H5.49997C4.67155 5.20619 3.99998 4.53463 3.99998 3.70621L3.99998 3.50002C3.99998 2.67159 4.67156 2.00001 5.49999 2L6.33329 2L6.99998 2.5H8.10472L8.83396 2.00001H11.6666C14 2 15 3 15.9999 5.99994C13.7261 4.11763 13.5039 4.18557 12.1219 4.60811C12.0391 4.63341 11.9522 4.65998 11.8605 4.68748L10.9489 4.99997L10.6702 5.31039L10.6701 9.0576C11.0579 9.19518 11.3357 9.56531 11.3357 10.0003L11.3356 17.5C11.3356 18.0523 10.8879 18.5 10.3356 18.5H9.66875C9.11647 18.5 8.66876 18.0523 8.66876 17.5L8.66884 10.0003C8.66884 9.56448 8.94767 9.19376 9.33667 9.05681L9.33681 5.42802Z"/>
</mask>
<path fill-rule="evenodd" clip-rule="evenodd" d="M9.33681 5.42802L8.83396 5.20619L8.10472 4.99997H6.99998L6.33329 5.20619H5.49997C4.67155 5.20619 3.99998 4.53463 3.99998 3.70621L3.99998 3.50002C3.99998 2.67159 4.67156 2.00001 5.49999 2L6.33329 2L6.99998 2.5H8.10472L8.83396 2.00001H11.6666C14 2 15 3 15.9999 5.99994C13.7261 4.11763 13.5039 4.18557 12.1219 4.60811C12.0391 4.63341 11.9522 4.65998 11.8605 4.68748L10.9489 4.99997L10.6702 5.31039L10.6701 9.0576C11.0579 9.19518 11.3357 9.56531 11.3357 10.0003L11.3356 17.5C11.3356 18.0523 10.8879 18.5 10.3356 18.5H9.66875C9.11647 18.5 8.66876 18.0523 8.66876 17.5L8.66884 10.0003C8.66884 9.56448 8.94767 9.19376 9.33667 9.05681L9.33681 5.42802Z" />
<path d="M9.33681 5.42802L10.3368 5.42804L10.3368 4.77618L9.74042 4.51308L9.33681 5.42802ZM8.83396 5.20619L9.23758 4.29126L9.17349 4.26299L9.10609 4.24393L8.83396 5.20619ZM8.10472 4.99997L8.37684 4.03771L8.2434 3.99997H8.10473L8.10472 4.99997ZM6.99998 4.99997L7 3.99997H6.84886L6.70448 4.04463L6.99998 4.99997ZM6.33329 5.20619L6.33328 6.20619H6.48441L6.62879 6.16153L6.33329 5.20619ZM3.99998 3.70621L4.99998 3.7062L3.99998 3.70621ZM3.99998 3.50002L2.99998 3.50003L3.99998 3.50002ZM5.49999 2L5.49999 3L5.49999 2ZM6.33329 2L6.93328 1.19999L6.66662 0.999999L6.3333 1L6.33329 2ZM6.99998 2.5L6.39999 3.30001L6.66665 3.5H6.99997L6.99998 2.5ZM8.10472 2.5L8.1047 3.5H8.4146L8.67019 3.32476L8.10472 2.5ZM8.83396 2.00001L8.83397 1.00001H8.52408L8.26849 1.17525L8.83396 2.00001ZM11.6666 2.00001L11.6666 3.00001H11.6666L11.6666 2.00001ZM15.9999 5.99994L15.3623 6.77026L18.0534 8.99792L16.9486 5.68371L15.9999 5.99994ZM12.1219 4.60811L11.8295 3.65181L11.8295 3.65181L12.1219 4.60811ZM11.8605 4.68748L11.5734 3.72958L11.5547 3.73518L11.5362 3.74152L11.8605 4.68748ZM10.9489 4.99997L10.6246 4.05401L10.3786 4.13836L10.2048 4.3319L10.9489 4.99997ZM10.6702 5.31039L9.92612 4.64233L9.67023 4.92734L9.67022 5.31037L10.6702 5.31039ZM10.6701 9.0576L9.67008 9.05757L9.67005 9.7639L10.3357 10.0001L10.6701 9.0576ZM11.3357 10.0003H10.3357H11.3357ZM11.3356 17.5H12.3356H11.3356ZM8.66876 17.5H9.66876H8.66876ZM8.66884 10.0003H7.66884H8.66884ZM9.33667 9.05681L9.66874 10.0001L10.3366 9.76492L10.3367 9.05684L9.33667 9.05681ZM9.74042 4.51308L9.23758 4.29126L8.43035 6.12113L8.93319 6.34295L9.74042 4.51308ZM9.10609 4.24393L8.37684 4.03771L7.83259 5.96223L8.56183 6.16846L9.10609 4.24393ZM8.10473 3.99997H7L6.99997 5.99997H8.1047L8.10473 3.99997ZM6.70448 4.04463L6.03779 4.25085L6.62879 6.16153L7.29549 5.95531L6.70448 4.04463ZM6.3333 4.20619H5.49998L5.49996 6.20619H6.33328L6.3333 4.20619ZM5.49998 4.20619C5.22384 4.20619 4.99998 3.98234 4.99998 3.7062L2.99998 3.70622C2.99998 5.08692 4.11926 6.20619 5.49996 6.20619L5.49998 4.20619ZM4.99998 3.7062L4.99998 3.50001L2.99998 3.50003L2.99998 3.70622L4.99998 3.7062ZM4.99998 3.50001C4.99998 3.22387 5.22384 3 5.49999 3L5.5 1C4.11928 1.00001 2.99998 2.11931 2.99998 3.50003L4.99998 3.50001ZM5.49999 3L6.33329 3L6.3333 1L5.5 1L5.49999 3ZM5.7333 2.80001L6.39999 3.30001L7.59998 1.69999L6.93328 1.19999L5.7333 2.80001ZM6.99997 3.5H8.1047L8.10473 1.5H7L6.99997 3.5ZM8.67019 3.32476L9.39943 2.82477L8.26849 1.17525L7.53924 1.67524L8.67019 3.32476ZM8.83395 3.00001H11.6666L11.6666 1.00001H8.83397L8.83395 3.00001ZM11.6666 3.00001C12.681 3.00001 13.2309 3.21224 13.6494 3.60454C14.1232 4.04879 14.5601 4.84261 15.0513 6.31617L16.9486 5.68371C16.4398 4.15733 15.8767 2.95118 15.0173 2.14545C14.1024 1.28777 12.9856 1 11.6666 1.00001L11.6666 3.00001ZM16.6376 5.22962C15.5434 4.32387 14.7655 3.72435 14.0337 3.48808C13.174 3.21048 12.4649 3.45752 11.8295 3.65181L12.4143 5.56441C13.1608 5.33616 13.2539 5.33795 13.4192 5.39133C13.7125 5.48603 14.1826 5.7937 15.3623 6.77026L16.6376 5.22962ZM11.8295 3.65181C11.7464 3.6772 11.6621 3.70299 11.5734 3.72958L12.1476 5.64538C12.2424 5.61697 12.3318 5.58962 12.4143 5.56441L11.8295 3.65181ZM11.5362 3.74152L10.6246 4.05401L11.2732 5.94593L12.1848 5.63344L11.5362 3.74152ZM10.2048 4.3319L9.92612 4.64233L11.4143 5.97846L11.693 5.66803L10.2048 4.3319ZM9.67022 5.31037L9.67008 9.05757L11.6701 9.05763L11.6702 5.31042L9.67022 5.31037ZM12.3357 10.0003C12.3357 9.12874 11.7787 8.38983 11.0044 8.11514L10.3357 10.0001L10.3357 10.0003H12.3357ZM12.3356 17.5L12.3357 10.0003H10.3357L10.3356 17.5H12.3356ZM10.3356 19.5C11.4401 19.5 12.3356 18.6046 12.3356 17.5H10.3356H10.3356L10.3356 19.5ZM9.66874 19.5H10.3356L10.3356 17.5H9.66876L9.66874 19.5ZM7.66876 17.5C7.66875 18.6046 8.56418 19.5 9.66874 19.5L9.66876 17.5L9.66876 17.5H7.66876ZM7.66884 10.0003L7.66876 17.5H9.66876L9.66884 10.0003H7.66884ZM9.0046 8.11356C8.22793 8.38699 7.66885 9.12708 7.66884 10.0003H9.66884L9.66874 10.0001L9.0046 8.11356ZM10.3367 9.05684L10.3368 5.42804L8.33681 5.42799L8.33667 9.05678L10.3367 9.05684Z" mask="url(#path-1-inside-1)"/>
</svg>
