<svg width="43" height="43" viewBox="0 0 43 43" stroke-width="0" xmlns="http://www.w3.org/2000/svg">
<path d="M42.3281 25.5312H28.8906V24.1875H29.5625C29.9335 24.1875 30.2344 23.8867 30.2344 23.5156C30.2344 23.1446 29.9335 22.8437 29.5625 22.8437H28.8906V22.1719C28.8906 20.6876 30.0939 19.4844 31.5781 19.4844C33.0624 19.4844 34.2656 20.6876 34.2656 22.1719C34.2656 22.5429 34.5665 22.8437 34.9375 22.8437C35.3085 22.8437 35.6094 22.5429 35.6094 22.1719C35.6094 19.9454 33.8046 18.1406 31.5781 18.1406C29.3517 18.1406 27.5469 19.9454 27.5469 22.1719V25.5312H16.2728C16.6083 25.164 16.7951 24.6849 16.7969 24.1875V20.1562C16.7969 19.7852 16.496 19.4844 16.125 19.4844H6.04688C5.67583 19.4844 5.375 19.7852 5.375 20.1562V24.1875C5.37676 24.6849 5.56354 25.164 5.89906 25.5312H0.671875C0.300832 25.5312 0 25.8321 0 26.2031V42.3281C0 42.6992 0.300832 43 0.671875 43H42.3281C42.6992 43 43 42.6992 43 42.3281V26.2031C43 25.8321 42.6992 25.5312 42.3281 25.5312ZM6.71875 20.8281H15.4531V24.1875C15.4531 24.5585 15.1523 24.8594 14.7812 24.8594H7.39062C7.01958 24.8594 6.71875 24.5585 6.71875 24.1875V20.8281ZM10.75 41.6562H1.34375V33.5937H10.75V41.6562ZM10.75 32.25H1.34375V26.875H3.35938C3.35938 27.246 3.66021 27.5469 4.03125 27.5469H8.0625C8.43354 27.5469 8.73438 27.246 8.73438 26.875H10.75V32.25ZM30.9062 41.6562H12.0938V26.875H30.9062V41.6562ZM41.6562 41.6562H32.25V33.5937H41.6562V41.6562ZM41.6562 32.25H32.25V26.875H34.2656C34.2656 27.246 34.5665 27.5469 34.9375 27.5469H38.9688C39.3398 27.5469 39.6406 27.246 39.6406 26.875H41.6562V32.25Z"/>
<path d="M13.4375 36.9531H29.5625C29.9335 36.9531 30.2344 36.6523 30.2344 36.2812V29.5625C30.2344 29.1915 29.9335 28.8906 29.5625 28.8906H13.4375C13.0665 28.8906 12.7656 29.1915 12.7656 29.5625V36.2812C12.7656 36.6523 13.0665 36.9531 13.4375 36.9531ZM14.1094 30.2344H28.8906V35.6094H14.1094V30.2344Z" />
<path d="M25.5312 38.9687H17.4688C17.0977 38.9687 16.7969 39.2696 16.7969 39.6406C16.7969 40.0117 17.0977 40.3125 17.4688 40.3125H25.5312C25.9023 40.3125 26.2031 40.0117 26.2031 39.6406C26.2031 39.2696 25.9023 38.9687 25.5312 38.9687Z"/>
<path d="M7.39062 10.0781H35.6094C35.9804 10.0781 36.2812 9.77729 36.2812 9.40625V0.671875C36.2812 0.300832 35.9804 0 35.6094 0H7.39062C7.01958 0 6.71875 0.300832 6.71875 0.671875V9.40625C6.71875 9.77729 7.01958 10.0781 7.39062 10.0781ZM22.1719 1.34375H34.9375V8.73438H22.1719V1.34375ZM8.0625 1.34375H20.8281V8.73438H8.0625V1.34375Z" />
<path d="M16.7969 4.70312H11.4219C11.0508 4.70312 10.75 5.00395 10.75 5.375C10.75 5.74604 11.0508 6.04687 11.4219 6.04687H16.7969C17.1679 6.04687 17.4688 5.74604 17.4688 5.375C17.4688 5.00395 17.1679 4.70312 16.7969 4.70312Z" />
<path d="M31.5781 4.70312H26.2031C25.8321 4.70312 25.5312 5.00396 25.5312 5.375C25.5312 5.74604 25.8321 6.04687 26.2031 6.04687H31.5781C31.9492 6.04687 32.25 5.74604 32.25 5.375C32.25 5.00396 31.9492 4.70312 31.5781 4.70312Z" />
<path d="M7.65937 16.5953C7.10247 16.916 6.74781 17.4987 6.71875 18.1406C6.71875 18.5117 7.01958 18.8125 7.39062 18.8125C7.76167 18.8125 8.0625 18.5117 8.0625 18.1406C8.0625 17.9989 8.12969 17.9243 8.46562 17.6703C9.02252 17.3497 9.37719 16.767 9.40625 16.125C9.37719 15.483 9.02252 14.9003 8.46562 14.5797C8.12633 14.3251 8.0625 14.2505 8.0625 14.1094C8.0625 13.9683 8.12969 13.8944 8.46562 13.6391C9.02252 13.3184 9.37719 12.7357 9.40625 12.0938C9.40625 11.7227 9.10542 11.4219 8.73437 11.4219C8.36333 11.4219 8.0625 11.7227 8.0625 12.0938C8.0625 12.2342 7.99531 12.3088 7.65937 12.5641C7.10247 12.8847 6.74781 13.4674 6.71875 14.1094C6.74781 14.7514 7.10247 15.334 7.65937 15.6547C7.99531 15.9093 8.0625 15.9839 8.0625 16.125C8.0625 16.2661 7.99531 16.34 7.65937 16.5953Z"/>
<path d="M11.825 13.6391C12.3819 13.3184 12.7366 12.7357 12.7656 12.0937C12.7656 11.7227 12.4648 11.4219 12.0937 11.4219C11.7227 11.4219 11.4219 11.7227 11.4219 12.0937C11.4219 12.2342 11.3547 12.3087 11.0187 12.5641C10.4618 12.8847 10.1072 13.4674 10.0781 14.1094C10.1072 14.7513 10.4618 15.334 11.0187 15.6547C11.3547 15.9093 11.4219 15.9839 11.4219 16.125C11.4219 16.2661 11.3547 16.3413 11.0187 16.5953C10.4618 16.916 10.1072 17.4986 10.0781 18.1406C10.0781 18.5117 10.379 18.8125 10.75 18.8125C11.121 18.8125 11.4219 18.5117 11.4219 18.1406C11.4219 17.9989 11.4891 17.9243 11.825 17.6703C12.3819 17.3497 12.7366 16.767 12.7656 16.125C12.7366 15.483 12.3819 14.9003 11.825 14.5797C11.4891 14.325 11.4219 14.2505 11.4219 14.1094C11.4219 13.9683 11.4891 13.8924 11.825 13.6391Z"/>
<path d="M15.1844 13.6391C15.7413 13.3184 16.0959 12.7357 16.125 12.0938C16.125 11.7227 15.8242 11.4219 15.4531 11.4219C15.0821 11.4219 14.7812 11.7227 14.7812 12.0938C14.7812 12.2342 14.7141 12.3088 14.3781 12.5641C13.8212 12.8847 13.4666 13.4674 13.4375 14.1094C13.4666 14.7514 13.8212 15.334 14.3781 15.6547C14.7141 15.9093 14.7812 15.9839 14.7812 16.125C14.7812 16.2661 14.7141 16.3413 14.3781 16.5953C13.8212 16.916 13.4666 17.4987 13.4375 18.1406C13.4375 18.5117 13.7383 18.8125 14.1094 18.8125C14.4804 18.8125 14.7812 18.5117 14.7812 18.1406C14.7812 17.9989 14.8484 17.9243 15.1844 17.6703C15.7413 17.3497 16.0959 16.767 16.125 16.125C16.0959 15.483 15.7413 14.9003 15.1844 14.5797C14.8484 14.3251 14.7812 14.2505 14.7812 14.1094C14.7812 13.9683 14.8484 13.8924 15.1844 13.6391Z"/>
</svg>
