<svg width="42" height="43" viewBox="0 0 42 43" fill="none" xmlns="http://www.w3.org/2000/svg">
<path d="M9.63126 12.2501H15.2623L14.0107 4H5.25133L4.00025 12.2501H9.63126ZM9.63126 12.2501L9.63165 25.2144M9.63165 25.2144L9.63197 35.8216C11.8224 36.9528 13.0703 37.1433 15.263 35.8216M9.63165 25.2144C11.0852 24.4796 12.1233 24.2984 13.3856 24.5769M15.263 35.8216L15.2629 31.6966M15.263 35.8216C18.5601 37.6557 29.2588 37.1101 31.5303 35.8216M13.3856 24.5769C13.9479 24.701 14.5548 24.9162 15.2627 25.2144L15.2627 27.5716M13.3856 24.5769L13.3855 19.1965C13.3854 16.9874 15.1762 15.1965 17.3853 15.1965H30.0324C32.2415 15.1965 34.0324 16.9874 34.0325 19.1965L34.0327 24.5769M31.5301 27.5716C25.2971 26.5724 21.6765 26.629 15.2627 27.5716M31.5301 27.5716L31.5302 31.6966M31.5301 27.5716L31.53 25.2144C33.8804 24.3006 35.0605 24.2853 37.7867 25.2144L37.787 35.8216C35.14 37.1972 33.798 37.0617 31.5303 35.8216M15.2627 27.5716L15.2629 31.6966M15.2629 31.6966H31.5302M31.5302 31.6966L31.5303 35.8216" stroke-width="0"/>
</svg>
