<svg width="14" height="16" viewBox="0 0 14 16" stroke-width="0" xmlns="http://www.w3.org/2000/svg">
<path d="M7 10.25V11.75V10.25ZM2.5 14.75H11.5C11.8978 14.75 12.2794 14.592 12.5607 14.3107C12.842 14.0294 13 13.6478 13 13.25V8.75C13 8.35218 12.842 7.97064 12.5607 7.68934C12.2794 7.40804 11.8978 7.25 11.5 7.25H2.5C2.10217 7.25 1.72064 7.40804 1.43934 7.68934C1.15804 7.97064 1 8.35218 1 8.75V13.25C1 13.6478 1.15804 14.0294 1.43934 14.3107C1.72064 14.592 2.10217 14.75 2.5 14.75ZM10 7.25V4.25C10 3.45435 9.68393 2.69129 9.12132 2.12868C8.55871 1.56607 7.79565 1.25 7 1.25C6.20435 1.25 5.44129 1.56607 4.87868 2.12868C4.31607 2.69129 4 3.45435 4 4.25V7.25H10Z" stroke="width" stroke-width="2" fill="none" stroke-linecap="round" stroke-linejoin="round"/>
</svg>
