<svg width="1304" height="820" viewBox="0 0 1304 820" fill="none" xmlns="http://www.w3.org/2000/svg">
<path d="M1180.34 230.87L1179.98 230.631V230.99L1180.34 230.87V230.87ZM1176.75 227.636L1177.59 227.276V226.797L1176.75 227.636ZM1191.6 218.291L1191.48 216.614L1191.24 215.656L1191.6 218.291H1191.6ZM1139.25 205.952L1138.41 206.311L1131.58 208.348L1129.19 209.186L1126.43 210.025L1125.47 210.384V210.744L1125.83 216.973L1126.19 222.724L1126.55 227.995L1127.15 228.354L1129.31 227.755L1139.01 224.88L1139.25 225.479L1156.5 218.89L1156.62 219.13L1158.18 218.531L1163.69 216.374L1168.96 222.724L1169.68 222.125L1170.04 220.328L1169.92 223.203H1171.12L1171.48 224.641L1172.55 226.677L1178.18 219.849L1182.86 221.406L1183.93 219.01L1191.6 214.937L1188.37 208.587L1189.21 212.66L1185.25 215.656L1180.82 216.015L1171.95 206.551L1168 200.561L1171.95 196.367L1167.88 196.128L1166.2 192.174L1166.08 191.935L1159.26 199.362L1144.16 204.394L1139.25 205.952Z" fill="#F5F5F5" stroke="white" stroke-width="3" stroke-linejoin="round"/>
<path d="M689.394 133.112L691.79 141.618L696.822 172.287L699.218 184.507L699.937 195.289L702.692 201.758L703.291 207.269L703.771 209.066L703.651 209.426L698.859 217.333L701.973 222.604L707.964 264.774L708.203 270.285L714.193 269.926L737.794 268.608L796.736 263.696L802.607 263.097V262.498L800.929 253.273L793.621 249.559L787.871 243.569L778.766 238.058L775.891 237.819L771.458 234.464L772.656 217.932L768.463 214.098L769.901 207.389L777.568 200.441L776.25 186.064L779.006 182.95L788.35 173.126L799.012 159.469L803.086 156.593L810.274 153.119L817.821 147.488L812.79 148.447L809.795 146.171L798.294 147.728L796.497 145.572L786.194 149.765L777.928 146.29L775.651 143.535L769.062 144.014L764.63 141.738L766.067 140.061L760.437 138.264H755.405L747.378 141.738L745.821 139.342L733.122 137.545L728.809 126.763L728.33 123.528L722.819 121.971L723.298 131.195L708.682 132.274L690.592 132.992L689.394 133.112L689.394 133.112Z" fill="#F5F5F5" stroke="white" stroke-width="3" stroke-linejoin="round"/>
<path d="M574.744 132.034L535.09 129.398L506.218 126.643L477.466 123.289L459.615 120.892L431.102 116.46L416.846 114.064L384.979 107.954L381.624 107.235L376.473 131.675L378.749 136.107L380.546 142.936L379.468 143.894L381.744 150.124L384.859 152.76L393.724 167.615L394.563 170.131L398.157 169.891L393.964 189.539L392.287 190.018L390.01 196.607L401.871 197.446L402.829 202.956L409.538 219.369L410.736 220.328L415.408 229.912L416.606 228.953L426.55 228.834L439.129 230.151L442.244 226.078L445.958 232.787L446.677 233.146L446.796 232.428L448.474 220.687L489.446 225.719L522.152 228.834L539.403 230.271L570.192 232.068L571.749 232.188H572.109L572.229 230.511L572.588 222.245L573.067 211.343L573.187 208.587L573.427 203.795L575.344 166.177L576.901 136.946L577.021 132.154L574.745 132.034L574.744 132.034Z" fill="#F5F5F5" stroke="white" stroke-width="3" stroke-linejoin="round"/>
<path d="M686.878 133.112L650.698 133.831L625.42 133.711L603.736 133.232L578.338 132.274L577.02 132.154L576.901 136.946L575.343 166.177L573.426 203.795L573.187 208.587L577.859 208.827L630.691 210.264L679.451 209.905L699.697 209.306L703.77 209.066L703.291 207.269L702.692 201.758L699.937 195.289L699.218 184.507L696.822 172.287L691.79 141.618L689.394 133.112H686.878L686.878 133.112Z" fill="#F5F5F5" stroke="white" stroke-width="3" stroke-linejoin="round"/>
<path d="M513.885 677.61L510.171 674.854L506.937 675.693L507.656 682.402L503.223 687.913L507.057 696.658L508.135 705.643L512.567 708.518L515.323 704.086L520.235 700.492L526.225 698.934L532.814 693.304L526.345 687.793L526.225 684.438L513.885 677.61H513.885ZM492.081 667.906L490.284 666.348L488.607 668.625L492.081 667.906ZM483.096 662.754L483.576 658.322L481.299 657.962L483.096 662.754ZM490.644 655.446L488.607 656.405L490.045 660.957L493.16 661.197L494.118 665.15L497.472 666.588L504.9 663.114L497.952 657.363L490.644 655.446ZM475.309 650.535L474.231 653.769L479.382 653.649L484.174 654.847L481.659 650.894L475.309 650.535V650.535ZM460.214 641.07L457.459 638.435L452.188 642.508L455.542 648.738L457.938 646.222L464.767 647.659L464.168 644.784L460.214 641.07ZM406.543 635.799L407.262 634.122L409.299 633.044L406.543 635.799ZM425.592 624.897L417.205 628.012L416.367 630.288L419.721 632.684L424.394 633.882L427.748 627.293L425.592 624.897ZM367.488 602.854V602.734H367.248L367.488 602.854ZM303.993 587.16V587.399H304.113L303.993 587.16ZM270.688 581.649L270.808 581.769L270.688 581.649ZM268.292 578.055H268.053V578.175L268.292 578.055ZM269.131 578.055H269.011H269.131ZM269.011 577.935V578.055V577.935ZM231.393 547.026L231.274 546.667V546.787L231.393 547.026V547.026ZM149.329 520.79L148.97 521.149L149.21 521.269L149.329 520.79L149.329 520.79ZM65.4683 460.41H65.3485H65.4683ZM13.7141 437.887L14.0735 437.767V437.528L13.7141 437.887V437.887Z" fill="#F5F5F5" stroke="white" stroke-width="3" stroke-linejoin="round"/>
<path d="M381.505 107.235L370.842 105.079L367.368 104.24L365.811 103.881L351.914 166.417L352.513 171.568L352.033 176.959L352.273 178.158V178.277L352.393 180.554L356.466 184.986L350.596 199.722L338.136 216.015L337.777 219.01L341.012 226.677L329.631 273.879L329.151 276.395L332.506 277.114L366.41 283.822L379.947 286.338L383.421 286.937L386.776 287.536L404.027 290.292L434.936 294.964L438.41 295.443L438.889 291.49L439.968 283.703L444.041 252.554L446.197 237.1L446.677 233.146L445.958 232.787L442.244 226.078L439.129 230.151L426.55 228.834L416.606 228.953L415.408 229.912L410.736 220.328L409.538 219.369L402.829 202.956L401.871 197.446L390.01 196.607L392.287 190.018L393.964 189.539L398.157 169.891L394.563 170.131L393.724 167.615L384.859 152.76L381.744 150.124L379.468 143.894L380.546 142.936L378.749 136.107L376.473 131.675L381.624 107.235H381.505V107.235Z" fill="#F5F5F5" stroke="white" stroke-width="3" stroke-linejoin="round"/>
<path d="M237.144 137.066L237.264 135.029L237.024 135.149L237.144 137.066H237.144ZM262.662 126.164L263.38 124.966L262.542 124.846L262.662 126.164H262.662ZM260.385 124.007L261.104 121.611L260.385 121.372V124.007ZM269.131 120.533L269.011 118.137L266.974 121.252L269.131 120.533H269.131ZM269.37 115.501L269.73 113.105L269.49 112.506L269.37 115.501H269.37ZM269.73 103.761L269.61 102.443L269.131 102.323L269.73 103.761H269.73ZM273.563 95.8539L272.485 95.7341L270.329 99.0885L273.563 95.8539ZM270.568 92.6192L271.167 92.14L271.287 91.7806L270.568 92.6192H270.568ZM269.969 92.9786L269.61 90.5826L268.532 92.6192L269.969 92.9786ZM269.37 89.6242L268.292 89.145L269.131 90.343L269.37 89.6242ZM272.964 91.6608V90.1034L272.605 90.7024L272.964 91.6608ZM274.043 90.1034L273.563 89.744H273.444L274.043 90.1034H274.043ZM267.214 87.4678L266.615 86.9886L266.375 86.8688L267.214 87.4678V87.4678ZM271.647 86.9886L268.412 87.8272L269.251 88.0668L271.647 86.9886ZM269.011 86.749L268.412 86.0301L268.292 86.1499L269.011 86.749H269.011ZM271.527 85.3113H271.048L271.647 85.5509L271.527 85.3113H271.527ZM248.046 146.769L252.359 151.442L251.64 160.427L252.478 162.703L258.948 166.177L277.158 167.855L277.876 170.011L286.502 170.131L294.649 171.209L307.946 169.771L314.536 170.85L316.333 170.011L349.997 177.678L352.273 178.158L352.033 176.959L352.513 171.568L351.914 166.417L365.811 103.881L363.894 103.521L335.86 96.9321L311.421 90.7025L283.747 83.0352L275.48 80.9985L277.397 91.4213L275.6 94.7757L272.365 93.0985L275.48 107.594L272.126 112.387L270.568 116.819V121.372L263.5 126.283L260.505 124.367L257.63 125.804L262.901 118.976L261.583 123.648L264.578 120.413L266.974 120.892L266.256 114.902L267.813 115.142L271.048 107.954L269.969 106.876L265.776 112.267L263.021 112.387L266.016 109.032L269.37 108.193L268.172 102.084L264.818 101.245L263.141 98.3697L261.104 99.448L250.082 94.6559L240.378 87.1084L237.743 94.4163L237.503 97.5311L239.54 103.042L238.222 120.892L237.264 123.648L242.655 124.127L237.264 127.961L240.139 129.398L237.863 137.066L236.784 131.076L234.748 138.024L237.503 141.378L240.498 141.139L244.092 143.295L245.889 146.77H248.046V146.769Z" fill="#F5F5F5" stroke="white" stroke-width="3" stroke-linejoin="round"/>
<path d="M459.375 424.469L419.002 419.438L397.318 416.323L366.41 411.411L363.295 410.932V411.171L358.023 434.413L355.268 434.293L351.075 430.579L345.804 435.012L345.684 454.06L343.767 458.133V458.493V458.613L343.527 461.608L347.72 472.869L351.434 477.901L344.725 481.854L342.09 486.766L337.777 497.308L335.62 497.788L335.501 506.533L339.214 509.289L337.298 514.56L332.985 514.8L330.469 519.472L339.095 524.863L355.388 533.968L405.704 560.683L448.354 565.955H448.833L452.187 530.613L453.026 521.868L462.011 429.141L462.49 424.829L459.375 424.469H459.375Z" fill="#F5F5F5" stroke="white" stroke-width="3" stroke-linejoin="round"/>
<path d="M254.275 490.959L254.754 493.595V494.074L254.275 490.959ZM236.664 480.656L237.503 482.453L237.982 482.333L236.664 480.656V480.656ZM257.63 480.297L257.989 483.412L260.146 484.969L257.63 480.297ZM243.134 463.285L241.816 462.926L242.894 463.405L243.134 463.285V463.285ZM229.836 459.691L226.601 461.608L227.44 462.446L229.836 459.691ZM223.606 457.415L223.367 458.373L224.445 458.613L223.606 457.415ZM234.149 459.811L239.42 462.806L240.378 461.967L234.149 459.811ZM193.296 354.266L193.177 354.386L193.296 354.266ZM206.115 354.865L205.995 354.505V354.985L206.115 354.865V354.865ZM275.241 263.935L270.568 262.737L219.293 248.601L200.245 242.85V243.33L199.167 255.19L194.135 269.207L185.749 279.629L185.509 284.901L189.583 292.209L191.619 301.793L188.744 309.58L189.223 317.367L187.786 320.601L192.697 331.264L195.812 335.337L195.573 346.958L203 354.026L207.313 346.838L211.985 350.552L213.782 348.875L207.313 350.073L207.193 356.183L208.511 363.85L204.917 360.376L202.88 355.703L202.281 362.173L203.959 374.991L210.668 383.258L206.235 389.008L206.954 396.316L211.746 403.744L220.132 426.746L222.767 428.183L221.929 444.117L223.247 446.034L241.217 452.503L246.728 458.373L248.645 462.207L253.916 465.202L259.666 466.28L262.062 472.869L266.854 475.145L274.042 483.651L280.751 494.793L280.272 505.096L283.986 510.008L332.985 514.8L337.298 514.56L339.214 509.289L335.501 506.533L335.62 497.788L337.777 497.309L342.09 486.766L344.725 481.854L351.434 477.901L347.72 472.869L343.527 461.608L343.767 458.613V458.493L340.652 454.3L331.068 441.481L312.499 415.364L286.622 378.226L272.006 357.98L257.869 337.613L274.162 268.488L275.241 263.935L275.241 263.935Z" fill="#F5F5F5" stroke="white" stroke-width="3" stroke-linejoin="round"/>
<path d="M604.335 357.38L604.814 333.899L599.064 333.66L569.832 332.581L566.957 332.462L564.561 332.342L528.98 330.066L505.259 328.149L475.668 325.273L472.793 324.914L472.434 328.029L465.965 390.445L463.688 412.249L462.73 421.714L462.49 424.829L466.204 425.188L526.584 430.459L553.18 432.136L579.656 433.334L583.49 433.454L585.886 433.574L590.917 433.694L593.314 433.814L600.861 434.053H602.778V431.657L604.096 368.282L604.215 361.214V358.938L604.335 357.38L604.335 357.38Z" fill="#F5F5F5" stroke="white" stroke-width="3" stroke-linejoin="round"/>
<path d="M363.894 407.098L376.353 329.587L382.702 290.771L383.421 286.937L379.947 286.338L366.409 283.822L332.506 277.113L329.151 276.395L325.797 275.676L308.905 271.962L278.595 264.774L275.241 263.935L274.162 268.488L257.869 337.613L272.006 357.979L286.622 378.226L312.499 415.364L331.068 441.481L340.652 454.3L343.767 458.493V458.133L345.684 454.06L345.804 435.012L351.075 430.579L355.268 434.293L358.023 434.413L363.295 411.171V410.932L363.894 407.098L363.894 407.098Z" fill="#F5F5F5" stroke="white" stroke-width="3" stroke-linejoin="round"/>
<path d="M583.13 442.799L583.25 439.684L583.37 436.569L583.49 433.454L579.656 433.335L553.18 432.136L526.584 430.459L466.204 425.188L462.49 424.829L462.011 429.141L453.026 521.868L452.187 530.613L448.833 565.955L449.312 566.075L465.845 567.632L467.402 559.246L470.397 556.85L503.942 559.845H504.181L501.186 553.975L516.401 555.053L554.378 557.209L578.099 558.288L582.172 445.914L583.011 446.034L583.13 442.799L583.13 442.799Z" fill="#F5F5F5" stroke="white" stroke-width="3" stroke-linejoin="round"/>
<path d="M200.245 242.85L219.293 248.601L270.568 262.737L275.241 263.935L278.595 264.774L308.905 271.962L325.797 275.676L329.151 276.395L329.63 273.879L341.012 226.677L337.777 219.01L338.136 216.015L350.596 199.722L356.466 184.986L352.393 180.553L352.273 178.277V178.157L349.997 177.678L316.332 170.011L314.535 170.85L307.946 169.771L294.648 171.209L286.502 170.131L277.876 170.011L277.157 167.854L258.948 166.177L252.478 162.703L251.64 160.427L252.359 151.442L248.046 146.769L247.686 146.889L246.848 147.488L240.858 144.373L237.264 145.452L234.868 144.254L232.352 154.556L230.674 157.432L223.247 175.522L221.09 185.465L219.773 185.585L212.824 202.118L208.152 209.186L206.475 210.384L202.162 218.77L201.323 227.635L198.688 235.542L200.245 242.73V242.85L200.245 242.85ZM244.092 144.493L243.733 143.415L243.613 144.254L244.092 144.493H244.092Z" fill="#F5F5F5" stroke="white" stroke-width="3" stroke-linejoin="round"/>
<path d="M434.936 294.964L404.027 290.292L386.776 287.536L383.421 286.937L382.703 290.771L376.353 329.587L363.894 407.098L363.295 410.932L366.41 411.411L397.318 416.323L419.002 419.438L459.375 424.469L462.49 424.829L462.73 421.714L463.688 412.25L465.965 390.446L472.434 328.029L472.793 324.914L470.397 324.675L439.848 320.961L435.176 320.362L438.171 297.001L438.41 295.443L434.936 294.964Z" fill="#F5F5F5" stroke="white" stroke-width="3" stroke-linejoin="round"/>
<path d="M569.473 279.15L570.431 260.461L571.629 235.303L571.749 232.188L570.192 232.068L539.403 230.271L522.151 228.834L489.446 225.719L448.474 220.687L446.796 232.428L446.676 233.146L446.197 237.1L444.041 252.554L439.968 283.703L438.889 291.49L438.41 295.443L438.171 297.001L435.176 320.362L439.848 320.961L470.397 324.675L472.793 324.914L475.668 325.274L505.259 328.149L528.98 330.066L564.561 332.342L566.957 332.462L567.077 329.347L567.676 316.768L568.754 294.844L569.233 285.5L569.353 282.385L569.473 279.15H569.473Z" fill="#F5F5F5" stroke="white" stroke-width="3" stroke-linejoin="round"/>
<path d="M852.204 446.872L839.266 448.789L844.537 440.403L842.261 435.731L796.616 440.163L758.04 443.278L752.41 443.638L753.128 446.992L757.801 471.192L757.921 476.583L759.238 509.169L759.358 514.56L759.718 514.68L761.515 516.597L768.703 516.357L769.422 526.9L769.661 529.895L773.375 529.535L784.756 528.697L829.921 524.504H830.161L830.041 521.868L831.239 521.029L829.083 516.956L833.635 497.788L831.838 495.632L838.667 488.084L838.188 481.615L843.219 473.229V473.109L842.98 472.869L847.293 468.916L846.094 464.124L849.449 458.852L848.73 453.941L852.324 446.992V446.872H852.204V446.872Z" fill="#F5F5F5" stroke="white" stroke-width="3" stroke-linejoin="round"/>
<path d="M816.503 285.979L809.914 282.505L806.32 277.593L805.122 270.524L806.081 267.29L802.607 263.097L796.736 263.696L737.794 268.608L714.193 269.925L708.203 270.285L705.687 270.405L707.724 283.703L706.047 290.052L708.682 294.006V294.844L709.521 294.964L713.354 306.225L717.068 312.096L717.308 318.805L721.381 324.435L720.662 326.831L724.376 341.926V342.286L748.935 341.567L775.172 339.291L800.929 336.056L806.8 341.207L807.039 341.447L808.117 340.968L807.279 336.296L811.711 333.54L813.508 321.32L811.711 320.482L812.79 314.252L818.181 313.174L824.171 308.861L826.806 301.313L826.926 297.48L822.134 292.927L820.697 290.052L816.144 287.177L816.384 286.578L816.504 285.979L816.503 285.979Z" fill="#F5F5F5" stroke="white" stroke-width="3" stroke-linejoin="round"/>
<path d="M751.571 427.944L748.576 377.268L743.185 374.153L742.706 371.757L738.393 367.923L742.586 362.772L740.909 359.777L737.794 359.896L734.919 357.86L733.721 356.901L729.647 357.141L685.441 358.818L665.194 359.297H624.941L608.768 359.058L604.215 358.938V361.214L604.095 368.282L602.778 431.657V434.053L607.929 434.173L635.723 434.533L700.775 433.574L747.138 431.418L751.691 431.058L751.571 427.944L751.571 427.944Z" fill="#F5F5F5" stroke="white" stroke-width="3" stroke-linejoin="round"/>
<path d="M806.8 341.207L800.929 336.056L775.172 339.29L748.935 341.567L724.376 342.285L724.256 343.004L727.251 348.755L730.007 350.671L733.241 356.422L733.721 356.901L734.919 357.86L737.794 359.896L740.909 359.776L742.586 362.771L738.393 367.923L742.706 371.756L743.185 374.152L748.576 377.267L751.571 427.943L751.691 431.058L751.93 434.173L752.05 437.288L752.29 440.523L752.41 443.637L758.04 443.278L796.617 440.163L842.261 435.73L844.537 440.403L839.266 448.789L852.205 446.872H852.324V445.914L852.564 440.403L854.96 437.408L854.241 434.053L854.121 433.933L854.001 433.814L854.481 432.256L855.199 432.496L855.559 433.454L855.439 433.814V433.933V434.892L855.918 435.012L856.877 433.814V433.694L856.996 433.334L860.111 431.418L860.591 431.178L861.669 421.354L861.429 420.875L861.07 420.755L852.564 413.807L853.882 411.291L851.486 404.462L847.173 401.108L839.026 397.514L833.875 393.321L834.474 384.695L836.031 376.668L827.406 377.147L824.77 374.392L823.572 368.881L809.915 357.38L806.081 346.718L807.039 341.447L806.8 341.207V341.207Z" fill="#F5F5F5" stroke="white" stroke-width="3" stroke-linejoin="round"/>
<path d="M706.406 294.605L702.692 290.891L689.634 287.057L685.441 286.937L679.091 288.734L671.544 283.942L647.943 284.182L613.56 283.822L572.947 282.505L569.353 282.385L569.233 285.5L568.754 294.844L567.676 316.768L567.077 329.347L566.957 332.462L569.832 332.582L599.064 333.66L604.814 333.899L604.335 357.381L604.215 358.938L608.768 359.058L624.941 359.297H665.194L685.441 358.818L729.647 357.141L733.721 356.901L733.241 356.422L730.007 350.672L727.251 348.755L724.256 343.004L724.376 342.286V341.926L720.662 326.831L721.381 324.435L717.308 318.805L717.068 312.096L713.354 306.225L709.521 294.964L708.682 294.844L706.406 294.605L706.406 294.605Z" fill="#F5F5F5" stroke="white" stroke-width="3" stroke-linejoin="round"/>
<path d="M752.29 440.523L752.05 437.288L751.931 434.173L751.691 431.058L747.138 431.418L700.775 433.574L635.723 434.533L607.929 434.173L602.778 434.053H600.861L593.313 433.814L590.917 433.694L585.886 433.574L583.49 433.454L583.37 436.569L583.25 439.684L583.13 442.799L583.01 446.033H583.729L612.721 446.752L643.39 447.112L643.75 488.084L645.906 495.272L650.698 499.824L655.85 500.064L656.928 497.907L663.996 504.377L673.221 505.335L674.898 507.252L678.252 505.694L686.639 509.648V511.924L689.753 511.804L692.988 509.049L698.978 512.883L704.609 514.919L708.442 509.648L720.662 515.398L725.215 511.685L728.928 510.247L731.923 510.966L743.185 507.731L749.175 510.247L754.566 513.721L759.238 514.56H759.358L759.238 509.169L757.92 476.583L757.801 471.192L753.128 446.992L752.41 443.637L752.29 440.522L752.29 440.523Z" fill="#F5F5F5" stroke="white" stroke-width="3" stroke-linejoin="round"/>
<path d="M699.697 209.306L679.451 209.905L630.692 210.264L577.859 208.827L573.187 208.587L573.067 211.343L572.588 222.245L572.228 230.511L572.109 232.188H571.749L571.629 235.303L570.431 260.461L569.473 279.15L569.353 282.385L572.947 282.505L613.56 283.822L647.943 284.182L671.544 283.942L679.091 288.734L685.441 286.937L689.634 287.057L702.692 290.891L706.406 294.605L708.682 294.844V294.006L706.046 290.052L707.724 283.703L705.687 270.405L708.203 270.285L707.963 264.774L701.973 222.604L698.858 217.333L703.65 209.426L703.77 209.066L699.697 209.306L699.697 209.306Z" fill="#F5F5F5" stroke="white" stroke-width="3" stroke-linejoin="round"/>
<path d="M850.407 621.183L848.85 621.543L848.131 622.261L850.407 621.183ZM855.439 621.183L854.6 620.824L854.361 621.183H855.439ZM858.314 620.225H857.476L856.997 620.824L858.314 620.225ZM856.877 619.386L856.637 619.027L856.517 619.386H856.877ZM866.461 613.037L866.101 613.276H866.7L866.461 613.037ZM883.233 605.968L883.952 605.01L883.113 606.088L883.233 605.968V605.968ZM885.629 602.854L885.389 602.973V603.093L885.629 602.854V602.854ZM824.051 613.396L825.848 611.12L820.936 609.802L818.78 611.599L824.051 613.396ZM873.769 602.973L873.289 602.494L873.17 602.734L873.769 602.973ZM875.086 600.817L873.888 600.458L874.248 601.656L875.086 600.817ZM884.91 598.78V598.421V598.541V598.78V598.78ZM887.306 597.223L887.186 597.103L887.306 597.343V597.223V597.223ZM886.348 596.983L886.108 596.864L885.988 597.223L886.348 596.983L886.348 596.983ZM877.962 596.624L879.04 596.265V595.905L877.962 596.624ZM878.561 596.025L879.16 595.426L879.04 595.306L878.561 596.025L878.561 596.025ZM874.368 591.592L874.128 591.832H874.248L874.368 591.592H874.368ZM830.161 524.503H829.921L784.756 528.696L773.375 529.535L769.661 529.895L769.781 532.77L772.177 555.891L776.13 561.402L776.25 564.637L780.084 571.346L783.199 581.17L782.121 586.68L781.282 600.338L779.485 604.77H779.725L780.084 607.885L778.047 610.761L792.903 609.083L804.524 612.318L812.79 613.396L816.983 610.401L814.707 607.406L822.374 605.01L822.134 607.646L826.088 606.687L829.322 611.719L832.078 610.761L839.266 615.672L834.833 617.23L845.016 620.225H848.85L851.126 617.469L856.038 614.834L859.512 619.865L861.908 615.313L861.19 608.125L867.659 610.641L868.378 612.797L876.045 613.756L879.879 616.87L879.399 619.386L884.791 614.355L882.754 611.719L873.769 609.443L870.414 607.526L870.295 603.932L874.008 604.411L876.884 598.541L873.17 593.389L871.133 598.301L866.461 597.463L869.695 592.191L867.539 591.592L862.268 595.306L854.72 595.785L852.564 594.108L856.038 587.998L860.111 587.878L867.06 590.155L872.092 590.634L869.336 587.16L864.065 576.857L865.502 571.106L824.171 575.659L825.728 574.101L824.051 569.788L826.567 566.075L828.005 556.73L837.11 541.156L832.677 535.765L832.916 531.811L830.161 525.342V524.503H830.161Z" fill="#F5F5F5" stroke="white" stroke-width="3" stroke-linejoin="round"/>
<path d="M708.443 704.685L702.692 683.001V687.074L708.443 704.685ZM707.125 666.588L703.051 674.255L702.572 676.771L707.125 666.588ZM710.359 660.957L714.193 655.926L711.438 657.603L710.359 660.957ZM723.897 648.738L714.912 653.41L717.428 652.931L723.897 648.738ZM725.095 647.06L727.611 645.024L726.652 645.263L725.095 647.06ZM583.01 446.033L582.172 445.914L578.099 558.287L554.378 557.209L516.401 555.053L501.186 553.975L504.181 559.845L504.301 559.965L517.239 572.903L524.667 581.649L534.491 588.957L541.439 601.656L544.075 614.953L549.706 618.667L554.138 623.579L560.488 625.855L569.712 631.726L573.906 633.283L579.656 627.533L581.453 621.423L584.448 615.553L593.793 611.839L597.387 613.636L607.809 614.474L617.274 620.345L623.743 621.543L621.946 624.897L625.66 627.293L629.134 631.486L629.853 635.919L632.129 638.914L637.4 651.613L642.672 656.045L646.745 662.754L651.896 668.026L654.173 668.744L656.089 682.402L661.72 685.517L661.96 689.829L663.397 689.47L673.221 701.45L678.133 702.528L684.362 706.242H693.947L700.895 710.076L709.161 708.279L705.448 704.805L702.093 694.741L700.775 685.996L698.858 683.121L699.697 677.25L697.181 677.011L693.827 671.5L697.66 675.573L702.093 674.016L704.489 667.666L699.697 661.197L706.885 662.035L710.24 656.884L709.76 655.087L712.755 651.134L712.037 654.608L715.391 651.972L714.073 647.3L718.386 649.576L723.897 646.461L718.506 640.831L721.86 642.148L728.09 642.508L736.237 640.711L745.341 634.601L750.852 630.048L751.691 626.694L755.045 623.22L753.248 617.469L753.608 613.875L759.598 611.24L759.119 617.589H762.713L758.759 620.944L774.693 612.557L777.328 612.438L779.006 604.77H779.485L781.282 600.338L782.12 586.68L783.199 581.169L780.084 571.346L776.25 564.637L776.13 561.402L772.177 555.891L769.781 532.77L769.661 529.894L769.421 526.899L768.703 516.357L761.514 516.596L759.717 514.68L759.358 514.56H759.238L754.566 513.721L749.175 510.247L743.185 507.731L731.924 510.966L728.928 510.247L725.215 511.685L720.662 515.398L708.442 509.648L704.609 514.919L698.978 512.883L692.988 509.049L689.753 511.804L686.639 511.924V509.648L678.252 505.695L674.898 507.252L673.221 505.335L663.996 504.377L656.928 497.907L655.85 500.064L650.698 499.824L645.906 495.272L643.75 488.084L643.39 447.112L612.721 446.752L583.729 446.033H583.01L583.01 446.033Z" fill="#F5F5F5" stroke="white" stroke-width="3" stroke-linejoin="round"/>
<path d="M1156.5 218.89L1139.25 225.479L1139.01 224.88L1129.31 227.755L1127.15 228.354L1127.39 229.552L1131.94 247.163L1133.38 248.96L1130.26 252.794L1132.42 254.83L1139.37 248.121L1143.08 242.97L1143.8 244.408L1161.29 236.621L1161.65 236.261L1161.53 233.386L1160.81 230.87L1157.1 220.447L1156.62 219.129L1156.5 218.89H1156.5Z" fill="#F5F5F5" stroke="white" stroke-width="3" stroke-linejoin="round"/>
<path d="M1140.33 135.748L1138.77 137.665L1136.97 137.305L1136.01 145.212V145.332L1138.89 156.114L1138.65 158.27L1133.5 165.099L1134.82 171.329V179.116L1133.86 186.304L1139.25 205.951L1144.16 204.394L1159.26 199.362L1166.08 191.935V190.018L1166.44 186.903L1165.6 187.262L1165.49 186.544L1157.94 177.319L1157.7 176.48L1140.33 135.748H1140.33Z" fill="#F5F5F5" stroke="white" stroke-width="3" stroke-linejoin="round"/>
<path d="M1168.24 229.672L1168.12 227.156L1167.76 228.115L1168.24 229.672H1168.24ZM1170.64 227.755L1169.08 224.76L1168.96 227.875L1170.64 227.755V227.755ZM1169.92 224.042L1170.76 226.198L1171.83 228.115L1172.55 226.677L1171.48 224.641L1171.12 223.203H1169.92V224.042ZM1156.62 219.13L1157.1 220.448L1160.81 230.87L1161.53 233.386L1161.65 236.261L1161.89 235.902L1167.64 231.349L1166.56 223.203L1168.96 222.724L1163.69 216.374L1158.18 218.531L1156.62 219.13H1156.62Z" fill="#F5F5F5" stroke="white" stroke-width="3" stroke-linejoin="round"/>
<path d="M1139.25 205.952L1133.86 186.304L1134.82 179.116V171.329L1133.5 165.099L1138.65 158.271L1138.89 156.114L1136.01 145.332L1134.46 145.931L1127.87 148.327L1121.4 150.843L1106.54 156.234L1105.7 156.474L1111.1 169.053L1112.89 180.913L1119.24 190.857L1125.23 210.504L1125.47 210.384L1126.43 210.025L1129.19 209.186L1131.58 208.348L1138.41 206.311L1139.25 205.952V205.952Z" fill="#F5F5F5" stroke="white" stroke-width="3" stroke-linejoin="round"/>
<path d="M886.587 467.598L887.067 468.556L888.744 469.634L889.463 518.753L889.702 545.708L895.812 582.607L896.291 582.487L901.682 583.566L903.12 572.903L905.516 578.893L909.589 582.607L917.376 578.055L916.538 577.336L916.777 577.456L911.386 565.116L963.141 556.73L966.615 556.131V556.011L963.38 549.901L963.141 541.156L960.505 536.364L961.823 527.019L963.979 524.623L955.114 508.81L939.06 459.931L938.941 459.691L935.347 460.29L916.178 463.405L906.594 464.603L886.468 467.358L886.587 467.598V467.598Z" fill="#F5F5F5" stroke="white" stroke-width="3" stroke-linejoin="round"/>
<path d="M1054.91 702.648H1054.67L1054.79 702.768L1054.91 702.648H1054.91ZM1053.83 702.528V702.648H1053.95L1053.83 702.528ZM1054.07 702.409V702.289V702.409ZM1037.78 704.206V704.325V704.206ZM1037.54 704.325V704.206V704.325ZM1036.46 704.325H1036.34V704.445L1036.46 704.325ZM1070.48 696.778H1070.36L1070.48 697.018V696.778ZM1073.72 695.939V695.7L1073.48 696.059L1073.72 695.939V695.939ZM1072.52 695.7L1072.04 695.22L1071.92 695.34L1072.52 695.7L1072.52 695.7ZM1072.16 696.658L1070.72 694.861L1071.56 696.419L1072.16 696.658ZM1083.54 689.59V690.069L1083.78 689.829L1083.54 689.59ZM1085.22 688.392L1085.58 687.793L1085.1 688.272L1085.22 688.392V688.392ZM1085.58 687.194H1085.46V687.314L1085.58 687.194ZM1083.42 686.834L1083.3 686.715L1083.42 686.834ZM1084.5 685.037L1084.38 684.918V685.157L1084.5 685.037V685.037ZM1081.26 684.918L1081.15 684.798L1081.26 684.918ZM1085.34 682.162L1085.1 682.282L1085.46 682.402L1085.34 682.162V682.162ZM1085.82 682.162L1085.58 681.922L1085.7 682.282L1085.82 682.162L1085.82 682.162ZM1084.98 681.922L1084.86 681.803V682.042L1084.98 681.922V681.922ZM1089.41 681.084V680.964L1089.17 681.443L1089.41 681.084V681.084ZM1084.38 681.563H1084.14L1084.38 681.683V681.563ZM1086.9 680.125H1086.54L1086.42 680.245L1086.9 680.125H1086.9ZM1087.85 679.526H1087.73H1087.85ZM1077.79 680.006V679.766L1077.67 680.006H1077.79ZM1078.87 679.646H1078.51L1078.87 680.365V679.646ZM1075.99 679.766V679.047L1075.39 679.167L1075.99 679.766ZM1074.32 678.568L1074.92 679.167V678.927L1074.32 678.568ZM1091.93 679.287L1089.77 680.245L1090.49 680.365L1091.93 679.287V679.287ZM1075.15 678.209H1074.44V678.448L1075.15 678.209ZM1094.08 672.219L1094.2 671.62L1094.32 670.062L1094.08 672.219H1094.08ZM1094.2 665.51L1093.72 664.312L1093.48 664.791L1094.2 665.51ZM1066.53 668.505L1066.29 668.864L1066.89 668.984L1066.53 668.505V668.505ZM1064.25 667.427L1063.17 667.786L1064.01 667.906L1064.25 667.427V667.427ZM1061.86 667.666V667.307L1061.74 667.427L1061.86 667.666V667.666ZM1059.34 667.546L1058.62 668.025L1059.58 668.505L1059.34 667.546ZM1062.7 667.666L1062.58 667.307L1061.98 667.187L1062.7 667.666V667.666ZM1047 655.926L1046.28 656.285L1047.72 656.764L1047 655.926ZM1044.13 652.092L1043.17 650.654L1043.53 651.733L1044.13 652.092ZM1047.84 654.488L1046.16 650.654L1044.97 650.295L1047.84 654.488ZM1043.05 649.696L1042.69 648.738L1042.45 648.139L1043.05 649.696ZM1033.1 636.398L1030.95 634.841L1031.79 635.679L1033.1 636.398ZM1087.02 628.371L1078.27 613.755H1077.79L1087.02 628.371ZM1026.52 605.01L1026.16 604.89L1026.52 605.13V605.01V605.01ZM1025.8 604.171L1025.68 604.291L1025.8 604.411V604.171V604.171ZM1024.96 602.973V602.854L1024.84 602.973H1024.96ZM1025.44 602.494L1025.8 602.734V602.494H1025.44ZM1026.16 602.015L1025.68 602.135H1025.8L1026.16 602.015H1026.16ZM1025.32 601.895L1024.96 601.536L1025.08 601.656L1025.32 601.895V601.895ZM1024.48 600.577H1024.24L1024.6 600.697L1024.48 600.577H1024.48ZM1025.32 599.14H1024.84L1024.72 599.26L1025.32 599.14H1025.32ZM1025.8 599.379L1025.2 598.78L1025.44 598.9L1025.8 599.379V599.379ZM1021.24 594.228L1021 594.108V594.228H1021.24ZM1016.09 594.228L1015.73 593.749L1015.85 594.348L1016.09 594.228V594.228ZM972.485 590.274L976.079 587.519L972.126 590.155L972.485 590.274V590.274ZM979.673 584.524L980.033 584.164L978.595 584.763L979.673 584.524ZM934.149 576.497L921.09 580.69L928.278 578.654L934.149 576.497ZM966.615 556.131L963.141 556.73L911.386 565.116L916.778 577.456L917.137 577.575L915.819 582.487L919.653 580.81L923.846 577.096L931.034 576.857L939.3 573.862L944.931 574.7L943.613 576.737L953.916 580.211L962.781 584.524L964.818 589.316L971.407 587.878L986.981 575.179L992.732 575.419L1016.21 593.15L1021 592.191L1026.04 598.9L1026.99 609.562L1025.44 616.271L1026.16 619.626L1030.35 628.012L1028.43 621.423L1033.82 621.303L1034.3 626.095L1031.43 633.523L1041.37 647.18L1045.08 647.3L1041.97 643.107L1045.8 643.586L1048.08 642.148L1047.12 649.816L1052.27 653.889L1055.75 663.234L1060.42 666.109L1066.41 667.666L1074.68 678.209L1078.99 680.485L1073.24 680.844L1075.87 683.839L1085.34 680.725L1090.01 678.089L1094.32 662.994L1092.17 639.513L1091.69 637.117L1080.19 617.949L1070.36 604.052L1064.85 592.67L1069.52 596.624L1070.48 595.905L1072.52 605.849L1077.79 613.396L1072.64 603.333L1072.88 598.541L1057.42 579.732L1053.71 573.862L1048.8 563.918L1045.44 555.532L1042.81 552.537L1042.21 548.703L1042.09 548.583L1033.82 548.104L1030.59 550.62L1028.79 559.845L1027.11 555.532L970.568 562.6L966.495 556.251L966.615 556.131V556.131Z" fill="#E8E8E8" stroke="white" stroke-width="3" stroke-linejoin="round"/>
<path d="M1044.01 530.853L1043.89 527.259L1043.05 530.374L1044.01 530.853H1044.01ZM1045.32 525.342L1044.85 522.587L1044.49 524.264L1045.32 525.342ZM989.257 449.867L987.7 450.227L983.147 451.185L966.375 454.659L964.818 455.019L963.141 455.258L953.796 457.055L951.28 457.534L941.097 459.451L938.941 459.691L939.061 459.93L955.114 508.81L963.979 524.623L961.823 527.019L960.505 536.364L963.141 541.156L963.38 549.901L966.615 556.011V556.131L966.495 556.251L970.568 562.6L1027.11 555.532L1028.79 559.845L1030.59 550.62L1033.82 548.104L1042.09 548.584L1041.37 535.645L1042.93 532.89L1042.09 527.738L1043.77 522.826L1046.28 520.071L1044.49 518.394L1048.68 513.242H1048.56L1041.37 506.533L1031.55 492.517L1026.16 490.001L1003.03 470.593L997.404 463.405L986.502 458.852L985.903 456.456L989.257 449.867V449.867Z" fill="#F5F5F5" stroke="white" stroke-width="3" stroke-linejoin="round"/>
<path d="M884.671 588.478L884.072 588.597V588.717L884.671 588.478V588.478ZM895.812 587.04H894.135L895.692 587.16L895.812 587.04H895.812ZM881.915 588.238L881.436 588.717L881.556 588.837L881.915 588.238L881.915 588.238ZM893.176 587.28H888.624L892.937 587.399L893.176 587.28ZM843.219 473.109V473.229L838.188 481.615L838.667 488.084L831.838 495.632L833.635 497.788L829.083 516.956L831.239 521.029L830.041 521.868L830.161 524.504V525.342L832.916 531.812L832.677 535.765L837.109 541.156L828.004 556.73L826.567 566.075L824.051 569.789L825.728 574.101L824.171 575.659L865.502 571.106L864.065 576.857L869.336 587.16L872.091 590.634V590.514L876.524 585.483L885.869 583.446L894.494 584.404L895.812 582.727V582.607L889.702 545.708L889.463 518.753L888.744 469.635L887.067 468.556L886.587 467.598H886.348L880.358 468.437L869.815 469.874L845.855 472.869L843.219 473.109L843.219 473.109Z" fill="#F5F5F5" stroke="white" stroke-width="3" stroke-linejoin="round"/>
<path d="M989.257 449.867L985.903 456.456L986.502 458.852L997.404 463.405L1003.03 470.593L1026.16 490.001L1031.55 492.517L1041.37 506.533L1048.56 513.242L1049.76 507.731L1047.84 502.46L1052.99 506.294L1055.87 504.018L1050.95 499.944L1056.95 499.585L1066.29 491.678L1065.21 489.641L1070.96 485.209L1070.36 483.052L1074.56 480.417L1074.8 474.307L1081.38 462.087L1085.82 456.456L1086.3 456.217L1059.58 439.325L1049.64 441.242L1036.1 440.762L1029.39 437.288L989.617 449.867H989.257Z" fill="#F5F5F5" stroke="white" stroke-width="3" stroke-linejoin="round"/>
<path d="M816.384 286.578L816.144 287.177L820.697 290.052L822.134 292.927L826.926 297.48L826.806 301.313L824.171 308.861L818.181 313.174L812.79 314.252L811.711 320.482L813.509 321.32L811.711 333.54L807.279 336.296L808.117 340.968L807.039 341.447L806.081 346.718L809.914 357.381L823.572 368.882L824.77 374.392L827.405 377.148L836.031 376.669L834.474 384.695L833.875 393.321L839.026 397.514L847.173 401.108L851.486 404.463L853.882 411.291L852.564 413.807L861.07 420.756L861.429 420.875L860.71 420.157L863.106 414.526L872.331 417.042L874.607 414.406L872.81 409.135L880.358 404.702L878.321 401.827L880.118 397.754V397.394L879.639 397.274L879.759 386.612L882.394 384.695L886.947 374.033L885.988 369.361L882.993 363.73L884.671 357.381L876.285 298.318L875.086 297.001L871.972 289.932L869.456 287.297L868.378 280.348V280.109L852.204 282.385L842.5 283.583L816.384 286.578Z" fill="#F5F5F5" stroke="white" stroke-width="3" stroke-linejoin="round"/>
<path d="M926.122 289.094L907.792 292.328L903.599 293.167L888.744 295.563L885.629 298.079L880.957 300.235L879.16 300.115L877.003 299.037L876.284 298.318L884.671 357.38L882.993 363.73L885.988 369.36L886.947 374.033L882.394 384.695L879.759 386.612L879.639 397.274L880.118 397.394L880.597 397.274L882.394 393.92H886.827L892.218 392.123L898.927 394.639L899.646 391.883L903.479 389.008L909.23 389.847L912.345 383.737L920.851 384.455L920.731 380.981L928.278 371.038L927.08 366.485L932.351 366.365L938.821 361.214L937.263 355.344L937.503 355.104L937.263 353.067L930.075 310.658L926.841 292.568L926.481 290.651L926.122 289.094L926.122 289.094Z" fill="#F5F5F5" stroke="white" stroke-width="3" stroke-linejoin="round"/>
<path d="M855.559 433.454L855.199 432.496L854.481 432.256L854.001 433.814L854.121 433.934L855.439 433.814L855.559 433.454H855.559ZM937.503 355.104L937.264 355.344L938.821 361.214L932.352 366.366L927.08 366.485L928.278 371.038L920.731 380.981L920.851 384.456L912.345 383.737L909.23 389.847L903.48 389.008L899.646 391.883L898.927 394.639L892.218 392.123L886.827 393.92H882.394L880.597 397.274L880.118 397.394V397.754L878.321 401.827L880.358 404.702L872.81 409.135L874.607 414.406L872.331 417.042L863.106 414.526L860.71 420.156L861.429 420.875L861.669 421.354L860.591 431.178L860.111 431.418L856.996 433.335L856.877 433.694L860.351 433.215L884.551 429.98L883.353 425.188L887.426 425.068L936.185 418.599L970.449 412.849L970.928 412.489L971.766 411.531L980.751 406.739L987.7 397.634L988.658 394.519L993.211 390.925L998.961 383.617L999.8 382.419L999.44 382.299H996.445L992.612 380.143L985.783 371.876L983.387 363.49V363.251L983.147 363.011L978.116 360.136L975.84 356.302L971.287 360.735L968.412 361.454L964.818 360.016L961.703 362.412L955.234 359.537L953.556 360.256L947.447 354.984L944.332 353.427L938.462 354.146L937.503 355.104Z" fill="#F5F5F5" stroke="white" stroke-width="3" stroke-linejoin="round"/>
<path d="M1098.76 452.024L1097.44 453.341L1097.68 453.581L1098.76 452.024ZM1099.71 445.075L1099.12 446.034L1099.35 446.992L1099.71 445.075ZM1106.9 433.934L1105.11 435.132L1104.15 436.569L1106.9 433.934ZM1122.36 426.386L1121.64 425.907L1120.08 425.787L1122.36 426.386V426.386ZM1119.12 425.667H1118.04L1116.25 426.626L1119.12 425.667ZM1122.84 426.985L1126.31 418.359L1123.91 421.953L1122.84 426.985ZM1127.99 415.604L1129.54 413.328H1128.71L1127.99 415.604ZM1138.05 406.259L1135.41 392.962L1137.69 399.91L1138.05 406.259ZM1123.43 375.95L1123.2 376.07L1122.84 376.189H1122.96L1129.54 387.331L1134.7 392.482L1123.43 375.95L1123.43 375.95ZM1121.28 376.669L1120.32 376.908L1120.56 377.028H1122.6L1122.36 376.309L1122 376.429H1121.64V376.669L1121.4 376.788L1121.28 376.669V376.669ZM1010.46 403.983L1009.86 405.78L1009.98 410.932L1008.67 410.812L1005.55 417.161L1002.08 417.521L995.607 423.87L992.732 422.792L989.018 428.303L979.194 437.168L974.402 438.366L969.37 443.038L969.131 446.153L964.698 448.549L964.818 453.821V455.019L966.375 454.659L983.147 451.185L987.7 450.227L989.257 449.867H989.617L1029.39 437.288L1036.1 440.762L1049.64 441.241L1059.58 439.325L1086.3 456.217L1086.78 455.857L1099.12 450.826L1099.24 444.237L1103.67 436.21L1108.46 431.657L1118.4 425.068L1119.72 422.672L1122.36 423.87L1123.55 415.963L1122.12 418.719L1117.09 420.396L1112.29 420.516L1118.16 416.203L1116.37 414.286L1118.4 409.973L1107.14 408.176L1106.66 407.577L1116.25 405.78L1119.36 407.338L1123.32 406.978L1126.55 404.582L1128.95 399.91L1131.1 399.311L1130.74 392.722L1127.99 390.086L1125.23 392.602L1125.83 398.952L1123.79 391.164L1122.24 390.805L1110.38 395.717L1115.65 390.565L1115.89 388.529L1121.4 387.211L1122.96 383.138L1126.67 385.294L1122.72 379.424L1119.96 377.028L1072.04 390.685L1041.49 398.472L1010.58 404.223L1010.46 403.983H1010.46Z" fill="#F5F5F5" stroke="white" stroke-width="3" stroke-linejoin="round"/>
<path d="M1009.86 297.001L1006.87 284.062L1006.27 281.426L1002.91 266.691L998.602 269.446L989.377 276.515L983.387 283.823L978.715 284.541L970.089 289.453L965.297 286.578L950.801 284.901L943.134 286.818L935.586 288.615L927.679 290.292L926.481 290.651L926.841 292.568L930.075 310.658L937.263 353.068L937.503 355.104L938.461 354.146L944.332 353.427L947.447 354.985L953.556 360.256L955.234 359.537L961.703 362.412L964.818 360.016L968.412 361.454L971.287 360.735L975.839 356.302L978.116 360.136L983.147 363.011L983.387 363.251L988.538 360.735L990.335 356.782L988.898 352.708L992.971 346.479L995.966 345.999L995.607 340.728L1000.52 334.019L1001.36 334.978L1005.79 331.623L1009.62 325.873L1010.22 299.636L1010.46 299.516L1009.86 297.001V297.001Z" fill="#F5F5F5" stroke="white" stroke-width="3" stroke-linejoin="round"/>
<path d="M970.448 412.849L936.185 418.599L887.426 425.068L883.353 425.188L884.551 429.98L860.351 433.215L856.877 433.694V433.814L855.918 435.012L855.439 434.892V433.934V433.814L854.121 433.934L854.241 434.054L854.96 437.408L852.564 440.403L852.324 445.914V446.872V446.992L848.73 453.941L849.449 458.852L846.095 464.124L847.293 468.916L842.98 472.869L843.219 473.109L845.855 472.869L869.815 469.874L880.358 468.437L886.348 467.598H886.587L886.468 467.358L906.594 464.603L916.178 463.405L935.347 460.29L938.941 459.691L941.097 459.451L951.28 457.535L953.796 457.055L963.141 455.258L964.818 455.019V453.821L964.698 448.55L969.13 446.153L969.37 443.039L974.402 438.366L979.194 437.168L989.018 428.303L992.731 422.792L995.607 423.87L1002.08 417.521L1005.55 417.162L1008.66 410.812L1009.98 410.932L1009.86 405.78L1010.46 403.983L1008.55 404.343L1001.72 406.26L993.57 407.937L973.084 412.13L970.927 412.489L970.448 412.849L970.448 412.849Z" fill="#F5F5F5" stroke="white" stroke-width="3" stroke-linejoin="round"/>
<path d="M1121.64 376.429H1122L1122.36 376.309L1122.12 375.71L1121.64 376.429V376.429ZM1117.56 363.011V363.61L1118.16 363.251L1117.56 363.011ZM1119.72 358.818L1119.6 357.86L1119.72 358.818ZM1119 360.256L1118.76 361.813L1118.4 362.412L1119 360.256ZM1120.08 357.141L1120.2 356.422L1119.96 357.141H1120.08H1120.08ZM1120.8 353.906L1121.16 353.068L1120.56 355.224L1120.8 353.906ZM1120.92 352.109L1121.4 349.474L1120.8 350.073L1120.92 352.109ZM1123.08 340.249L1123.32 339.171L1123.2 339.41L1123.08 340.249H1123.08ZM1122.6 337.494L1121.04 338.093L1118.64 339.171L1117.8 340.249L1118.16 340.369L1115.29 358.219L1116.37 361.095L1118.04 353.667L1121.16 343.963L1122.6 337.613V337.494ZM1124.99 336.535L1124.63 336.655L1124.51 337.134L1123.91 340.848L1124.39 339.53L1124.99 336.535V336.535ZM999.8 382.419L998.961 383.617L993.211 390.925L988.658 394.519L987.7 397.634L980.751 406.739L971.766 411.531L970.928 412.489L973.084 412.13L993.57 407.937L1001.72 406.26L1008.55 404.343L1010.46 403.983L1010.58 404.223L1041.49 398.473L1072.04 390.685L1119.96 377.028L1119.6 376.429L1119.48 376.07L1120.32 376.908L1121.28 376.669L1121.16 376.549L1120.32 372.476L1120.92 372.595L1122.84 376.189L1123.2 376.07L1123.43 375.95L1122.96 374.991L1118.04 367.444L1111.93 368.522L1109.18 370.798L1106.54 368.402L1097.56 365.407L1091.33 365.168L1103.43 364.089L1110.14 368.642L1112.05 365.647L1106.66 358.818L1110.5 359.058L1108.46 353.547L1103.67 353.786L1092.29 344.562H1090.85L1106.9 352.469L1105.82 346.958L1106.9 345.161L1098.76 342.046L1091.69 341.567L1088.21 338.452L1085.34 340.249L1084.26 331.983L1085.46 332.222L1085.22 325.513L1084.98 325.274L1084.74 325.394L1084.5 325.274L1083.9 324.795L1083.54 324.435L1079.71 322.758L1075.75 319.883L1070.24 318.445L1069.88 318.325V318.445L1069.16 323.477L1058.02 318.685L1058.26 325.633L1052.15 337.254L1048.44 341.327L1046.04 348.395L1038.74 345.88L1035.14 362.173L1032.27 367.683L1031.79 374.872L1029.63 378.346L1021.6 380.742L1015.01 385.893L1011.9 386.372L1008.9 389.008L1001.36 386.253L1000.04 382.539L999.8 382.419L999.8 382.419Z" fill="#F5F5F5" stroke="white" stroke-width="3" stroke-linejoin="round"/>
<path d="M871.133 208.347L868.138 212.061L866.341 217.452L867.18 220.447L871.133 208.347ZM802.367 180.194L804.164 177.678L802.846 178.876L802.367 180.194ZM805.122 176.241L804.523 175.522L803.206 176.36L805.122 176.241V176.241ZM779.006 182.95L776.25 186.064L777.568 200.441L769.901 207.389L768.463 214.098L772.656 217.932L771.458 234.464L775.891 237.819L778.766 238.058L787.871 243.569L793.621 249.559L800.929 253.273L802.607 262.498V263.097L806.081 267.29L805.122 270.524L806.32 277.593L809.914 282.505L816.504 285.979L816.384 286.578L842.5 283.583L852.204 282.385L868.378 280.109L867.898 278.312V272.681L864.664 266.691L863.825 259.143L865.382 250.757L864.544 244.288L867.419 236.261L866.341 234.943L866.581 227.516L868.138 221.885L866.341 219.968L862.867 221.166L860.95 226.198L856.397 228.834L857.835 222.484L861.908 217.093L862.148 214.697L862.268 214.577L856.517 208.827V200.68L850.048 195.409L841.183 194.81L832.078 192.414L812.43 186.424L808.597 184.267L808.237 184.627L802.127 183.788L800.091 184.986L800.929 176.241L791.106 181.272L779.125 183.189L779.006 182.949V182.95ZM802.487 176.6L802.247 175.761L801.409 176.121L802.487 176.6ZM798.174 175.761L798.533 175.043L798.294 174.803L798.174 175.761ZM806.919 173.725L806.56 172.048L806.201 174.084L806.919 173.725Z" fill="#F5F5F5" stroke="white" stroke-width="3" stroke-linejoin="round"/>
<path d="M1032.75 318.086L1015.73 322.279L1010.46 299.516L1010.22 299.636L1009.62 325.873L1005.79 331.623L1001.36 334.978L1000.52 334.019L995.607 340.728L995.966 345.999L992.971 346.479L988.898 352.708L990.335 356.781L988.538 360.735L983.387 363.251V363.49L985.783 371.876L992.612 380.143L996.445 382.299H999.44L999.8 382.419L1000.04 382.539L1001.36 386.253L1008.9 389.008L1011.9 386.373L1015.01 385.893L1021.6 380.742L1029.63 378.346L1031.79 374.872L1032.27 367.684L1035.14 362.173L1038.74 345.88L1046.04 348.396L1048.44 341.327L1052.15 337.254L1058.26 325.633L1058.02 318.685L1069.16 323.477L1069.88 318.445V318.325L1066.41 312.335L1059.22 311.497L1055.03 314.731V317.127L1051.43 317.966L1046.16 321.68L1043.41 322.279L1037.9 330.066L1035.14 317.487L1032.75 318.086V318.086Z" fill="#F5F5F5" stroke="white" stroke-width="3" stroke-linejoin="round"/>
<path d="M1103.19 298.318L1103.67 300.115L1113.61 328.508L1124.99 325.154L1124.87 324.914H1125.11L1125.47 325.034L1125.71 324.914L1125.47 324.435L1122.6 316.768L1108.58 303.47L1109.18 294.245H1106.3L1104.15 295.922L1103.19 298.318H1103.19Z" fill="#F5F5F5" stroke="white" stroke-width="3" stroke-linejoin="round"/>
<path d="M1083.9 324.794L1084.5 325.274L1084.74 325.394L1084.98 325.274L1085.22 325.394L1086.06 325.873L1086.3 326.232V327.071L1086.54 327.55L1088.09 324.675L1086.42 323.716L1084.38 323.836L1083.9 324.795V324.794Z" fill="#F5F5F5" stroke="white" stroke-width="3" stroke-linejoin="round"/>
<path d="M1125.11 336.056L1125.95 329.587L1125.23 334.379L1124.75 336.415L1124.63 336.655L1124.99 336.535L1125.11 336.056V336.056ZM1125.71 324.914L1125.47 325.034L1125.71 325.753V327.191V324.914V324.914ZM1035.14 317.487L1037.9 330.066L1043.41 322.279L1046.16 321.68L1051.43 317.966L1055.03 317.127V314.731L1059.22 311.497L1066.41 312.335L1069.88 318.325L1070.24 318.445L1075.75 319.883L1079.71 322.758L1083.54 324.435L1083.9 324.795L1084.38 323.836L1086.42 323.716L1088.09 324.675L1086.54 327.55V327.67L1084.26 334.618L1091.69 339.41L1099.11 339.77L1104.03 342.046L1101.99 336.295L1095.64 334.139L1094.08 329.227L1098.04 334.498L1101.27 334.978L1098.4 332.102L1096.12 323.597L1096.72 318.685L1094.2 313.294L1096.84 311.137L1098.76 304.189L1098.04 314.492L1100.07 317.966L1101.99 313.893L1103.07 320.602L1101.03 325.513L1106.9 327.67L1101.87 329.347L1104.51 334.259L1108.82 335.696L1111.21 331.503L1110.98 337.374L1115.05 337.254L1117.68 340.249H1117.8L1118.64 339.171L1121.04 338.092L1122.6 337.493L1122.48 337.254L1125.59 328.029V327.67L1124.99 325.274V325.154L1113.61 328.508L1103.67 300.115L1103.19 298.318L1101.15 298.917L1092.65 301.553L1045.8 314.611L1037.3 316.888L1035.14 317.487V317.487Z" fill="#F5F5F5" stroke="white" stroke-width="3" stroke-linejoin="round"/>
<path d="M1131.58 297.839L1130.98 296.402V297.839H1131.58ZM1132.78 293.407L1133.14 289.813L1132.42 292.927L1132.78 293.407ZM1127.87 256.628L1115.29 253.513L1113.13 252.914L1111.1 252.435L1106.06 263.576L1108.22 266.212L1108.1 274.238L1110.38 274.598L1115.05 286.818L1114.81 287.177L1108.94 295.803L1109.54 302.392L1123.67 307.184L1123.79 312.695L1127.03 308.142L1127.51 301.553L1130.86 299.277L1129.54 294.365L1132.06 288.495V275.676L1131.22 271.483L1125.59 271.603L1127.03 265.852L1127.87 256.628V256.628Z" fill="#B8E9F9"/>
<path d="M1131.58 297.839L1130.98 296.402V297.839H1131.58ZM1132.78 293.407L1133.14 289.813L1132.42 292.927L1132.78 293.407ZM1127.87 256.628L1115.29 253.513L1113.13 252.914L1111.1 252.435L1106.06 263.576L1108.22 266.212L1108.1 274.238L1110.38 274.598L1115.05 286.818L1114.81 287.177L1108.94 295.803L1109.54 302.392L1123.67 307.184L1123.79 312.695L1127.03 308.142L1127.51 301.553L1130.86 299.277L1129.54 294.365L1132.06 288.495V275.676L1131.22 271.483L1125.59 271.603L1127.03 265.852L1127.87 256.628V256.628Z" fill="#0085FF" fill-opacity="0.5"/>
<path d="M1131.58 297.839L1130.98 296.402V297.839H1131.58ZM1132.78 293.407L1133.14 289.813L1132.42 292.927L1132.78 293.407ZM1127.87 256.628L1115.29 253.513L1113.13 252.914L1111.1 252.435L1106.06 263.576L1108.22 266.212L1108.1 274.238L1110.38 274.598L1115.05 286.818L1114.81 287.177L1108.94 295.803L1109.54 302.392L1123.67 307.184L1123.79 312.695L1127.03 308.142L1127.51 301.553L1130.86 299.277L1129.54 294.365L1132.06 288.495V275.676L1131.22 271.483L1125.59 271.603L1127.03 265.852L1127.87 256.628V256.628Z" fill="url(#paint0_linear)"/>
<path d="M1131.58 297.839L1130.98 296.402V297.839H1131.58ZM1132.78 293.407L1133.14 289.813L1132.42 292.927L1132.78 293.407ZM1127.87 256.628L1115.29 253.513L1113.13 252.914L1111.1 252.435L1106.06 263.576L1108.22 266.212L1108.1 274.238L1110.38 274.598L1115.05 286.818L1114.81 287.177L1108.94 295.803L1109.54 302.392L1123.67 307.184L1123.79 312.695L1127.03 308.142L1127.51 301.553L1130.86 299.277L1129.54 294.365L1132.06 288.495V275.676L1131.22 271.483L1125.59 271.603L1127.03 265.852L1127.87 256.628V256.628Z" stroke="white" stroke-width="3" stroke-linejoin="round"/>
<path d="M1127.51 266.331L1125.71 268.847L1125.23 269.566L1127.51 266.331ZM1144.04 260.461L1150.03 255.19V254.95L1144.04 260.461ZM1128.35 264.175V260.102L1127.99 262.258L1128.35 264.175ZM1156.14 245.007L1154.7 244.647L1154.46 245.725L1156.14 245.007ZM1159.38 242.85L1159.26 244.048L1159.5 243.329L1159.38 242.85H1159.38ZM1156.02 242.97L1147.99 250.398L1135.65 255.669L1132.42 258.424L1132.18 261.06L1128.83 263.815L1129.31 267.41L1134.46 265.373L1142 259.263L1150.39 254.83L1163.09 242.85L1154.1 249.679L1151.23 250.877L1156.02 242.97ZM1159.73 237.938L1160.21 237.22L1158.78 238.897L1159.73 237.938ZM1025.08 233.506L1023.16 233.266L1024.6 235.183L1025.08 233.506ZM1064.85 196.846L1065.09 195.529L1064.13 196.727L1064.85 196.847V196.846ZM1065.45 188.221L1064.97 188.46L1064.37 189.778L1065.45 188.221ZM1014.77 256.268L1015.61 259.862L1021.96 261.419L1058.38 251.476L1095.04 240.454L1101.75 245.606L1103.07 248.601L1110.86 251.955L1111.1 252.434L1113.13 252.914L1115.29 253.513L1127.87 256.627L1127.63 256.028L1128.71 260.94L1131.1 260.341L1132.42 254.95V254.83L1130.26 252.794L1133.38 248.96L1131.94 247.163L1127.39 229.552L1127.15 228.354L1126.55 227.995L1126.19 222.724L1125.83 216.973L1125.47 210.743V210.384L1125.23 210.504L1119.24 190.856L1112.89 180.913L1111.1 169.053L1105.7 156.473L1104.99 156.833L1079.95 165.219L1074.92 170.61L1069.28 181.392L1069.52 183.788L1062.1 195.049L1066.65 196.607L1067.97 205.113L1062.7 212.061L1046.88 221.645L1043.89 220.447L1032.15 222.125L1021.24 228.714L1021.84 232.188L1025.68 235.542L1023.52 246.085L1014.89 256.148L1014.77 256.268V256.268Z" fill="#E8E8E8" stroke="white" stroke-width="3" stroke-linejoin="round"/>
<path d="M1110.86 251.955L1103.07 248.601L1101.75 245.606L1095.04 240.454L1058.38 251.476L1021.96 261.42L1015.61 259.862L1014.77 256.268L1012.74 257.826L1009.5 260.102L1003.63 266.092L1002.91 266.691L1006.27 281.426L1006.87 284.062L1009.86 297.001L1010.46 299.516L1015.73 322.279L1032.75 318.086L1035.14 317.487L1037.3 316.888L1045.8 314.611L1092.65 301.553L1101.15 298.917L1103.19 298.318L1104.15 295.922L1106.3 294.245H1109.18L1109.54 293.167L1114.21 287.896L1114.69 287.057L1115.05 286.818L1110.38 274.598L1108.1 274.238L1108.22 266.212L1106.06 263.576L1111.1 252.434L1110.86 251.955Z" fill="#F5F5F5" stroke="white" stroke-width="3" stroke-linejoin="round"/>
<path d="M1168.6 188.101H1168.48L1168.72 188.221L1168.6 188.101H1168.6ZM1177.47 162.583L1176.51 161.146V161.864L1177.47 162.583ZM1175.79 161.265V160.067L1175.67 159.349L1175.79 161.265ZM1180.1 156.234L1179.86 156.114L1179.98 156.473L1180.1 156.234L1180.1 156.234ZM1192.08 150.244L1191.84 148.447L1191.36 149.285L1192.08 150.244ZM1189.09 150.962L1189.21 149.645L1187.77 149.884L1189.09 150.962ZM1193.52 147.009H1193.04V147.249L1193.52 147.009ZM1187.53 148.806L1186.45 148.566L1186.33 149.645L1187.53 148.806ZM1193.64 145.092L1194.72 145.931L1194.36 144.972L1193.64 145.092ZM1190.4 145.212L1189.33 147.249L1190.76 146.53L1190.4 145.212ZM1185.25 145.332L1184.77 146.051L1185.13 147.129L1185.25 145.332ZM1192.32 141.378L1192.2 140.42L1191.84 141.019L1192.32 141.378H1192.32ZM1191.72 141.858L1190.64 140.899V141.738L1191.72 141.858V141.858ZM1185.01 144.613L1184.77 143.295L1184.29 144.373L1185.01 144.613ZM1196.39 140.42L1194.6 143.056L1194.48 141.139L1196.39 140.42ZM1205.14 132.393L1204.3 131.195L1203.82 131.435L1205.14 132.393ZM1208.37 127.002L1207.66 126.643L1207.54 127.002H1208.37ZM1209.93 117.658H1208.85L1210.05 118.017L1209.93 117.658H1209.93ZM1211.73 118.856L1211.37 116.699L1210.41 116.579L1211.73 118.856ZM1209.81 116.939L1209.57 114.663L1208.73 116.22L1209.81 116.939ZM1140.33 135.748L1157.7 176.48L1157.94 177.319L1165.49 186.544V186.424L1166.68 186.064L1166.92 179.236L1168.84 176.84L1170.04 170.49L1168.96 169.412L1171 163.182L1177.94 159.948L1182.5 154.437L1184.17 144.853L1191.48 144.373L1190.52 139.461L1199.63 135.987L1200.23 130.596L1202.38 131.075L1208.37 126.164L1211.01 119.814L1204.9 113.704L1198.43 112.386L1196.03 107.475V104.599L1192.08 105.797L1187.65 104.24V99.328L1175.67 73.4509L1166.92 68.8984L1157.22 77.0449L1154.58 76.5657L1152.31 72.3727L1149.19 73.5707L1144.76 95.6142L1146.32 102.802L1147.63 117.418L1144.16 128.679L1146.56 130.476L1143.68 135.987L1140.57 135.508L1140.33 135.748V135.748Z" fill="#F5F5F5" stroke="white" stroke-width="3" stroke-linejoin="round"/>
<path d="M888.624 212.541L888.025 211.582L887.905 212.78L888.624 212.541ZM890.541 210.384L889.103 208.467L888.864 209.306L890.541 210.384ZM891.739 201.758L890.541 200.68V200.92L891.739 201.758ZM888.744 295.563L903.599 293.167L907.792 292.328L926.122 289.094L926.481 290.651L927.679 290.292L935.586 288.614L943.134 286.817L950.801 284.901L950.681 284.541L954.635 276.754L954.275 270.285L958.708 259.143L962.182 261.18L963.5 258.664L963.14 249.08L959.906 243.09L955.114 230.391L950.921 225.719L948.764 225.12L940.977 230.511L941.816 231.589L937.742 239.256L933.789 238.537L932.591 230.511L934.268 229.912L937.742 221.885L938.102 207.748L932.711 195.768L920.731 193.732L919.533 191.935L908.391 188.7L903.359 194.93L903.839 200.321L900.005 205.113L900.844 212.541L897.13 215.176V205.832L893.775 212.9L889.822 219.13L887.186 221.166L888.504 227.755L886.827 234.584L887.785 243.09L886.587 247.283L895.213 263.816L896.291 270.165L895.213 281.906L889.463 295.084L888.744 295.563ZM914.381 187.622L911.266 187.861L913.183 189.299L914.381 187.622ZM896.171 190.737H895.213L896.291 191.216L896.171 190.737H896.171ZM917.137 175.522L915.939 173.605L915.459 173.725L917.137 175.522V175.522ZM808.597 184.267L812.43 186.424L832.078 192.414L841.183 194.81L850.048 195.409L856.517 200.68V208.827L862.268 214.577V214.457L866.94 200.92L872.571 196.966L876.883 192.174L877.602 196.487L882.035 189.658L892.697 185.585L893.536 183.908L904.318 185.226L908.511 187.382L910.548 182.111L912.464 183.309L920.851 181.991L918.814 178.637L915.1 176.48L915.819 168.693L908.511 172.766L901.802 171.928L899.646 166.776L900.365 165.099L891.26 169.412L885.389 169.771L874.847 176.241L873.649 178.637L867.18 177.079L863.106 178.876L854.96 171.808L836.87 166.297L836.51 164.141L824.89 175.282L818.301 176.959L808.956 184.028L808.597 184.267V184.267ZM851.006 157.072L836.99 164.021L841.662 168.573L843.459 164.021L848.251 158.151L851.006 157.072ZM835.312 140.66L825.728 147.249L825.249 150.483L832.797 144.973L835.312 140.66Z" fill="#F5F5F5" stroke="white" stroke-width="3" stroke-linejoin="round"/>
<path d="M125.01 712.113L124.411 712.352L124.89 712.472L125.01 712.113H125.01ZM129.442 712.831V712.951V712.831ZM127.286 710.795V711.154L127.525 711.034L127.286 710.795ZM126.208 710.196V710.076V710.196ZM128.484 711.394V711.154L128.364 711.274L128.484 711.394V711.394ZM128.244 711.154V711.034H128.005L128.244 711.154ZM34.7991 632.445L34.6793 633.283L34.9189 635.679L34.7991 632.445H34.7991ZM34.2001 629.21L34.3199 630.288L34.4397 629.929L34.2001 629.21H34.2001ZM128.244 709.717L128.364 708.998L127.885 709.237L128.244 709.717H128.244ZM141.902 715.587L141.782 715.467L142.021 715.946L141.902 715.587L141.902 715.587ZM133.036 711.394L131.719 710.196V713.071L133.036 711.394ZM136.031 714.029L135.912 713.191L133.875 713.071L136.031 714.029H136.031ZM143.219 715.707L143.1 715.946H143.339L143.219 715.707H143.219ZM143.699 715.826H143.459L143.938 715.946L143.699 715.826ZM145.136 716.306H145.016H144.897H145.136H145.136ZM39.3516 635.08L39.8308 635.2L40.1902 635.08H39.3516ZM142.501 714.628L141.542 714.509L141.902 714.868L142.501 714.628ZM32.8823 625.736L31.2051 625.017L31.0853 625.376L32.8823 625.736H32.8823ZM145.496 714.868L145.256 714.748V714.868H145.496ZM152.804 716.306L148.131 716.665L147.053 717.144L152.804 716.306ZM24.3764 606.927H23.0586L23.2982 607.286L24.3764 606.927ZM167.3 721.817V721.337H167.06L167.3 721.817ZM173.529 721.936L173.769 721.697L173.529 721.457V721.936ZM178.201 723.254L178.441 723.134H178.321L178.201 723.254H178.201ZM174.368 721.098L174.248 720.619H174.008L174.368 721.098H174.368ZM182.395 722.895L182.275 723.015H182.395V722.895ZM25.0952 600.817L23.2982 601.057L25.5744 603.093L25.0952 600.817ZM176.045 721.098L176.285 720.379H176.165L176.045 721.098H176.045ZM196.291 719.301L196.411 719.061L196.172 718.941L196.292 719.301L196.291 719.301ZM193.296 718.223L189.103 721.936L192.098 721.697L195.573 718.941L193.296 718.223ZM200.844 719.54L200.005 719.301L200.604 719.78L200.844 719.54ZM202.521 719.66L201.203 719.301L200.964 719.421L202.521 719.66V719.66ZM197.969 717.983H196.651L198.927 718.582L197.969 717.983ZM203.48 719.181L203.36 718.941L202.881 719.061L203.48 719.181L203.48 719.181ZM199.886 717.743L199.406 717.504V718.822L199.886 717.743ZM215.22 720.738L215.1 720.619H214.861L215.22 720.738H215.22ZM215.46 720.619V720.499L215.22 720.379L215.46 720.619V720.619ZM213.423 719.9L213.663 720.379V720.259L213.423 719.9ZM214.501 719.9L213.423 719.54L214.741 720.499L214.501 719.9ZM216.059 718.702V718.822V718.702ZM230.315 720.499L230.075 720.02H229.956L230.315 720.499H230.315ZM359.221 712.472L358.982 712.232L359.102 712.472H359.222H359.221ZM214.022 716.186V716.066L213.902 716.186H214.022ZM362.696 710.316L363.055 710.795H363.295L362.696 710.316ZM231.753 719.301L231.633 719.421V719.78L231.753 719.301V719.301ZM216.897 717.144L217.137 716.186H217.017L216.897 717.144H216.897ZM369.644 707.56L368.566 708.159L369.524 708.638L369.644 707.56H369.644ZM219.054 716.545L218.934 716.306L219.054 716.545ZM210.069 713.91L207.074 714.509L204.438 717.983L210.069 713.91ZM231.513 718.462L230.794 719.061L231.513 718.941V718.462V718.462ZM369.644 706.961L369.405 706.482L369.285 706.722L369.644 706.961H369.644ZM220.012 715.347L219.174 715.228L220.012 716.066V715.347V715.347ZM361.737 708.519L361.498 708.758L361.737 709.597V708.519ZM221.929 715.228L221.57 715.347L222.049 715.707L221.929 715.228L221.929 715.228ZM230.794 717.743H230.435L230.195 717.504L230.794 717.743ZM220.971 715.228L220.372 714.868L220.611 715.228H220.971ZM228.997 716.545L227.919 716.905L227.2 718.822L228.997 716.545ZM359.102 708.159V708.998L359.581 708.399L359.102 708.159ZM214.861 712.712L215.819 712.472H215.699L214.861 712.712H214.861ZM213.663 711.993L213.423 711.753V711.873L213.663 711.993V711.993ZM359.102 707.321L358.862 707.201L358.742 707.56L359.102 707.321L359.102 707.321ZM227.679 714.509L227.44 714.389L227.2 714.748L227.679 714.509V714.509ZM357.904 707.56L358.023 706.961L357.784 706.841L357.904 707.56H357.904ZM356.945 706.961L356.586 707.44L357.185 707.56L356.945 706.961ZM232.711 712.832L232.472 712.592H232.352L232.711 712.832H232.711ZM356.586 704.805L357.544 705.164L357.904 704.685L356.586 704.805ZM358.023 703.966L357.664 704.206L358.263 704.565L358.023 703.966ZM355.268 704.685L355.028 704.206L354.789 704.445L355.268 704.685ZM367.248 700.252L365.691 704.685L367.248 703.727V700.252ZM225.283 709.477H225.164H225.283ZM356.706 701.93L355.627 703.008L355.867 704.206L356.706 701.93ZM245.17 711.514V711.034L245.051 711.274L245.17 711.514ZM355.388 700.732L358.862 706.003L366.649 710.915L364.852 706.722L357.424 700.372L355.388 700.732ZM240.378 709.597L240.259 709.237L240.019 709.357L240.378 709.597H240.378ZM359.461 698.695L358.982 700.492L359.82 699.893L359.461 698.695ZM361.977 698.695L361.857 699.893L362.935 700.252L361.977 698.695H361.977ZM244.212 708.039L243.613 707.92L243.014 708.159L244.212 708.039V708.039ZM256.552 708.998L256.072 709.836L256.312 709.118L256.552 708.998V708.998ZM258.349 709.118L257.27 709.238L257.869 709.956L258.349 709.118ZM185.749 693.783L186.947 694.382L186.707 694.142L185.749 693.783ZM233.31 705.643L233.43 705.524L233.31 705.643ZM233.67 705.524H233.789V705.404L233.67 705.524ZM357.544 696.299L358.143 698.575L359.341 697.856L357.544 696.299ZM236.904 704.206L237.024 704.086L236.904 704.206ZM352.393 697.257L352.992 702.768L354.19 701.57L352.393 697.257ZM352.992 695.46L355.747 699.294L355.388 696.778L352.992 695.46ZM344.486 696.419L343.767 698.695L344.725 697.138L344.486 696.419ZM248.645 702.289L248.525 702.169L248.645 702.289ZM260.026 702.529L259.786 702.169L260.026 702.648V702.529ZM344.725 694.622L349.518 702.529L348.799 697.138L344.725 694.622ZM266.735 698.815L266.375 699.174L266.974 699.414L266.735 698.815ZM265.177 699.054L265.297 698.695H264.818L265.177 699.054H265.177ZM263.979 699.054L260.864 701.091L257.031 706.123L258.948 708.159L267.813 701.57L263.979 699.054ZM339.574 691.267L338.735 690.788V691.507L339.574 691.267ZM263.26 697.617L263.38 698.096L264.219 698.575L263.261 697.617H263.26ZM341.85 688.991L339.454 690.189L341.73 690.908L341.85 688.991H341.85ZM340.293 688.991L340.053 688.751L339.933 688.991H340.293H340.293ZM347.601 687.074L346.642 686.715L346.403 687.434L347.601 687.074ZM342.449 687.913L341.611 687.793V688.033L342.449 687.913V687.913ZM345.085 686.954L349.997 694.142L348.679 687.553L345.085 686.954ZM266.016 694.741L263.141 696.898L264.459 698.336L268.292 695.46L266.016 694.741ZM233.43 690.189L233.31 690.069V690.189H233.43ZM232.112 689.59L231.992 688.991V689.231L232.112 689.59ZM268.891 691.147L268.652 691.267V691.387L268.891 691.148V691.147ZM267.693 690.908H267.573L267.334 691.267L267.693 690.908H267.693ZM270.568 689.949L270.209 689.71V689.83L270.568 689.949V689.949ZM271.527 689.83L271.167 689.59V689.71L271.527 689.83V689.83ZM269.969 689.47H269.49V689.59L269.969 689.47ZM293.81 687.074L293.93 686.715L293.69 686.954L293.81 687.074L293.81 687.074ZM301.118 683.24L302.555 681.443L302.076 681.803L301.118 683.24ZM286.502 683.001L286.981 682.641L287.101 682.162L286.502 683.001H286.502ZM286.502 681.683L286.023 682.042L286.861 681.803L286.502 681.683V681.683ZM266.855 681.683L266.735 681.204H266.615L266.854 681.683H266.855ZM286.023 681.563L285.544 682.042L285.304 682.522L286.023 681.563ZM299.201 680.126H299.321H299.441H299.201H299.201ZM299.8 680.126L299.56 680.006V680.126H299.8ZM298.362 680.006L298.482 680.126V680.006H298.362ZM288.539 680.725L289.018 680.245L288.419 680.725H288.539H288.539ZM289.976 679.646L287.101 684.319L290.815 680.006L289.976 679.646ZM286.262 680.245L285.903 679.766L285.783 680.006L286.262 680.245H286.262ZM295.367 679.167L295.128 679.047L295.248 679.167H295.367H295.367ZM298.482 679.407V678.568L298.243 678.928L298.482 679.407ZM210.548 670.182L204.797 669.942L208.751 674.135L210.548 670.182ZM292.372 678.688L292.612 679.526L293.211 678.568L292.372 678.688V678.688ZM287.58 678.568L287.221 681.204L287.82 679.526L287.58 678.568ZM183.593 658.681L183.712 658.202L183.593 658.681ZM286.382 676.891L286.502 677.25L286.742 677.13L286.382 676.891L286.382 676.891ZM285.783 677.37L285.544 676.651L285.184 676.891L285.783 677.37ZM291.414 675.932V675.453L291.054 675.693L291.414 675.932ZM286.023 675.214V676.412L286.382 675.573L286.023 675.214ZM276.918 673.776V673.417V673.776ZM214.382 658.921L214.621 658.202L214.501 658.322L214.381 658.921L214.382 658.921ZM214.741 657.723L214.621 657.603L214.501 657.723H214.741H214.741ZM220.012 654.847V654.728V654.847ZM220.012 654.368L219.892 654.129L220.012 654.368ZM222.169 651.253H222.049H222.169ZM222.887 651.493L222.408 651.253V651.373L222.887 651.493V651.493ZM222.169 651.014V650.774L221.929 651.014H222.169ZM203 645.383L202.761 644.784L202.641 644.425L203 645.383H203ZM204.797 643.227H204.917L205.037 643.346L204.798 643.227H204.797ZM201.563 642.628L200.604 641.43L201.323 642.388L201.563 642.628ZM199.646 640.711H199.406L199.766 640.831L199.646 640.711H199.646ZM199.646 639.273L199.886 639.393L199.646 639.273ZM231.393 648.737L230.075 648.857L230.794 649.217L231.393 648.738V648.737ZM198.328 637.117L197.37 640.711L200.365 641.19L204.318 645.263L206.714 644.185L198.328 637.117ZM219.293 638.554V638.315V638.435V638.554V638.554ZM213.303 625.855L213.064 625.736L213.184 625.855H213.303H213.303ZM216.778 627.053L217.137 626.933H217.017L216.777 627.053H216.778ZM219.174 626.335H219.533L220.611 625.855L219.174 626.335ZM223.486 625.017L223.726 624.777L223.367 625.017H223.486H223.486ZM224.085 624.897L224.804 624.537L224.205 624.657L224.085 624.897L224.085 624.897ZM225.882 624.178L225.283 624.298V624.418L225.882 624.178V624.178ZM302.795 602.494L302.316 602.135L301.477 601.775L302.795 602.494ZM240.019 599.858L241.097 598.421L240.498 598.9L240.019 599.858ZM241.457 598.181L241.936 597.462L241.696 597.702L241.457 598.181ZM242.175 597.223L243.014 596.504L242.535 596.743L242.175 597.223ZM279.913 597.462L280.512 598.061H280.871L279.913 597.462ZM260.625 589.555L255.713 593.629L252.718 592.79L245.769 596.743L244.452 595.905L236.545 604.77L228.518 606.567L229.237 610.88L232.831 615.792L239.54 622.261L238.462 624.777L243.493 626.933L240.858 627.413L237.623 624.897L239.3 628.611L237.144 629.929L230.315 623.699L224.924 624.657L215.699 628.131L219.892 632.804L219.293 635.679L222.049 639.033L231.154 642.627L237.743 639.273L238.821 641.789L237.024 649.336H231.513L225.044 652.212L224.684 650.175L221.33 651.493L219.773 654.967L214.262 659.16V665.27L216.418 666.228L214.741 671.38L221.929 677.61L226.481 675.693L225.523 683.36L226.841 685.037L232.352 686.235L234.388 688.511L239.18 688.871L241.457 691.267L246.368 689.829L244.092 692.944L242.295 699.294L227.679 708.758L225.763 710.675L223.007 709.597L218.575 710.675L212.225 714.868L222.169 711.993L223.606 714.149L236.425 709.956L236.784 711.633L241.816 706.602L252.359 699.294L253.197 699.773L262.422 692.465L260.026 689.59L263.141 684.438L271.287 674.734L277.517 673.536L279.434 674.854L271.886 677.011L269.85 685.037L270.089 689.35L272.725 689.111L285.424 681.443L286.382 678.568L285.304 674.135L289.138 675.094L291.893 673.297L299.8 678.089L299.201 679.407L317.171 681.683L321.364 680.365L322.562 682.162L338.136 689.59L340.772 688.032L341.012 679.047L343.048 683.12L353.112 690.428L353.95 693.423L362.696 698.335L364.972 704.685L367.128 699.773L371.561 708.399L374.556 703.487L372.16 697.377L362.935 696.418L348.799 682.881L341.131 677.25L335.261 683.001H331.787L323.76 677.729L315.853 677.37L304.592 606.328L302.675 602.973L298.123 600.218L291.294 601.536L286.023 600.457L279.314 597.822L272.246 598.301L270.449 594.946L264.818 594.108L263.859 592.071L261.344 594.946L260.625 589.555Z" fill="#F5F5F5" stroke="white" stroke-width="3" stroke-linejoin="round"/>
<rect x="36.8159" width="917" height="820" fill="url(#paint1_linear)"/>
<path d="M1138.4 300.517C1138.5 300.517 1138.58 300.531 1138.63 300.559C1138.68 300.583 1138.74 300.635 1138.8 300.715L1143.78 307.195C1143.77 307.091 1143.76 306.991 1143.76 306.895C1143.75 306.795 1143.75 306.699 1143.75 306.607V300.517H1144.77V309.115H1144.18C1144.09 309.115 1144.01 309.099 1143.95 309.067C1143.89 309.035 1143.83 308.981 1143.77 308.905L1138.8 302.431C1138.8 302.531 1138.81 302.629 1138.81 302.725C1138.82 302.821 1138.82 302.909 1138.82 302.989V309.115H1137.8V300.517H1138.4ZM1152.77 300.517V301.465H1148.64V304.321H1151.98V305.233H1148.64V308.167H1152.77V309.115H1147.47V300.517H1152.77ZM1154.08 300.517H1155.05C1155.15 300.517 1155.24 300.543 1155.31 300.595C1155.38 300.647 1155.42 300.713 1155.45 300.793L1157.22 306.769C1157.25 306.877 1157.28 306.993 1157.31 307.117C1157.33 307.241 1157.36 307.371 1157.38 307.507C1157.41 307.371 1157.44 307.241 1157.47 307.117C1157.5 306.989 1157.53 306.873 1157.56 306.769L1159.59 300.793C1159.61 300.725 1159.66 300.663 1159.72 300.607C1159.8 300.547 1159.88 300.517 1159.98 300.517H1160.32C1160.42 300.517 1160.51 300.543 1160.57 300.595C1160.64 300.647 1160.69 300.713 1160.71 300.793L1162.72 306.769C1162.8 306.977 1162.86 307.215 1162.92 307.483C1162.94 307.351 1162.96 307.225 1162.98 307.105C1163 306.985 1163.03 306.873 1163.06 306.769L1164.84 300.793C1164.86 300.721 1164.91 300.657 1164.97 300.601C1165.05 300.545 1165.13 300.517 1165.23 300.517H1166.14L1163.46 309.115H1162.41L1160.23 302.557C1160.19 302.433 1160.15 302.289 1160.11 302.125C1160.09 302.205 1160.07 302.283 1160.05 302.359C1160.04 302.431 1160.02 302.497 1160 302.557L1157.81 309.115H1156.77L1154.08 300.517ZM1174.02 306.145C1174.02 306.625 1173.96 307.055 1173.84 307.435C1173.72 307.815 1173.55 308.137 1173.32 308.401C1173.09 308.661 1172.81 308.861 1172.47 309.001C1172.14 309.141 1171.75 309.211 1171.31 309.211C1170.93 309.211 1170.52 309.155 1170.1 309.043C1170.11 308.927 1170.12 308.813 1170.13 308.701C1170.14 308.585 1170.16 308.471 1170.17 308.359C1170.18 308.291 1170.2 308.237 1170.24 308.197C1170.28 308.153 1170.35 308.131 1170.43 308.131C1170.5 308.131 1170.6 308.149 1170.72 308.185C1170.84 308.221 1171 308.239 1171.2 308.239C1171.46 308.239 1171.7 308.199 1171.9 308.119C1172.11 308.039 1172.28 307.915 1172.42 307.747C1172.57 307.579 1172.68 307.365 1172.75 307.105C1172.82 306.841 1172.86 306.529 1172.86 306.169V300.517H1174.02V306.145ZM1182.02 300.517V301.465H1177.89V304.321H1181.23V305.233H1177.89V308.167H1182.02V309.115H1176.72V300.517H1182.02ZM1185.57 305.527V309.115H1184.41V300.517H1186.84C1187.39 300.517 1187.86 300.573 1188.25 300.685C1188.65 300.793 1188.97 300.951 1189.23 301.159C1189.49 301.367 1189.68 301.619 1189.81 301.915C1189.93 302.207 1189.99 302.535 1189.99 302.899C1189.99 303.203 1189.94 303.487 1189.85 303.751C1189.75 304.015 1189.61 304.253 1189.43 304.465C1189.25 304.673 1189.03 304.851 1188.76 304.999C1188.5 305.147 1188.21 305.259 1187.87 305.335C1188.02 305.419 1188.15 305.541 1188.26 305.701L1190.77 309.115H1189.73C1189.52 309.115 1189.37 309.033 1189.27 308.869L1187.03 305.797C1186.97 305.701 1186.89 305.633 1186.81 305.593C1186.73 305.549 1186.61 305.527 1186.45 305.527H1185.57ZM1185.57 304.681H1186.79C1187.13 304.681 1187.43 304.641 1187.68 304.561C1187.94 304.477 1188.16 304.361 1188.33 304.213C1188.51 304.061 1188.64 303.881 1188.73 303.673C1188.81 303.465 1188.86 303.235 1188.86 302.983C1188.86 302.471 1188.69 302.085 1188.35 301.825C1188.01 301.565 1187.51 301.435 1186.84 301.435H1185.57V304.681ZM1197.02 301.861C1196.98 301.921 1196.94 301.967 1196.9 301.999C1196.86 302.027 1196.81 302.041 1196.75 302.041C1196.68 302.041 1196.6 302.007 1196.51 301.939C1196.42 301.871 1196.31 301.797 1196.17 301.717C1196.03 301.633 1195.86 301.557 1195.67 301.489C1195.48 301.421 1195.24 301.387 1194.97 301.387C1194.71 301.387 1194.48 301.423 1194.28 301.495C1194.08 301.563 1193.91 301.657 1193.77 301.777C1193.64 301.897 1193.54 302.039 1193.47 302.203C1193.4 302.363 1193.37 302.537 1193.37 302.725C1193.37 302.965 1193.43 303.165 1193.54 303.325C1193.66 303.481 1193.82 303.615 1194.01 303.727C1194.21 303.839 1194.43 303.937 1194.67 304.021C1194.92 304.101 1195.17 304.185 1195.43 304.273C1195.69 304.361 1195.94 304.461 1196.18 304.573C1196.43 304.681 1196.65 304.819 1196.84 304.987C1197.04 305.155 1197.2 305.361 1197.31 305.605C1197.43 305.849 1197.49 306.149 1197.49 306.505C1197.49 306.881 1197.43 307.235 1197.3 307.567C1197.17 307.895 1196.98 308.181 1196.74 308.425C1196.49 308.669 1196.19 308.861 1195.83 309.001C1195.47 309.141 1195.07 309.211 1194.61 309.211C1194.06 309.211 1193.55 309.111 1193.09 308.911C1192.63 308.707 1192.24 308.433 1191.92 308.089L1192.25 307.537C1192.29 307.493 1192.32 307.457 1192.37 307.429C1192.42 307.397 1192.47 307.381 1192.52 307.381C1192.61 307.381 1192.7 307.427 1192.81 307.519C1192.92 307.607 1193.05 307.705 1193.21 307.813C1193.38 307.921 1193.57 308.021 1193.8 308.113C1194.03 308.201 1194.32 308.245 1194.65 308.245C1194.92 308.245 1195.17 308.207 1195.39 308.131C1195.6 308.055 1195.78 307.949 1195.93 307.813C1196.08 307.673 1196.2 307.507 1196.28 307.315C1196.36 307.123 1196.4 306.909 1196.4 306.673C1196.4 306.413 1196.34 306.201 1196.22 306.037C1196.1 305.869 1195.95 305.729 1195.76 305.617C1195.57 305.505 1195.35 305.411 1195.1 305.335C1194.85 305.255 1194.6 305.175 1194.34 305.095C1194.09 305.011 1193.83 304.915 1193.59 304.807C1193.34 304.699 1193.12 304.559 1192.93 304.387C1192.74 304.215 1192.58 304.001 1192.46 303.745C1192.35 303.485 1192.29 303.165 1192.29 302.785C1192.29 302.481 1192.35 302.187 1192.46 301.903C1192.58 301.619 1192.76 301.367 1192.98 301.147C1193.2 300.927 1193.48 300.751 1193.81 300.619C1194.14 300.487 1194.52 300.421 1194.95 300.421C1195.43 300.421 1195.87 300.497 1196.26 300.649C1196.66 300.801 1197 301.021 1197.3 301.309L1197.02 301.861ZM1204.88 300.517V301.465H1200.75V304.321H1204.09V305.233H1200.75V308.167H1204.88V309.115H1199.58V300.517H1204.88ZM1210.46 305.695V309.115H1209.3V305.695L1206.15 300.517H1207.17C1207.28 300.517 1207.36 300.543 1207.42 300.595C1207.48 300.647 1207.53 300.711 1207.58 300.787L1209.54 304.129C1209.62 304.269 1209.69 304.401 1209.74 304.525C1209.8 304.649 1209.85 304.771 1209.89 304.891C1209.94 304.767 1209.98 304.643 1210.04 304.519C1210.09 304.395 1210.15 304.265 1210.23 304.129L1212.2 300.787C1212.23 300.723 1212.28 300.663 1212.34 300.607C1212.4 300.547 1212.49 300.517 1212.59 300.517H1213.62L1210.46 305.695Z" fill="#1F252C"/>
<path d="M1153.21 258.552C1153.32 258.552 1153.39 258.566 1153.44 258.594C1153.49 258.618 1153.55 258.67 1153.61 258.75L1158.59 265.23C1158.58 265.126 1158.57 265.026 1158.57 264.93C1158.57 264.83 1158.56 264.734 1158.56 264.642V258.552H1159.58V267.15H1159C1158.9 267.15 1158.83 267.134 1158.76 267.102C1158.7 267.07 1158.64 267.016 1158.58 266.94L1153.61 260.466C1153.62 260.566 1153.62 260.664 1153.63 260.76C1153.63 260.856 1153.63 260.944 1153.63 261.024V267.15H1152.61V258.552H1153.21ZM1167.58 258.552V259.5H1163.45V262.356H1166.79V263.268H1163.45V266.202H1167.58V267.15H1162.28V258.552H1167.58ZM1168.89 258.552H1169.86C1169.96 258.552 1170.05 258.578 1170.12 258.63C1170.19 258.682 1170.23 258.748 1170.26 258.828L1172.03 264.804C1172.06 264.912 1172.09 265.028 1172.12 265.152C1172.14 265.276 1172.17 265.406 1172.19 265.542C1172.22 265.406 1172.25 265.276 1172.28 265.152C1172.31 265.024 1172.34 264.908 1172.37 264.804L1174.4 258.828C1174.42 258.76 1174.47 258.698 1174.53 258.642C1174.61 258.582 1174.69 258.552 1174.79 258.552H1175.13C1175.23 258.552 1175.32 258.578 1175.38 258.63C1175.45 258.682 1175.5 258.748 1175.52 258.828L1177.53 264.804C1177.61 265.012 1177.67 265.25 1177.73 265.518C1177.75 265.386 1177.77 265.26 1177.79 265.14C1177.81 265.02 1177.84 264.908 1177.87 264.804L1179.65 258.828C1179.67 258.756 1179.72 258.692 1179.78 258.636C1179.86 258.58 1179.94 258.552 1180.04 258.552H1180.95L1178.27 267.15H1177.22L1175.04 260.592C1175 260.468 1174.96 260.324 1174.92 260.16C1174.9 260.24 1174.88 260.318 1174.86 260.394C1174.85 260.466 1174.83 260.532 1174.81 260.592L1172.62 267.15H1171.58L1168.89 258.552ZM1188.91 263.73V267.15H1187.75V263.73L1184.6 258.552H1185.62C1185.73 258.552 1185.81 258.578 1185.87 258.63C1185.93 258.682 1185.98 258.746 1186.02 258.822L1187.99 262.164C1188.07 262.304 1188.14 262.436 1188.19 262.56C1188.25 262.684 1188.3 262.806 1188.34 262.926C1188.38 262.802 1188.43 262.678 1188.48 262.554C1188.54 262.43 1188.6 262.3 1188.68 262.164L1190.64 258.822C1190.68 258.758 1190.73 258.698 1190.79 258.642C1190.85 258.582 1190.93 258.552 1191.03 258.552H1192.07L1188.91 263.73ZM1201.25 262.854C1201.25 263.498 1201.15 264.09 1200.94 264.63C1200.74 265.166 1200.45 265.628 1200.08 266.016C1199.71 266.404 1199.26 266.706 1198.74 266.922C1198.22 267.134 1197.64 267.24 1197.01 267.24C1196.38 267.24 1195.8 267.134 1195.28 266.922C1194.76 266.706 1194.31 266.404 1193.94 266.016C1193.57 265.628 1193.28 265.166 1193.08 264.63C1192.87 264.09 1192.77 263.498 1192.77 262.854C1192.77 262.21 1192.87 261.62 1193.08 261.084C1193.28 260.544 1193.57 260.08 1193.94 259.692C1194.31 259.3 1194.76 258.996 1195.28 258.78C1195.8 258.564 1196.38 258.456 1197.01 258.456C1197.64 258.456 1198.22 258.564 1198.74 258.78C1199.26 258.996 1199.71 259.3 1200.08 259.692C1200.45 260.08 1200.74 260.544 1200.94 261.084C1201.15 261.62 1201.25 262.21 1201.25 262.854ZM1200.06 262.854C1200.06 262.326 1199.98 261.852 1199.84 261.432C1199.7 261.012 1199.49 260.658 1199.23 260.37C1198.96 260.078 1198.64 259.854 1198.27 259.698C1197.89 259.542 1197.47 259.464 1197.01 259.464C1196.55 259.464 1196.13 259.542 1195.75 259.698C1195.38 259.854 1195.06 260.078 1194.79 260.37C1194.52 260.658 1194.32 261.012 1194.18 261.432C1194.03 261.852 1193.96 262.326 1193.96 262.854C1193.96 263.382 1194.03 263.856 1194.18 264.276C1194.32 264.692 1194.52 265.046 1194.79 265.338C1195.06 265.626 1195.38 265.848 1195.75 266.004C1196.13 266.156 1196.55 266.232 1197.01 266.232C1197.47 266.232 1197.89 266.156 1198.27 266.004C1198.64 265.848 1198.96 265.626 1199.23 265.338C1199.49 265.046 1199.7 264.692 1199.84 264.276C1199.98 263.856 1200.06 263.382 1200.06 262.854ZM1204.72 263.562V267.15H1203.56V258.552H1205.99C1206.53 258.552 1207 258.608 1207.4 258.72C1207.79 258.828 1208.12 258.986 1208.38 259.194C1208.64 259.402 1208.83 259.654 1208.95 259.95C1209.08 260.242 1209.14 260.57 1209.14 260.934C1209.14 261.238 1209.09 261.522 1208.99 261.786C1208.9 262.05 1208.76 262.288 1208.57 262.5C1208.39 262.708 1208.17 262.886 1207.91 263.034C1207.65 263.182 1207.35 263.294 1207.02 263.37C1207.16 263.454 1207.29 263.576 1207.4 263.736L1209.91 267.15H1208.88C1208.67 267.15 1208.51 267.068 1208.41 266.904L1206.18 263.832C1206.11 263.736 1206.04 263.668 1205.96 263.628C1205.88 263.584 1205.76 263.562 1205.6 263.562H1204.72ZM1204.72 262.716H1205.93C1206.27 262.716 1206.57 262.676 1206.83 262.596C1207.09 262.512 1207.3 262.396 1207.48 262.248C1207.65 262.096 1207.78 261.916 1207.87 261.708C1207.96 261.5 1208 261.27 1208 261.018C1208 260.506 1207.83 260.12 1207.49 259.86C1207.16 259.6 1206.66 259.47 1205.99 259.47H1204.72V262.716ZM1213.04 262.32H1213.48C1213.63 262.32 1213.75 262.302 1213.84 262.266C1213.93 262.226 1214.02 262.16 1214.1 262.068L1216.96 258.828C1217.05 258.728 1217.13 258.658 1217.21 258.618C1217.29 258.574 1217.4 258.552 1217.53 258.552H1218.52L1215.24 262.254C1215.16 262.346 1215.08 262.424 1215 262.488C1214.93 262.552 1214.85 262.604 1214.77 262.644C1214.88 262.68 1214.98 262.734 1215.06 262.806C1215.15 262.878 1215.23 262.968 1215.33 263.076L1218.75 267.15H1217.74C1217.66 267.15 1217.6 267.144 1217.55 267.132C1217.49 267.12 1217.45 267.104 1217.41 267.084C1217.37 267.064 1217.34 267.038 1217.31 267.006C1217.27 266.974 1217.24 266.94 1217.21 266.904L1214.24 263.49C1214.2 263.442 1214.15 263.402 1214.11 263.37C1214.08 263.334 1214.03 263.304 1213.98 263.28C1213.93 263.256 1213.88 263.24 1213.81 263.232C1213.74 263.22 1213.66 263.214 1213.57 263.214H1213.04V267.15H1211.88V258.552H1213.04V262.32Z" fill="#D8D8D8"/>
<path d="M986.513 660.241C986.569 660.337 986.617 660.439 986.657 660.547C986.701 660.651 986.743 660.757 986.783 660.865C986.823 660.753 986.865 660.647 986.909 660.547C986.953 660.443 987.003 660.339 987.059 660.235L989.969 654.949C990.021 654.857 990.075 654.801 990.131 654.781C990.187 654.761 990.267 654.751 990.371 654.751H991.229V663.349H990.209V657.031C990.209 656.947 990.211 656.857 990.215 656.761C990.219 656.665 990.225 656.567 990.233 656.467L987.287 661.843C987.187 662.023 987.047 662.113 986.867 662.113H986.699C986.519 662.113 986.379 662.023 986.279 661.843L983.267 656.449C983.279 656.553 983.287 656.655 983.291 656.755C983.299 656.855 983.303 656.947 983.303 657.031V663.349H982.283V654.751H983.141C983.245 654.751 983.325 654.761 983.381 654.781C983.437 654.801 983.491 654.857 983.543 654.949L986.513 660.241ZM1001 663.349H1000.1C999.992 663.349 999.908 663.323 999.844 663.271C999.78 663.219 999.732 663.153 999.7 663.073L998.896 660.997H995.038L994.234 663.073C994.206 663.145 994.158 663.209 994.09 663.265C994.022 663.321 993.938 663.349 993.838 663.349H992.938L996.376 654.751H997.558L1001 663.349ZM995.362 660.157H998.572L997.222 656.659C997.134 656.443 997.048 656.173 996.964 655.849C996.92 656.013 996.876 656.165 996.832 656.305C996.792 656.441 996.752 656.561 996.712 656.665L995.362 660.157ZM1004.06 663.349H1002.89V654.751H1004.06V663.349ZM1014.03 663.349H1013.13C1013.03 663.349 1012.94 663.323 1012.88 663.271C1012.82 663.219 1012.77 663.153 1012.74 663.073L1011.93 660.997H1008.07L1007.27 663.073C1007.24 663.145 1007.19 663.209 1007.13 663.265C1007.06 663.321 1006.97 663.349 1006.87 663.349H1005.97L1009.41 654.751H1010.59L1014.03 663.349ZM1008.4 660.157H1011.61L1010.26 656.659C1010.17 656.443 1010.08 656.173 1010 655.849C1009.96 656.013 1009.91 656.165 1009.87 656.305C1009.83 656.441 1009.79 656.561 1009.75 656.665L1008.4 660.157ZM1019.94 660.241C1020 660.337 1020.05 660.439 1020.09 660.547C1020.13 660.651 1020.17 660.757 1020.21 660.865C1020.25 660.753 1020.3 660.647 1020.34 660.547C1020.38 660.443 1020.43 660.339 1020.49 660.235L1023.4 654.949C1023.45 654.857 1023.51 654.801 1023.56 654.781C1023.62 654.761 1023.7 654.751 1023.8 654.751H1024.66V663.349H1023.64V657.031C1023.64 656.947 1023.64 656.857 1023.65 656.761C1023.65 656.665 1023.66 656.567 1023.66 656.467L1020.72 661.843C1020.62 662.023 1020.48 662.113 1020.3 662.113H1020.13C1019.95 662.113 1019.81 662.023 1019.71 661.843L1016.7 656.449C1016.71 656.553 1016.72 656.655 1016.72 656.755C1016.73 656.855 1016.73 656.947 1016.73 657.031V663.349H1015.71V654.751H1016.57C1016.68 654.751 1016.76 654.761 1016.81 654.781C1016.87 654.801 1016.92 654.857 1016.97 654.949L1019.94 660.241ZM1028.73 663.349H1027.57V654.751H1028.73V663.349Z" fill="#D8D8D8"/>
<defs>
<linearGradient id="paint0_linear" x1="1119.6" y1="252.435" x2="1119.6" y2="312.695" gradientUnits="userSpaceOnUse">
<stop stop-color="#00E0FF"/>
<stop offset="1" stop-color="#0085FF"/>
</linearGradient>
<linearGradient id="paint1_linear" x1="397.757" y1="325.431" x2="783.11" y2="357.72" gradientUnits="userSpaceOnUse">
<stop stop-color="white"/>
<stop offset="1" stop-color="white" stop-opacity="0"/>
</linearGradient>
</defs>
</svg>
