<svg width="26" height="26" viewBox="0 0 26 26" stroke-width="0" xmlns="http://www.w3.org/2000/svg">
<path d="M25.6579 3.0105H0.342105C0.136842 3.0105 0 3.14734 0 3.3526V21.2789C0 21.4842 0.136842 21.621 0.342105 21.621H1.40263V21.9631C1.40263 22.5447 1.88158 22.9894 2.42895 22.9894H6.22632C6.80789 22.9894 7.25263 22.5105 7.25263 21.9631V21.621H18.4395V21.9631C18.4395 22.5447 18.9184 22.9894 19.4658 22.9894H23.2632C23.8447 22.9894 24.2895 22.5105 24.2895 21.9631V21.621H25.6579C25.8632 21.621 26 21.4842 26 21.2789V3.3526C26 3.18155 25.8632 3.0105 25.6579 3.0105ZM6.60263 21.9631C6.60263 22.1684 6.43158 22.3052 6.26053 22.3052H2.42895C2.22368 22.3052 2.08684 22.1342 2.08684 21.9631V21.621H6.60263V21.9631ZM23.6395 21.9631C23.6395 22.1684 23.4684 22.3052 23.2974 22.3052H19.4658C19.2605 22.3052 19.1237 22.1342 19.1237 21.9631V21.621H23.6395V21.9631ZM25.3158 20.9368H0.68421V3.69471H25.3158V20.9368Z" />
<path d="M23.7073 8.38171C23.5021 8.38171 23.3652 8.51856 23.3652 8.72382V9.9896C23.3652 10.1949 23.5363 10.3317 23.7073 10.3317C23.9126 10.3317 24.0494 10.1949 24.0494 9.9896V8.72382C24.0494 8.51856 23.9126 8.38171 23.7073 8.38171Z" />
<path d="M23.7073 5.30261C23.5021 5.30261 23.3652 5.43945 23.3652 5.64472V6.91051C23.3652 7.08156 23.5363 7.25261 23.7073 7.25261C23.9126 7.25261 24.0494 7.11577 24.0494 6.91051V5.64472C24.0494 5.43945 23.9126 5.30261 23.7073 5.30261Z" />
<path d="M21.7929 5.26843H2.70343C2.49817 5.26843 2.36133 5.40527 2.36133 5.61054V19.0211C2.36133 19.1921 2.53238 19.3632 2.70343 19.3632H21.7929C21.9982 19.3632 22.135 19.2263 22.135 19.0211V5.61054C22.135 5.40527 21.9982 5.26843 21.7929 5.26843ZM21.4508 15.429C21.4166 15.429 21.4166 15.429 21.3824 15.429H20.9034C20.6982 15.429 20.5613 15.2579 20.5613 15.0869V9.57896C20.5613 9.3737 20.7324 9.23685 20.9034 9.23685H21.3824C21.4166 9.23685 21.4166 9.23685 21.4508 9.23685V15.429ZM21.4508 8.51843C21.4166 8.51843 21.4166 8.51843 21.3824 8.51843H20.9034C20.3219 8.51843 19.8771 8.99738 19.8771 9.54475V15.0526C19.8771 15.6342 20.3561 16.079 20.9034 16.079H21.3824C21.4166 16.079 21.4166 16.079 21.4508 16.079V18.6447H3.04554V5.95264H21.4508V8.51843Z" />
<path d="M23.7083 12.1105C23.9162 12.1105 24.0847 11.9421 24.0847 11.7342C24.0847 11.5264 23.9162 11.3579 23.7083 11.3579C23.5005 11.3579 23.332 11.5264 23.332 11.7342C23.332 11.9421 23.5005 12.1105 23.7083 12.1105Z" />
</svg>
