<svg width="26" height="26" viewBox="0 0 26 26" stroke-width="0" xmlns="http://www.w3.org/2000/svg">
<path d="M20.0417 0H5.95832C4.4655 0 3.25 1.2155 3.25 2.70832V23.2916C3.25 24.7845 4.4655 26 5.95832 26H20.0416C21.5345 26 22.75 24.7845 22.75 23.2917V2.70832C22.75 1.2155 21.5345 0 20.0417 0ZM21.6667 23.2917C21.6667 24.1876 20.9376 24.9167 20.0417 24.9167H5.95832C5.06238 24.9167 4.33332 24.1876 4.33332 23.2917V2.70832C4.33332 1.81238 5.06238 1.08332 5.95832 1.08332H20.0416C20.9376 1.08332 21.6666 1.81238 21.6666 2.70832V23.2917H21.6667Z" />
<path d="M20.0411 2.16675H5.9577C5.6587 2.16675 5.41602 2.40943 5.41602 2.70843V23.2917C5.41602 23.5907 5.6587 23.8334 5.9577 23.8334H20.041C20.34 23.8334 20.5827 23.5907 20.5827 23.2917V2.70838C20.5827 2.40938 20.3401 2.16675 20.0411 2.16675ZM19.4994 22.7501H6.49938V3.25006H19.4994V22.7501Z" />
<path d="M18.259 18.5759C18.0478 18.3647 17.7043 18.3647 17.4931 18.5759L15.3264 20.7426C15.1152 20.9539 15.1152 21.2973 15.3264 21.5085C15.4326 21.6136 15.5712 21.6667 15.7099 21.6667C15.8486 21.6667 15.9872 21.6137 16.0923 21.5085L18.259 19.3419C18.4703 19.1306 18.4703 18.7872 18.259 18.5759Z" />
<path d="M18.2577 15.3259C18.0464 15.1147 17.703 15.1147 17.4918 15.3259L13.1584 19.6592C12.9472 19.8705 12.9472 20.2139 13.1584 20.4252C13.2646 20.5302 13.4033 20.5834 13.5419 20.5834C13.6806 20.5834 13.8193 20.5303 13.9244 20.4252L18.2577 16.0919C18.4689 15.8806 18.4689 15.5372 18.2577 15.3259Z" />
<path d="M10.675 4.49242C10.4638 4.28117 10.1204 4.28117 9.90911 4.49242L7.74242 6.6591C7.53117 6.87035 7.53117 7.21379 7.74242 7.42503C7.84861 7.5301 7.98724 7.58322 8.12592 7.58322C8.26461 7.58322 8.40324 7.53015 8.50836 7.42503L10.675 5.25835C10.8863 5.0471 10.8863 4.70367 10.675 4.49242Z" />
<path d="M12.8397 5.57592C12.6285 5.36467 12.285 5.36467 12.0738 5.57592L7.74047 9.90923C7.52922 10.1205 7.52922 10.4639 7.74047 10.6752C7.84665 10.7802 7.98528 10.8334 8.12397 10.8334C8.26265 10.8334 8.40128 10.7803 8.5064 10.6752L12.8397 6.34185C13.051 6.13055 13.051 5.78717 12.8397 5.57592Z" />
</svg>
