<svg width="42" height="42" viewBox="0 0 42 42" stroke-width="0" xmlns="http://www.w3.org/2000/svg">
<path d="M5.17578 6.68197V7.21387H20.6894H36.2031V6.68197V6.15007H20.6894H5.17578V6.68197Z"/>
<path d="M5.17578 8.455V8.9869H12.711H20.2462V10.1393V11.2918H18.03H15.8137V12.1783C15.8137 12.8697 15.7251 13.1357 15.3705 13.4903C14.8386 14.0399 14.8031 14.6427 15.2995 15.2633C15.7605 15.8484 16.7002 15.9016 17.2321 15.3697C17.6931 14.9087 17.6931 13.9335 17.2321 13.508C17.0371 13.3307 16.8775 12.9939 16.8775 12.7634C16.8775 12.3556 16.913 12.3556 18.5618 12.3556H20.2462V13.4194C20.2462 14.4122 20.2107 14.4832 19.7143 14.7491C18.3136 15.476 18.3136 17.7455 19.7143 18.4724C21.6291 19.4653 23.6326 17.4618 22.6397 15.547C22.4802 15.2633 22.1256 14.891 21.8419 14.7491C21.3454 14.4832 21.31 14.4122 21.31 13.4194V12.3556H22.817C24.2886 12.3556 24.3241 12.3733 24.3241 12.7634C24.3241 12.9939 24.1645 13.3307 23.9695 13.508C23.7567 13.7031 23.6149 14.0576 23.6149 14.43C23.6149 15.6711 25.1396 16.2207 25.902 15.2633C26.3985 14.6427 26.363 14.0399 25.8311 13.4903C25.4765 13.1357 25.3879 12.8697 25.3879 12.1783V11.2918H23.3489H21.31V10.1393V8.9869H28.7565H36.2031V8.455V7.92311H20.6894H5.17578V8.455Z"/>
<path d="M5 26.628V37H20.7796H36.5592V26.628V16.256H35.1408H33.7224V17.6744V19.0928H20.8682H8.01408V17.6744V16.256H6.50704H5V26.628ZM6.95029 26.628V35.9362H6.50704H6.06379V26.628V17.3198H6.50704H6.95029V26.628ZM35.4954 26.628C35.4954 35.8121 35.4954 35.9362 35.1408 35.9362C34.7862 35.9362 34.7862 35.8121 34.7862 26.628C34.7862 17.4439 34.7862 17.3198 35.1408 17.3198C35.4954 17.3198 35.4954 17.4439 35.4954 26.628ZM33.7224 20.5112C33.7224 20.8658 33.5983 20.8658 20.8682 20.8658C8.13819 20.8658 8.01408 20.8658 8.01408 20.5112C8.01408 20.1566 8.13819 20.1566 20.8682 20.1566C33.5983 20.1566 33.7224 20.1566 33.7224 20.5112ZM9.78707 24.4118V26.894H9.36155C8.58144 26.894 8.36868 27.3195 8.36868 28.7911C8.36868 29.8017 8.4396 30.2272 8.67009 30.4754C8.93604 30.7768 8.93604 30.7945 8.49279 30.7945H8.01408V26.3621V21.9296H8.90058H9.78707V24.4118ZM16.3471 26.3621V30.7945H15.9039H15.4429L15.8152 30.4045C16.0989 30.1031 16.1698 29.7839 16.1698 28.8442C16.1698 27.0535 15.9925 26.894 14.0245 26.894H12.4466V24.4118V21.9296H14.3968H16.3471V26.3621ZM22.7299 25.7415C22.7299 28.1528 22.659 29.5534 22.5526 29.5534C22.4639 29.5534 22.0739 29.8371 21.6838 30.174C21.081 30.7236 20.9037 30.7945 19.9995 30.7945H19.0066V26.3621V21.9296H20.8682H22.7299V25.7415ZM29.2899 26.3621V30.7945H28.2971C27.3928 30.7945 27.2155 30.7236 26.6127 30.174C26.2227 29.8371 25.7972 29.5534 25.6553 29.5534C25.4248 29.5534 25.3894 29.0038 25.3894 25.7415V21.9296H27.3397H29.2899V26.3621ZM33.7224 26.3621V30.7945H32.8359H31.9494V26.3621V21.9296H32.8359H33.7224V26.3621ZM15.0706 28.7911L15.1238 29.7307H13.794H12.4466V28.7556V27.7627L13.7408 27.8159L15.0174 27.8691L15.0706 28.7911ZM23.5632 30.7591C22.5171 31.9293 22.4994 34.4469 23.5455 35.5993C23.9887 36.0958 23.4923 36.0603 22.7299 35.5284C21.3824 34.6242 20.9924 33.3299 21.6484 31.9647C22.0562 31.1491 22.9072 30.4399 23.51 30.4399C23.8291 30.4399 23.8291 30.4577 23.5632 30.7591ZM26.0808 31.1669C26.7368 31.8229 27.0737 32.8512 26.9141 33.7022C26.7723 34.4469 25.8503 35.5816 25.3894 35.5816C24.9284 35.5816 24.0064 34.4469 23.8646 33.7022C23.705 32.8512 24.0419 31.8229 24.6979 31.1669C24.9993 30.8655 25.3007 30.6172 25.3894 30.6172C25.478 30.6172 25.7794 30.8655 26.0808 31.1669ZM20.425 31.9293C20.425 31.9647 20.3718 32.1243 20.3186 32.2838C20.23 32.5321 19.503 32.5675 14.1132 32.5675C8.13819 32.5675 8.01408 32.5675 8.01408 32.2129C8.01408 31.8583 8.13819 31.8583 14.2195 31.8583C17.6414 31.8583 20.425 31.8938 20.425 31.9293ZM20.4073 34.2519C20.4959 34.5887 20.7441 35.1029 20.9569 35.4043L21.3292 35.9362H14.6805H8.01408V34.7838V33.6313H14.1309H20.23L20.4073 34.2519ZM33.7224 34.7838V35.9362H30.336H26.9673L27.3397 35.4043C27.5524 35.1029 27.8006 34.5887 27.8893 34.2519L28.0666 33.6313H30.8856H33.7224V34.7838Z" />
</svg>
