<svg width="42" height="42" viewBox="0 0 42 42" stroke-width="0" xmlns="http://www.w3.org/2000/svg">
<path d="M23.3958 16.3438L35.6014 18.7682C36.585 18.9761 37.25 19.8073 37.25 20.791V34.9222C37.25 36.0721 36.3218 37.0004 35.1719 37.0004H22.7031C23.091 37.0004 23.3958 36.6956 23.3958 36.3077V35.615H35.1719C35.546 35.615 35.8646 35.3102 35.8646 34.9222V20.791C35.8646 20.4723 35.643 20.1814 35.3243 20.1121L23.3958 17.7569V16.3438Z" />
<path d="M31.0163 23.1455C31.4042 23.1455 31.709 23.4503 31.709 23.8382C31.709 24.2261 31.4042 24.5309 31.0163 24.5309H28.2454C27.8575 24.5309 27.5527 24.2261 27.5527 23.8382C27.5527 23.4503 27.8575 23.1455 28.2454 23.1455H31.0163Z" />
<path d="M31.0163 27.3018C31.4042 27.3018 31.709 27.6065 31.709 27.9945C31.709 28.3824 31.4042 28.6872 31.0163 28.6872H28.2454C27.8575 28.6872 27.5527 28.3824 27.5527 27.9945C27.5527 27.6065 27.8575 27.3018 28.2454 27.3018H31.0163Z" />
<path d="M31.0163 31.458C31.4042 31.458 31.709 31.7628 31.709 32.1507C31.709 32.5386 31.4042 32.8434 31.0163 32.8434H28.2454C27.8575 32.8434 27.5527 32.5386 27.5527 32.1507C27.5527 31.7628 27.8575 31.458 28.2454 31.458H31.0163Z" />
<path d="M23.3952 36.3072C23.3952 36.6951 23.0904 36.9999 22.7025 36.9999C22.3146 36.9999 22.0098 36.6951 22.0098 36.3072V35.6145V16.9113C22.0098 16.7034 22.1067 16.5095 22.2591 16.3709C22.4254 16.2462 22.6332 16.1908 22.841 16.2324L23.3952 16.3432V17.7564V35.6145V36.3072Z" />
<path d="M22.0111 35.6143V36.307C22.0111 36.6949 22.3159 36.9997 22.7038 36.9997H17.1621C17.55 36.9997 17.8548 36.6949 17.8548 36.307V35.6143H22.0111Z" />
<path d="M18.5475 10.6768C18.9355 10.6768 19.2402 10.9816 19.2402 11.3695C19.2402 11.7574 18.9355 12.0622 18.5475 12.0622H15.7767C15.3888 12.0622 15.084 11.7574 15.084 11.3695C15.084 10.9816 15.3888 10.6768 15.7767 10.6768H18.5475Z" />
<path d="M19.2402 15.5257C19.2402 15.9136 18.9355 16.2184 18.5475 16.2184H15.7767C15.3888 16.2184 15.084 15.9136 15.084 15.5257C15.084 15.1378 15.3888 14.833 15.7767 14.833H18.5475C18.9355 14.833 19.2402 15.1378 19.2402 15.5257Z" />
<path d="M18.5475 18.9893C18.9355 18.9893 19.2402 19.294 19.2402 19.682C19.2402 20.0699 18.9355 20.3747 18.5475 20.3747H15.7767C15.3888 20.3747 15.084 20.0699 15.084 19.682C15.084 19.294 15.3888 18.9893 15.7767 18.9893H18.5475Z" />
<path d="M18.5475 23.1455C18.9355 23.1455 19.2402 23.4503 19.2402 23.8382C19.2402 24.2261 18.9355 24.5309 18.5475 24.5309H15.7767C15.3888 24.5309 15.084 24.2261 15.084 23.8382C15.084 23.4503 15.3888 23.1455 15.7767 23.1455H18.5475Z" />
<path d="M12.3125 23.8382C12.3125 24.2261 12.0077 24.5309 11.6198 24.5309H8.84896C8.46104 24.5309 8.15625 24.2261 8.15625 23.8382C8.15625 23.4503 8.46104 23.1455 8.84896 23.1455H11.6198C12.0077 23.1455 12.3125 23.4503 12.3125 23.8382Z" />
<path d="M11.6198 10.6768C12.0077 10.6768 12.3125 10.9816 12.3125 11.3695C12.3125 11.7574 12.0077 12.0622 11.6198 12.0622H8.84896C8.46104 12.0622 8.15625 11.7574 8.15625 11.3695C8.15625 10.9816 8.46104 10.6768 8.84896 10.6768H11.6198Z" />
<path d="M11.6198 14.833C12.0077 14.833 12.3125 15.1378 12.3125 15.5257C12.3125 15.9136 12.0077 16.2184 11.6198 16.2184H8.84896C8.46104 16.2184 8.15625 15.9136 8.15625 15.5257C8.15625 15.1378 8.46104 14.833 8.84896 14.833H11.6198Z" />
<path d="M11.6198 18.9893C12.0077 18.9893 12.3125 19.294 12.3125 19.682C12.3125 20.0699 12.0077 20.3747 11.6198 20.3747H8.84896C8.46104 20.3747 8.15625 20.0699 8.15625 19.682C8.15625 19.294 8.46104 18.9893 8.84896 18.9893H11.6198Z" />
<path d="M16.4681 29.3799C16.4681 28.992 16.1495 28.6872 15.7754 28.6872H11.6191C11.2312 28.6872 10.9264 28.992 10.9264 29.3799V35.6143H9.54102V29.3799C9.54102 28.23 10.4692 27.3018 11.6191 27.3018H15.7754C16.9253 27.3018 17.8535 28.23 17.8535 29.3799V35.6143H16.4681V29.3799Z" />
<path d="M10.9264 35.6143H16.4681H17.8535V36.307C17.8535 36.6949 17.5487 36.9997 17.1608 36.9997H10.2337C9.84581 36.9997 9.54102 36.6949 9.54102 36.307V35.6143H10.9264Z" />
<path d="M6.42449 4.02697H21.5C22.5114 4.19322 23.3959 5.05218 23.3959 6.0774V16.3434L22.8417 16.2325C22.6339 16.191 22.4261 16.2464 22.2599 16.3711C22.1075 16.5096 22.0105 16.7036 22.0105 16.9114V6.0774C22.0105 5.73104 21.4286 5.55094 21.0961 5.49552L6.20282 5.39854C6.16126 5.38469 6.11969 5.38469 6.07813 5.38469C5.91188 5.38469 5.75948 5.4401 5.6348 5.55094C5.46855 5.68948 5.38542 5.86958 5.38542 6.0774V34.9219C5.38542 35.3098 5.70407 35.6146 6.07813 35.6146H9.54168V36.3073C9.54168 36.6952 9.84648 37 10.2344 37H6.07813C4.92823 37 4 36.0718 4 34.9219V6.0774C4 5.46781 4.26323 4.88593 4.73427 4.49802C5.20532 4.09624 5.8149 3.92999 6.42449 4.02697Z" />
</svg>
