<svg width="12" height="14" viewBox="0 0 12 14" stroke-width="0" xmlns="http://www.w3.org/2000/svg">
<path fill-rule="evenodd" clip-rule="evenodd" d="M4.76848 13.1854C5.1044 13.1854 5.39492 13.0181 5.61282 12.6538L11.7138 2.28852C11.85 2.07196 11.9681 1.80619 11.9681 1.56994C11.9681 1.04823 11.5413 0.723389 11.0965 0.723389C10.8332 0.723389 10.5699 0.89073 10.3702 1.22541L4.72308 10.9607L1.71796 6.87564C1.48191 6.5508 1.23678 6.43268 0.946253 6.43268C0.501386 6.43268 0.12915 6.81658 0.12915 7.33829C0.12915 7.58438 0.21994 7.85016 0.374281 8.05688L3.87874 12.6637C4.16019 13.0377 4.43256 13.1854 4.76848 13.1854Z" />
</svg>
