<svg width="18" height="18" viewBox="0 0 18 18" stroke-width="0" xmlns="http://www.w3.org/2000/svg">
<path d="M15.7979 3.15157L15.7739 3.13652L12.7296 1.63672L9.44376 6.01779L10.9555 8.03354C10.9102 8.79373 10.5879 9.51095 10.0494 10.0494C9.51089 10.5879 8.79366 10.9103 8.03347 10.9555L6.01775 9.4438L1.63672 12.7295L3.12404 15.7484L3.13655 15.7739L3.15164 15.7979C3.23101 15.9258 3.34179 16.0312 3.47344 16.1042C3.60509 16.1772 3.75322 16.2152 3.90373 16.2148H4.68927C6.20282 16.2148 7.70155 15.9166 9.09989 15.3374C10.4982 14.7582 11.7688 13.9092 12.839 12.839C13.9093 11.7688 14.7582 10.4982 15.3374 9.09985C15.9166 7.70151 16.2148 6.20278 16.2148 4.68923V3.90366C16.2152 3.75315 16.1772 3.60502 16.1042 3.47337C16.0313 3.34172 15.9258 3.23094 15.7979 3.15157ZM15.0898 4.68923C15.0898 10.4241 10.4241 15.0898 4.68927 15.0898H4.05364L3.05851 13.0696L6.01796 10.85L7.66563 12.0857H7.85312C8.97534 12.0844 10.0512 11.6381 10.8448 10.8445C11.6383 10.051 12.0847 8.9751 12.0859 7.85287V7.66538L10.8502 6.01775L13.0696 3.05847L15.0898 4.05378V4.68923Z" />
</svg>
