<svg width="24" height="28" viewBox="0 0 24 28" stroke-width="0" xmlns="http://www.w3.org/2000/svg">
<path d="M12.34 0.399902C4.85995 0.399902 0.949951 5.1599 0.949951 10.4299C0.949951 12.9799 2.30995 15.5299 4.51995 16.8899C5.19995 17.2299 5.02995 16.8899 5.53995 14.8499C5.53995 14.6799 5.53995 14.5099 5.36995 14.3399C2.30995 10.5999 4.85995 3.2899 12 3.2899C22.37 3.2899 20.33 17.5699 13.87 17.5699C12.51 17.7399 11.32 16.7199 11.32 15.3599V14.6799C12 12.8099 12.51 11.1099 12.68 9.2399C12.68 5.6699 7.40995 6.1799 7.40995 10.9399C7.40995 11.7899 7.57995 12.6399 7.91995 13.3199C7.91995 13.3199 6.21995 20.2899 5.87995 21.4799C5.53995 23.5199 5.70995 25.5599 6.04995 27.4299C5.87995 27.5999 6.04995 27.5999 6.04995 27.5999H6.21995C7.40995 25.8999 8.42995 24.1999 9.10995 22.3299C9.27995 21.4799 10.13 18.4199 10.13 18.4199C10.98 19.6099 12.51 20.2899 14.04 20.2899C19.31 20.2899 23.05 15.6999 23.05 10.0899C23.05 4.4799 18.29 0.399902 12.34 0.399902Z"/>
</svg>
