<svg width="20" height="21" viewBox="0 0 20 21" stroke-width="0" xmlns="http://www.w3.org/2000/svg">
  <path d="M2.38477 2.34127C1.64275 2.5 1.07544 3.0772 0.937719 3.81724C0.906887 3.97597 0.904832 4.45834 0.910998 8.64095L0.915109 13.2894L0.958274 13.4337C1.05283 13.7471 1.15765 13.947 1.34059 14.1697C1.56053 14.4335 1.93051 14.6665 2.29228 14.7675L2.45671 14.8149L9.38982 14.8211L16.3209 14.8252V9.3006V3.77601H10.4134H4.50602L4.4608 3.62759C4.27581 3.01948 3.81332 2.55153 3.21518 2.37219C3.03225 2.31653 2.5821 2.30004 2.38477 2.34127ZM3.04252 3.08956C3.42278 3.19263 3.73111 3.52452 3.81332 3.91413C3.83799 4.03369 3.84416 4.62738 3.84416 7.77928C3.84416 9.83039 3.83799 11.5063 3.83182 11.5063C3.82566 11.5063 3.77838 11.4775 3.72905 11.4424C3.505 11.2878 3.1638 11.1703 2.86575 11.1456C2.53688 11.1167 2.11962 11.2198 1.81952 11.4012L1.65508 11.5022L1.64891 7.75661C1.64686 5.19221 1.65097 3.98009 1.66536 3.90795C1.69824 3.75334 1.80924 3.53277 1.92023 3.41114C2.20389 3.09575 2.62526 2.97412 3.04252 3.08956ZM15.5809 9.3006V14.0831L9.03833 14.079L2.49782 14.0728L2.37449 14.0254C1.74552 13.7862 1.46598 13.0854 1.75991 12.4772C1.83596 12.3226 2.08878 12.0711 2.24705 11.9949C2.94797 11.6568 3.74549 12.1 3.83593 12.873L3.84827 12.9905L4.21209 12.9864L4.57385 12.9802L4.58002 8.74815L4.58413 4.51812H10.0825H15.5809V9.3006Z" />
  <path d="M11.5731 6.36953C11.5731 6.37777 11.7499 6.56124 11.9636 6.77563C12.1794 6.99001 12.3542 7.17142 12.3542 7.17966C12.3542 7.19203 10.5392 8.92362 10.4816 8.96485C10.4508 8.98753 10.3501 8.89064 9.61833 8.11967C9.16407 7.64142 8.75298 7.20852 8.70365 7.15905L8.61732 7.06835L8.24733 7.41673C6.2823 9.272 6.02948 9.51731 6.05209 9.55029C6.06442 9.56885 6.17747 9.69047 6.3008 9.8224L6.5269 10.0615L7.54436 9.09472C8.10345 8.56287 8.5721 8.12792 8.58237 8.12792C8.59471 8.12585 9.00991 8.55257 9.50528 9.07411C9.99859 9.59564 10.4138 10.0224 10.4261 10.0224C10.4364 10.0224 10.6193 9.85744 10.8311 9.65542C11.0407 9.45547 11.5505 8.97103 11.9636 8.58143C12.3768 8.19182 12.7529 7.83313 12.8023 7.78778L12.8886 7.70533L13.3202 8.13616L13.7519 8.56906V7.46002V6.35304H12.6625C12.0643 6.35304 11.5731 6.35922 11.5731 6.36953Z" />
  <path d="M6.04297 11.877V12.248H9.89698H13.751V11.877V11.5059H9.89698H6.04297V11.877Z" />
  <path d="M16.8798 5.29554C16.6455 5.41098 16.6249 5.7841 16.8469 5.92015C16.888 5.94695 16.9497 5.97375 16.9867 5.97993L17.0504 5.99436V10.7748V15.5573H10.5346H4.01873L3.8728 15.5037C3.74124 15.4563 3.65903 15.4068 3.43498 15.246C3.33632 15.1759 3.17188 15.1759 3.05061 15.248C2.90878 15.3326 2.84095 15.5284 2.90056 15.6851C2.96428 15.8562 3.35893 16.118 3.7248 16.2313L3.87485 16.2788L10.8285 16.2849L17.7801 16.2891V10.7748V5.2605H17.3649C17.0217 5.2605 16.9353 5.26668 16.8798 5.29554Z" />
  <path d="M18.3669 6.76293C18.2682 6.80828 18.225 6.85363 18.1819 6.95671C18.1387 7.05978 18.1428 7.14842 18.1942 7.25355C18.2435 7.35456 18.3093 7.40816 18.4347 7.44526L18.521 7.47206V12.2525V17.0308H12.0463C7.34336 17.0308 5.54277 17.0247 5.46466 17.0082C5.32077 16.9772 5.13167 16.8886 5.01245 16.7979C4.81718 16.6474 4.7103 16.6247 4.54792 16.7031C4.3917 16.7793 4.30743 16.9669 4.35881 17.1277C4.38965 17.2246 4.47392 17.3153 4.64041 17.4349C4.87679 17.606 5.15428 17.7132 5.46877 17.7503C5.58799 17.7668 7.80378 17.7729 12.4512 17.7729H19.261V12.2484V6.72377H18.8561C18.5046 6.72377 18.4367 6.72995 18.3669 6.76293Z" />
</svg>
