<svg width="39" height="39" viewBox="0 0 39 39" stroke-width="0" xmlns="http://www.w3.org/2000/svg">
<g clip-path="url(#clip0)">
<path d="M34.1472 27.1344L39.0004 22.2814L34.1472 17.4281L34.9291 16.6462C36.2821 15.2932 36.2821 13.092 34.9294 11.7391C34.2739 11.0839 33.4024 10.7229 32.4756 10.7229C31.549 10.7229 30.6775 11.0839 30.0223 11.7391L29.2403 12.521L24.3871 7.66772L22.955 9.10011V11.3638C25.4883 11.9676 27.378 14.25 27.378 16.9655C27.378 19.6812 25.4883 21.9636 22.955 22.5671V29.5865H18.7536L17.916 30.4241L24.3871 36.8948L29.2403 32.0415L29.9143 32.7158C31.2672 34.0687 33.4685 34.0687 34.8214 32.7158C36.1743 31.3628 36.1743 29.1616 34.8214 27.8086L34.1472 27.1344Z"/>
<path d="M34.1472 27.1344L39.0004 22.2814L34.1472 17.4281L34.9291 16.6462C36.2821 15.2932 36.2821 13.092 34.9294 11.7391C34.2739 11.0839 33.4024 10.7229 32.4756 10.7229C31.549 10.7229 30.6775 11.0839 30.0223 11.7391L29.2403 12.521L24.3871 7.66772L22.955 9.10011V11.3638C25.4883 11.9676 27.378 14.25 27.378 16.9655C27.378 19.6812 25.4883 21.9636 22.955 22.5671V29.5865H18.7536L17.916 30.4241L24.3871 36.8948L29.2403 32.0415L29.9143 32.7158C31.2672 34.0687 33.4685 34.0687 34.8214 32.7158C36.1743 31.3628 36.1743 29.1616 34.8214 27.8086L34.1472 27.1344Z" fill="url(#paint0Linear)"/>
<path d="M20.6667 27.299V20.4355H21.6197C23.5332 20.4355 25.0897 18.879 25.0897 16.9655C25.0897 15.0523 23.5332 13.4958 21.6197 13.4958H20.6667V6.63231H13.8032V5.52663C13.8032 3.61311 12.2467 2.05664 10.3332 2.05664C8.41997 2.05664 6.8635 3.61311 6.8635 5.52663V6.63231H0V13.4958H0.953339C2.6321 13.4958 4.03592 14.694 4.35489 16.2803C4.49325 16.4737 4.57567 16.7099 4.57567 16.9655C4.57567 17.2211 4.49325 17.4573 4.35489 17.651C4.03592 19.237 2.6321 20.4355 0.953339 20.4355H0V27.299H6.8635V26.193C6.8635 24.2798 8.41997 22.7233 10.3332 22.7233C12.2467 22.7233 13.8032 24.2798 13.8032 26.193V27.299H20.6667Z"/>
<path d="M20.6667 27.299V20.4355H21.6197C23.5332 20.4355 25.0897 18.879 25.0897 16.9655C25.0897 15.0523 23.5332 13.4958 21.6197 13.4958H20.6667V6.63231H13.8032V5.52663C13.8032 3.61311 12.2467 2.05664 10.3332 2.05664C8.41997 2.05664 6.8635 3.61311 6.8635 5.52663V6.63231H0V13.4958H0.953339C2.6321 13.4958 4.03592 14.694 4.35489 16.2803C4.49325 16.4737 4.57567 16.7099 4.57567 16.9655C4.57567 17.2211 4.49325 17.4573 4.35489 17.651C4.03592 19.237 2.6321 20.4355 0.953339 20.4355H0V27.299H6.8635V26.193C6.8635 24.2798 8.41997 22.7233 10.3332 22.7233C12.2467 22.7233 13.8032 24.2798 13.8032 26.193V27.299H20.6667Z" fill="url(#paint1Linear)"/>
</g>
<defs>
<linearGradient id="paint0Linear" x1="28.4582" y1="7.66772" x2="28.4582" y2="36.8948" gradientUnits="userSpaceOnUse">
<stop stop-color="#7CFFE7"/>
<stop offset="1" stop-color="#5FCAEC"/>
</linearGradient>
<linearGradient id="paint1Linear" x1="-5.70516" y1="-21.2302" x2="-5.70516" y2="27.299" gradientUnits="userSpaceOnUse">
<stop stop-color="#00E0FF"/>
<stop offset="1" stop-color="#0085FF"/>
</linearGradient>
<clipPath id="clip0">
<rect width="39" height="39" fill="white"/>
</clipPath>
</defs>
</svg>
