<svg width="24" height="24" viewBox="0 0 24 24" stroke-width="0" xmlns="http://www.w3.org/2000/svg">
  <g clip-path="url(#clip0)">
    <path d="M23.9056 21.7338L22.258 16.9389C23.0504 15.337 23.4695 13.5515 23.4724 11.7548C23.4771 8.661 22.2801 5.73558 20.1016 3.51765C17.9228 1.2993 15.0194 0.0506424 11.9264 0.00156435C10.3059 -0.0244512 8.73343 0.274142 7.2503 0.888063C5.81982 1.48023 4.537 2.338 3.4375 3.43749C2.33796 4.53699 1.48019 5.81982 0.888068 7.2503C0.274147 8.73342 -0.0241178 10.3067 0.00152281 11.9264C0.0505071 15.0194 1.29921 17.9228 3.51756 20.1017C5.73118 22.2759 8.64905 23.4725 11.7362 23.4725C11.7423 23.4725 11.7487 23.4725 11.7547 23.4725C13.5513 23.4697 15.3368 23.0506 16.9388 22.2581L21.7338 23.9057C21.9182 23.9691 22.1072 24 22.2941 24C22.7382 24 23.1702 23.8255 23.4978 23.4978C23.9632 23.0324 24.1195 22.3565 23.9056 21.7338ZM22.4916 22.4917C22.4444 22.5389 22.3433 22.6105 22.1961 22.56L17.1151 20.8141C17.04 20.7883 16.9618 20.7755 16.8839 20.7755C16.7691 20.7755 16.6548 20.8033 16.5512 20.8581C15.0828 21.6349 13.4234 22.047 11.7525 22.0495C6.14856 22.0586 1.513 17.5069 1.42422 11.9039C1.37955 9.08484 2.45186 6.43543 4.44362 4.44366C6.43539 2.45195 9.084 1.37983 11.9038 1.42441C17.5068 1.51323 22.0581 6.14649 22.0494 11.7526C22.0467 13.4236 21.6348 15.083 20.858 16.5514C20.766 16.7252 20.7501 16.9293 20.814 17.1153L22.5599 22.1962C22.6105 22.3434 22.5388 22.4446 22.4916 22.4917Z"/>
    <path d="M11.6203 17.0039C11.2481 17.0039 10.8916 17.3311 10.9088 17.7154C10.9261 18.1008 11.2214 18.4268 11.6203 18.4268C11.9924 18.4268 12.349 18.0996 12.3318 17.7154C12.3145 17.3299 12.0191 17.0039 11.6203 17.0039Z" />
    <path d="M11.6218 5.98486C9.66997 5.98486 8.08203 7.5728 8.08203 9.52462C8.08203 9.91753 8.40059 10.2361 8.7935 10.2361C9.18641 10.2361 9.50497 9.91753 9.50497 9.52462C9.50497 8.35744 10.4546 7.4078 11.6218 7.4078C12.789 7.4078 13.7386 8.35744 13.7386 9.52462C13.7386 10.6918 12.789 11.6414 11.6218 11.6414C11.2289 11.6414 10.9103 11.96 10.9103 12.3529V15.2547C10.9103 15.6476 11.2289 15.9662 11.6218 15.9662C12.0147 15.9662 12.3333 15.6477 12.3333 15.2547V12.9925C13.9453 12.6623 15.1616 11.2328 15.1616 9.52462C15.1616 7.5728 13.5736 5.98486 11.6218 5.98486Z" />
  </g>
  <defs>
    <clipPath id="clip0">
      <rect width="24" height="24" fill="white"/>
    </clipPath>
  </defs>
</svg>
