<svg width="18" height="18" viewBox="0 0 18 18" stroke-width="0" xmlns="http://www.w3.org/2000/svg">
  <path d="M8.52738 0.00755692C8.03499 0.0422344 7.73025 0.0784206 7.39399 0.14024C5.31184 0.524717 3.43236 1.62991 2.06779 3.27487C1.16708 4.36046 0.529074 5.65412 0.21983 7.02316C-0.126943 8.55957 -0.0623925 10.1789 0.405977 11.6821C1.13705 14.0222 2.83189 15.9989 5.03713 17.0859C5.97687 17.5503 6.88058 17.8187 7.95693 17.9559C8.32322 18.0027 9.46111 18.0162 9.83791 17.977C10.3573 17.9258 10.7281 17.8609 11.1995 17.7433C13.6569 17.1282 15.7841 15.453 16.976 13.1944C17.4564 12.2837 17.7897 11.2615 17.9233 10.295C17.9533 10.0764 17.9578 10.0342 17.9848 9.76728C18.0089 9.52755 18.0028 8.43593 17.9773 8.16755C17.8752 7.14981 17.6321 6.22857 17.2267 5.32693C16.3711 3.42565 14.8549 1.85305 12.9934 0.931812C11.896 0.390528 10.7972 0.0950069 9.5662 0.0120792C9.35753 -0.00148964 8.69551 -0.00450516 8.52738 0.00755692ZM9.42058 1.00871C11.4112 1.11877 13.2561 1.94352 14.6597 3.35177C15.3232 4.01669 15.8141 4.71026 16.2224 5.5531C16.6368 6.41252 16.8815 7.27948 16.982 8.25952C17.0121 8.55505 17.0076 9.54866 16.973 9.83513C16.8574 10.8272 16.5992 11.7078 16.1774 12.5536C15.4869 13.9393 14.418 15.0912 13.0835 15.8888C11.7594 16.6804 10.2042 17.0739 8.67299 17.0045C8.09053 16.9789 7.59514 16.9065 7.05622 16.7693C5.2578 16.3125 3.68456 15.254 2.56918 13.7493C1.61593 12.4632 1.068 10.9102 1.00945 9.32249C0.950906 7.79363 1.30669 6.35372 2.06929 5.02538C2.67126 3.97598 3.51192 3.06982 4.52672 2.38077C5.97086 1.39771 7.70323 0.912212 9.42058 1.00871Z" />
  <path d="M8.62419 3.6923C7.52232 3.75864 6.61861 4.15217 5.94758 4.85931C5.63383 5.18801 5.40265 5.54082 5.25253 5.91777C5.14595 6.18464 5.04987 6.59626 5.03486 6.85861C5.02435 7.01241 5.02585 7.01693 5.06488 7.06367C5.0859 7.0893 5.11893 7.11343 5.13694 7.11795C5.20299 7.13453 6.99841 7.35467 7.06596 7.35467C7.16954 7.35467 7.20557 7.30944 7.25661 7.10589C7.31816 6.86766 7.37671 6.70633 7.47128 6.52087C7.65142 6.16504 7.88411 5.92681 8.20686 5.76548C8.48008 5.62827 8.72777 5.5755 9.08956 5.5755C9.64199 5.5755 10.0308 5.72176 10.337 6.04743C10.4646 6.18012 10.5502 6.32185 10.6088 6.4877C10.6463 6.59777 10.6493 6.62642 10.6508 6.83449C10.6508 7.03201 10.6463 7.07422 10.6163 7.16469C10.5052 7.4964 10.3836 7.62607 9.44233 8.40408C8.47257 9.20772 8.10928 9.69322 7.94265 10.4109C7.8766 10.6959 7.86309 10.8406 7.85558 11.3623C7.84658 11.9006 7.84958 11.9262 7.92314 11.9835C7.95917 12.0122 7.98919 12.0137 8.93343 12.0137C9.63599 12.0137 9.91671 12.0091 9.94373 11.9956C10.0218 11.9609 10.0323 11.9247 10.0368 11.6382C10.0458 11.2115 10.0893 10.8904 10.1569 10.7577C10.265 10.5496 10.4992 10.3039 11.0111 9.86661C12.3531 8.7192 12.7705 8.18093 12.9431 7.37578C12.9731 7.23103 12.9776 7.17223 12.9776 6.87972C12.9761 6.57968 12.9731 6.52992 12.9356 6.35954C12.8095 5.75945 12.5303 5.26339 12.0544 4.79297C11.4599 4.20494 10.6913 3.8476 9.76509 3.72849C9.38679 3.68024 9.0175 3.66968 8.62419 3.6923Z" />
  <path d="M8.11906 12.4195L8.06952 12.4632L8.06502 13.3212C8.06351 13.7916 8.06502 14.1941 8.06952 14.2122C8.07402 14.2318 8.09654 14.265 8.11756 14.2846L8.15659 14.3208H9.03629C9.84694 14.3208 9.919 14.3178 9.94752 14.2937C9.96554 14.2801 9.98806 14.253 9.99706 14.2349C10.0091 14.2122 10.0136 13.9454 10.0136 13.3408V12.4783L9.96253 12.427L9.91149 12.3758H9.0393H8.1671L8.11906 12.4195Z" />
</svg>
