<svg width="24" height="24" viewBox="0 0 24 24" stroke-width="0" xmlns="http://www.w3.org/2000/svg">
<path d="M11.5002 4.92339C10.0311 5.01184 8.82611 5.53655 7.93141 6.47941C7.51308 6.91766 7.20484 7.38809 7.00468 7.89068C6.86257 8.24651 6.73447 8.79534 6.71445 9.14514C6.70044 9.3502 6.70244 9.35623 6.75448 9.41855C6.7825 9.45273 6.82654 9.48489 6.85056 9.49092C6.93863 9.51304 9.33251 9.80655 9.42258 9.80655C9.56069 9.80655 9.60873 9.74624 9.67678 9.47484C9.75885 9.1572 9.83691 8.94209 9.96301 8.69482C10.2032 8.22038 10.5134 7.90274 10.9438 7.68763C11.3081 7.50469 11.6383 7.43433 12.1207 7.43433C12.8573 7.43433 13.3757 7.62933 13.784 8.06357C13.9542 8.24048 14.0682 8.42945 14.1463 8.65059C14.1963 8.79735 14.2003 8.83555 14.2023 9.11297C14.2023 9.37633 14.1963 9.43262 14.1563 9.55324C14.0082 9.99552 13.8461 10.1684 12.5911 11.2058C11.2981 12.2773 10.8137 12.9246 10.5915 13.8815C10.5034 14.2615 10.4854 14.4545 10.4754 15.1501C10.4634 15.8678 10.4674 15.902 10.5655 15.9783C10.6135 16.0165 10.6536 16.0186 11.9125 16.0186C12.8493 16.0186 13.2236 16.0125 13.2596 15.9944C13.3637 15.9482 13.3777 15.8999 13.3837 15.518C13.3957 14.949 13.4538 14.5208 13.5438 14.3439C13.6879 14.0665 14.0002 13.7388 14.6827 13.1558C16.4721 11.6259 17.0286 10.9082 17.2588 9.83469C17.2988 9.6417 17.3048 9.56329 17.3048 9.17329C17.3028 8.77322 17.2988 8.70688 17.2487 8.47971C17.0806 7.67959 16.7083 7.01818 16.0738 6.39095C15.2812 5.60691 14.2564 5.13046 13.0214 4.97164C12.517 4.90731 12.0246 4.89323 11.5002 4.92339Z"/>
<path d="M10.8257 16.5597L10.7597 16.618L10.7537 17.7619C10.7517 18.3891 10.7537 18.9259 10.7597 18.95C10.7657 18.9761 10.7957 19.0203 10.8237 19.0465L10.8758 19.0947H12.0487C13.1296 19.0947 13.2257 19.0907 13.2637 19.0585C13.2877 19.0404 13.3177 19.0043 13.3297 18.9801C13.3458 18.95 13.3518 18.5941 13.3518 17.788V16.6381L13.2837 16.5697L13.2157 16.5014H12.0527H10.8898L10.8257 16.5597Z"/>
</svg>
