<svg width="26" height="26" viewBox="0 0 26 26" stroke-width="0" xmlns="http://www.w3.org/2000/svg">
<g clip-path="url(#clip0)">
<path d="M23.9553 0H3.26197C2.24089 0 1.41016 0.83073 1.41016 1.85182V23.4857C1.41016 24.5069 2.24089 25.3375 3.26197 25.3375H3.29137V26.3075C3.29137 26.81 3.70012 27.2188 4.20258 27.2188H5.14318C5.64564 27.2188 6.05439 26.81 6.05439 26.3075V25.3375H21.1629V26.3075C21.1629 26.81 21.5716 27.2188 22.0741 27.2188H23.0147C23.5171 27.2188 23.9259 26.81 23.9259 26.3075V25.3375H23.9553C24.9764 25.3375 25.8071 24.5068 25.8071 23.4857V1.85182C25.8071 0.83073 24.9764 0 23.9553 0ZM3.26197 0.881817H23.9553C24.4901 0.881817 24.9253 1.31696 24.9253 1.85182V6.58423H2.29197V1.85182C2.29197 1.31696 2.72712 0.881817 3.26197 0.881817ZM5.17258 26.3075C5.17258 26.3238 5.15941 26.3369 5.14318 26.3369H4.20258C4.18635 26.3369 4.17318 26.3238 4.17318 26.3075V25.3375H5.17258V26.3075ZM23.0441 26.3075C23.0441 26.3238 23.0309 26.3369 23.0147 26.3369H22.0741C22.0578 26.3369 22.0447 26.3238 22.0447 26.3075V25.3375H23.0441V26.3075ZM23.9553 24.4557H3.26197C2.72712 24.4557 2.29197 24.0206 2.29197 23.4857V7.46605H24.9253V23.4857C24.9253 24.0206 24.4902 24.4557 23.9553 24.4557Z" />
<path d="M11.728 4.17395H11.8108C12.0092 4.98281 12.74 5.58486 13.6092 5.58486C14.4784 5.58486 15.2092 4.98281 15.4076 4.17395H15.4904C15.7339 4.17395 15.9313 3.97654 15.9313 3.73304C15.9313 3.48954 15.7339 3.29213 15.4904 3.29213H15.4076C15.2093 2.48327 14.4784 1.88123 13.6092 1.88123C12.74 1.88123 12.0093 2.48327 11.8108 3.29213H11.728C11.4845 3.29213 11.2871 3.48954 11.2871 3.73304C11.2871 3.97654 11.4845 4.17395 11.728 4.17395ZM13.6092 4.70304C13.2332 4.70304 12.9072 4.48752 12.7463 4.17395H14.4721C14.3113 4.48752 13.9853 4.70304 13.6092 4.70304ZM13.6092 2.76304C13.9852 2.76304 14.3113 2.97856 14.4722 3.29213H12.7463C12.9072 2.97856 13.2332 2.76304 13.6092 2.76304Z" />
<path d="M18.0797 4.75146C17.9075 4.92365 17.9075 5.20283 18.0797 5.37496C18.1658 5.46103 18.2787 5.50412 18.3915 5.50412C18.5043 5.50412 18.6172 5.46109 18.7032 5.37496L18.7618 5.31635C19.0557 5.49448 19.3886 5.58389 19.7217 5.58389C20.1959 5.58389 20.6702 5.40342 21.0312 5.0424C21.6457 4.42783 21.7368 3.48535 21.3051 2.77313L21.3637 2.71452C21.5359 2.54233 21.5359 2.26315 21.3637 2.09102C21.1915 1.91883 20.9124 1.91883 20.7402 2.09102L20.6816 2.14963C19.9694 1.71795 19.0269 1.80901 18.4124 2.42358C17.7978 3.03815 17.7067 3.98063 18.1384 4.69285L18.0797 4.75146ZM20.4076 4.4189C20.1417 4.68479 19.7588 4.76292 19.4233 4.65493L20.6436 3.43455C20.7516 3.77011 20.6735 4.153 20.4076 4.4189ZM19.0358 3.04714C19.2249 2.85802 19.4733 2.76349 19.7217 2.76349C19.8226 2.76349 19.9232 2.77989 20.0201 2.81111L18.7997 4.03149C18.6918 3.69592 18.7699 3.31304 19.0358 3.04714Z" />
<path d="M6.18584 5.04252C6.54686 5.40353 7.02104 5.58401 7.49528 5.58401C7.82837 5.58401 8.16129 5.49459 8.45511 5.31647L8.51366 5.37502C8.59973 5.46114 8.7126 5.50418 8.82541 5.50418C8.93823 5.50418 9.0511 5.46114 9.13716 5.37502C9.30935 5.20283 9.30935 4.92365 9.13716 4.75152L9.07855 4.6929C9.51023 3.98069 9.41917 3.0382 8.8046 2.42364C8.19003 1.80901 7.24755 1.71795 6.53534 2.14963L6.47672 2.09101C6.30454 1.91883 6.02535 1.91883 5.85322 2.09101C5.68103 2.2632 5.68103 2.54239 5.85322 2.71452L5.91183 2.77313C5.48015 3.48546 5.57122 4.42795 6.18584 5.04252ZM6.80935 4.41895C6.54345 4.15306 6.46532 3.77017 6.57331 3.43467L7.79369 4.65504C7.45819 4.76304 7.07524 4.68491 6.80935 4.41895ZM7.49522 2.76355C7.7436 2.76355 7.99198 2.85808 8.1811 3.0472C8.447 3.3131 8.52512 3.69598 8.41713 4.03148L7.19682 2.81117C7.29376 2.77995 7.3944 2.76355 7.49522 2.76355Z" />
<path d="M21.6042 9.40601H5.61394C4.85216 9.40601 4.23242 10.0257 4.23242 10.7875V21.1342C4.23242 21.8959 4.85216 22.5157 5.61394 22.5157H21.6042C22.366 22.5157 22.9857 21.8959 22.9857 21.1342V10.7875C22.9857 10.0257 22.366 9.40601 21.6042 9.40601ZM22.1039 21.1342C22.1039 21.4097 21.8798 21.6339 21.6042 21.6339H5.61394C5.3384 21.6339 5.11424 21.4097 5.11424 21.1342V10.7875C5.11424 10.512 5.3384 10.2878 5.61394 10.2878H21.6042C21.8798 10.2878 22.1039 10.512 22.1039 10.7875V21.1342Z" />
<path d="M17.37 11.2872H9.84521C9.60171 11.2872 9.4043 11.4846 9.4043 11.7281V12.1984C9.4043 12.9602 10.024 13.58 10.7858 13.58H16.4294C17.1912 13.58 17.811 12.9602 17.811 12.1984V11.7281C17.811 11.4846 17.6136 11.2872 17.37 11.2872ZM16.9291 12.1984C16.9291 12.474 16.705 12.6981 16.4294 12.6981H10.7858C10.5103 12.6981 10.2861 12.474 10.2861 12.1984V12.169H16.9291V12.1984Z" />
</g>
<defs>
<clipPath id="clip0">
<rect width="26" height="26" stroke-width="0" />
</clipPath>
</defs>
</svg>
