<svg width="20" height="20" viewBox="0 0 14 14" stroke-width="0" xmlns="http://www.w3.org/2000/svg">
<g clip-path="url(#clip0)">
<path d="M10.1134 7.66717L9.17991 8.60069L9.17988 8.60066L2.73168 2.15244L3.22725 1.65687L1.17239 0.000732422L0 1.17312L1.65614 3.22795L2.15173 2.73238L8.59997 9.18061L7.66645 10.1141L8.99778 11.4454L11.4447 8.99851L10.1134 7.66717Z" />
<path d="M12.025 9.57812L9.57812 12.0251L11.0462 13.4932C11.373 13.82 11.8075 13.9999 12.2697 13.9999C12.7319 13.9999 13.1664 13.82 13.4932 13.4932C14.1678 12.8185 14.1678 11.7209 13.4932 11.0462L12.025 9.57812Z" />
<path d="M7.08557 8.82583L5.17429 6.91455L3.77498 8.31367C2.74716 7.99157 1.62554 8.26062 0.85201 9.03443C0.302688 9.58375 0 10.3141 0 11.0912C0 11.868 0.302688 12.5986 0.85201 13.1479C1.4191 13.715 2.16393 13.9986 2.90875 13.9986C3.65358 13.9986 4.39868 13.715 4.9655 13.1479C5.73931 12.3744 6.00836 11.2528 5.68626 10.2249L7.08557 8.82583ZM3.57456 11.7567C3.20679 12.1244 2.61071 12.1244 2.24322 11.7567C1.87546 11.3892 1.87546 10.7931 2.24322 10.4253C2.61071 10.0579 3.20679 10.0579 3.57456 10.4253C3.94205 10.7931 3.94205 11.3892 3.57456 11.7567Z" />
<path d="M13.8091 1.75443L13.5805 1.17065L12.113 2.63816L11.5205 2.47929L11.3616 1.88677L12.8291 0.419539L12.2453 0.190677C11.2219 -0.210172 10.0587 0.0326343 9.2819 0.809451C8.57043 1.52092 8.30684 2.55695 8.5759 3.51259L6.91406 5.17461L8.82535 7.08589L10.4872 5.42387C10.7338 5.49332 10.9854 5.52723 11.2356 5.52723C11.9555 5.52695 12.6623 5.24587 13.1903 4.71787C13.9671 3.94108 14.21 2.77791 13.8091 1.75443Z" />
</g>
<defs>
<clipPath id="clip0">
<rect width="14" height="14" stroke-width="0"/>
</clipPath>
</defs>
</svg>
