<svg width="20" height="20" viewBox="0 0 18 18" stroke-width="0" xmlns="http://www.w3.org/2000/svg">
<path d="M3.09375 6.25H14.9062V14.7812C14.9062 15.8686 14.0248 16.75 12.9375 16.75H5.0625C3.97519 16.75 3.09375 15.8686 3.09375 14.7812V6.25ZM7.03125 13.4688V8.875H5.71875V13.4688H7.03125ZM9.65625 13.4688V8.875H8.34375V13.4688H9.65625ZM12.2812 13.4688V8.875H10.9688V13.4688H12.2812ZM16.2188 3.625C16.5812 3.625 16.875 3.91881 16.875 4.28125C16.875 4.64369 16.5812 4.9375 16.2188 4.9375H1.78125C1.41881 4.9375 1.125 4.64369 1.125 4.28125C1.125 3.91881 1.41881 3.625 1.78125 3.625H5.71875V1.65625C5.71875 1.29381 6.01256 1 6.375 1H11.625C11.9874 1 12.2812 1.29381 12.2812 1.65625V3.625H16.2188ZM7.03125 2.3125V3.625H10.9688V2.3125H7.03125Z" />
</svg>
