<svg width="20" height="20" viewBox="0 0 20 22" stroke-width="0" xmlns="http://www.w3.org/2000/svg">
<path d="M8.88477 5.135V5.99H10.5758C12.4758 5.99 12.9888 6.085 13.5588 6.56C13.7488 6.712 14.0148 7.0635 14.1478 7.339C14.3853 7.814 14.3948 7.909 14.3948 9.391V10.949L13.8153 10.417C13.3308 9.9705 13.1883 9.885 12.8938 9.885C12.5043 9.8945 12.2953 10.0085 12.1243 10.3505C11.8678 10.8255 12.0388 11.101 13.4733 12.526C14.8033 13.8465 14.8413 13.875 15.2498 13.875C15.6583 13.875 15.6963 13.8465 17.0263 12.526C18.4608 11.101 18.6318 10.8255 18.3753 10.3505C18.2043 10.0085 17.9953 9.8945 17.6058 9.885C17.3113 9.885 17.1688 9.9705 16.6843 10.417L16.1048 10.949V9.4385C16.1048 7.2345 15.8293 6.3795 14.8033 5.4105C13.8438 4.4985 13.0078 4.2895 10.3858 4.28H8.88477V5.135Z" />
<path d="M3.97365 10.474C2.53915 11.899 2.36815 12.1745 2.62465 12.6495C2.79565 12.9915 3.00465 13.1055 3.39415 13.115C3.68865 13.115 3.83115 13.0295 4.31565 12.583L4.89515 12.051V13.5615C4.89515 15.224 5.00915 15.8605 5.43665 16.6585C5.75965 17.2475 6.54815 17.9695 7.25115 18.3115C7.79265 18.5775 7.80215 18.5775 9.95865 18.606L12.1152 18.6345V17.827V17.01H10.4242C8.52415 17.01 8.01115 16.915 7.44115 16.44C7.25115 16.288 6.98515 15.9365 6.85215 15.661C6.61465 15.186 6.60515 15.091 6.60515 13.609V12.051L7.18465 12.583C7.66915 13.0295 7.81165 13.115 8.10615 13.115C8.49565 13.1055 8.70465 12.9915 8.87565 12.6495C9.13215 12.1745 8.96115 11.899 7.52665 10.474C6.19665 9.15352 6.15865 9.12502 5.75015 9.12502C5.34165 9.12502 5.30365 9.15352 3.97365 10.474Z" />
</svg>
