<svg width="26" height="26" viewBox="0 0 26 26" fill="none" xmlns="http://www.w3.org/2000/svg">
  <path d="M6.81112 11.1111C6.81112 9.34913 8.23799 7.92226 10 7.92226C11.762 7.92226 13.1889 9.34913 13.1889 11.1111C13.1889 12.8732 11.762 14.3 10 14.3C8.23799 14.3 6.81112 12.8732 6.81112 11.1111ZM2.92223 19.8611C2.92223 19.4717 3.11175 19.0788 3.54722 18.6769C3.98746 18.2706 4.63073 17.9041 5.39799 17.5967C6.93364 16.9815 8.78959 16.6723 10 16.6723C11.2104 16.6723 13.0664 16.9815 14.602 17.5967C15.3693 17.9041 16.0126 18.2706 16.4528 18.6769C16.8883 19.0788 17.0778 19.4717 17.0778 19.8611V22.0778H2.92223V19.8611Z" />
  <path d="M17.1856 8.47819L15 9.85417V1.5C15 1.22386 15.2239 1 15.5 1H24.5C24.7761 1 25 1.22386 25 1.5V7.90132C25 8.17746 24.7761 8.40132 24.5 8.40132H17.452C17.3577 8.40132 17.2654 8.42796 17.1856 8.47819Z" fill="none" stroke-width="1.4" />
  <!-- <rect x="17.5" y="2.5" width="5" height="0.6" rx="0.3" stroke-width="0" />
  <rect x="17.5" y="4.5" width="5" height="0.6" rx="0.3" stroke-width="0" />
  <rect x="17.5" y="6.5" width="5" height="0.6" rx="0.3" stroke-width="0" /> -->
</svg>
