<svg width="20" height="21" viewBox="0 0 20 21" stroke-width="0" xmlns="http://www.w3.org/2000/svg">
  <path d="M10.75 9.75H14.0909C14.5051 9.75 14.8409 10.0858 14.8409 10.5C14.8409 10.9142 14.5051 11.25 14.0909 11.25H10.75V14.5909C10.75 15.0051 10.4142 15.3409 10 15.3409C9.58579 15.3409 9.25 15.0051 9.25 14.5909V11.25H5.90909C5.49488 11.25 5.15909 10.9142 5.15909 10.5C5.15909 10.0858 5.49488 9.75 5.90909 9.75H9.25V6.40909C9.25 5.99488 9.58579 5.65909 10 5.65909C10.4142 5.65909 10.75 5.99488 10.75 6.40909V9.75ZM10 20.25C4.61522 20.25 0.25 15.8848 0.25 10.5C0.25 5.11522 4.61522 0.75 10 0.75C15.3848 0.75 19.75 5.11522 19.75 10.5C19.75 15.8848 15.3848 20.25 10 20.25ZM10 18.75C14.5563 18.75 18.25 15.0563 18.25 10.5C18.25 5.94365 14.5563 2.25 10 2.25C5.44365 2.25 1.75 5.94365 1.75 10.5C1.75 15.0563 5.44365 18.75 10 18.75Z" />
</svg>
