<svg width="15" height="14" viewBox="0 0 15 14" stroke-width="0" xmlns="http://www.w3.org/2000/svg">
  <path d="M14.4782 12.7744C14.7716 13.0548 14.7716 13.5093 14.4782 13.7897C14.1847 14.0701 13.7089 14.0701 13.4154 13.7897L10.7854 11.2769C10.4919 10.9965 10.4919 10.5419 10.7854 10.2616C11.0788 9.98119 11.5546 9.98119 11.8481 10.2616L14.4782 12.7744ZM6.05655 11.4872C2.73642 11.4872 0.0449219 8.91569 0.0449219 5.74359C0.0449219 2.57149 2.73642 0 6.05655 0C9.37668 0 12.0682 2.57149 12.0682 5.74359C12.0682 8.91569 9.37668 11.4872 6.05655 11.4872ZM6.05655 10.0513C8.54664 10.0513 10.5653 8.12266 10.5653 5.74359C10.5653 3.36452 8.54664 1.4359 6.05655 1.4359C3.56645 1.4359 1.54783 3.36452 1.54783 5.74359C1.54783 8.12266 3.56645 10.0513 6.05655 10.0513Z" />
</svg>
