<svg width="20" height="21" viewBox="0 0 20 21" stroke-width="0" xmlns="http://www.w3.org/2000/svg">
  <path d="M10.0288 15.0234C7.53584 15.0234 5.5149 13.0025 5.5149 10.5096C5.5149 8.01661 7.53584 5.99567 10.0288 5.99567C12.5217 5.99567 14.5427 8.01661 14.5427 10.5096C14.5427 13.0025 12.5217 15.0234 10.0288 15.0234ZM10.0288 13.7734C11.8314 13.7734 13.2927 12.3122 13.2927 10.5096C13.2927 8.70696 11.8314 7.24567 10.0288 7.24567C8.2262 7.24567 6.7649 8.70696 6.7649 10.5096C6.7649 12.3122 8.2262 13.7734 10.0288 13.7734ZM18.9577 9.82984V11.1692C18.9585 11.7587 18.5602 12.274 17.9895 12.4216L16.984 12.6818C16.8535 13.1011 16.6851 13.5078 16.481 13.8966L17.0073 14.7905C17.3061 15.2978 17.224 15.943 16.8077 16.3593L15.8599 17.307C15.4436 17.7234 14.7984 17.8055 14.2911 17.5067L13.3972 16.9804C13.0175 17.1796 12.621 17.3447 12.2121 17.4738L11.9495 18.4894C11.8022 19.0598 11.2878 19.4582 10.6988 19.4582H9.35831C8.76947 19.458 8.2553 19.0596 8.10797 18.489L7.84871 17.4819C7.43565 17.3528 7.03498 17.187 6.6515 16.9865L5.73012 17.5292C5.22279 17.828 4.57761 17.7459 4.1613 17.3296L3.21353 16.3818C2.79719 15.9655 2.71508 15.3203 3.0136 14.8134L3.55469 13.8929C3.3533 13.5083 3.18686 13.1063 3.0574 12.6918L2.00977 12.4205C1.43962 12.2733 1.04121 11.7592 1.04102 11.1701V9.82989C1.04096 9.24085 1.43943 8.72639 2.00948 8.5792L3.07105 8.30458C3.19736 7.90871 3.35746 7.52443 3.5496 7.15599L2.99136 6.20811C2.69258 5.70078 2.77469 5.05559 3.19102 4.63928L4.13879 3.69152C4.55511 3.27518 5.20029 3.19307 5.70758 3.49182L6.65562 4.05004C7.03406 3.85252 7.42921 3.68882 7.83645 3.56085L8.10808 2.51025C8.25529 1.94011 8.76947 1.5417 9.35852 1.5415H10.6987C11.2878 1.54145 11.8022 1.93992 11.9495 2.51032L12.2221 3.56667C12.6255 3.69454 13.0168 3.85747 13.3917 4.05359L14.3119 3.51268C14.8192 3.2139 15.4644 3.29601 15.8807 3.71234L16.8282 4.65983C17.2446 5.07615 17.3267 5.72133 17.0279 6.22862L16.4854 7.15006C16.6807 7.52372 16.843 7.91372 16.9705 8.31561L17.9891 8.57918C18.5594 8.7265 18.9577 9.24092 18.9577 9.82984ZM17.6764 9.78944L16.3128 9.43658C16.0935 9.37983 15.922 9.20884 15.8647 8.98967C15.7241 8.45228 15.5096 7.93701 15.2272 7.45864C15.1117 7.26285 15.1115 7.01975 15.2269 6.82384L15.9508 5.59434C15.9604 5.57798 15.9578 5.55716 15.9444 5.54372L14.9968 4.59621C14.9834 4.58278 14.9626 4.58013 14.9458 4.59003L13.7172 5.31225C13.5213 5.42742 13.2783 5.42716 13.0826 5.31158C12.6032 5.02841 12.0867 4.81335 11.548 4.67259C11.3286 4.61527 11.1575 4.44363 11.1008 4.22407L10.7392 2.82275C10.7344 2.80436 10.7179 2.7915 10.6988 2.7915H9.35872C9.33973 2.79151 9.32314 2.80436 9.31834 2.82295L8.95723 4.21962C8.90034 4.43963 8.72853 4.61143 8.50851 4.66829C7.9662 4.80844 7.44619 5.02386 6.96365 5.30827C6.76791 5.42364 6.52497 5.4237 6.32918 5.30841L5.0733 4.56894C5.05693 4.5593 5.03612 4.56195 5.02268 4.57539L4.07489 5.52318C4.06146 5.53661 4.05881 5.55742 4.06845 5.57378L4.80789 6.82934C4.92317 7.02507 4.92317 7.26793 4.8079 7.46366C4.52873 7.9377 4.31609 8.44789 4.17595 8.97988C4.11834 9.19859 3.94707 9.36911 3.7281 9.42575L2.32227 9.78944C2.30387 9.79419 2.29101 9.81078 2.29102 9.82984V11.1699C2.29102 11.1889 2.30387 11.2055 2.3227 11.2104L3.71714 11.5715C3.93743 11.6285 4.10931 11.8008 4.16586 12.0212C4.30661 12.5699 4.52437 13.0958 4.81264 13.5834C4.92834 13.7791 4.92864 14.0222 4.81343 14.2182L4.09095 15.4473C4.08131 15.4636 4.08396 15.4845 4.0974 15.4979L5.04519 16.4457C5.05862 16.4591 5.07943 16.4618 5.09576 16.4521L6.3252 15.728C6.52117 15.6126 6.76437 15.6127 6.96021 15.7283C7.4471 16.0159 7.97221 16.2331 8.51993 16.3736C8.74066 16.4302 8.91308 16.6025 8.96989 16.8232L9.31839 18.1769C9.32314 18.1953 9.33973 18.2082 9.35852 18.2082H10.6988C10.7179 18.2082 10.7344 18.1953 10.7393 18.1767L11.0912 16.8156C11.148 16.5959 11.3194 16.4243 11.539 16.3672C12.0827 16.2258 12.6038 16.0087 13.0872 15.7224C13.2831 15.6063 13.5266 15.606 13.7229 15.7215L14.9254 16.4296C14.9418 16.4393 14.9626 16.4366 14.976 16.4232L15.9238 15.4754C15.9372 15.462 15.9399 15.4411 15.9302 15.4247L15.2222 14.2222C15.1066 14.026 15.107 13.7824 15.2231 13.5865C15.5142 13.0953 15.7337 12.5651 15.8749 12.0119C15.9312 11.7911 16.1033 11.6185 16.3239 11.5614L17.6765 11.2114C17.6949 11.2067 17.7077 11.19 17.7077 11.1701V9.82978C17.7077 9.81078 17.6948 9.79419 17.6764 9.78944Z" />
</svg>
