<svg width="22" height="22" viewBox="0 0 22 22" stroke-width="0" xmlns="http://www.w3.org/2000/svg">
<path d="M21.3125 0H0.6875C0.331547 0 0.0429688 0.288578 0.0429688 0.644531C0.0429688 1.00048 0.331547 1.28906 0.6875 1.28906H2.10547V4.39957C1.97115 4.35282 1.81246 4.29206 1.62589 4.21326C1.42682 4.12917 1.19891 4.15039 1.01883 4.26976C0.83875 4.38913 0.730469 4.59082 0.730469 4.80691V20.9632C0.730469 21.2222 0.8855 21.4561 1.12411 21.5569C1.82974 21.855 2.36156 22 2.75 22C3.80918 22 4.48456 21.5825 4.93144 21.3062C5.00371 21.2615 5.07199 21.2194 5.13446 21.1834C5.63673 20.8937 6.39564 20.582 6.875 20.582C7.73691 20.582 8.2002 20.9004 8.57244 21.1562L8.61094 21.1826C9.08351 21.5081 9.79778 22 11 22C12.1723 22 12.8798 21.5243 13.348 21.2096L13.4203 21.1611C13.8469 20.8764 14.288 20.582 15.125 20.582C15.9726 20.582 16.3875 20.8623 16.8267 21.1591L16.8852 21.1988C17.3553 21.5178 18.0657 22 19.25 22C19.606 22 19.8945 21.7114 19.8945 21.3555V5.19922C19.8945 4.84327 19.606 4.55469 19.25 4.55469C18.4618 4.55469 18.0284 4.26048 17.6092 3.97594L17.5483 3.93469C17.1437 3.66132 16.6176 3.30597 15.7695 3.18188V1.28906H21.3125C21.6685 1.28906 21.957 1.00048 21.957 0.644531C21.957 0.288578 21.6685 0 21.3125 0V0ZM10.3555 4.47863C9.93287 4.37125 9.63389 4.16573 9.34205 3.96473L9.30252 3.93753C8.94691 3.69316 8.39575 3.31461 7.51953 3.18343V1.28906H10.3555V4.47863ZM6.23047 1.28906V3.21282C5.42957 3.38714 4.66714 3.80854 4.49092 3.91016C4.4113 3.956 4.33112 4.00555 4.25361 4.0535C3.99682 4.21223 3.73398 4.37405 3.39453 4.46939V1.28906H6.23047ZM16.8852 5.04251C17.263 5.29895 17.796 5.6607 18.6055 5.79287V20.6342C18.1927 20.5283 17.8976 20.328 17.6092 20.1322L17.5483 20.0909C17.0499 19.7542 16.3672 19.293 15.125 19.293C13.8974 19.293 13.1797 19.7719 12.7047 20.0889L12.6288 20.1398C12.2112 20.4206 11.7793 20.7109 11 20.7109C10.1987 20.7109 9.76319 20.4111 9.34205 20.121L9.30252 20.0938C8.86664 19.7943 8.13712 19.293 6.875 19.293C5.88259 19.293 4.71462 19.9375 4.49092 20.0664C4.4113 20.1123 4.33112 20.1618 4.25361 20.2097C3.85503 20.4561 3.44291 20.7109 2.75 20.7109C2.69053 20.7109 2.48548 20.6951 2.01953 20.5252V5.72391C2.30506 5.80422 2.54706 5.84375 2.75 5.84375C3.80918 5.84375 4.48456 5.42622 4.93144 5.14998C5.00371 5.10529 5.07199 5.06314 5.13446 5.02713C5.63673 4.73748 6.39564 4.42578 6.875 4.42578C7.73691 4.42578 8.2002 4.74414 8.57244 4.99993L8.61094 5.0264C9.08351 5.35189 9.79778 5.84375 11 5.84375C12.1723 5.84375 12.8798 5.36809 13.348 5.05334L13.4203 5.00487C13.8469 4.72016 14.288 4.42578 15.125 4.42578C15.9726 4.42578 16.3875 4.70607 16.8267 5.00285L16.8852 5.04251ZM14.4805 3.18398C13.6342 3.31242 13.0897 3.67572 12.7047 3.93263L12.6288 3.98355C12.343 4.1757 12.0504 4.3722 11.6445 4.47721V1.28906H14.4805V3.18398Z" />
<path d="M5.5 10.0117C5.14405 10.0117 4.85547 10.3003 4.85547 10.6562V17.1875C4.85547 17.5435 5.14405 17.832 5.5 17.832C5.85595 17.832 6.14453 17.5435 6.14453 17.1875V10.6562C6.14453 10.3003 5.85595 10.0117 5.5 10.0117Z" />
<path d="M14.4805 6.875V13.4062C14.4805 13.7622 14.769 14.0508 15.125 14.0508C15.481 14.0508 15.7695 13.7622 15.7695 13.4062V6.875C15.7695 6.51905 15.481 6.23047 15.125 6.23047C14.769 6.23047 14.4805 6.51905 14.4805 6.875Z" />
<path d="M10.3125 7.26172C9.95655 7.26172 9.66797 7.5503 9.66797 7.90625V17.875C9.66797 18.231 9.95655 18.5195 10.3125 18.5195C10.6685 18.5195 10.957 18.231 10.957 17.875V7.90625C10.957 7.5503 10.6685 7.26172 10.3125 7.26172Z" />
</svg>
