<svg width="32" height="32" stroke-width="0" xmlns="http://www.w3.org/2000/svg">
<path d="M8.08734 3.08333C8 3.16667 8 3.22083 8 15.5C8 27.7792 8 27.8333 8.08734 27.9167C8.17469 28 8.23146 28 16.0357 28C23.84 28 23.8967 28 23.9841 27.9167C24.0714 27.8333 24.0714 27.7792 24.0714 15.5C24.0714 3.22083 24.0714 3.16667 23.9841 3.08333C23.8967 3 23.84 3 16.0357 3C8.23146 3 8.17469 3 8.08734 3.08333ZM23.591 3.75V4.08333H16.0357H8.4804V3.75V3.41667H16.0357H23.591V3.75ZM19.7828 4.84167L19.7959 5.16667H16.0357H12.2799V4.8625C12.2799 4.69167 12.293 4.54167 12.3105 4.52917C12.3236 4.5125 14.0093 4.50417 16.0532 4.5125L19.7697 4.52083L19.7828 4.84167ZM9.96526 13.0417V21.5417H9.22283H8.4804V13.0417V4.54167H9.22283H9.96526V13.0417ZM11.8432 13.0417V21.5417L11.1357 21.5333L10.4238 21.5208L10.4107 13.0833C10.4063 8.44167 10.4107 4.62083 10.4238 4.59167C10.4369 4.55417 10.6247 4.54167 11.1444 4.54167H11.8432V13.0417ZM21.6476 13.0417V21.5208L20.9401 21.5333L20.2283 21.5417V13.0417V4.54167L20.9401 4.55L21.6476 4.5625V13.0417ZM23.591 13.0417V21.5417H22.8486H22.1062V13.0417V4.54167H22.8486H23.591V13.0417ZM15.8174 5.95V6.32083L15.5641 6.3875C15.0313 6.52917 14.5945 6.96667 14.5945 7.3625C14.5945 7.65833 14.6076 7.65833 16.0313 7.66667C17.442 7.67083 17.4769 7.6625 17.4769 7.38333C17.4725 6.94583 17.0358 6.5125 16.455 6.37083L16.2541 6.325V5.95417V5.58333H18.0228H19.7915V12.5208V19.4583H16.0357H12.2799V12.5208V5.58333H14.0486H15.8174V5.95ZM16.4331 6.8125C16.634 6.87917 16.9528 7.1 16.9528 7.17083C16.9528 7.19167 16.5685 7.20833 16.0357 7.20833C15.5335 7.20833 15.1186 7.19167 15.1186 7.175C15.1186 7.1 15.3806 6.90833 15.5815 6.83333C15.8436 6.7375 16.1711 6.72917 16.4331 6.8125ZM19.7828 20.7167L19.7697 21.5208L16.027 21.5333L12.2799 21.5417V20.7292V19.9167H16.0357H19.7915L19.7828 20.7167ZM23.591 24.7708V27.5833H16.0357H8.4804V24.7708V21.9583H16.0357H23.591V24.7708Z" />
<path d="M10.9702 13.0837C10.8872 13.1628 10.8828 13.2212 10.8828 14.4503C10.8828 15.842 10.8959 15.917 11.123 15.917C11.3588 15.917 11.3632 15.8962 11.3632 14.4753C11.3632 13.2212 11.3588 13.1628 11.2759 13.0837C11.2278 13.0378 11.1579 13.0003 11.123 13.0003C11.0881 13.0003 11.0182 13.0378 10.9702 13.0837Z" />
<path d="M20.7983 13.0837C20.7153 13.1628 20.7109 13.2212 20.7109 14.4753C20.7109 15.8962 20.7153 15.917 20.9511 15.917C21.1739 15.917 21.187 15.842 21.1913 14.4545C21.1913 13.217 21.1913 13.167 21.104 13.0837C20.9948 12.9795 20.9075 12.9795 20.7983 13.0837Z" />
<path d="M14.6768 8.12503C14.5894 8.17503 14.489 8.5417 14.5283 8.66253C14.5414 8.70837 14.5938 8.75837 14.6419 8.77087C14.8384 8.83337 14.9607 8.7042 15.0131 8.3792C15.0524 8.1417 14.8777 8.01253 14.6768 8.12503Z" />
<path d="M15.8882 8.15033C15.8053 8.2295 15.7922 8.66699 15.8708 8.74199C15.9013 8.77116 15.9756 8.79199 16.0367 8.79199C16.207 8.79199 16.2551 8.71699 16.2551 8.4545C16.2551 8.20033 16.1852 8.08367 16.0367 8.08367C15.993 8.08367 15.9232 8.11284 15.8882 8.15033Z" />
<path d="M17.1069 8.1542C17.0501 8.2042 17.0414 8.26253 17.0588 8.3792C17.1112 8.7042 17.2335 8.83337 17.4301 8.77087C17.5524 8.73337 17.5829 8.60836 17.5218 8.37086C17.4519 8.09586 17.2685 8.00003 17.1069 8.1542Z" />
<path d="M14.3053 9.52144C14.2442 9.56311 14.1918 9.66727 14.1569 9.81311C14.1088 10.0173 14.1132 10.0506 14.1831 10.1256C14.3316 10.2839 14.4931 10.2048 14.5936 9.92144C14.6678 9.70894 14.6547 9.59644 14.5455 9.52561C14.4233 9.44227 14.4233 9.44227 14.3053 9.52144Z" />
<path d="M15.9144 9.52661C15.8358 9.58077 15.8184 9.63077 15.8184 9.83077C15.8184 10.0099 15.8402 10.0891 15.897 10.1391C16.0935 10.3058 16.2551 10.1641 16.2551 9.82244C16.2551 9.63077 16.2376 9.58077 16.159 9.52661C16.1066 9.4891 16.0498 9.45994 16.0367 9.45994C16.0236 9.45994 15.9668 9.4891 15.9144 9.52661Z" />
<path d="M17.5303 9.52561C17.4211 9.59644 17.408 9.70894 17.4822 9.92144C17.5827 10.2048 17.7443 10.2839 17.8927 10.1256C17.9626 10.0506 17.967 10.0173 17.9189 9.81311C17.884 9.66727 17.8316 9.56311 17.7705 9.52144C17.6525 9.44227 17.6525 9.44227 17.5303 9.52561Z" />
<path d="M13.8799 10.9372C13.81 11.008 13.7227 11.258 13.7227 11.3955C13.7227 11.5163 13.8056 11.583 13.9454 11.583C14.0939 11.583 14.1463 11.5205 14.2074 11.258C14.2555 11.0663 14.2511 11.033 14.1812 10.958C14.0851 10.858 13.9716 10.8497 13.8799 10.9372Z" />
<path d="M15.8882 10.9413C15.8053 11.0205 15.7922 11.458 15.8708 11.533C15.9013 11.5622 15.9756 11.583 16.0367 11.583C16.207 11.583 16.2551 11.508 16.2551 11.2455C16.2551 10.9913 16.1852 10.8747 16.0367 10.8747C15.993 10.8747 15.9232 10.9038 15.8882 10.9413Z" />
<path d="M17.894 10.958C17.8241 11.033 17.8198 11.0663 17.8678 11.258C17.9289 11.5205 17.9813 11.583 18.1298 11.583C18.3438 11.583 18.3962 11.4622 18.3089 11.158C18.2259 10.883 18.0469 10.7955 17.894 10.958Z" />
</svg>
