<svg width="24" height="24" viewBox="0 0 24 24" stroke-width="0" xmlns="http://www.w3.org/2000/svg">
<g clip-path="url(#clip0)">
<path d="M20.9995 10.8H10.5995V2.3264C11.2232 2.10675 11.5507 1.4231 11.331 0.799452C11.162 0.319652 10.7082 -0.000947814 10.1995 2.18596e-06H2.1995C1.5383 -0.00124781 1.00125 0.533752 1 1.19495C0.999052 1.70365 1.31965 2.1574 1.79945 2.3264V12C1.79945 12.6628 2.3367 13.2 2.99945 13.2H4.19945V16.8C4.20165 18.7873 5.81215 20.3978 7.79945 20.4V23.6C7.79945 23.8209 7.97855 24 8.19945 24H15.3995C15.6204 24 15.7995 23.8209 15.7995 23.6V20.3796C19.3895 20.1667 22.1935 17.1963 22.1995 13.6V13.2H22.5995C22.8204 13.2 22.9995 13.0209 22.9995 12.8C22.9982 11.696 22.1035 10.8013 20.9995 10.8ZM1.7995 1.2C1.7995 0.979102 1.9786 0.800002 2.1995 0.800002H10.1995C10.4204 0.800002 10.5995 0.979102 10.5995 1.2C10.5995 1.4209 10.4204 1.6 10.1995 1.6H2.1995C1.97855 1.6 1.7995 1.4209 1.7995 1.2ZM2.9995 12.4C2.7786 12.4 2.5995 12.2209 2.5995 12V2.4H9.7995V12.4H2.9995ZM14.9995 23.2H8.5995V20.4H14.9995V23.2ZM21.3995 13.6C21.3958 16.9122 18.7117 19.5963 15.3995 19.6H7.7995C6.25395 19.598 5.0015 18.3456 4.9995 16.8V13.2H21.3995V13.6ZM10.5995 12.4V11.6H20.9995C21.5079 11.6006 21.961 11.9209 22.1311 12.4H10.5995Z" />
</g>
<defs>
<clipPath id="clip0">
<rect width="24" height="24" fill="white"/>
</clipPath>
</defs>
</svg>
