<svg width="18" height="19" viewBox="0 0 18 19" stroke-width="0" xmlns="http://www.w3.org/2000/svg">
  <path d="M2.4375 6.58333H15.5625V16.0625C15.5625 17.2706 14.5831 18.25 13.375 18.25H4.625C3.41688 18.25 2.4375 17.2706 2.4375 16.0625V6.58333ZM6.8125 14.6042V9.5H5.35417V14.6042H6.8125ZM9.72917 14.6042V9.5H8.27083V14.6042H9.72917ZM12.6458 14.6042V9.5H11.1875V14.6042H12.6458ZM17.0208 3.66667C17.4235 3.66667 17.75 3.99313 17.75 4.39583C17.75 4.79854 17.4235 5.125 17.0208 5.125H0.979167C0.576459 5.125 0.25 4.79854 0.25 4.39583C0.25 3.99313 0.576459 3.66667 0.979167 3.66667H5.35417V1.47917C5.35417 1.07646 5.68063 0.75 6.08333 0.75H11.9167C12.3194 0.75 12.6458 1.07646 12.6458 1.47917V3.66667H17.0208ZM6.8125 2.20833V3.66667H11.1875V2.20833H6.8125Z" />
</svg>
