<svg width="28" height="28" viewBox="0 0 28 28" stroke-width="0" xmlns="http://www.w3.org/2000/svg">
  <path d="M27.9023 15.6603L24.2233 7.78125C24.1154 7.56064 23.8815 7.4307 23.6372 7.45569H20.5116C20.152 7.45569 19.8605 7.74722 19.8605 8.10686C19.8605 8.4665 20.152 8.75802 20.5116 8.75802H23.214L26.2419 15.2697H22.5303C20.8474 15.2614 19.3169 16.2434 18.6233 17.7767C18.1209 18.8313 17.0565 19.5028 15.8884 19.5023H12.1116C10.9435 19.5028 9.8792 18.8313 9.37673 17.7767C8.68306 16.2434 7.15259 15.2614 5.46974 15.2697H1.82325L5.40462 8.75802H7.48836C7.848 8.75802 8.13952 8.4665 8.13952 8.10686C8.13952 7.74722 7.848 7.45569 7.48836 7.45569H5.01395C4.77863 7.43338 4.55123 7.54712 4.4279 7.74872L0.130245 15.6278C0.0549024 15.6946 0.00822602 15.7879 0 15.8883V23.9953C0.0518489 25.8201 1.52829 27.2822 3.35347 27.3162H24.6465C26.4718 27.2822 27.9482 25.8201 28 23.9953V15.8883C27.9876 15.8052 27.9539 15.7266 27.9023 15.6603ZM26.6977 23.9952C26.6471 25.1009 25.7529 25.9809 24.6465 26.0138H3.35347C2.24707 25.9809 1.35293 25.101 1.30233 23.9952V16.572H5.46974C6.6379 16.5715 7.70217 17.243 8.20464 18.2976C8.89831 19.8309 10.4288 20.8129 12.1116 20.8046H15.8884C17.5712 20.8129 19.1017 19.8309 19.7954 18.2976C20.2978 17.243 21.3621 16.5715 22.5303 16.572H26.6977V23.9952Z" />
  <path d="M13.5446 15.758C13.7755 16.0098 14.1669 16.0266 14.4186 15.7956C14.4317 15.7837 14.4442 15.7711 14.4562 15.758L18.8841 11.2975C19.0998 11.0098 19.0415 10.6017 18.7538 10.3859C18.5223 10.2123 18.2039 10.2123 17.9724 10.3859L14.6515 13.7068V1.33476C14.6515 0.975119 14.3599 0.683594 14.0003 0.683594C13.6407 0.683594 13.3491 0.975119 13.3491 1.33476V13.7069L10.0282 10.3859C9.74047 10.1702 9.33235 10.2285 9.11654 10.5162C8.94292 10.7477 8.94292 11.0661 9.11654 11.2976L13.5446 15.758Z" />
</svg>
