<svg width="18" height="19" viewBox="0 0 18 19" fill="none" xmlns="http://www.w3.org/2000/svg">
  <path d="M6.2 6C6.2 4.45285 7.45285 3.2 9 3.2C10.5472 3.2 11.8 4.45285 11.8 6C11.8 7.54715 10.5472 8.8 9 8.8C7.45285 8.8 6.2 7.54715 6.2 6ZM2.7 13.875C2.7 13.5502 2.85714 13.2139 3.23997 12.8606C3.62757 12.5029 4.19795 12.1769 4.88422 11.902C6.25787 11.3517 7.91938 11.075 9 11.075C10.0806 11.075 11.7421 11.3517 13.1158 11.902C13.802 12.1769 14.3724 12.5029 14.76 12.8606C15.1429 13.2139 15.3 13.5502 15.3 13.875V15.8H2.7V13.875Z" stroke-width="1.4"/>
</svg>
