<svg width="24" height="24" viewBox="0 0 24 24" stroke-width="0" xmlns="http://www.w3.org/2000/svg">
<path d="M24 8V6.8C24 6.5791 23.8209 6.4 23.6 6.4H13.2V3.6C13.2 2.93725 13.7373 2.4 14.4 2.4C15.0627 2.4 15.6 2.93725 15.6 3.6C15.6 3.8209 15.7791 4 16 4H17.6C17.8209 4 18 3.8209 18 3.6C18 1.61175 16.3883 0 14.4 0C12.4118 0 10.8 1.61175 10.8 3.6V6.4H7.6532L7.9968 3.6496C8.0242 3.4304 7.8687 3.2305 7.6495 3.2031C7.63305 3.20105 7.61655 3.2 7.6 3.2H4.4C4.1791 3.20005 4.00005 3.3792 4.0001 3.6001C4.0001 3.61665 4.00115 3.63315 4.0032 3.6496L4.3468 6.4H0.4C0.1791 6.4 0 6.5791 0 6.8V8C0.0026 9.7228 1.0098 11.2858 2.5776 12H0.4C0.1791 12 0 12.1791 0 12.4V14C0 14.2209 0.1791 14.4 0.4 14.4H0.8V23.6C0.8 23.8209 0.9791 24 1.2 24H2.8C3.0209 24 3.2 23.8209 3.2 23.6V18.4H20.8V23.6C20.8 23.8209 20.9791 24 21.2 24H22.8C23.0209 24 23.2 23.8209 23.2 23.6V14.4H23.6C23.8209 14.4 24 14.2209 24 14V12.4C24 12.1791 23.8209 12 23.6 12H21.4224C22.9902 11.2858 23.9974 9.7228 24 8ZM11.6 3.6C11.5988 2.0536 12.8514 0.799 14.3978 0.7978C15.7914 0.7967 16.9736 1.8206 17.1716 3.2H16.36C16.1402 2.1175 15.0845 1.4182 14.002 1.638C13.0692 1.8274 12.399 2.6481 12.4 3.6V6.4H11.6V3.6ZM7.1468 4L6.8468 6.4H5.1532L4.8532 4H7.1468ZM2.4 23.2H1.6V14.4H2.4V23.2ZM20.8 17.6H3.2V14.4H20.8V17.6ZM22.4 23.2H21.6V14.4H22.4V23.2ZM23.2 12.8V13.6H0.8V12.8H23.2ZM19.6 11.6H4.4C2.4127 11.5978 0.8022 9.9873 0.8 8V7.2H23.2V8C23.1978 9.9873 21.5873 11.5978 19.6 11.6Z" />
<path d="M13.2008 15.2H10.8008V16H13.2008V15.2Z"/>
</svg>
