<svg width="33" height="33" viewBox="0 0 33 33" fill="none" xmlns="http://www.w3.org/2000/svg">
<path d="M28.5203 9.99256V5.8667H20.891M28.5203 9.99256H31.5344V14.1184H27.9552M28.5203 9.99256H23.905M20.891 9.99256V5.8667M20.891 9.99256H16.0873M20.891 9.99256H23.905M20.891 5.8667H13.1203M13.1203 5.8667H5.34967V9.99256H8.36373M13.1203 5.8667V9.99256M13.1203 9.99256H8.36373M13.1203 9.99256H16.0873M8.36373 9.99256V14.1184M8.36373 14.1184H4.78453V18.3402M8.36373 14.1184H12.3197M4.78453 18.3402H0.734375V22.3701H4.78453M4.78453 18.3402H8.55211M4.78453 22.3701V26.4H12.3197M4.78453 22.3701H8.55211M12.3197 26.4H20.1374M12.3197 26.4V22.3701M20.1374 26.4H27.9552V22.3701M20.1374 26.4L19.9961 22.3701M27.9552 22.3701H31.5344V18.3402H28.5203M27.9552 22.3701H23.905M27.9552 14.1184V18.3402H28.5203M27.9552 14.1184C25.3493 14.1184 20.891 14.1184 23.905 14.1184M16.0873 9.99256V14.1184M16.0873 14.1184H12.3197M16.0873 14.1184H20.1374M12.3197 14.1184V18.3402M12.3197 18.3402H8.55211M12.3197 18.3402H16.0873M8.55211 18.3402V22.3701M8.55211 22.3701H12.3197M12.3197 22.3701H16.0873M16.0873 22.3701V18.3402M16.0873 22.3701H19.9961M16.0873 18.3402H20.1374M20.1374 18.3402H23.905M20.1374 18.3402V14.1184M23.905 18.3402H28.5203M23.905 18.3402V22.3701M23.905 22.3701H19.9961M20.1374 14.1184H23.905M23.905 14.1184V9.99256"/>
</svg>
