<svg width="36" height="36" viewBox="0 0 36 36" fill="none" xmlns="http://www.w3.org/2000/svg">
<path d="M7.2002 19.2001H32.4002V31.2001C32.4002 32.8569 31.057 34.2001 29.4002 34.2001H7.2002V19.2001Z" fill="url(#paint0_linear)"/>
<path d="M26.3574 23.2288H27.5146C27.5146 23.3943 27.4737 23.5556 27.3977 23.6891C27.3216 23.8226 27.2145 23.9214 27.0919 23.9711C27.0413 23.9906 26.9888 24.0004 26.936 24.0002C26.6191 24.0002 26.3623 23.6557 26.3574 23.2288Z" fill="#F8EC7D"/>
<path d="M26.937 21.6858C26.8859 21.6858 26.8368 21.6642 26.8006 21.6257C26.7645 21.5872 26.7441 21.535 26.7441 21.4805V18.8054C26.7441 18.751 26.7645 18.6988 26.8006 18.6602C26.8368 18.6217 26.8859 18.6001 26.937 18.6001C26.9882 18.6001 27.0372 18.6217 27.0734 18.6602C27.1095 18.6988 27.1299 18.751 27.1299 18.8054V21.4805C27.1299 21.535 27.1095 21.5872 27.0734 21.6257C27.0372 21.6642 26.9882 21.6858 26.937 21.6858Z" fill="url(#paint1_linear)"/>
<path d="M28.6717 22.9073V23.2289H25.2002V22.9073C25.2002 22.4811 25.3831 22.0724 25.7086 21.771C26.0341 21.4697 26.4756 21.3003 26.9359 21.3003C26.9953 21.3002 27.0545 21.303 27.1136 21.3086C27.5409 21.3494 27.9366 21.5355 28.2244 21.8307C28.5122 22.126 28.6715 22.5096 28.6717 22.9073Z" fill="url(#paint2_linear)"/>
<path d="M26.5454 22.8429C26.5115 22.8429 26.4783 22.8339 26.4492 22.8169C26.4201 22.7999 26.3962 22.7755 26.3801 22.7462C26.364 22.717 26.3562 22.6841 26.3576 22.6509C26.359 22.6177 26.3695 22.5855 26.388 22.5576C26.5055 22.3807 26.6562 22.2272 26.8321 22.1054C26.8522 22.0914 26.875 22.0814 26.8991 22.0761C26.9232 22.0707 26.9482 22.0701 26.9725 22.0742C26.9969 22.0783 27.0202 22.0871 27.0411 22.1C27.062 22.1129 27.0801 22.1297 27.0943 22.1495C27.1086 22.1693 27.1187 22.1917 27.1242 22.2153C27.1297 22.2389 27.1303 22.2634 27.1261 22.2872C27.122 22.3111 27.113 22.334 27.0998 22.3545C27.0867 22.3749 27.0695 22.3927 27.0493 22.4067C26.9122 22.5016 26.7947 22.6213 26.7032 22.7593C26.6861 22.785 26.6627 22.8061 26.6351 22.8207C26.6076 22.8353 26.5767 22.843 26.5454 22.8429Z" fill="#90A5A2"/>
<path fill-rule="evenodd" clip-rule="evenodd" d="M3.59961 16.2001V31.2001C3.59961 32.8569 4.94276 34.2001 6.59961 34.2001H19.1996V32.5001C19.1996 31.9478 18.7519 31.5001 18.1996 31.5001H16.1996V29.8001C16.1996 29.2478 15.7519 28.8001 15.1996 28.8001H13.1996V26.8001C13.1996 26.2478 12.7519 25.8001 12.1996 25.8001H10.1996V23.8001C10.1996 23.2478 9.75189 22.8001 9.19961 22.8001H7.19961V19.4741H32.3996V16.2001H3.59961Z" fill="url(#paint3_linear)"/>
<path d="M1.7998 14.2V3.80005C1.7998 2.69548 2.69524 1.80005 3.7998 1.80005H32.1998C33.3044 1.80005 34.1998 2.69548 34.1998 3.80005V14.2C34.1998 15.3046 33.3044 16.2 32.1998 16.2H18.8524H3.7998C2.69524 16.2 1.7998 15.3046 1.7998 14.2Z" fill="url(#paint4_linear)"/>
<path d="M6.59961 10V7.40002C6.59961 6.29546 7.49504 5.40002 8.59961 5.40002H11.1996C12.3042 5.40002 13.1996 6.29546 13.1996 7.40003V10C13.1996 11.1046 12.3042 12 11.1996 12H8.59961C7.49504 12 6.59961 11.1046 6.59961 10Z" fill="#D4E1F4"/>
<rect x="7.2002" y="19.2001" width="25.2" height="0.600002" fill="#4F95FC"/>
<path d="M21 16.2001V6.20007C21 5.0955 21.8954 4.20007 23 4.20007H26.8C27.9046 4.20007 28.8 5.0955 28.8 6.20007V16.2001H21Z" fill="#D4E1F4"/>
<path d="M26.8731 10.3146L26.8582 10.3378C26.8271 10.3861 26.8105 10.4424 26.8105 10.4999V11.8063C26.8105 11.8638 26.8271 11.9201 26.8582 11.9684L26.8731 11.9916C26.919 12.063 26.998 12.1061 27.0828 12.1061C27.1677 12.1061 27.2467 12.063 27.2926 11.9916L27.3075 11.9684C27.3386 11.9201 27.3551 11.8638 27.3551 11.8063V10.4999C27.3551 10.4424 27.3386 10.3861 27.3075 10.3378L27.2926 10.3146C27.2467 10.2432 27.1677 10.2001 27.0828 10.2001C26.998 10.2001 26.919 10.2432 26.8731 10.3146Z" fill="url(#paint5_linear)"/>
<path d="M29.9359 34.1999H24.0615C23.945 34.1999 23.8506 34.1055 23.8506 33.989V28.1146C23.8506 27.9981 23.945 27.9037 24.0615 27.9037H29.9359C30.0524 27.9037 30.1468 27.9981 30.1468 28.1146V33.989C30.1468 34.1055 30.0524 34.1999 29.9359 34.1999Z" fill="url(#paint6_linear)"/>
<path d="M30.1472 33.989V28.1146C30.1472 27.9981 30.0527 27.9037 29.9362 27.9037H26.999V34.1999H29.9362C30.0527 34.1999 30.1472 34.1055 30.1472 33.989Z" fill="url(#paint7_linear)"/>
<path d="M26.9983 33.2961C28.2378 33.2961 29.2427 32.2913 29.2427 31.0517C29.2427 29.8122 28.2378 28.8074 26.9983 28.8074C25.7587 28.8074 24.7539 29.8122 24.7539 31.0517C24.7539 32.2913 25.7587 33.2961 26.9983 33.2961Z" fill="white"/>
<path d="M29.2434 31.0517C29.2434 29.8142 28.2366 28.8074 26.999 28.8074V33.2961C28.2366 33.2961 29.2434 32.2893 29.2434 31.0517Z" fill="#F1EEEE"/>
<path d="M25.8682 28.1147V27.2109C25.8682 27.0944 25.9626 27 26.0791 27H29.935C30.0515 27 30.146 27.0944 30.146 27.2109V28.1147H25.8682Z" fill="url(#paint8_linear)"/>
<path d="M23.8516 28.1149V27.2112C23.8516 27.0947 23.946 27.0002 24.0625 27.0002H24.9663C25.0827 27.0002 25.1772 27.0947 25.1772 27.2112V28.1149H23.8516Z" fill="url(#paint9_linear)"/>
<path d="M30.1472 27.2109C30.1472 27.0944 30.0527 27 29.9362 27H26.999V28.1147H30.1472V27.2109Z" fill="url(#paint10_linear)"/>
<path d="M24.9648 27H26.0795V28.1147H24.9648V27Z" fill="url(#paint11_linear)"/>
<path d="M26.9978 32.3925C27.7383 32.3925 28.3385 31.7923 28.3385 31.0519C28.3385 30.3115 27.7383 29.7113 26.9978 29.7113C26.2574 29.7113 25.6572 30.3115 25.6572 31.0519C25.6572 31.7923 26.2574 32.3925 26.9978 32.3925Z" fill="#DEDEDE"/>
<path d="M28.3397 31.0519C28.3397 30.3127 27.7382 29.7113 26.999 29.7113V32.3926C27.7383 32.3926 28.3397 31.7911 28.3397 31.0519Z" fill="#C0B5B5"/>
<defs>
<linearGradient id="paint0_linear" x1="19.8002" y1="19.2001" x2="19.8002" y2="34.2001" gradientUnits="userSpaceOnUse">
<stop stop-color="#00F1FF"/>
<stop offset="1" stop-color="#AAEBFF"/>
</linearGradient>
<linearGradient id="paint1_linear" x1="26.937" y1="18.6001" x2="26.937" y2="21.6858" gradientUnits="userSpaceOnUse">
<stop stop-color="#A2B4CC"/>
<stop offset="1" stop-color="#404E62"/>
</linearGradient>
<linearGradient id="paint2_linear" x1="26.9359" y1="21.3003" x2="26.9359" y2="23.2289" gradientUnits="userSpaceOnUse">
<stop stop-color="#A2B4CC"/>
<stop offset="1" stop-color="#404E62"/>
</linearGradient>
<linearGradient id="paint3_linear" x1="17.9996" y1="17.4001" x2="17.9996" y2="34.2001" gradientUnits="userSpaceOnUse">
<stop stop-color="#A2B4CC"/>
<stop offset="1" stop-color="#404E62"/>
</linearGradient>
<linearGradient id="paint4_linear" x1="8.09981" y1="-8.69995" x2="8.09981" y2="16.2" gradientUnits="userSpaceOnUse">
<stop stop-color="#00E0FF"/>
<stop offset="1" stop-color="#006ED3"/>
</linearGradient>
<linearGradient id="paint5_linear" x1="26.6867" y1="8.44166" x2="26.6867" y2="12.1061" gradientUnits="userSpaceOnUse">
<stop stop-color="#00E0FF"/>
<stop offset="1" stop-color="#0085FF"/>
</linearGradient>
<linearGradient id="paint6_linear" x1="22.4189" y1="22.0952" x2="22.4189" y2="34.1999" gradientUnits="userSpaceOnUse">
<stop stop-color="#00E0FF"/>
<stop offset="1" stop-color="#0085FF"/>
</linearGradient>
<linearGradient id="paint7_linear" x1="26.2832" y1="22.0952" x2="26.2832" y2="34.1999" gradientUnits="userSpaceOnUse">
<stop stop-color="#00E0FF"/>
<stop offset="1" stop-color="#006FD6"/>
</linearGradient>
<linearGradient id="paint8_linear" x1="25.1182" y1="25.9936" x2="25.0828" y2="28.3385" gradientUnits="userSpaceOnUse">
<stop offset="0.486436" stop-color="#00A2FF"/>
<stop offset="1" stop-color="#1267B6"/>
</linearGradient>
<linearGradient id="paint9_linear" x1="23.6192" y1="25.9939" x2="23.505" y2="28.3337" gradientUnits="userSpaceOnUse">
<stop offset="0.486436" stop-color="#00A2FF"/>
<stop offset="1" stop-color="#1267B6"/>
</linearGradient>
<linearGradient id="paint10_linear" x1="26.2832" y1="25.9717" x2="26.2832" y2="28.1147" gradientUnits="userSpaceOnUse">
<stop stop-color="#00E0FF"/>
<stop offset="1" stop-color="#006FD6"/>
</linearGradient>
<linearGradient id="paint11_linear" x1="25.5222" y1="27" x2="25.5222" y2="28.1147" gradientUnits="userSpaceOnUse">
<stop stop-color="#A2B4CC"/>
<stop offset="1" stop-color="#404E62"/>
</linearGradient>
</defs>
</svg>
