<svg width="39" height="39" viewBox="0 0 39 39" fill="none" xmlns="http://www.w3.org/2000/svg">
<path d="M5.98537 17.6861C6.12964 17.6861 6.268 17.6275 6.37001 17.5233C6.47202 17.4191 6.52934 17.2778 6.52934 17.1305V6.74609C6.52934 6.74275 6.52934 6.73961 6.52934 6.73627C6.52979 5.38505 7.63676 4.2857 8.9973 4.2857C9.56833 4.2804 10.1233 4.47876 10.5665 4.8466C11.0096 5.21444 11.3133 5.72869 11.425 6.30068L9.90989 6.66414C9.83948 6.67993 9.77283 6.70987 9.71384 6.7522C9.65485 6.79454 9.60469 6.84843 9.56627 6.91074C9.52785 6.97306 9.50194 7.04255 9.49005 7.11518C9.47816 7.18781 9.48053 7.26213 9.49701 7.33382C9.51349 7.40551 9.54376 7.47314 9.58606 7.53277C9.62836 7.59241 9.68184 7.64286 9.7434 7.68119C9.80496 7.71953 9.87336 7.74498 9.94464 7.75607C10.0159 7.76716 10.0886 7.76367 10.1586 7.7458L12.0625 7.2891C12.1086 7.28427 12.154 7.27338 12.1974 7.25669L14.0879 6.80295C14.1579 6.78668 14.224 6.75645 14.2825 6.71398C14.3409 6.67151 14.3906 6.61764 14.4286 6.55548C14.4666 6.49332 14.4922 6.42409 14.5039 6.35179C14.5156 6.27949 14.5132 6.20553 14.4968 6.13419C14.4804 6.06284 14.4503 5.99552 14.4083 5.93609C14.3663 5.87666 14.3133 5.8263 14.2522 5.78791C14.191 5.74953 14.1231 5.72387 14.0522 5.71242C13.9813 5.70096 13.909 5.70395 13.8392 5.72119L12.4849 6.04603C12.3162 5.23041 11.877 4.49926 11.2416 3.97609C10.6062 3.45291 9.81346 3.16977 8.9973 3.1745C7.04628 3.1745 5.45782 4.75713 5.44258 6.70812C5.44258 6.71627 5.44141 6.72414 5.44141 6.73238V17.1305C5.44141 17.2778 5.49872 17.4191 5.60073 17.5233C5.70274 17.6275 5.8411 17.6861 5.98537 17.6861Z" fill="#979898"/>
<path d="M5.98537 17.6861C6.12964 17.6861 6.268 17.6275 6.37001 17.5233C6.47202 17.4191 6.52934 17.2778 6.52934 17.1305V6.74609C6.52934 6.74275 6.52934 6.73961 6.52934 6.73627C6.52979 5.38505 7.63676 4.2857 8.9973 4.2857C9.56833 4.2804 10.1233 4.47876 10.5665 4.8466C11.0096 5.21444 11.3133 5.72869 11.425 6.30068L9.90989 6.66414C9.83948 6.67993 9.77283 6.70987 9.71384 6.7522C9.65485 6.79454 9.60469 6.84843 9.56627 6.91074C9.52785 6.97306 9.50194 7.04255 9.49005 7.11518C9.47816 7.18781 9.48053 7.26213 9.49701 7.33382C9.51349 7.40551 9.54376 7.47314 9.58606 7.53277C9.62836 7.59241 9.68184 7.64286 9.7434 7.68119C9.80496 7.71953 9.87336 7.74498 9.94464 7.75607C10.0159 7.76716 10.0886 7.76367 10.1586 7.7458L12.0625 7.2891C12.1086 7.28427 12.154 7.27338 12.1974 7.25669L14.0879 6.80295C14.1579 6.78668 14.224 6.75645 14.2825 6.71398C14.3409 6.67151 14.3906 6.61764 14.4286 6.55548C14.4666 6.49332 14.4922 6.42409 14.5039 6.35179C14.5156 6.27949 14.5132 6.20553 14.4968 6.13419C14.4804 6.06284 14.4503 5.99552 14.4083 5.93609C14.3663 5.87666 14.3133 5.8263 14.2522 5.78791C14.191 5.74953 14.1231 5.72387 14.0522 5.71242C13.9813 5.70096 13.909 5.70395 13.8392 5.72119L12.4849 6.04603C12.3162 5.23041 11.877 4.49926 11.2416 3.97609C10.6062 3.45291 9.81346 3.16977 8.9973 3.1745C7.04628 3.1745 5.45782 4.75713 5.44258 6.70812C5.44258 6.71627 5.44141 6.72414 5.44141 6.73238V17.1305C5.44141 17.2778 5.49872 17.4191 5.60073 17.5233C5.70274 17.6275 5.8411 17.6861 5.98537 17.6861Z" fill="url(#paint0_linear)"/>
<path d="M37.1109 16.736H31.6685H24.5298H1.88906C1.25684 16.736 0.761719 17.4094 0.761719 18.269V18.4466C0.761719 19.0802 1.03121 19.6115 1.42586 19.8481C1.57113 25.6712 5.45292 30.5082 10.5823 32.9519C10.9481 33.1245 11.3476 33.2139 11.752 33.2136L27.356 33.2159H27.3566C27.7792 33.2162 28.1962 33.1186 28.5749 32.931C31.2553 31.5929 33.5039 29.6743 35.0777 27.3827C36.6416 25.1051 37.4972 22.5095 37.5629 19.8553C37.9641 19.622 38.2383 19.0862 38.2383 18.4466V18.269C38.2383 17.4094 37.7432 16.736 37.1109 16.736Z" fill="#979898"/>
<path d="M37.1109 16.736H31.6685H24.5298H1.88906C1.25684 16.736 0.761719 17.4094 0.761719 18.269V18.4466C0.761719 19.0802 1.03121 19.6115 1.42586 19.8481C1.57113 25.6712 5.45292 30.5082 10.5823 32.9519C10.9481 33.1245 11.3476 33.2139 11.752 33.2136L27.356 33.2159H27.3566C27.7792 33.2162 28.1962 33.1186 28.5749 32.931C31.2553 31.5929 33.5039 29.6743 35.0777 27.3827C36.6416 25.1051 37.4972 22.5095 37.5629 19.8553C37.9641 19.622 38.2383 19.0862 38.2383 18.4466V18.269C38.2383 17.4094 37.7432 16.736 37.1109 16.736Z" fill="url(#paint1_linear)"/>
<path d="M32.6506 27.0018C32.6506 28.3665 31.6343 29.4767 30.3853 29.4767H25.3928C24.1436 29.4767 23.1276 28.3665 23.1276 27.0018C23.1276 23.5942 23.7405 12.9243 23.5809 16.779C23.4214 20.6337 23.6146 16.7797 23.791 16.779C26.7442 16.779 29.6974 16.7833 32.6506 16.779C32.6523 20.1866 32.6506 23.5942 32.6506 27.0018Z" fill="black" fill-opacity="0.05"/>
<path d="M23.6153 17.3638V26.4976C23.6153 27.8006 24.5722 28.8608 25.7481 28.8608H30.4487C31.6249 28.8608 32.5815 27.8006 32.5815 26.4976V17.3638C32.5817 17.1978 32.5816 16.736 32.5816 16.736C32.5816 16.736 32.1229 16.7366 31.9569 16.736H24.2399C24.0614 16.7366 23.6153 16.736 23.6153 16.736C23.6153 16.736 23.6151 17.2014 23.6153 17.3638Z" fill="#979898"/>
<path d="M23.6153 17.3638V26.4976C23.6153 27.8006 24.5722 28.8608 25.7481 28.8608H30.4487C31.6249 28.8608 32.5815 27.8006 32.5815 26.4976V17.3638C32.5817 17.1978 32.5816 16.736 32.5816 16.736C32.5816 16.736 32.1229 16.7366 31.9569 16.736H24.2399C24.0614 16.7366 23.6153 16.736 23.6153 16.736C23.6153 16.736 23.6151 17.2014 23.6153 17.3638Z" fill="url(#paint2_linear)"/>
<path d="M3.91699 18.5279V18.3582C3.91699 18.0015 4.06569 17.791 4.12553 17.7667H1.94193C1.8821 17.791 1.7334 18.0017 1.7334 18.3582V18.5279C1.7334 18.8837 1.88217 19.0946 1.94215 19.1193H4.12574C4.06577 19.0946 3.91699 18.8837 3.91699 18.5279Z" fill="white" fill-opacity="0.05"/>
<path d="M13.3408 31.7051C13.0842 31.7056 12.8306 31.6491 12.5984 31.5399C7.57714 29.1477 4.52163 24.8319 4.35059 19.9333H2.16699C2.33804 24.8319 5.39354 29.1481 10.4149 31.5403C10.6472 31.6495 10.9007 31.7059 11.1574 31.7055L26.0678 31.7077H26.0786L13.3408 31.7051Z" fill="url(#paint3_linear)" fill-opacity="0.05"/>
<defs>
<linearGradient id="paint0_linear" x1="9.97629" y1="3.17444" x2="9.97629" y2="17.6861" gradientUnits="userSpaceOnUse">
<stop stop-color="#A2B4CC"/>
<stop offset="1" stop-color="#404E62"/>
</linearGradient>
<linearGradient id="paint1_linear" x1="-7.76009" y1="1.53267" x2="-7.76009" y2="33.2159" gradientUnits="userSpaceOnUse">
<stop stop-color="#00E0FF"/>
<stop offset="1" stop-color="#0085FF"/>
</linearGradient>
<linearGradient id="paint2_linear" x1="28.0984" y1="16.736" x2="28.0984" y2="28.8608" gradientUnits="userSpaceOnUse">
<stop stop-color="#7CFFE7"/>
<stop offset="1" stop-color="#5FCAEC"/>
</linearGradient>
<linearGradient id="paint3_linear" x1="14.1228" y1="19.9333" x2="14.1228" y2="31.7077" gradientUnits="userSpaceOnUse">
<stop stop-color="white"/>
<stop offset="1" stop-color="white" stop-opacity="0"/>
</linearGradient>
</defs>
</svg>
