<svg width="36" height="28" viewBox="0 0 36 28" fill="none" xmlns="http://www.w3.org/2000/svg">
<path d="M18.4344 22.5793V26.3861C18.4307 26.6788 18.311 26.958 18.1015 27.1625C17.892 27.367 17.6099 27.48 17.3172 27.4766H17.3165C17.0238 27.48 16.7417 27.367 16.5322 27.1625C16.3227 26.958 16.2029 26.6788 16.1992 26.3861V22.5793H18.4344Z" fill="url(#paint0_linear)"/>
<path d="M34.035 22.5793V26.3861C34.0313 26.6788 33.9115 26.958 33.7021 27.1625C33.4926 27.367 33.2105 27.48 32.9178 27.4766H32.9171C32.6243 27.48 32.3423 27.367 32.1328 27.1625C31.9233 26.958 31.8035 26.6788 31.7998 26.3861V22.5793H34.035Z" fill="url(#paint1_linear)"/>
<path d="M17.998 20.1767V7.57648C17.998 6.25125 19.0728 5.17651 20.3983 5.17651H29.9981C31.3236 5.17651 32.3981 6.25125 32.3981 7.57648V20.1767H17.998Z" fill="url(#paint2_linear)"/>
<path d="M26.9964 7.57935C27.1152 7.57914 27.2313 7.61418 27.3301 7.68003C27.429 7.74588 27.506 7.83958 27.5516 7.94926C27.5971 8.05894 27.6091 8.17966 27.586 8.29615C27.5628 8.41263 27.5057 8.51964 27.4217 8.60361C27.3377 8.68758 27.2307 8.74475 27.1142 8.76787C26.9978 8.79099 26.877 8.77902 26.7674 8.73348C26.6577 8.68794 26.564 8.61087 26.4981 8.51204C26.4323 8.41322 26.3973 8.29707 26.3975 8.17831C26.3975 8.01946 26.4606 7.86711 26.5729 7.75478C26.6852 7.64245 26.8376 7.57935 26.9964 7.57935Z" fill="#A4C9FF"/>
<path d="M26.9975 11.7795C27.3288 11.7795 27.5975 11.5108 27.5975 11.1795C27.5975 10.8481 27.3288 10.5795 26.9975 10.5795C26.6661 10.5795 26.3975 10.8481 26.3975 11.1795C26.3975 11.5108 26.6661 11.7795 26.9975 11.7795Z" fill="#A4C9FF"/>
<path d="M26.9975 14.7795C27.3288 14.7795 27.5975 14.5108 27.5975 14.1795C27.5975 13.8481 27.3288 13.5795 26.9975 13.5795C26.6661 13.5795 26.3975 13.8481 26.3975 14.1795C26.3975 14.5108 26.6661 14.7795 26.9975 14.7795Z" fill="#A4C9FF"/>
<path d="M23.3989 7.57935C23.5176 7.57955 23.6335 7.61494 23.7321 7.68104C23.8306 7.74714 23.9074 7.84098 23.9526 7.95069C23.9978 8.0604 24.0095 8.18107 23.9861 8.29742C23.9628 8.41377 23.9055 8.52057 23.8214 8.60434C23.7373 8.68811 23.6303 8.74507 23.5139 8.76802C23.3975 8.79097 23.2769 8.77888 23.1673 8.73328C23.0577 8.68768 22.9642 8.61061 22.8984 8.51183C22.8326 8.41305 22.7976 8.29698 22.7979 8.17831C22.7979 8.09948 22.8134 8.02143 22.8436 7.94862C22.8739 7.87582 22.9182 7.8097 22.974 7.75405C23.0299 7.69841 23.0961 7.65433 23.169 7.62435C23.2419 7.59437 23.3201 7.57908 23.3989 7.57935Z" fill="#A4C9FF"/>
<path d="M23.3999 10.5795C23.5185 10.5799 23.6343 10.6154 23.7327 10.6816C23.8311 10.7478 23.9077 10.8416 23.9528 10.9513C23.9979 11.061 24.0095 11.1815 23.9861 11.2978C23.9627 11.414 23.9054 11.5208 23.8214 11.6045C23.7374 11.6882 23.6305 11.7451 23.5142 11.7681C23.3978 11.7911 23.2773 11.7791 23.1678 11.7336C23.0583 11.6881 22.9647 11.6112 22.8988 11.5126C22.833 11.414 22.7979 11.2981 22.7979 11.1795C22.7979 11.1005 22.8134 11.0223 22.8437 10.9494C22.874 10.8765 22.9184 10.8102 22.9743 10.7545C23.0303 10.6987 23.0966 10.6546 23.1697 10.6245C23.2427 10.5945 23.321 10.5792 23.3999 10.5795Z" fill="#A4C9FF"/>
<path d="M23.3999 13.5795C23.5185 13.5799 23.6343 13.6154 23.7327 13.6816C23.8311 13.7478 23.9077 13.8416 23.9528 13.9513C23.9979 14.061 24.0095 14.1815 23.9861 14.2978C23.9627 14.414 23.9054 14.5208 23.8214 14.6045C23.7374 14.6882 23.6305 14.7451 23.5142 14.7681C23.3978 14.7911 23.2773 14.7791 23.1678 14.7336C23.0583 14.6881 22.9647 14.6112 22.8988 14.5126C22.833 14.414 22.7979 14.2981 22.7979 14.1795C22.7979 14.1005 22.8134 14.0223 22.8437 13.9494C22.874 13.8765 22.9184 13.8102 22.9743 13.7545C23.0303 13.6987 23.0966 13.6546 23.1697 13.6245C23.2427 13.5945 23.321 13.5792 23.3999 13.5795Z" fill="#A4C9FF"/>
<path d="M15.5974 14.1765H17.9974C18.6601 14.1765 19.1977 14.7137 19.1977 15.3765V23.7766H16.7974C15.4719 23.7766 14.3975 22.7022 14.3975 21.3767V15.3765C14.3975 14.7137 14.9347 14.1765 15.5974 14.1765Z" fill="#D4E1F4"/>
<path d="M32.3972 14.1765H34.7972C35.4599 14.1765 35.9972 14.7137 35.9972 15.3765V21.3767C35.9972 22.7022 34.9227 23.7766 33.5972 23.7766H31.1973V15.3765C31.1973 14.7137 31.7345 14.1765 32.3972 14.1765Z" fill="#D4E1F4"/>
<path d="M19.1973 20.1769H31.1971V23.7768H19.1973V20.1769Z" fill="url(#paint3_linear)"/>
<path d="M21.5972 16.5765H28.7971C30.1226 16.5765 31.1971 17.6513 31.1971 18.9768V20.1768H19.1973V18.9768C19.1973 17.6513 20.2717 16.5765 21.5972 16.5765Z" fill="url(#paint4_linear)"/>
<rect x="19.1973" y="20.1794" width="12" height="0.599998" fill="#4F95FC"/>
<path d="M2.77952 21.8218V26.1419C2.77605 26.4741 2.66438 26.7911 2.46905 27.0231C2.27371 27.2552 2.01069 27.3834 1.73775 27.3796H1.73709C1.46415 27.3834 1.20112 27.2552 1.00579 27.0231C0.810455 26.7911 0.698787 26.4741 0.695312 26.1419V21.8218H2.77952Z" fill="url(#paint5_linear)"/>
<path d="M12.5061 21.8218V26.1419C12.5026 26.4741 12.3909 26.7911 12.1956 27.0231C12.0003 27.2552 11.7373 27.3834 11.4643 27.3796H11.4637C11.1907 27.3834 10.9277 27.2552 10.7324 27.0231C10.537 26.7911 10.4253 26.4741 10.4219 26.1419V21.8218H12.5061Z" fill="url(#paint6_linear)"/>
<path d="M0 21.127H13.2V22.2112C13.2 22.7635 12.7523 23.2112 12.2 23.2112H0.999999C0.447714 23.2112 0 22.7635 0 22.2112V21.127Z" fill="url(#paint7_linear)"/>
<path d="M0 13.7902C0 13.2379 0.447715 12.7902 1 12.7902H12.2C12.7523 12.7902 13.2 13.2379 13.2 13.7902V21.127H0V13.7902Z" fill="url(#paint8_linear)"/>
<rect y="20.4323" width="13.2" height="0.694736" fill="#4F95FC"/>
<path d="M8.12603 16.0553H5.34708C5.19676 16.0553 5.05049 16.1041 4.93024 16.1943C4.7553 16.3255 4.65234 16.5314 4.65234 16.7501C4.65234 16.9688 4.7553 17.1747 4.93024 17.3059C5.05049 17.3961 5.19676 17.4448 5.34708 17.4448H8.12603C8.27635 17.4448 8.42262 17.3961 8.54287 17.3059C8.71781 17.1747 8.82077 16.9688 8.82077 16.7501C8.82077 16.5314 8.71781 16.3255 8.54287 16.1943C8.42262 16.1041 8.27635 16.0553 8.12603 16.0553Z" fill="#D4E1F4"/>
<path d="M5.51294 12.2137L4.4998 11.8999L4.38667 0.493077C4.38667 0.415335 4.33537 0.340778 4.24407 0.285806C4.15276 0.230834 4.02893 0.199951 3.8998 0.199951C3.77068 0.199951 3.64685 0.230834 3.55554 0.285806C3.46424 0.340778 3.41294 0.415335 3.41294 0.493077L3.2998 11.8999L2.28667 12.2137C2.15754 12.2137 2.03371 12.2446 1.9424 12.2996C1.8511 12.3545 1.7998 12.4291 1.7998 12.5068C1.7998 12.5846 1.8511 12.6591 1.9424 12.7141C2.03371 12.7691 2.15754 12.7999 2.28667 12.7999H5.51294C5.64207 12.7999 5.7659 12.7691 5.85721 12.7141C5.94851 12.6591 5.9998 12.5846 5.9998 12.5068C5.9998 12.4291 5.94851 12.3545 5.85721 12.2996C5.7659 12.2446 5.64207 12.2137 5.51294 12.2137Z" fill="url(#paint9_linear)"/>
<path d="M1.53934 6.97353C1.45768 6.97353 1.37937 6.93345 1.32163 6.86211C1.26388 6.79077 1.23145 6.69401 1.23145 6.59312V4.89079C1.23145 4.7899 1.26388 4.69314 1.32163 4.6218C1.37937 4.55046 1.45768 4.51038 1.53934 4.51038C1.621 4.51038 1.69931 4.55046 1.75705 4.6218C1.8148 4.69314 1.84723 4.7899 1.84723 4.89079V6.59312C1.84723 6.69401 1.8148 6.79077 1.75705 6.86211C1.69931 6.93345 1.621 6.97353 1.53934 6.97353Z" fill="#D4E1F4"/>
<path d="M1.52992 6.35792C1.34767 6.35988 1.17007 6.41573 1.01949 6.51842C0.868905 6.62111 0.752067 6.76606 0.683685 6.93501C0.615303 7.10397 0.598433 7.28937 0.635199 7.4679C0.671964 7.64642 0.760722 7.81007 0.890298 7.93826C1.01987 8.06644 1.18448 8.15342 1.36338 8.18825C1.54229 8.22309 1.7275 8.20421 1.8957 8.134C2.0639 8.06379 2.20757 7.94538 2.30862 7.79369C2.40967 7.642 2.46359 7.46381 2.46358 7.28154C2.46181 7.03538 2.36255 6.79996 2.18755 6.62684C2.01255 6.45373 1.77608 6.35702 1.52992 6.35792Z" fill="#D4E1F4"/>
<path d="M7.99911 5.02351C8.00399 5.03477 8.00602 5.04712 8.00501 5.0594C8.00401 5.07168 8 5.0835 7.99336 5.09376C7.98673 5.10402 7.97767 5.11237 7.96705 5.11805C7.95643 5.12373 7.94459 5.12655 7.93263 5.12624H0.0724426C0.0605125 5.12645 0.0487215 5.12358 0.0381529 5.11787C0.0275842 5.11217 0.0185768 5.10382 0.0119582 5.09359C0.00533965 5.08336 0.00132223 5.07158 0.000274865 5.05934C-0.000772496 5.0471 0.00118382 5.03478 0.00596423 5.02351L2.12802 0.244108C2.13372 0.230873 2.14305 0.219642 2.15486 0.211798C2.16667 0.203953 2.18045 0.199836 2.1945 0.199954H5.81057C5.82471 0.199943 5.83856 0.204093 5.8505 0.211914C5.86243 0.219736 5.87194 0.230905 5.87792 0.244108L7.99911 5.02351Z" fill="url(#paint10_linear)"/>
<path d="M7.80078 9.79919H12.6008V12.7992H7.80078V9.79919Z" fill="url(#paint11_linear)"/>
<path d="M7.80078 6.79932H12.6008V9.79932H7.80078V6.79932Z" fill="url(#paint12_linear)"/>
<rect x="8.40039" y="11.839" width="3.6" height="0.300003" fill="#A4C9FF"/>
<rect x="8.40039" y="11.2407" width="3.6" height="0.300006" fill="#A4C9FF"/>
<rect x="8.40039" y="10.6395" width="3.6" height="0.299999" fill="#A4C9FF"/>
<rect x="8.40039" y="8.8418" width="3.6" height="0.300001" fill="#A4C9FF"/>
<rect x="8.40039" y="8.23901" width="3.6" height="0.299998" fill="#A4C9FF"/>
<rect x="8.40039" y="7.63831" width="3.6" height="0.299999" fill="#A4C9FF"/>
<defs>
<linearGradient id="paint0_linear" x1="17.3168" y1="22.5793" x2="17.3168" y2="27.4767" gradientUnits="userSpaceOnUse">
<stop stop-color="#A2B4CC"/>
<stop offset="1" stop-color="#404E62"/>
</linearGradient>
<linearGradient id="paint1_linear" x1="32.9174" y1="22.5793" x2="32.9174" y2="27.4767" gradientUnits="userSpaceOnUse">
<stop stop-color="#A2B4CC"/>
<stop offset="1" stop-color="#404E62"/>
</linearGradient>
<linearGradient id="paint2_linear" x1="14.7236" y1="-8.66164" x2="14.7236" y2="20.1767" gradientUnits="userSpaceOnUse">
<stop stop-color="#00E0FF"/>
<stop offset="1" stop-color="#0085FF"/>
</linearGradient>
<linearGradient id="paint3_linear" x1="16.4686" y1="16.8558" x2="16.4686" y2="23.7768" gradientUnits="userSpaceOnUse">
<stop stop-color="#00E0FF"/>
<stop offset="1" stop-color="#0668C1"/>
</linearGradient>
<linearGradient id="paint4_linear" x1="16.4686" y1="13.2552" x2="16.4686" y2="20.1768" gradientUnits="userSpaceOnUse">
<stop stop-color="#00E0FF"/>
<stop offset="1" stop-color="#0085FF"/>
</linearGradient>
<linearGradient id="paint5_linear" x1="1.73742" y1="21.8218" x2="1.73742" y2="27.3797" gradientUnits="userSpaceOnUse">
<stop stop-color="#A2B4CC"/>
<stop offset="1" stop-color="#404E62"/>
</linearGradient>
<linearGradient id="paint6_linear" x1="11.464" y1="21.8218" x2="11.464" y2="27.3797" gradientUnits="userSpaceOnUse">
<stop stop-color="#A2B4CC"/>
<stop offset="1" stop-color="#404E62"/>
</linearGradient>
<linearGradient id="paint7_linear" x1="-3.00155" y1="19.2042" x2="-3.00155" y2="23.2112" gradientUnits="userSpaceOnUse">
<stop stop-color="#00E0FF"/>
<stop offset="1" stop-color="#0668C1"/>
</linearGradient>
<linearGradient id="paint8_linear" x1="-3.00155" y1="5.09915" x2="-3.00155" y2="21.127" gradientUnits="userSpaceOnUse">
<stop stop-color="#00E0FF"/>
<stop offset="1" stop-color="#0085FF"/>
</linearGradient>
<linearGradient id="paint9_linear" x1="3.8998" y1="0.199951" x2="3.8998" y2="12.7999" gradientUnits="userSpaceOnUse">
<stop stop-color="#A2B4CC"/>
<stop offset="1" stop-color="#404E62"/>
</linearGradient>
<linearGradient id="paint10_linear" x1="4.00263" y1="0.199951" x2="4.00263" y2="5.12626" gradientUnits="userSpaceOnUse">
<stop stop-color="#7CFFE7"/>
<stop offset="1" stop-color="#5FCAEC"/>
</linearGradient>
<linearGradient id="paint11_linear" x1="10.2008" y1="9.79919" x2="10.2008" y2="12.7992" gradientUnits="userSpaceOnUse">
<stop stop-color="#7CFFE7"/>
<stop offset="1" stop-color="#5FCAEC"/>
</linearGradient>
<linearGradient id="paint12_linear" x1="10.2008" y1="6.79932" x2="10.2008" y2="9.79932" gradientUnits="userSpaceOnUse">
<stop stop-color="#7CFFE7"/>
<stop offset="1" stop-color="#5FCAEC"/>
</linearGradient>
</defs>
</svg>
