<svg width="36" height="36" viewBox="0 0 36 36" fill="none" xmlns="http://www.w3.org/2000/svg">
<path d="M16.7998 14.8199H19.1998V29.22H16.7998V14.8199Z" fill="#D4E1F4"/>
<path d="M18 14.8199H19.2V29.22H18V14.8199Z" fill="#A4C9FF"/>
<path d="M22.6248 30.3751H13.3589C13.1584 30.3751 12.9961 30.2125 12.9961 30.0123V28.9008C12.9961 28.3347 13.455 27.8757 14.0211 27.8757H21.9623C22.5284 27.8757 22.9873 28.3347 22.9873 28.9008V30.0123C22.9873 30.2125 22.825 30.3751 22.6248 30.3751Z" fill="url(#paint0_linear)"/>
<path d="M22.9875 28.901V30.0125C22.9875 30.2128 22.8252 30.3751 22.6247 30.3751H21.239V28.901C21.239 28.3344 20.7806 27.876 20.2148 27.876H21.9625C22.5286 27.876 22.9875 28.3349 22.9875 28.901Z" fill="#5A5A5A"/>
<path d="M22.9875 28.901V30.0125C22.9875 30.2128 22.8252 30.3751 22.6247 30.3751H21.239V28.901C21.239 28.3344 20.7806 27.876 20.2148 27.876H21.9625C22.5286 27.876 22.9875 28.3349 22.9875 28.901Z" fill="url(#paint1_linear)"/>
<path d="M25.1002 16.5759H10.8844C10.5059 16.5759 10.1994 16.2694 10.1994 15.8912L9.60059 13.8284H26.4006L25.7849 15.8912C25.7849 16.2694 25.4784 16.5759 25.1002 16.5759Z" fill="url(#paint2_linear)"/>
<path d="M27.3821 14.317H8.60403C8.40381 14.317 8.24121 14.1544 8.24121 13.9542V11.5826C8.24121 11.3823 8.40381 11.2197 8.60403 11.2197H27.3821C27.5824 11.2197 27.745 11.3823 27.745 11.5826V13.9542C27.745 14.1547 27.5824 14.317 27.3821 14.317Z" fill="url(#paint3_linear)"/>
<path d="M1.8 22.9194V28.516C1.797 28.9464 1.70056 29.3569 1.53186 29.6575C1.36316 29.9582 1.13601 30.1243 0.900283 30.1193H0.899717C0.663994 30.1243 0.436836 29.9582 0.268139 29.6575C0.0994414 29.3569 0.00300042 28.9464 0 28.516V22.9194H1.8Z" fill="url(#paint4_linear)"/>
<path d="M34.2 22.9194V28.516C34.203 28.9464 34.2994 29.3569 34.4681 29.6575C34.6368 29.9582 34.864 30.1243 35.0997 30.1193H35.1003C35.336 30.1243 35.5632 29.9582 35.7319 29.6575C35.9006 29.3569 35.997 28.9464 36 28.516V22.9194H34.2Z" fill="url(#paint5_linear)"/>
<path d="M10.2004 22.9194V28.516C10.1974 28.9464 10.1009 29.3569 9.93225 29.6575C9.76356 29.9582 9.5364 30.1243 9.30067 30.1193H9.30011C9.06438 30.1243 8.83723 29.9582 8.66853 29.6575C8.49983 29.3569 8.40339 28.9464 8.40039 28.516V22.9194H10.2004Z" fill="url(#paint6_linear)"/>
<path d="M25.8006 22.9194V28.516C25.8036 28.9464 25.9 29.3569 26.0687 29.6575C26.2374 29.9582 26.4646 30.1243 26.7003 30.1193H26.7009C26.9366 30.1243 27.1637 29.9582 27.3324 29.6575C27.5011 29.3569 27.5976 28.9464 27.6006 28.516V22.9194H25.8006Z" fill="url(#paint7_linear)"/>
<path d="M2.39999 16.6352V21.1196H1.12343C0.975271 21.1185 0.828684 21.0639 0.69204 20.9589C0.555396 20.8538 0.431372 20.7005 0.32705 20.5075C0.222728 20.3146 0.140152 20.0859 0.0840385 19.8344C0.0279249 19.5829 -0.000627352 19.3136 1.25429e-05 19.0419V8.19835C-0.000686271 7.92656 0.0278217 7.65718 0.0839076 7.4056C0.139993 7.15403 0.222558 6.92518 0.326884 6.73214C0.431211 6.5391 0.555255 6.38564 0.691929 6.28055C0.828602 6.17545 0.975228 6.12077 1.12343 6.11963H1.27657C1.42477 6.12077 1.5714 6.17545 1.70807 6.28055C1.84475 6.38564 1.96879 6.5391 2.07312 6.73214C2.17744 6.92518 2.26001 7.15403 2.31609 7.4056C2.37218 7.65718 2.40069 7.92656 2.39999 8.19835V16.6352Z" fill="url(#paint8_linear)"/>
<path d="M33.6 16.6352V21.1196H34.8766C35.0247 21.1185 35.1713 21.0639 35.308 20.9589C35.4446 20.8538 35.5686 20.7005 35.6729 20.5075C35.7773 20.3146 35.8598 20.0859 35.916 19.8344C35.9721 19.5829 36.0006 19.3136 36 19.0419V8.19835C36.0007 7.92656 35.9722 7.65718 35.9161 7.4056C35.86 7.15403 35.7774 6.92518 35.6731 6.73214C35.5688 6.5391 35.4447 6.38564 35.3081 6.28055C35.1714 6.17545 35.0248 6.12077 34.8766 6.11963H34.7234C34.5752 6.12077 34.4286 6.17545 34.2919 6.28055C34.1553 6.38564 34.0312 6.5391 33.9269 6.73214C33.8226 6.92518 33.74 7.15403 33.6839 7.4056C33.6278 7.65718 33.5993 7.92656 33.6 8.19835V16.6352Z" fill="url(#paint9_linear)"/>
<path d="M3.0496 18.7195H0.000196457V21.1194C0.000954628 21.2676 0.228782 21.2828 0.300197 21.4194C0.169 21.3151 0.371613 21.5561 0.300197 21.4194C0.431395 21.5238 0.729197 21.3633 0.900197 21.4194C1.0712 21.4755 1.22827 21.1201 1.41303 21.1194H8.78667C8.97148 21.1201 9.15466 21.0916 9.32573 21.0355C9.49681 20.9794 9.65242 20.8969 9.78369 20.7926C9.91496 20.6882 10.0193 20.5642 10.0908 20.4275C10.1622 20.2908 10.1994 20.1442 10.2002 19.996V19.8429C10.1994 19.6947 10.1622 19.548 10.0908 19.4114C10.0193 19.2747 9.91496 19.1507 9.78369 19.0463C9.65242 18.942 9.49681 18.8594 9.32573 18.8033C9.15466 18.7473 8.97148 18.7188 8.78667 18.7195H3.0496Z" fill="#6FE3FF"/>
<path d="M32.9504 18.7195H35.9998V21.1194C35.999 21.2676 35.7712 21.2828 35.6998 21.4194C35.831 21.3151 35.6284 21.5561 35.6998 21.4194C35.5686 21.5238 35.2708 21.3633 35.0998 21.4194C34.9288 21.4755 34.7717 21.1201 34.587 21.1194H27.2133C27.0285 21.1201 26.8453 21.0916 26.6743 21.0355C26.5032 20.9794 26.3476 20.8969 26.2163 20.7926C26.085 20.6882 25.9807 20.5642 25.9092 20.4275C25.8378 20.2908 25.8006 20.1442 25.7998 19.996V19.8429C25.8006 19.6947 25.8378 19.548 25.9092 19.4114C25.9807 19.2747 26.085 19.1507 26.2163 19.0463C26.3476 18.942 26.5032 18.8594 26.6743 18.8033C26.8453 18.7473 27.0285 18.7188 27.2133 18.7195H32.9504Z" fill="#6FE3FF"/>
<path d="M0 21.1196H9.2C9.75229 21.1196 10.2 21.5673 10.2 22.1196V22.9196H0V21.1196Z" fill="url(#paint10_linear)"/>
<rect width="10.2" height="1.8" transform="matrix(-1 0 0 1 36 21.1196)" fill="url(#paint11_linear)"/>
<path d="M35.3994 18.7194V6.35938C35.6526 6.66509 35.7627 6.87008 35.8794 7.31938C35.9427 7.53136 35.9623 7.66575 35.9989 7.91566L35.9994 7.91938V18.7194H35.3994Z" fill="#0083D3"/>
<path d="M0.600195 18.7197L0.602539 6.41968C0.349371 6.72539 0.239264 6.93038 0.122539 7.37968C0.0592635 7.59166 0.0396174 7.72605 0.00308293 7.97596L0.00253916 7.97968L0.000195384 18.7197H0.600195Z" fill="#0083D3"/>
<rect x="8.40039" y="13.7087" width="19.2" height="0.6" fill="#4F95FC"/>
<path d="M18.5994 6.58902V6.11139C18.5994 5.71855 18.3308 5.40002 17.9994 5.40002C17.6681 5.40002 17.3994 5.71855 17.3994 6.11139V6.60002C17.7975 6.53726 18.2006 6.53355 18.5994 6.58902Z" fill="#A4C9FF"/>
<path d="M12.4685 10.8837C12.7014 11.203 13.1778 11.4033 13.6964 11.3999H22.3036C22.8222 11.4033 23.2986 11.203 23.5314 10.8837L24 10.2H12L12.4685 10.8837Z" fill="#556479"/>
<path d="M21.4049 7.70843C20.4979 6.99453 19.2884 6.6001 17.9992 6.6001C16.71 6.6001 15.5005 6.99407 14.5935 7.70797C13.7427 8.37777 13.2525 9.25353 13.1992 10.2001H22.7992C22.7459 9.25353 22.2558 8.37823 21.4049 7.70843Z" fill="#7989A0"/>
<defs>
<linearGradient id="paint0_linear" x1="17.9917" y1="27.8757" x2="17.9917" y2="30.3751" gradientUnits="userSpaceOnUse">
<stop stop-color="#A2B4CC"/>
<stop offset="1" stop-color="#404E62"/>
</linearGradient>
<linearGradient id="paint1_linear" x1="21.6012" y1="27.876" x2="21.6012" y2="30.3751" gradientUnits="userSpaceOnUse">
<stop stop-color="#A2B4CC"/>
<stop offset="1" stop-color="#404E62"/>
</linearGradient>
<linearGradient id="paint2_linear" x1="6.65543" y1="11.3478" x2="6.60059" y2="17.1284" gradientUnits="userSpaceOnUse">
<stop offset="0.486436" stop-color="#00A2FF"/>
<stop offset="1" stop-color="#1267B6"/>
</linearGradient>
<linearGradient id="paint3_linear" x1="3.80625" y1="8.36235" x2="3.80625" y2="14.317" gradientUnits="userSpaceOnUse">
<stop stop-color="#00E0FF"/>
<stop offset="1" stop-color="#0085FF"/>
</linearGradient>
<linearGradient id="paint4_linear" x1="0.9" y1="22.9194" x2="0.9" y2="30.1194" gradientUnits="userSpaceOnUse">
<stop stop-color="#A2B4CC"/>
<stop offset="1" stop-color="#404E62"/>
</linearGradient>
<linearGradient id="paint5_linear" x1="35.1" y1="22.9194" x2="35.1" y2="30.1194" gradientUnits="userSpaceOnUse">
<stop stop-color="#A2B4CC"/>
<stop offset="1" stop-color="#404E62"/>
</linearGradient>
<linearGradient id="paint6_linear" x1="9.30039" y1="22.9194" x2="9.30039" y2="30.1194" gradientUnits="userSpaceOnUse">
<stop stop-color="#A2B4CC"/>
<stop offset="1" stop-color="#404E62"/>
</linearGradient>
<linearGradient id="paint7_linear" x1="26.7006" y1="22.9194" x2="26.7006" y2="30.1194" gradientUnits="userSpaceOnUse">
<stop stop-color="#A2B4CC"/>
<stop offset="1" stop-color="#404E62"/>
</linearGradient>
<linearGradient id="paint8_linear" x1="-0.545737" y1="-7.71835" x2="-0.545737" y2="21.1196" gradientUnits="userSpaceOnUse">
<stop stop-color="#00E0FF"/>
<stop offset="1" stop-color="#0085FF"/>
</linearGradient>
<linearGradient id="paint9_linear" x1="36.5457" y1="-7.71835" x2="36.5457" y2="21.1196" gradientUnits="userSpaceOnUse">
<stop stop-color="#00E0FF"/>
<stop offset="1" stop-color="#0085FF"/>
</linearGradient>
<linearGradient id="paint10_linear" x1="-2.31938" y1="19.4591" x2="-2.31938" y2="22.9196" gradientUnits="userSpaceOnUse">
<stop stop-color="#00E0FF"/>
<stop offset="1" stop-color="#0085FF"/>
</linearGradient>
<linearGradient id="paint11_linear" x1="-2.31938" y1="-1.66056" x2="-2.31938" y2="1.8" gradientUnits="userSpaceOnUse">
<stop stop-color="#00E0FF"/>
<stop offset="1" stop-color="#0085FF"/>
</linearGradient>
</defs>
</svg>
