<svg width="36" height="36" viewBox="0 0 36 36" fill="none" xmlns="http://www.w3.org/2000/svg">
<g clip-path="url(#clip0)">
<path d="M12.5996 11.7001H23.3996V24.6001H12.5996V11.7001Z" fill="url(#paint0_linear)"/>
<path opacity="0.7" d="M0 0L12.9341 11.8563V24.1437L0 36V0Z" fill="url(#paint1_linear)"/>
<path opacity="0.7" d="M36 0L23.0659 11.8563V24.1437L36 36V0Z" fill="url(#paint2_linear)"/>
<g opacity="0.8">
<path d="M0 0H36L23.0659 11.8563H12.9341L0 0Z" fill="#EDD4C2"/>
<path d="M0 0H36L23.0659 11.8563H12.9341L0 0Z" fill="url(#paint3_linear)"/>
</g>
<g opacity="0.8">
<path d="M36 36L0 36L12.9341 24.1437L23.0659 24.1437L36 36Z" fill="black"/>
<path d="M36 36L0 36L12.9341 24.1437L23.0659 24.1437L36 36Z" fill="url(#paint4_linear)"/>
</g>
<path d="M8.48882 11.8827L5.52754 9.37206C4.87781 8.8212 3.88086 9.28299 3.88086 10.1348V32.443L8.94673 27.8083L8.84211 12.6386C8.8401 12.3472 8.71108 12.0711 8.48882 11.8827Z" fill="#D4E1F4"/>
<path d="M27.4038 11.8827L30.365 9.37206C31.0148 8.8212 32.0117 9.28299 32.0117 10.1348V32.443L26.9459 27.8083L27.0505 12.6386C27.0525 12.3472 27.1815 12.0711 27.4038 11.8827Z" fill="#D4E1F4"/>
<path d="M20.0184 13.9043H15.9824C15.4301 13.9043 14.9824 14.352 14.9824 14.9043V24.1438H21.0184V14.9043C21.0184 14.352 20.5706 13.9043 20.0184 13.9043Z" fill="#D4E1F4"/>
<path d="M19.5724 19.0779H19.4461C19.3485 19.0779 19.2549 19.1167 19.1859 19.1857C19.1169 19.2547 19.0781 19.3483 19.0781 19.4459V20.65C19.0781 20.7476 19.1169 20.8412 19.1859 20.9102C19.2549 20.9792 19.3485 21.018 19.4461 21.018H19.5724C19.67 21.018 19.7636 20.9792 19.8326 20.9102C19.9016 20.8412 19.9404 20.7476 19.9404 20.65V19.4459C19.9404 19.3483 19.9016 19.2547 19.8326 19.1857C19.7636 19.1167 19.67 19.0779 19.5724 19.0779Z" fill="url(#paint5_linear)"/>
<path d="M7.59705 19.1514L7.57345 19.1881C7.52422 19.2647 7.49805 19.3538 7.49805 19.4449V21.5133C7.49805 21.6043 7.52422 21.6934 7.57345 21.77L7.59705 21.8067C7.6697 21.9197 7.79483 21.9881 7.92918 21.9881C8.06354 21.9881 8.18867 21.9197 8.26132 21.8067L8.28492 21.77C8.33415 21.6934 8.36032 21.6043 8.36032 21.5133V19.4449C8.36032 19.3538 8.33415 19.2647 8.28492 19.1881L8.26132 19.1514C8.18867 19.0384 8.06354 18.9701 7.92918 18.9701C7.79483 18.9701 7.6697 19.0384 7.59705 19.1514Z" fill="url(#paint6_linear)"/>
<path d="M27.7386 19.0435L27.7151 19.0802C27.6658 19.1568 27.6396 19.2459 27.6396 19.337V21.4054C27.6396 21.4964 27.6658 21.5855 27.7151 21.6621L27.7386 21.6988C27.8113 21.8118 27.9364 21.8801 28.0708 21.8801C28.2051 21.8801 28.3303 21.8118 28.4029 21.6988L28.4265 21.6621C28.4757 21.5855 28.5019 21.4964 28.5019 21.4054V19.337C28.5019 19.2459 28.4757 19.1568 28.4265 19.0802L28.4029 19.0435C28.3303 18.9305 28.2051 18.8622 28.0708 18.8622C27.9364 18.8622 27.8113 18.9305 27.7386 19.0435Z" fill="url(#paint7_linear)"/>
<path d="M16.5996 10.5999H18.7996C18.7997 10.9146 18.7219 11.2212 18.5773 11.475C18.4328 11.7289 18.2291 11.9167 17.9959 12.0112C17.8998 12.0482 17.8 12.0669 17.6996 12.0665C17.097 12.0665 16.6089 11.4115 16.5996 10.5999Z" fill="#F8EC7D"/>
<path d="M17.7007 7.66659C17.6034 7.66659 17.5101 7.62546 17.4414 7.55224C17.3726 7.47902 17.334 7.37972 17.334 7.27618V2.19034C17.334 2.0868 17.3726 1.98749 17.4414 1.91428C17.5101 1.84106 17.6034 1.79993 17.7007 1.79993C17.7979 1.79993 17.8912 1.84106 17.9599 1.91428C18.0287 1.98749 18.0673 2.0868 18.0673 2.19034V7.27618C18.0673 7.37972 18.0287 7.47902 17.9599 7.55224C17.8912 7.62546 17.7979 7.66659 17.7007 7.66659Z" fill="url(#paint8_linear)"/>
<path d="M21.0004 9.98859V10.6H14.4004V9.98859C14.4005 9.17832 14.7482 8.40125 15.367 7.8283C15.9859 7.25535 16.8252 6.93344 17.7004 6.93335C17.8132 6.93319 17.9259 6.93846 18.0381 6.94914C18.8505 7.02679 19.603 7.38048 20.1501 7.94186C20.6972 8.50324 21.0002 9.23246 21.0004 9.98859Z" fill="url(#paint9_linear)"/>
<path d="M16.957 9.86657C16.8926 9.86652 16.8294 9.8494 16.774 9.81704C16.7187 9.78467 16.6733 9.73826 16.6427 9.68269C16.612 9.62713 16.5973 9.56448 16.5999 9.50136C16.6026 9.43825 16.6226 9.37701 16.6578 9.32411C16.8811 8.98762 17.1676 8.69582 17.502 8.46425C17.5404 8.43766 17.5837 8.41873 17.6295 8.40856C17.6753 8.39839 17.7228 8.39717 17.7691 8.40496C17.8154 8.41276 17.8597 8.42942 17.8994 8.45399C17.9391 8.47857 17.9735 8.51057 18.0007 8.54819C18.0278 8.5858 18.0471 8.62829 18.0574 8.67321C18.0678 8.71814 18.0691 8.76463 18.0611 8.81003C18.0532 8.85543 18.0362 8.89885 18.0111 8.93781C17.986 8.97677 17.9534 9.01051 17.915 9.0371C17.6543 9.21765 17.431 9.44516 17.257 9.70752C17.2244 9.75642 17.18 9.79658 17.1276 9.82435C17.0752 9.85213 17.0166 9.86664 16.957 9.86657Z" fill="#90A5A2"/>
<path d="M12.6 24.2999V24.5999L0.6 35.9999H0L12.6 24.2999Z" fill="#00529D"/>
<path d="M23.4 24.2999V24.5999L35.4 35.9999H36L23.4 24.2999Z" fill="#00529D"/>
</g>
<defs>
<linearGradient id="paint0_linear" x1="10.1438" y1="-0.777345" x2="10.1438" y2="24.6001" gradientUnits="userSpaceOnUse">
<stop stop-color="#00E0FF"/>
<stop offset="1" stop-color="#0085FF"/>
</linearGradient>
<linearGradient id="paint1_linear" x1="-2.9411" y1="-33.2112" x2="-2.9411" y2="36" gradientUnits="userSpaceOnUse">
<stop stop-color="#00E0FF"/>
<stop offset="1" stop-color="#0085FF"/>
</linearGradient>
<linearGradient id="paint2_linear" x1="38.9411" y1="-33.2112" x2="38.9411" y2="36" gradientUnits="userSpaceOnUse">
<stop stop-color="#00E0FF"/>
<stop offset="1" stop-color="#0085FF"/>
</linearGradient>
<linearGradient id="paint3_linear" x1="18" y1="0" x2="18" y2="11.8563" gradientUnits="userSpaceOnUse">
<stop stop-color="#7CFFE7"/>
<stop offset="1" stop-color="#5FCAEC"/>
</linearGradient>
<linearGradient id="paint4_linear" x1="44.1861" y1="46.9378" x2="44.1861" y2="24.1437" gradientUnits="userSpaceOnUse">
<stop stop-color="#00E0FF"/>
<stop offset="1" stop-color="#0085FF"/>
</linearGradient>
<linearGradient id="paint5_linear" x1="18.8821" y1="17.2881" x2="18.8821" y2="21.018" gradientUnits="userSpaceOnUse">
<stop stop-color="#00E0FF"/>
<stop offset="1" stop-color="#0085FF"/>
</linearGradient>
<linearGradient id="paint6_linear" x1="7.30197" y1="16.1859" x2="7.30197" y2="21.9881" gradientUnits="userSpaceOnUse">
<stop stop-color="#00E0FF"/>
<stop offset="1" stop-color="#0085FF"/>
</linearGradient>
<linearGradient id="paint7_linear" x1="27.4436" y1="16.078" x2="27.4436" y2="21.8801" gradientUnits="userSpaceOnUse">
<stop stop-color="#00E0FF"/>
<stop offset="1" stop-color="#0085FF"/>
</linearGradient>
<linearGradient id="paint8_linear" x1="17.7007" y1="1.79993" x2="17.7007" y2="7.66659" gradientUnits="userSpaceOnUse">
<stop stop-color="#A2B4CC"/>
<stop offset="1" stop-color="#404E62"/>
</linearGradient>
<linearGradient id="paint9_linear" x1="17.7004" y1="6.93335" x2="17.7004" y2="10.6" gradientUnits="userSpaceOnUse">
<stop stop-color="#A2B4CC"/>
<stop offset="1" stop-color="#404E62"/>
</linearGradient>
<clipPath id="clip0">
<rect width="36" height="36" rx="3" fill="white"/>
</clipPath>
</defs>
</svg>
