<svg width="36" height="36" viewBox="0 0 36 36" fill="none" xmlns="http://www.w3.org/2000/svg">
<g clip-path="url(#clip0)">
<path d="M14.749 34.2932H17.1177V35.9999H14.749V34.2932Z" fill="#EDD4C2"/>
<path d="M14.749 34.2932H17.1177V35.9999H14.749V34.2932Z" fill="url(#paint0_linear)"/>
<path d="M14.749 34.2932H17.1177V35.9999H14.749V34.2932Z" fill="url(#paint1_linear)"/>
<path d="M5.62402 0H12.5608V5.4863H5.62402V0Z" fill="#5861C7"/>
<path d="M5.62402 0H12.5608V5.4863H5.62402V0Z" fill="url(#paint2_linear)"/>
<path d="M5.62402 0H12.5608V0.703125H5.62402V0Z" fill="white" fill-opacity="0.2"/>
<path d="M14.1513 5.48645H4.03535C3.76893 5.48645 3.52751 5.64191 3.41957 5.88306L1.1443 10.9645C1.06932 11.1321 1.19319 11.3205 1.37831 11.3205H16.8083C16.9935 11.3205 17.1173 11.1321 17.0423 10.9645L14.7671 5.88278C14.6589 5.64191 14.4177 5.48645 14.1513 5.48645Z" fill="url(#paint3_linear)"/>
<path d="M18.1854 21.8338H0V19.083C0 18.7666 0.256531 18.5104 0.572937 18.5104H17.6125C17.9289 18.5104 18.1854 18.7666 18.1854 19.083V21.8338Z" fill="#EDD4C2"/>
<path d="M18.1854 21.8338H0V19.083C0 18.7666 0.256531 18.5104 0.572937 18.5104H17.6125C17.9289 18.5104 18.1854 18.7666 18.1854 19.083V21.8338Z" fill="url(#paint4_linear)"/>
<path d="M18.1854 21.8337H0V33.7204C0 34.0368 0.256531 34.2933 0.572937 34.2933H17.6125C17.9289 34.2933 18.1854 34.0368 18.1854 33.7204V21.8337Z" fill="url(#paint5_linear)"/>
<g filter="url(#filter0_d)">
<path d="M16.7647 24.6466V32.8872H1.4209V24.6466H16.7647Z" fill="url(#paint6_linear)"/>
</g>
<g filter="url(#filter1_d)">
<path d="M15.6273 25.7715V31.762H2.55664V25.7715H15.6273Z" fill="#69EBFC"/>
<path d="M15.6273 25.7715V31.762H2.55664V25.7715H15.6273Z" fill="url(#paint7_linear)"/>
<path d="M15.6273 25.7715V31.762H2.55664V25.7715H15.6273Z" fill="url(#paint8_linear)"/>
</g>
<path d="M1.06836 34.2932H3.43701V35.9999H1.06836V34.2932Z" fill="#EDD4C2"/>
<path d="M1.06836 34.2932H3.43701V35.9999H1.06836V34.2932Z" fill="url(#paint9_linear)"/>
<path d="M1.06836 34.2932H3.43701V35.9999H1.06836V34.2932Z" fill="url(#paint10_linear)"/>
<path d="M1.06836 35.2969H3.43701V36H1.06836V35.2969Z" fill="black" fill-opacity="0.1"/>
<path d="M14.749 35.2969H17.1177V36H14.749V35.2969Z" fill="black" fill-opacity="0.1"/>
<path d="M0.924805 22.6715H17.2601V23.5273H0.924805V22.6715Z" fill="#5FD4E3"/>
<path d="M0.924805 22.6715H17.2601V23.5273H0.924805V22.6715Z" fill="url(#paint11_linear)"/>
<path d="M1.13226 23.8966H0.867493C0.708191 23.8966 0.579102 23.7675 0.579102 23.6082V22.5906C0.579102 22.4313 0.708191 22.3022 0.867493 22.3022H1.13226C1.29157 22.3022 1.42065 22.4313 1.42065 22.5906V23.6082C1.42065 23.7675 1.29157 23.8966 1.13226 23.8966Z" fill="url(#paint12_linear)"/>
<path d="M17.393 23.8966H17.1282C16.9689 23.8966 16.8398 23.7675 16.8398 23.6082V22.5906C16.8398 22.4313 16.9689 22.3022 17.1282 22.3022H17.393C17.552 22.3022 17.6811 22.4313 17.6811 22.5906V23.6082C17.6811 23.7675 17.552 23.8966 17.393 23.8966Z" fill="url(#paint13_linear)"/>
<path d="M2.78653 20.1719C2.78653 19.5685 2.29242 19.0793 1.68295 19.0793C1.07321 19.0793 0.579102 19.5685 0.579102 20.1719C0.579102 20.7754 1.07321 21.2645 1.68295 21.2645C2.29242 21.2645 2.78653 20.7754 2.78653 20.1719Z" fill="#6770E6"/>
<path d="M2.78653 20.1719C2.78653 19.5685 2.29242 19.0793 1.68295 19.0793C1.07321 19.0793 0.579102 19.5685 0.579102 20.1719C0.579102 20.7754 1.07321 21.2645 1.68295 21.2645C2.29242 21.2645 2.78653 20.7754 2.78653 20.1719Z" fill="url(#paint14_linear)"/>
<path d="M10.8138 20.1719C10.8138 19.7454 10.4644 19.3993 10.0335 19.3993C9.6023 19.3993 9.25293 19.7454 9.25293 20.1719C9.25293 20.5984 9.6023 20.9442 10.0335 20.9442C10.4644 20.9442 10.8138 20.5984 10.8138 20.1719Z" fill="#6770E6"/>
<path d="M10.8138 20.1719C10.8138 19.7454 10.4644 19.3993 10.0335 19.3993C9.6023 19.3993 9.25293 19.7454 9.25293 20.1719C9.25293 20.5984 9.6023 20.9442 10.0335 20.9442C10.4644 20.9442 10.8138 20.5984 10.8138 20.1719Z" fill="url(#paint15_linear)"/>
<path d="M13.1029 20.1719C13.1029 19.7454 12.7535 19.3993 12.3226 19.3993C11.8914 19.3993 11.542 19.7454 11.542 20.1719C11.542 20.5984 11.8914 20.9442 12.3226 20.9442C12.7535 20.9442 13.1029 20.5984 13.1029 20.1719Z" fill="#6770E6"/>
<path d="M13.1029 20.1719C13.1029 19.7454 12.7535 19.3993 12.3226 19.3993C11.8914 19.3993 11.542 19.7454 11.542 20.1719C11.542 20.5984 11.8914 20.9442 12.3226 20.9442C12.7535 20.9442 13.1029 20.5984 13.1029 20.1719Z" fill="url(#paint16_linear)"/>
<path d="M15.3919 20.1719C15.3919 19.7454 15.0426 19.3993 14.6116 19.3993C14.1804 19.3993 13.8311 19.7454 13.8311 20.1719C13.8311 20.5984 14.1804 20.9442 14.6116 20.9442C15.0426 20.9442 15.3919 20.5984 15.3919 20.1719Z" fill="#6770E6"/>
<path d="M15.3919 20.1719C15.3919 19.7454 15.0426 19.3993 14.6116 19.3993C14.1804 19.3993 13.8311 19.7454 13.8311 20.1719C13.8311 20.5984 14.1804 20.9442 14.6116 20.9442C15.0426 20.9442 15.3919 20.5984 15.3919 20.1719Z" fill="url(#paint17_linear)"/>
<path d="M17.681 20.1719C17.681 19.7454 17.3316 19.3993 16.9004 19.3993C16.4695 19.3993 16.1201 19.7454 16.1201 20.1719C16.1201 20.5984 16.4695 20.9442 16.9004 20.9442C17.3316 20.9442 17.681 20.5984 17.681 20.1719Z" fill="#6770E6"/>
<path d="M17.681 20.1719C17.681 19.7454 17.3316 19.3993 16.9004 19.3993C16.4695 19.3993 16.1201 19.7454 16.1201 20.1719C16.1201 20.5984 16.4695 20.9442 16.9004 20.9442C17.3316 20.9442 17.681 20.5984 17.681 20.1719Z" fill="url(#paint18_linear)"/>
<path d="M7.70013 18H1.93094C1.64914 18 1.4209 18.2282 1.4209 18.5103H8.21045C8.21018 18.2282 7.98193 18 7.70013 18Z" fill="#5861C7"/>
<path d="M7.70013 18H1.93094C1.64914 18 1.4209 18.2282 1.4209 18.5103H8.21045C8.21018 18.2282 7.98193 18 7.70013 18Z" fill="url(#paint19_linear)"/>
<path d="M16.2546 18H10.4153C10.1335 18 9.90527 18.2282 9.90527 18.5103H16.7646C16.7646 18.2282 16.5364 18 16.2546 18Z" fill="#5861C7"/>
<path d="M16.2546 18H10.4153C10.1335 18 9.90527 18.2282 9.90527 18.5103H16.7646C16.7646 18.2282 16.5364 18 16.2546 18Z" fill="url(#paint20_linear)"/>
<path d="M35.4289 36.0001H18.7568C18.4413 36.0001 18.1855 35.7443 18.1855 35.4288V19.0817C18.1855 18.7661 18.4413 18.5104 18.7568 18.5104H35.4286C35.7442 18.5104 35.9999 18.7661 35.9999 19.0817V35.4288C36.0002 35.7443 35.7445 36.0001 35.4289 36.0001Z" fill="#6770E6"/>
<path d="M35.4289 36.0001H18.7568C18.4413 36.0001 18.1855 35.7443 18.1855 35.4288V19.0817C18.1855 18.7661 18.4413 18.5104 18.7568 18.5104H35.4286C35.7442 18.5104 35.9999 18.7661 35.9999 19.0817V35.4288C36.0002 35.7443 35.7445 36.0001 35.4289 36.0001Z" fill="url(#paint21_linear)"/>
<path d="M35.4289 35.297H18.7568C18.4413 35.297 18.1855 35.0413 18.1855 34.7257V35.4288C18.1855 35.7444 18.4413 36.0001 18.7568 36.0001H35.4286C35.7442 36.0001 35.9999 35.7444 35.9999 35.4288V34.7257C36.0002 35.0413 35.7445 35.297 35.4289 35.297Z" fill="black" fill-opacity="0.1"/>
<g filter="url(#filter2_d)">
<path d="M19.5918 24.4528V20.1873C19.5918 20.0376 19.7132 19.9165 19.8626 19.9165H34.3228C34.4725 19.9165 34.5936 20.0376 34.5936 20.1873V24.4528C34.5936 24.6024 34.4725 24.7238 34.3228 24.7238H19.8626C19.7132 24.7238 19.5918 24.6024 19.5918 24.4528Z" fill="#5861C7"/>
<path d="M19.5918 24.4528V20.1873C19.5918 20.0376 19.7132 19.9165 19.8626 19.9165H34.3228C34.4725 19.9165 34.5936 20.0376 34.5936 20.1873V24.4528C34.5936 24.6024 34.4725 24.7238 34.3228 24.7238H19.8626C19.7132 24.7238 19.5918 24.6024 19.5918 24.4528Z" fill="url(#paint22_linear)"/>
</g>
<g filter="url(#filter3_d)">
<path d="M19.5918 34.2787V26.357C19.5918 26.2073 19.7132 26.0859 19.8626 26.0859H34.3228C34.4725 26.0859 34.5936 26.2073 34.5936 26.357V34.2787C34.5936 34.4281 34.4725 34.5495 34.3228 34.5495H19.8626C19.7132 34.5495 19.5918 34.4281 19.5918 34.2787Z" fill="black"/>
<path d="M19.5918 34.2787V26.357C19.5918 26.2073 19.7132 26.0859 19.8626 26.0859H34.3228C34.4725 26.0859 34.5936 26.2073 34.5936 26.357V34.2787C34.5936 34.4281 34.4725 34.5495 34.3228 34.5495H19.8626C19.7132 34.5495 19.5918 34.4281 19.5918 34.2787Z" fill="url(#paint23_linear)"/>
</g>
<path d="M29.0271 22.9365H25.0146C24.8595 22.9365 24.7334 22.8104 24.7334 22.6552V21.7447C24.7334 21.5893 24.8595 21.4635 25.0146 21.4635C25.1698 21.4635 25.2959 21.5893 25.2959 21.7447V22.374H28.7459V21.7447C28.7459 21.5893 28.8719 21.4635 29.0271 21.4635C29.1823 21.4635 29.3084 21.5893 29.3084 21.7447V22.6552C29.3084 22.8104 29.1823 22.9365 29.0271 22.9365Z" fill="#69EBFC"/>
<path d="M29.0271 22.9365H25.0146C24.8595 22.9365 24.7334 22.8104 24.7334 22.6552V21.7447C24.7334 21.5893 24.8595 21.4635 25.0146 21.4635C25.1698 21.4635 25.2959 21.5893 25.2959 21.7447V22.374H28.7459V21.7447C28.7459 21.5893 28.8719 21.4635 29.0271 21.4635C29.1823 21.4635 29.3084 21.5893 29.3084 21.7447V22.6552C29.3084 22.8104 29.1823 22.9365 29.0271 22.9365Z" fill="url(#paint24_linear)"/>
<path d="M29.0271 29.1061H25.0146C24.8595 29.1061 24.7334 28.98 24.7334 28.8248V27.9141C24.7334 27.7589 24.8595 27.6328 25.0146 27.6328C25.1698 27.6328 25.2959 27.7589 25.2959 27.9141V28.5436H28.7459V27.9141C28.7459 27.7589 28.8719 27.6328 29.0271 27.6328C29.1823 27.6328 29.3084 27.7589 29.3084 27.9141V28.8248C29.3084 28.98 29.1823 29.1061 29.0271 29.1061Z" fill="#69EBFC"/>
<path d="M29.0271 29.1061H25.0146C24.8595 29.1061 24.7334 28.98 24.7334 28.8248V27.9141C24.7334 27.7589 24.8595 27.6328 25.0146 27.6328C25.1698 27.6328 25.2959 27.7589 25.2959 27.9141V28.5436H28.7459V27.9141C28.7459 27.7589 28.8719 27.6328 29.0271 27.6328C29.1823 27.6328 29.3084 27.7589 29.3084 27.9141V28.8248C29.3084 28.98 29.1823 29.1061 29.0271 29.1061Z" fill="url(#paint25_linear)"/>
<path d="M35.4289 11.3203H18.7568C18.4413 11.3203 18.1855 11.0646 18.1855 10.749V0.571289C18.1855 0.255707 18.4413 0 18.7568 0H35.4286C35.7444 0 36.0001 0.255707 36.0001 0.571289V10.749C36.0001 11.0646 35.7444 11.3203 35.4289 11.3203Z" fill="#6770E6"/>
<path d="M35.4289 11.3203H18.7568C18.4413 11.3203 18.1855 11.0646 18.1855 10.749V0.571289C18.1855 0.255707 18.4413 0 18.7568 0H35.4286C35.7444 0 36.0001 0.255707 36.0001 0.571289V10.749C36.0001 11.0646 35.7444 11.3203 35.4289 11.3203Z" fill="url(#paint26_linear)"/>
<path d="M35.4289 0H18.7568C18.4413 0 18.1855 0.255707 18.1855 0.571289V1.27441C18.1855 0.958832 18.4413 0.703125 18.7568 0.703125H35.4286C35.7444 0.703125 36.0001 0.958832 36.0001 1.27441V0.571289C36.0001 0.255707 35.7444 0 35.4289 0Z" fill="white" fill-opacity="0.1"/>
<g filter="url(#filter4_d)">
<path d="M19.5918 9.59903V1.67734C19.5918 1.52765 19.7132 1.40625 19.8626 1.40625H26.0474C26.1968 1.40625 26.3182 1.52765 26.3182 1.67734V9.59903C26.3182 9.74844 26.1968 9.86984 26.0474 9.86984H19.8626C19.7132 9.86984 19.5918 9.74844 19.5918 9.59903Z" fill="#5861C7"/>
<path d="M19.5918 9.59903V1.67734C19.5918 1.52765 19.7132 1.40625 19.8626 1.40625H26.0474C26.1968 1.40625 26.3182 1.52765 26.3182 1.67734V9.59903C26.3182 9.74844 26.1968 9.86984 26.0474 9.86984H19.8626C19.7132 9.86984 19.5918 9.74844 19.5918 9.59903Z" fill="url(#paint27_linear)"/>
<path d="M19.5918 9.59903V1.67734C19.5918 1.52765 19.7132 1.40625 19.8626 1.40625H26.0474C26.1968 1.40625 26.3182 1.52765 26.3182 1.67734V9.59903C26.3182 9.74844 26.1968 9.86984 26.0474 9.86984H19.8626C19.7132 9.86984 19.5918 9.74844 19.5918 9.59903Z" fill="url(#paint28_linear)"/>
</g>
<g filter="url(#filter5_d)">
<path d="M27.8672 9.59903V1.67734C27.8672 1.52765 27.9883 1.40625 28.138 1.40625H34.3225C34.4722 1.40625 34.5936 1.52765 34.5936 1.67734V9.59903C34.5936 9.74844 34.4722 9.86984 34.3225 9.86984H28.138C27.9883 9.86984 27.8672 9.74844 27.8672 9.59903Z" fill="#5861C7"/>
<path d="M27.8672 9.59903V1.67734C27.8672 1.52765 27.9883 1.40625 28.138 1.40625H34.3225C34.4722 1.40625 34.5936 1.52765 34.5936 1.67734V9.59903C34.5936 9.74844 34.4722 9.86984 34.3225 9.86984H28.138C27.9883 9.86984 27.8672 9.74844 27.8672 9.59903Z" fill="url(#paint29_linear)"/>
<path d="M27.8672 9.59903V1.67734C27.8672 1.52765 27.9883 1.40625 28.138 1.40625H34.3225C34.4722 1.40625 34.5936 1.52765 34.5936 1.67734V9.59903C34.5936 9.74844 34.4722 9.86984 34.3225 9.86984H28.138C27.9883 9.86984 27.8672 9.74844 27.8672 9.59903Z" fill="url(#paint30_linear)"/>
</g>
<path d="M24.9123 5.66C24.9123 5.93768 24.6871 6.1629 24.4094 6.1629C24.1315 6.1629 23.9062 5.93768 23.9062 5.66C23.9062 5.38232 24.1315 5.1571 24.4094 5.1571C24.6871 5.1571 24.9123 5.38232 24.9123 5.66Z" fill="#69EBFC"/>
<path d="M24.9123 5.66C24.9123 5.93768 24.6871 6.1629 24.4094 6.1629C24.1315 6.1629 23.9062 5.93768 23.9062 5.66C23.9062 5.38232 24.1315 5.1571 24.4094 5.1571C24.6871 5.1571 24.9123 5.38232 24.9123 5.66Z" fill="url(#paint31_linear)"/>
<path d="M30.2792 5.66C30.2792 5.93768 30.054 6.1629 29.7763 6.1629C29.4984 6.1629 29.2734 5.93768 29.2734 5.66C29.2734 5.38232 29.4984 5.1571 29.7763 5.1571C30.054 5.1571 30.2792 5.38232 30.2792 5.66Z" fill="#69EBFC"/>
<path d="M30.2792 5.66C30.2792 5.93768 30.054 6.1629 29.7763 6.1629C29.4984 6.1629 29.2734 5.93768 29.2734 5.66C29.2734 5.38232 29.4984 5.1571 29.7763 5.1571C30.054 5.1571 30.2792 5.38232 30.2792 5.66Z" fill="url(#paint32_linear)"/>
<path d="M12.7828 25.7734H2.56055V31.7734L12.7828 25.7734Z" fill="white" fill-opacity="0.1"/>
<path d="M14.4443 25.7777L4.44434 31.7777H5.111L14.8888 25.7777H14.4443Z" fill="white" fill-opacity="0.05"/>
</g>
<defs>
<filter id="filter0_d" x="-2.5791" y="20.6466" width="23.3438" height="16.2406" filterUnits="userSpaceOnUse" color-interpolation-filters="sRGB">
<feFlood flood-opacity="0" result="BackgroundImageFix"/>
<feColorMatrix in="SourceAlpha" type="matrix" values="0 0 0 0 0 0 0 0 0 0 0 0 0 0 0 0 0 0 127 0"/>
<feOffset/>
<feGaussianBlur stdDeviation="2"/>
<feColorMatrix type="matrix" values="0 0 0 0 0 0 0 0 0 0 0 0 0 0 0 0 0 0 0.1 0"/>
<feBlend mode="normal" in2="BackgroundImageFix" result="effect1_dropShadow"/>
<feBlend mode="normal" in="SourceGraphic" in2="effect1_dropShadow" result="shape"/>
</filter>
<filter id="filter1_d" x="-1.44336" y="21.7715" width="21.0707" height="13.9906" filterUnits="userSpaceOnUse" color-interpolation-filters="sRGB">
<feFlood flood-opacity="0" result="BackgroundImageFix"/>
<feColorMatrix in="SourceAlpha" type="matrix" values="0 0 0 0 0 0 0 0 0 0 0 0 0 0 0 0 0 0 127 0"/>
<feOffset/>
<feGaussianBlur stdDeviation="2"/>
<feColorMatrix type="matrix" values="0 0 0 0 0 0 0 0 0 0 0 0 0 0 0 0 0 0 0.1 0"/>
<feBlend mode="normal" in2="BackgroundImageFix" result="effect1_dropShadow"/>
<feBlend mode="normal" in="SourceGraphic" in2="effect1_dropShadow" result="shape"/>
</filter>
<filter id="filter2_d" x="15.5918" y="15.9165" width="23.0018" height="12.8073" filterUnits="userSpaceOnUse" color-interpolation-filters="sRGB">
<feFlood flood-opacity="0" result="BackgroundImageFix"/>
<feColorMatrix in="SourceAlpha" type="matrix" values="0 0 0 0 0 0 0 0 0 0 0 0 0 0 0 0 0 0 127 0"/>
<feOffset/>
<feGaussianBlur stdDeviation="2"/>
<feColorMatrix type="matrix" values="0 0 0 0 0 0 0 0 0 0 0 0 0 0 0 0 0 0 0.1 0"/>
<feBlend mode="normal" in2="BackgroundImageFix" result="effect1_dropShadow"/>
<feBlend mode="normal" in="SourceGraphic" in2="effect1_dropShadow" result="shape"/>
</filter>
<filter id="filter3_d" x="15.5918" y="22.0859" width="23.0018" height="16.4636" filterUnits="userSpaceOnUse" color-interpolation-filters="sRGB">
<feFlood flood-opacity="0" result="BackgroundImageFix"/>
<feColorMatrix in="SourceAlpha" type="matrix" values="0 0 0 0 0 0 0 0 0 0 0 0 0 0 0 0 0 0 127 0"/>
<feOffset/>
<feGaussianBlur stdDeviation="2"/>
<feColorMatrix type="matrix" values="0 0 0 0 0 0 0 0 0 0 0 0 0 0 0 0 0 0 0.1 0"/>
<feBlend mode="normal" in2="BackgroundImageFix" result="effect1_dropShadow"/>
<feBlend mode="normal" in="SourceGraphic" in2="effect1_dropShadow" result="shape"/>
</filter>
<filter id="filter4_d" x="15.5918" y="-2.59375" width="14.7264" height="16.4636" filterUnits="userSpaceOnUse" color-interpolation-filters="sRGB">
<feFlood flood-opacity="0" result="BackgroundImageFix"/>
<feColorMatrix in="SourceAlpha" type="matrix" values="0 0 0 0 0 0 0 0 0 0 0 0 0 0 0 0 0 0 127 0"/>
<feOffset/>
<feGaussianBlur stdDeviation="2"/>
<feColorMatrix type="matrix" values="0 0 0 0 0 0 0 0 0 0 0 0 0 0 0 0 0 0 0.1 0"/>
<feBlend mode="normal" in2="BackgroundImageFix" result="effect1_dropShadow"/>
<feBlend mode="normal" in="SourceGraphic" in2="effect1_dropShadow" result="shape"/>
</filter>
<filter id="filter5_d" x="23.8672" y="-2.59375" width="14.7264" height="16.4636" filterUnits="userSpaceOnUse" color-interpolation-filters="sRGB">
<feFlood flood-opacity="0" result="BackgroundImageFix"/>
<feColorMatrix in="SourceAlpha" type="matrix" values="0 0 0 0 0 0 0 0 0 0 0 0 0 0 0 0 0 0 127 0"/>
<feOffset/>
<feGaussianBlur stdDeviation="2"/>
<feColorMatrix type="matrix" values="0 0 0 0 0 0 0 0 0 0 0 0 0 0 0 0 0 0 0.1 0"/>
<feBlend mode="normal" in2="BackgroundImageFix" result="effect1_dropShadow"/>
<feBlend mode="normal" in="SourceGraphic" in2="effect1_dropShadow" result="shape"/>
</filter>
<linearGradient id="paint0_linear" x1="15.9334" y1="34.2932" x2="15.9334" y2="35.9999" gradientUnits="userSpaceOnUse">
<stop stop-color="#BBC9DE"/>
<stop offset="1" stop-color="#66758A"/>
</linearGradient>
<linearGradient id="paint1_linear" x1="15.9334" y1="34.2932" x2="15.9334" y2="35.9999" gradientUnits="userSpaceOnUse">
<stop stop-color="#A2B4CC"/>
<stop offset="1" stop-color="#404E62"/>
</linearGradient>
<linearGradient id="paint2_linear" x1="9.09241" y1="0" x2="9.09241" y2="5.4863" gradientUnits="userSpaceOnUse">
<stop stop-color="#7CFFE7"/>
<stop offset="1" stop-color="#5FCAEC"/>
</linearGradient>
<linearGradient id="paint3_linear" x1="9.09332" y1="5.48645" x2="9.09332" y2="11.3205" gradientUnits="userSpaceOnUse">
<stop stop-color="#7CFFE7"/>
<stop offset="1" stop-color="#5FCAEC"/>
</linearGradient>
<linearGradient id="paint4_linear" x1="9.0927" y1="18.5104" x2="9.0927" y2="24.2223" gradientUnits="userSpaceOnUse">
<stop stop-color="#BBC9DE"/>
<stop offset="1" stop-color="#66758A"/>
</linearGradient>
<linearGradient id="paint5_linear" x1="9.0927" y1="21.8337" x2="9.0927" y2="34.2933" gradientUnits="userSpaceOnUse">
<stop stop-color="#A2B4CC"/>
<stop offset="1" stop-color="#404E62"/>
</linearGradient>
<linearGradient id="paint6_linear" x1="9.09279" y1="24.6466" x2="9.09279" y2="32.8872" gradientUnits="userSpaceOnUse">
<stop stop-color="#BBC9DE"/>
<stop offset="1" stop-color="#66758A"/>
</linearGradient>
<linearGradient id="paint7_linear" x1="9.09199" y1="25.7715" x2="9.09199" y2="31.762" gradientUnits="userSpaceOnUse">
<stop stop-color="#7CFFE7"/>
<stop offset="1" stop-color="#5FCAEC"/>
</linearGradient>
<linearGradient id="paint8_linear" x1="-0.415512" y1="20.245" x2="-0.415512" y2="31.762" gradientUnits="userSpaceOnUse">
<stop stop-color="#00E0FF"/>
<stop offset="1" stop-color="#0085FF"/>
</linearGradient>
<linearGradient id="paint9_linear" x1="2.25269" y1="34.2932" x2="2.25269" y2="35.9999" gradientUnits="userSpaceOnUse">
<stop stop-color="#BBC9DE"/>
<stop offset="1" stop-color="#66758A"/>
</linearGradient>
<linearGradient id="paint10_linear" x1="2.25269" y1="34.2932" x2="2.25269" y2="35.9999" gradientUnits="userSpaceOnUse">
<stop stop-color="#A2B4CC"/>
<stop offset="1" stop-color="#404E62"/>
</linearGradient>
<linearGradient id="paint11_linear" x1="-2.78968" y1="21.882" x2="-2.78968" y2="23.5273" gradientUnits="userSpaceOnUse">
<stop stop-color="#00E0FF"/>
<stop offset="1" stop-color="#0085FF"/>
</linearGradient>
<linearGradient id="paint12_linear" x1="0.387741" y1="22" x2="0.387741" y2="24.8889" gradientUnits="userSpaceOnUse">
<stop stop-color="#00E0FF"/>
<stop offset="1" stop-color="#0085FF"/>
</linearGradient>
<linearGradient id="paint13_linear" x1="16.6485" y1="22" x2="16.6485" y2="24.8889" gradientUnits="userSpaceOnUse">
<stop stop-color="#00E0FF"/>
<stop offset="1" stop-color="#0085FF"/>
</linearGradient>
<linearGradient id="paint14_linear" x1="1.68282" y1="19.0793" x2="1.68282" y2="21.2645" gradientUnits="userSpaceOnUse">
<stop stop-color="#7CFFE7"/>
<stop offset="1" stop-color="#5FCAEC"/>
</linearGradient>
<linearGradient id="paint15_linear" x1="10.0334" y1="19.3993" x2="10.0334" y2="20.9442" gradientUnits="userSpaceOnUse">
<stop stop-color="#7CFFE7"/>
<stop offset="1" stop-color="#5FCAEC"/>
</linearGradient>
<linearGradient id="paint16_linear" x1="12.3224" y1="19.3993" x2="12.3224" y2="20.9442" gradientUnits="userSpaceOnUse">
<stop stop-color="#7CFFE7"/>
<stop offset="1" stop-color="#5FCAEC"/>
</linearGradient>
<linearGradient id="paint17_linear" x1="14.6115" y1="19.3993" x2="14.6115" y2="20.9442" gradientUnits="userSpaceOnUse">
<stop stop-color="#7CFFE7"/>
<stop offset="1" stop-color="#5FCAEC"/>
</linearGradient>
<linearGradient id="paint18_linear" x1="16.9006" y1="19.3993" x2="16.9006" y2="20.9442" gradientUnits="userSpaceOnUse">
<stop stop-color="#7CFFE7"/>
<stop offset="1" stop-color="#5FCAEC"/>
</linearGradient>
<linearGradient id="paint19_linear" x1="4.81567" y1="18" x2="4.81567" y2="18.5103" gradientUnits="userSpaceOnUse">
<stop stop-color="#A2B4CC"/>
<stop offset="1" stop-color="#404E62"/>
</linearGradient>
<linearGradient id="paint20_linear" x1="13.3349" y1="18" x2="13.3349" y2="18.5103" gradientUnits="userSpaceOnUse">
<stop stop-color="#A2B4CC"/>
<stop offset="1" stop-color="#404E62"/>
</linearGradient>
<linearGradient id="paint21_linear" x1="14.1347" y1="2.37558" x2="14.1347" y2="36.0001" gradientUnits="userSpaceOnUse">
<stop stop-color="#00E0FF"/>
<stop offset="1" stop-color="#0085FF"/>
</linearGradient>
<linearGradient id="paint22_linear" x1="16.1805" y1="15.4816" x2="16.1805" y2="24.7238" gradientUnits="userSpaceOnUse">
<stop stop-color="#00E0FF"/>
<stop offset="1" stop-color="#0085FF"/>
</linearGradient>
<linearGradient id="paint23_linear" x1="16.1805" y1="18.278" x2="16.1805" y2="34.5495" gradientUnits="userSpaceOnUse">
<stop stop-color="#00E0FF"/>
<stop offset="1" stop-color="#0085FF"/>
</linearGradient>
<linearGradient id="paint24_linear" x1="27.0209" y1="21.4635" x2="27.0209" y2="22.9365" gradientUnits="userSpaceOnUse">
<stop stop-color="#7CFFE7"/>
<stop offset="1" stop-color="#5FCAEC"/>
</linearGradient>
<linearGradient id="paint25_linear" x1="27.0209" y1="27.6328" x2="27.0209" y2="29.1061" gradientUnits="userSpaceOnUse">
<stop stop-color="#7CFFE7"/>
<stop offset="1" stop-color="#5FCAEC"/>
</linearGradient>
<linearGradient id="paint26_linear" x1="14.1347" y1="-10.4434" x2="14.1347" y2="11.3203" gradientUnits="userSpaceOnUse">
<stop stop-color="#00E0FF"/>
<stop offset="1" stop-color="#0085FF"/>
</linearGradient>
<linearGradient id="paint27_linear" x1="18.0623" y1="-6.40169" x2="18.0623" y2="9.86984" gradientUnits="userSpaceOnUse">
<stop stop-color="#00E0FF"/>
<stop offset="1" stop-color="#0085FF"/>
</linearGradient>
<linearGradient id="paint28_linear" x1="18.0623" y1="-6.40169" x2="18.0623" y2="9.86984" gradientUnits="userSpaceOnUse">
<stop stop-color="#00E0FF"/>
<stop offset="1" stop-color="#0085FF"/>
</linearGradient>
<linearGradient id="paint29_linear" x1="26.3377" y1="-6.40169" x2="26.3377" y2="9.86984" gradientUnits="userSpaceOnUse">
<stop stop-color="#00E0FF"/>
<stop offset="1" stop-color="#0085FF"/>
</linearGradient>
<linearGradient id="paint30_linear" x1="26.3377" y1="-6.40169" x2="26.3377" y2="9.86984" gradientUnits="userSpaceOnUse">
<stop stop-color="#00E0FF"/>
<stop offset="1" stop-color="#0085FF"/>
</linearGradient>
<linearGradient id="paint31_linear" x1="24.4093" y1="5.1571" x2="24.4093" y2="6.1629" gradientUnits="userSpaceOnUse">
<stop stop-color="#7CFFE7"/>
<stop offset="1" stop-color="#5FCAEC"/>
</linearGradient>
<linearGradient id="paint32_linear" x1="29.7763" y1="5.1571" x2="29.7763" y2="6.1629" gradientUnits="userSpaceOnUse">
<stop stop-color="#7CFFE7"/>
<stop offset="1" stop-color="#5FCAEC"/>
</linearGradient>
<clipPath id="clip0">
<rect width="36" height="36" fill="white"/>
</clipPath>
</defs>
</svg>
