<svg width="36" height="36" viewBox="0 0 36 36" fill="none" xmlns="http://www.w3.org/2000/svg">
<path d="M34.8739 28.4843V35.1746H30.4238V28.4843C30.4238 27.4451 31.1762 26.569 32.1746 26.3546C32.5379 26.2763 32.9149 26.289 33.2721 26.3915C33.6293 26.4941 33.9557 26.6833 34.2221 26.9424C34.4282 27.1429 34.5921 27.3826 34.704 27.6474C34.816 27.9122 34.8737 28.1968 34.8739 28.4843Z" fill="#D4E1F4"/>
<path d="M32.1645 26.3037L32.1757 26.3544C31.1773 26.5688 30.425 27.4449 30.425 28.4841V29.2829H30.3539L17.9424 29.2794L17.9438 21.9943C17.9392 21.7479 17.9839 21.5031 18.0753 21.2742C18.1666 21.0454 18.3028 20.8371 18.4758 20.6616C18.6488 20.4861 18.8551 20.347 19.0826 20.2523C19.3102 20.1577 19.5543 20.1095 19.8007 20.1106H30.3033C31.3313 20.1106 32.1645 20.9269 32.1645 21.9345V26.3037Z" fill="url(#paint0_linear)"/>
<path d="M17.9434 29.2797L30.355 29.2832H30.426V33.8436H30.3606L5.57758 33.8359H5.57617V29.2769H5.65773L17.9434 29.2797Z" fill="url(#paint1_linear)"/>
<path d="M29.5629 17.0851H6.43574L6.37598 6.20215H29.5629V17.0851Z" fill="#D4E1F4"/>
<path d="M17.9391 21.9345L17.9419 29.2793L5.65625 29.2765H5.57469V28.4841C5.57451 28.1966 5.51675 27.912 5.4048 27.6472C5.29286 27.3824 5.129 27.1426 4.92289 26.9422C4.5774 26.6041 4.13157 26.3872 3.65234 26.3241L3.65516 26.3037V21.9345C3.65516 20.9276 4.48766 20.1106 5.51562 20.1106H16.0787C17.1059 20.1106 17.9391 20.9276 17.9391 21.9345Z" fill="url(#paint2_linear)"/>
<path d="M5.57508 33.8358V35.1746H1.125V28.4843C1.125 27.2855 2.12625 26.304 3.34969 26.304C3.45105 26.304 3.55229 26.3108 3.65274 26.3243C4.13197 26.3875 4.57779 26.6043 4.92328 26.9424C5.12939 27.1429 5.29325 27.3826 5.4052 27.6474C5.51715 27.9122 5.57491 28.1968 5.57508 28.4843V33.8358Z" fill="#D4E1F4"/>
<path d="M26.7197 17.0606V17.0852H19.77V17.0606L19.1133 16.4236L22.7252 13.6483L26.7197 17.0606Z" fill="url(#paint3_linear)"/>
<path d="M19.7697 17.0607V17.0853H9.73047V17.0607L14.9343 12.3673L19.113 16.4236L19.7697 17.0607Z" fill="url(#paint4_linear)"/>
<path d="M19.1787 12.9917C19.9554 12.9917 20.585 12.3621 20.585 11.5855C20.585 10.8088 19.9554 10.1792 19.1787 10.1792C18.4021 10.1792 17.7725 10.8088 17.7725 11.5855C17.7725 12.3621 18.4021 12.9917 19.1787 12.9917Z" fill="#6FE3FF"/>
<path d="M27.5855 25.9835C27.6258 25.9837 27.6651 25.9957 27.6986 26.0182C27.732 26.0407 27.758 26.0726 27.7734 26.1099C27.7887 26.1472 27.7926 26.1881 27.7847 26.2276C27.7767 26.2671 27.7572 26.3034 27.7287 26.3319C27.7002 26.3603 27.6638 26.3797 27.6243 26.3875C27.5848 26.3953 27.5438 26.3912 27.5066 26.3757C27.4694 26.3603 27.4375 26.3342 27.4152 26.3006C27.3928 26.2671 27.3809 26.2277 27.3809 26.1874C27.3809 26.1606 27.3862 26.134 27.3964 26.1092C27.4067 26.0844 27.4218 26.0619 27.4408 26.043C27.4598 26.0241 27.4824 26.009 27.5072 25.9988C27.532 25.9886 27.5586 25.9834 27.5855 25.9835Z" fill="#F8EC7D"/>
<path d="M27.5855 22.9988C27.6259 22.9989 27.6653 23.0109 27.6989 23.0334C27.7324 23.0559 27.7586 23.0878 27.774 23.1252C27.7894 23.1625 27.7933 23.2036 27.7854 23.2432C27.7774 23.2828 27.7579 23.3192 27.7293 23.3477C27.7007 23.3762 27.6643 23.3956 27.6246 23.4034C27.585 23.4113 27.5439 23.4071 27.5066 23.3916C27.4693 23.3761 27.4375 23.3499 27.4151 23.3162C27.3927 23.2826 27.3808 23.2431 27.3809 23.2027C27.3809 23.1758 27.3862 23.1493 27.3964 23.1245C27.4067 23.0997 27.4218 23.0772 27.4408 23.0583C27.4598 23.0393 27.4824 23.0243 27.5072 23.0141C27.532 23.0039 27.5586 22.9987 27.5855 22.9988Z" fill="#F8EC7D"/>
<path d="M22.5203 25.9835C22.5607 25.9835 22.6001 25.9955 22.6336 26.0179C22.6671 26.0403 22.6933 26.0721 22.7087 26.1094C22.7241 26.1467 22.7282 26.1877 22.7203 26.2272C22.7124 26.2668 22.693 26.3031 22.6645 26.3316C22.636 26.3601 22.5997 26.3796 22.5601 26.3874C22.5205 26.3953 22.4795 26.3913 22.4423 26.3758C22.405 26.3604 22.3732 26.3342 22.3508 26.3007C22.3284 26.2672 22.3164 26.2278 22.3164 26.1874C22.3164 26.1333 22.3379 26.0815 22.3761 26.0432C22.4144 26.005 22.4662 25.9835 22.5203 25.9835Z" fill="#F8EC7D"/>
<path d="M22.5203 22.9988C22.5607 22.9987 22.6003 23.0106 22.6339 23.0331C22.6676 23.0555 22.6938 23.0874 22.7093 23.1247C22.7248 23.162 22.7289 23.2032 22.721 23.2428C22.7132 23.2825 22.6937 23.3189 22.6651 23.3475C22.6365 23.3761 22.6001 23.3955 22.5604 23.4034C22.5208 23.4113 22.4797 23.4072 22.4423 23.3917C22.405 23.3762 22.3731 23.3499 22.3507 23.3163C22.3283 23.2827 22.3163 23.2431 22.3164 23.2027C22.3164 23.1486 22.3379 23.0967 22.3761 23.0585C22.4144 23.0203 22.4662 22.9988 22.5203 22.9988Z" fill="#F8EC7D"/>
<path d="M13.3318 22.9988C13.3723 22.9987 13.4118 23.0106 13.4454 23.0331C13.4791 23.0555 13.5053 23.0874 13.5208 23.1247C13.5363 23.162 13.5404 23.2032 13.5325 23.2428C13.5247 23.2825 13.5052 23.3189 13.4766 23.3475C13.448 23.3761 13.4116 23.3955 13.372 23.4034C13.3323 23.4113 13.2912 23.4072 13.2539 23.3917C13.2165 23.3762 13.1846 23.3499 13.1622 23.3163C13.1398 23.2827 13.1279 23.2431 13.1279 23.2027C13.1279 23.1486 13.1494 23.0967 13.1877 23.0585C13.2259 23.0203 13.2778 22.9988 13.3318 22.9988Z" fill="#F8EC7D"/>
<path d="M13.3318 26.3913C13.4444 26.3913 13.5357 26.3 13.5357 26.1874C13.5357 26.0748 13.4444 25.9835 13.3318 25.9835C13.2192 25.9835 13.1279 26.0748 13.1279 26.1874C13.1279 26.3 13.2192 26.3913 13.3318 26.3913Z" fill="#F8EC7D"/>
<path d="M8.26711 22.9988C8.30751 22.9989 8.34698 23.0109 8.38053 23.0334C8.41408 23.0559 8.44021 23.0878 8.4556 23.1252C8.471 23.1625 8.47497 23.2036 8.46702 23.2432C8.45907 23.2828 8.43956 23.3192 8.41094 23.3477C8.38233 23.3762 8.3459 23.3956 8.30626 23.4034C8.26663 23.4113 8.22556 23.4071 8.18827 23.3916C8.15097 23.3761 8.11912 23.3499 8.09673 23.3162C8.07434 23.2826 8.06243 23.2431 8.0625 23.2027C8.0625 23.1758 8.0678 23.1493 8.07809 23.1245C8.08838 23.0997 8.10346 23.0772 8.12247 23.0583C8.14148 23.0393 8.16404 23.0243 8.18886 23.0141C8.21368 23.0039 8.24027 22.9987 8.26711 22.9988Z" fill="#F8EC7D"/>
<path d="M8.26711 25.9835C8.30741 25.9837 8.34676 25.9957 8.3802 26.0182C8.41364 26.0407 8.43967 26.0726 8.45499 26.1099C8.47032 26.1472 8.47426 26.1881 8.46631 26.2276C8.45836 26.2671 8.43889 26.3034 8.41034 26.3319C8.3818 26.3603 8.34546 26.3797 8.30593 26.3875C8.26639 26.3953 8.22543 26.3912 8.18821 26.3757C8.151 26.3603 8.11919 26.3342 8.09682 26.3006C8.07444 26.2671 8.0625 26.2277 8.0625 26.1874C8.0625 26.1606 8.0678 26.134 8.07809 26.1092C8.08838 26.0844 8.10346 26.0619 8.12247 26.043C8.14148 26.0241 8.16404 26.009 8.18886 25.9988C8.21368 25.9886 8.24027 25.9834 8.26711 25.9835Z" fill="#F8EC7D"/>
<defs>
<linearGradient id="paint0_linear" x1="14.7059" y1="11.6489" x2="14.7059" y2="29.2829" gradientUnits="userSpaceOnUse">
<stop stop-color="#00E0FF"/>
<stop offset="1" stop-color="#0085FF"/>
</linearGradient>
<linearGradient id="paint1_linear" x1="-0.0744421" y1="25.0638" x2="-0.0744421" y2="33.8436" gradientUnits="userSpaceOnUse">
<stop stop-color="#9DF3FF"/>
<stop offset="1" stop-color="#006CCF"/>
</linearGradient>
<linearGradient id="paint2_linear" x1="0.403027" y1="11.6521" x2="0.403027" y2="29.2794" gradientUnits="userSpaceOnUse">
<stop stop-color="#00E0FF"/>
<stop offset="1" stop-color="#0085FF"/>
</linearGradient>
<linearGradient id="paint3_linear" x1="17.3837" y1="10.4777" x2="17.3837" y2="17.0852" gradientUnits="userSpaceOnUse">
<stop stop-color="#00E0FF"/>
<stop offset="1" stop-color="#0085FF"/>
</linearGradient>
<linearGradient id="paint4_linear" x1="14.7501" y1="12.3673" x2="14.7501" y2="17.0853" gradientUnits="userSpaceOnUse">
<stop stop-color="#7CFFE7"/>
<stop offset="1" stop-color="#5FCAEC"/>
</linearGradient>
</defs>
</svg>
