<svg width="36" height="36" viewBox="0 0 36 36" fill="none" xmlns="http://www.w3.org/2000/svg">
<path d="M2.92596 18.895H14.0419C14.3522 18.895 14.6498 19.028 14.8693 19.2646C15.0887 19.5012 15.212 19.8221 15.212 20.1567V25.8345H1.75586V20.1567C1.75586 19.8221 1.87914 19.5012 2.09857 19.2646C2.31801 19.028 2.61563 18.895 2.92596 18.895Z" fill="url(#paint0_linear)"/>
<path d="M2.34019 25.2037H14.6262C15.2469 25.2037 15.8421 25.4696 16.281 25.9428C16.7199 26.4161 16.9664 27.0579 16.9664 27.7272V33.405H0V27.7272C0 27.0579 0.246556 26.4161 0.685427 25.9428C1.1243 25.4696 1.71954 25.2037 2.34019 25.2037Z" fill="url(#paint1_linear)"/>
<path d="M3.80309 30.2507V34.2533C3.79919 34.561 3.6738 34.8547 3.45448 35.0697C3.23515 35.2847 2.93982 35.4034 2.63336 35.3999H2.63262C2.32615 35.4034 2.03082 35.2847 1.8115 35.0697C1.59218 34.8547 1.46679 34.561 1.46289 34.2533V30.2507H3.80309Z" fill="url(#paint2_linear)"/>
<path d="M15.5043 30.2507V34.2533C15.5004 34.561 15.375 34.8547 15.1556 35.0697C14.9363 35.2847 14.641 35.4034 14.3345 35.3999H14.3338C14.0273 35.4034 13.732 35.2847 13.5127 35.0697C13.2933 34.8547 13.168 34.561 13.1641 34.2533V30.2507H15.5043Z" fill="url(#paint3_linear)"/>
<path d="M0 30.8816H16.9664V33.4051H0V30.8816Z" fill="#D4E1F4"/>
<path d="M0 28.358H16.9664V30.8815H0V28.358Z" fill="url(#paint4_linear)"/>
<path d="M5.26385 22.6803H11.6994C12.0097 22.6803 12.3073 22.8132 12.5268 23.0499C12.7462 23.2865 12.8695 23.6074 12.8695 23.942V25.2038H4.09375V23.942C4.09375 23.6074 4.21703 23.2865 4.43646 23.0499C4.6559 22.8132 4.95352 22.6803 5.26385 22.6803Z" fill="#E9EEF2"/>
<path d="M21.9601 18.8949H33.0761C33.3864 18.8949 33.684 19.0278 33.9035 19.2644C34.1229 19.5011 34.2462 19.822 34.2462 20.1566V25.8344H20.79V20.1566C20.79 19.822 20.9133 19.5011 21.1328 19.2644C21.3522 19.0278 21.6498 18.8949 21.9601 18.8949Z" fill="url(#paint5_linear)"/>
<path d="M21.3744 25.2036H33.6604C34.2811 25.2036 34.8763 25.4695 35.3152 25.9427C35.7541 26.416 36.0006 27.0578 36.0006 27.7271V33.4049H19.0342V27.7271C19.0342 27.0578 19.2807 26.416 19.7196 25.9427C20.1585 25.4695 20.7537 25.2036 21.3744 25.2036Z" fill="url(#paint6_linear)"/>
<path d="M22.8373 30.2506V34.2532C22.8334 34.5609 22.708 34.8546 22.4887 35.0696C22.2693 35.2846 21.974 35.4033 21.6675 35.3998H21.6668C21.3603 35.4033 21.065 35.2846 20.8457 35.0696C20.6264 34.8546 20.501 34.5609 20.4971 34.2532V30.2506H22.8373Z" fill="url(#paint7_linear)"/>
<path d="M34.5384 30.2506V34.2532C34.5345 34.5609 34.4092 34.8546 34.1898 35.0696C33.9705 35.2846 33.6752 35.4033 33.3687 35.3998H33.368C33.0615 35.4033 32.7662 35.2846 32.5469 35.0696C32.3275 34.8546 32.2021 34.5609 32.1982 34.2532V30.2506H34.5384Z" fill="url(#paint8_linear)"/>
<path d="M19.0342 30.8815H36.0006V33.4049H19.0342V30.8815Z" fill="#D4E1F4"/>
<path d="M19.0342 28.3579H36.0006V30.8814H19.0342V28.3579Z" fill="url(#paint9_linear)"/>
<path d="M24.299 22.6802H30.7345C31.0449 22.6802 31.3425 22.8131 31.5619 23.0497C31.7814 23.2863 31.9046 23.6073 31.9046 23.9419V25.2036H23.1289V23.9419C23.1289 23.6073 23.2522 23.2863 23.4716 23.0497C23.6911 22.8131 23.9887 22.6802 24.299 22.6802Z" fill="#E9EEF2"/>
<path d="M16.6426 10.8807H19.185C19.1852 11.2485 19.0952 11.6066 18.9281 11.9032C18.7611 12.1997 18.5257 12.4191 18.2563 12.5295C18.1452 12.5728 18.0298 12.5946 17.9138 12.5942C17.2174 12.5942 16.6533 11.829 16.6426 10.8807Z" fill="#F8EC7D"/>
<path d="M17.912 7.45381C17.7996 7.45381 17.6919 7.40575 17.6124 7.32022C17.5329 7.23468 17.4883 7.11866 17.4883 6.9977V1.05609C17.4883 0.935119 17.5329 0.819105 17.6124 0.733567C17.6919 0.64803 17.7996 0.599976 17.912 0.599976C18.0244 0.599976 18.1322 0.64803 18.2116 0.733567C18.2911 0.819105 18.3358 0.935119 18.3358 1.05609V6.9977C18.3358 7.11866 18.2911 7.23468 18.2116 7.32022C18.1322 7.40575 18.0244 7.45381 17.912 7.45381Z" fill="url(#paint10_linear)"/>
<path d="M21.7269 10.1666V10.8809H14.0996V10.1666C14.0997 9.22001 14.5015 8.31219 15.2167 7.64284C15.9319 6.97348 16.9019 6.59739 17.9133 6.59729C18.0436 6.59711 18.1739 6.60327 18.3035 6.61574C19.2424 6.70645 20.112 7.11966 20.7443 7.7755C21.3766 8.43134 21.7267 9.28326 21.7269 10.1666Z" fill="url(#paint11_linear)"/>
<path d="M17.0556 10.024C16.9811 10.0239 16.9081 10.004 16.8442 9.96614C16.7802 9.92833 16.7278 9.8741 16.6924 9.80919C16.6569 9.74428 16.6399 9.67108 16.6429 9.59735C16.646 9.52361 16.6691 9.45207 16.7098 9.39027C16.9679 8.99716 17.2989 8.65626 17.6854 8.38572C17.7298 8.35465 17.7799 8.33255 17.8328 8.32066C17.8858 8.30878 17.9406 8.30735 17.9941 8.31646C18.0476 8.32556 18.0987 8.34503 18.1447 8.37374C18.1906 8.40245 18.2304 8.43984 18.2617 8.48378C18.293 8.52773 18.3153 8.57736 18.3273 8.62985C18.3393 8.68233 18.3408 8.73665 18.3316 8.78968C18.3224 8.84272 18.3027 8.89345 18.2738 8.93897C18.2448 8.98448 18.2071 9.0239 18.1628 9.05497C17.8615 9.2659 17.6034 9.53169 17.4023 9.83819C17.3647 9.89532 17.3133 9.94224 17.2527 9.97469C17.1922 10.0071 17.1244 10.0241 17.0556 10.024Z" fill="#90A5A2"/>
<defs>
<linearGradient id="paint0_linear" x1="-1.30393" y1="12.4931" x2="-1.30393" y2="25.8345" gradientUnits="userSpaceOnUse">
<stop stop-color="#00E0FF"/>
<stop offset="1" stop-color="#0085FF"/>
</linearGradient>
<linearGradient id="paint1_linear" x1="8.48321" y1="25.2037" x2="8.48321" y2="33.405" gradientUnits="userSpaceOnUse">
<stop stop-color="#7CFFE7"/>
<stop offset="1" stop-color="#5FCAEC"/>
</linearGradient>
<linearGradient id="paint2_linear" x1="2.63299" y1="30.2507" x2="2.63299" y2="35.4" gradientUnits="userSpaceOnUse">
<stop stop-color="#A2B4CC"/>
<stop offset="1" stop-color="#404E62"/>
</linearGradient>
<linearGradient id="paint3_linear" x1="14.3342" y1="30.2507" x2="14.3342" y2="35.4" gradientUnits="userSpaceOnUse">
<stop stop-color="#A2B4CC"/>
<stop offset="1" stop-color="#404E62"/>
</linearGradient>
<linearGradient id="paint4_linear" x1="-3.858" y1="26.0301" x2="-3.858" y2="30.8815" gradientUnits="userSpaceOnUse">
<stop stop-color="#00E0FF"/>
<stop offset="1" stop-color="#0085FF"/>
</linearGradient>
<linearGradient id="paint5_linear" x1="17.7302" y1="12.493" x2="17.7302" y2="25.8344" gradientUnits="userSpaceOnUse">
<stop stop-color="#00E0FF"/>
<stop offset="1" stop-color="#0085FF"/>
</linearGradient>
<linearGradient id="paint6_linear" x1="27.5174" y1="25.2036" x2="27.5174" y2="33.4049" gradientUnits="userSpaceOnUse">
<stop stop-color="#7CFFE7"/>
<stop offset="1" stop-color="#5FCAEC"/>
</linearGradient>
<linearGradient id="paint7_linear" x1="21.6672" y1="30.2506" x2="21.6672" y2="35.3999" gradientUnits="userSpaceOnUse">
<stop stop-color="#A2B4CC"/>
<stop offset="1" stop-color="#404E62"/>
</linearGradient>
<linearGradient id="paint8_linear" x1="33.3683" y1="30.2506" x2="33.3683" y2="35.3999" gradientUnits="userSpaceOnUse">
<stop stop-color="#A2B4CC"/>
<stop offset="1" stop-color="#404E62"/>
</linearGradient>
<linearGradient id="paint9_linear" x1="15.1762" y1="26.0299" x2="15.1762" y2="30.8814" gradientUnits="userSpaceOnUse">
<stop stop-color="#00E0FF"/>
<stop offset="1" stop-color="#0085FF"/>
</linearGradient>
<linearGradient id="paint10_linear" x1="17.912" y1="0.599976" x2="17.912" y2="7.45381" gradientUnits="userSpaceOnUse">
<stop stop-color="#A2B4CC"/>
<stop offset="1" stop-color="#404E62"/>
</linearGradient>
<linearGradient id="paint11_linear" x1="17.9133" y1="6.59729" x2="17.9133" y2="10.8809" gradientUnits="userSpaceOnUse">
<stop stop-color="#A2B4CC"/>
<stop offset="1" stop-color="#404E62"/>
</linearGradient>
</defs>
</svg>
