<svg width="36" height="36" viewBox="0 0 36 36" fill="none" xmlns="http://www.w3.org/2000/svg">
<g clip-path="url(#clip0)">
<path d="M24.9844 -0.00012207H11.3743C11.2569 -0.00012207 11.1443 0.0465195 11.0613 0.129542C10.9783 0.212564 10.9316 0.325167 10.9316 0.442579C10.9316 0.55999 10.9783 0.672593 11.0613 0.755615C11.1443 0.838638 11.2569 0.885279 11.3743 0.885279H13.8166L13.7502 9.72601V9.76143C13.7502 9.87884 13.7968 9.99144 13.8798 10.0745C13.9629 10.1575 14.0755 10.2041 14.1929 10.2041C14.3103 10.2041 14.4229 10.1575 14.5059 10.0745C14.5889 9.99144 14.6356 9.87884 14.6356 9.76143L14.702 0.885279H17.7079C17.7065 0.900036 17.7057 0.914793 17.7057 0.929549V21.2739C17.7057 21.3913 17.7523 21.5039 17.8354 21.5869C17.9184 21.6699 18.031 21.7166 18.1484 21.7166C18.2658 21.7166 18.3784 21.6699 18.4614 21.5869C18.5445 21.5039 18.5911 21.3913 18.5911 21.2739V0.929549C18.5911 0.914765 18.5904 0.899989 18.5889 0.885279H22.0995V13.8719C22.0995 13.9893 22.1461 14.1019 22.2292 14.1849C22.3122 14.268 22.4248 14.3146 22.5422 14.3146C22.6596 14.3146 22.7722 14.268 22.8552 14.1849C22.9383 14.1019 22.9849 13.9893 22.9849 13.8719V0.885279H24.9844C25.1018 0.885279 25.2144 0.838638 25.2975 0.755615C25.3805 0.672593 25.4271 0.55999 25.4271 0.442579C25.4271 0.325167 25.3805 0.212564 25.2975 0.129542C25.2144 0.0465195 25.1018 -0.000122069 24.9844 -0.00012207Z" fill="#6FE3FF"/>
<path d="M14.1942 9.72608C14.2297 9.72024 14.266 9.72608 14.2978 9.74271C14.3296 9.75935 14.3552 9.78589 14.3706 9.81831L14.9026 10.9228C14.9141 10.9472 14.9314 10.9684 14.953 10.9845C14.9746 11.0005 14.9999 11.0111 15.0265 11.0151L16.255 11.2113C16.2856 11.2156 16.3143 11.2285 16.3378 11.2485C16.3613 11.2684 16.3787 11.2947 16.3879 11.3241C16.3971 11.3536 16.3977 11.385 16.3898 11.4148C16.3818 11.4446 16.3655 11.4715 16.3428 11.4925L15.4367 12.3306C15.4169 12.3486 15.4019 12.3713 15.393 12.3965C15.3842 12.4218 15.3817 12.4488 15.3858 12.4753L15.5755 13.6831C15.5797 13.7137 15.5753 13.7449 15.5628 13.7732C15.5502 13.8014 15.5301 13.8257 15.5046 13.8431C15.4791 13.8606 15.4492 13.8706 15.4183 13.8721C15.3875 13.8735 15.3568 13.8663 15.3298 13.8513L14.2378 13.264C14.2139 13.2513 14.1873 13.2445 14.1602 13.2441C14.1331 13.2437 14.1063 13.2498 14.0821 13.2618L12.9702 13.8115C12.9426 13.8254 12.9117 13.8315 12.881 13.8289C12.8502 13.8263 12.8207 13.8152 12.7959 13.7968C12.7711 13.7784 12.7519 13.7535 12.7404 13.7248C12.729 13.6961 12.7258 13.6648 12.7311 13.6344L12.9628 12.4339C12.9679 12.4078 12.9664 12.3807 12.9586 12.3553C12.9507 12.3298 12.9367 12.3066 12.9178 12.2878L12.0412 11.4194C12.0194 11.3977 12.0042 11.3703 11.9973 11.3403C11.9904 11.3103 11.9922 11.279 12.0024 11.25C12.0125 11.2209 12.0308 11.1954 12.0549 11.1763C12.079 11.1572 12.108 11.1453 12.1386 11.142L13.3738 10.987C13.4004 10.9838 13.4259 10.9741 13.448 10.9588C13.4702 10.9435 13.4882 10.9231 13.5007 10.8992L14.071 9.81315C14.083 9.78977 14.1005 9.76964 14.1219 9.75448C14.1434 9.73932 14.1682 9.72958 14.1942 9.72608Z" fill="url(#paint0_linear)"/>
<path d="M26.0051 18.3551C26.0326 18.3622 26.0572 18.3777 26.0755 18.3994C26.0938 18.4211 26.1049 18.448 26.1073 18.4763C26.1096 18.5046 26.1031 18.5329 26.0886 18.5573C26.0741 18.5818 26.0524 18.6011 26.0265 18.6126C25.9482 18.6539 25.8671 18.6923 25.7844 18.7277C24.1332 19.4338 22.2436 18.7321 21.6755 17.1591C21.2047 15.8583 21.837 14.3538 23.1592 13.633C23.3798 13.5124 23.6129 13.4161 23.8543 13.346C23.8811 13.3362 23.9103 13.335 23.9378 13.3425C23.9653 13.35 23.9898 13.3658 24.008 13.3878C24.0262 13.4098 24.0371 13.4368 24.0393 13.4653C24.0415 13.4937 24.0349 13.5221 24.0203 13.5466C23.4861 14.4483 23.3703 15.5395 23.8071 16.5231C24.2195 17.4527 25.0407 18.0939 26.0051 18.3551Z" fill="url(#paint1_linear)"/>
<path d="M21.3689 32.9987C21.1564 34.5194 19.7781 35.7125 18.1955 35.6092C16.6069 35.5052 15.3895 34.0583 15.3924 32.5177L15.377 32.4704C15.5378 32.4195 15.7023 32.3738 15.8691 32.3332C17.7222 31.8781 19.6778 32.1148 21.3689 32.9987Z" fill="#F8EC7D"/>
<path d="M21.3688 32.9987C19.6776 32.1148 17.7221 31.8781 15.869 32.3332C15.7022 32.3738 15.5377 32.4195 15.3768 32.4704C13.8916 32.9328 12.5811 33.8338 11.6176 35.0551C11.5999 35.0769 11.5775 35.0944 11.552 35.1063C11.5265 35.1182 11.4987 35.1241 11.4706 35.1236C11.4425 35.1231 11.4149 35.1162 11.3898 35.1034C11.3648 35.0907 11.343 35.0724 11.3261 35.0499C10.8911 34.4811 10.5306 33.8589 10.2533 33.1987C8.44192 28.8927 10.53 23.9603 14.9164 22.1828C19.3028 20.4054 24.3282 22.4543 26.1396 26.7603C27.4485 29.8725 26.7203 33.3123 24.5592 35.6512C24.5401 35.6719 24.5167 35.6879 24.4906 35.6982C24.4645 35.7084 24.4364 35.7127 24.4085 35.7105C24.3805 35.7084 24.3534 35.7 24.3291 35.6859C24.3049 35.6718 24.2841 35.6524 24.2685 35.6291C23.5447 34.5171 22.5458 33.6111 21.3688 32.9987Z" fill="url(#paint2_linear)"/>
</g>
<defs>
<linearGradient id="paint0_linear" x1="10.9922" y1="5.89688" x2="10.9922" y2="13.8722" gradientUnits="userSpaceOnUse">
<stop stop-color="#00E0FF"/>
<stop offset="1" stop-color="#0085FF"/>
</linearGradient>
<linearGradient id="paint1_linear" x1="20.4774" y1="8.11166" x2="20.4774" y2="19.0025" gradientUnits="userSpaceOnUse">
<stop stop-color="#00E0FF"/>
<stop offset="1" stop-color="#0085FF"/>
</linearGradient>
<linearGradient id="paint2_linear" x1="5.69143" y1="8.47126" x2="5.69143" y2="35.7111" gradientUnits="userSpaceOnUse">
<stop stop-color="#00E0FF"/>
<stop offset="1" stop-color="#0085FF"/>
</linearGradient>
<clipPath id="clip0">
<rect width="36" height="36" fill="white"/>
</clipPath>
</defs>
</svg>
