<svg width="36" height="36" viewBox="0 0 36 36" fill="none" xmlns="http://www.w3.org/2000/svg">
<path d="M21.193 33.2396C21.0146 33.2374 20.8395 33.2884 20.6901 33.386C20.5407 33.4835 20.4237 33.6233 20.3539 33.7875C20.2841 33.9518 20.2647 34.1331 20.2982 34.3083C20.3317 34.4836 20.4165 34.645 20.5419 34.7719C20.6673 34.8989 20.8276 34.9857 21.0024 35.0214C21.1773 35.057 21.3588 35.0399 21.5239 34.9721C21.689 34.9044 21.8302 34.7891 21.9296 34.6409C22.029 34.4927 22.0822 34.3183 22.0822 34.1399C22.0835 33.9026 21.9906 33.6746 21.8239 33.5058C21.6571 33.337 21.4302 33.2412 21.193 33.2396ZM21.193 34.1906C21.1855 34.1921 21.1777 34.1918 21.1703 34.1899C21.1628 34.1881 21.1559 34.1845 21.15 34.1797C21.144 34.1748 21.1393 34.1686 21.136 34.1617C21.1327 34.1547 21.131 34.1472 21.131 34.1395C21.131 34.1318 21.1327 34.1242 21.136 34.1173C21.1393 34.1103 21.144 34.1042 21.15 34.0993C21.1559 34.0944 21.1628 34.0909 21.1703 34.089C21.1777 34.0871 21.1855 34.0869 21.193 34.0884C21.2006 34.0868 21.2084 34.087 21.2159 34.0889C21.2234 34.0907 21.2304 34.0942 21.2363 34.0991C21.2423 34.104 21.2471 34.1102 21.2504 34.1172C21.2538 34.1241 21.2555 34.1318 21.2555 34.1395C21.2555 34.1472 21.2538 34.1548 21.2504 34.1618C21.2471 34.1688 21.2423 34.175 21.2363 34.1798C21.2304 34.1847 21.2234 34.1882 21.2159 34.1901C21.2084 34.192 21.2006 34.1921 21.193 34.1906Z" fill="#A4C9FF"/>
<path d="M13.8717 33.2397C13.6933 33.2376 13.5182 33.2885 13.3688 33.3861C13.2194 33.4836 13.1024 33.6234 13.0326 33.7877C12.9628 33.9519 12.9434 34.1332 12.9769 34.3085C13.0104 34.4837 13.0952 34.6451 13.2206 34.7721C13.346 34.899 13.5063 34.9858 13.6812 35.0215C13.856 35.0571 14.0375 35.04 14.2026 34.9723C14.3677 34.9045 14.5089 34.7892 14.6083 34.641C14.7077 34.4928 14.7609 34.3185 14.7609 34.14C14.7622 33.9028 14.6693 33.6747 14.5026 33.5059C14.3358 33.3371 14.109 33.2414 13.8717 33.2397ZM13.8717 34.1907C13.8642 34.1922 13.8564 34.192 13.849 34.1901C13.8415 34.1882 13.8346 34.1847 13.8287 34.1798C13.8228 34.1749 13.818 34.1688 13.8147 34.1618C13.8114 34.1549 13.8097 34.1473 13.8097 34.1396C13.8097 34.1319 13.8114 34.1244 13.8147 34.1174C13.818 34.1105 13.8228 34.1043 13.8287 34.0994C13.8346 34.0946 13.8415 34.091 13.849 34.0891C13.8564 34.0873 13.8642 34.087 13.8717 34.0885C13.8793 34.087 13.8871 34.0871 13.8946 34.089C13.9021 34.0909 13.9091 34.0944 13.9151 34.0993C13.921 34.1041 13.9259 34.1103 13.9292 34.1173C13.9325 34.1243 13.9342 34.1319 13.9342 34.1396C13.9342 34.1473 13.9325 34.155 13.9292 34.1619C13.9259 34.1689 13.921 34.1751 13.9151 34.18C13.9091 34.1849 13.9021 34.1884 13.8946 34.1902C13.8871 34.1921 13.8793 34.1923 13.8717 34.1907Z" fill="#A4C9FF"/>
<path d="M17.7116 32.9395C17.5331 32.9374 17.3581 32.9883 17.2087 33.0859C17.0593 33.1835 16.9422 33.3233 16.8725 33.4875C16.8027 33.6517 16.7833 33.833 16.8168 34.0083C16.8502 34.1836 16.9351 34.3449 17.0605 34.4719C17.1858 34.5989 17.3462 34.6857 17.521 34.7213C17.6959 34.757 17.8774 34.7398 18.0424 34.6721C18.2075 34.6043 18.3488 34.4891 18.4482 34.3409C18.5476 34.1927 18.6007 34.0183 18.6008 33.8398C18.602 33.6026 18.5091 33.3745 18.3424 33.2057C18.1757 33.0369 17.9488 32.9412 17.7116 32.9395ZM17.7116 33.8906C17.704 33.892 17.6963 33.8918 17.6888 33.8899C17.6814 33.888 17.6744 33.8845 17.6685 33.8796C17.6626 33.8747 17.6578 33.8686 17.6546 33.8616C17.6513 33.8547 17.6496 33.8471 17.6496 33.8394C17.6496 33.8318 17.6513 33.8242 17.6546 33.8172C17.6578 33.8103 17.6626 33.8042 17.6685 33.7993C17.6744 33.7944 17.6814 33.7909 17.6888 33.789C17.6963 33.7871 17.704 33.7869 17.7116 33.7883C17.7191 33.7868 17.7269 33.787 17.7344 33.7888C17.7419 33.7907 17.7489 33.7942 17.7549 33.7991C17.7609 33.804 17.7657 33.8101 17.769 33.8171C17.7723 33.8241 17.774 33.8317 17.774 33.8394C17.774 33.8472 17.7723 33.8548 17.769 33.8618C17.7657 33.8687 17.7609 33.8749 17.7549 33.8798C17.7489 33.8847 17.7419 33.8882 17.7344 33.8901C17.7269 33.8919 17.7191 33.8921 17.7116 33.8906Z" fill="#A4C9FF"/>
<path d="M23.4114 26.8631L22.3384 25.9069C22.2548 25.8324 22.1452 25.7942 22.0335 25.8006C21.9218 25.8071 21.8172 25.8576 21.7427 25.9411C21.6683 26.0247 21.6301 26.1343 21.6365 26.2461C21.6429 26.3578 21.6935 26.4623 21.777 26.5368L21.9754 26.7136C21.8507 26.8869 21.6866 27.0281 21.4966 27.1256C21.3067 27.2231 21.0963 27.2741 20.8828 27.2744H18.6025V28.1182H20.8828C21.2152 28.118 21.5433 28.0421 21.8421 27.8964C22.1409 27.7506 22.4027 27.5388 22.6075 27.277L22.85 27.493C22.9335 27.5675 23.0432 27.6057 23.1549 27.5993C23.2666 27.5928 23.3712 27.5423 23.4456 27.4588C23.5201 27.3752 23.5583 27.2655 23.5519 27.1538C23.5454 27.0421 23.4949 26.9375 23.4114 26.8631Z" fill="#A4C9FF"/>
<path d="M30.0231 12.5157V19.954C30.0239 20.1404 29.988 20.3251 29.9174 20.4976C29.8468 20.6701 29.7429 20.827 29.6117 20.9594C29.4805 21.0917 29.3244 21.1969 29.1525 21.269C28.9806 21.341 28.7962 21.3785 28.6098 21.3793H27.0039V12.5157C27.0023 12.1392 27.1502 11.7774 27.4153 11.51C27.6803 11.2426 28.0407 11.0914 28.4172 11.0897H28.6098C28.7963 11.0905 28.9807 11.128 29.1527 11.2001C29.3246 11.2722 29.4807 11.3775 29.6119 11.5099C29.7432 11.6423 29.847 11.7993 29.9176 11.9719C29.9881 12.1444 30.024 12.3292 30.0231 12.5157Z" fill="#6FE3FF"/>
<path d="M8.9958 18.3031V21.3793H7.38986C7.20348 21.3785 7.01907 21.341 6.84716 21.269C6.67526 21.1969 6.51924 21.0917 6.388 20.9594C6.25676 20.827 6.15288 20.6701 6.08228 20.4976C6.01169 20.3251 5.97577 20.1404 5.97658 19.954V12.5157C5.9757 12.3292 6.01156 12.1444 6.08212 11.9719C6.15268 11.7993 6.25655 11.6423 6.38779 11.5099C6.51904 11.3775 6.67509 11.2722 6.84702 11.2001C7.01896 11.128 7.20342 11.0905 7.38986 11.0897H7.58252C7.76896 11.0905 7.95342 11.128 8.12536 11.2001C8.29729 11.2722 8.45334 11.3775 8.58459 11.5099C8.71583 11.6423 8.8197 11.7993 8.89026 11.9719C8.96082 12.1444 8.99668 12.3292 8.9958 12.5157V18.3031Z" fill="#6FE3FF"/>
<path d="M25.7053 21.3794V21.3892C25.7053 23.801 25.0718 24.445 24.292 24.445H11.5907C10.8103 24.445 10.1768 23.801 10.1768 21.3892V21.3794H25.7053Z" fill="url(#paint0_linear)"/>
<path d="M25.1306 2.41031V16.8771H10.751V2.41031C10.7493 2.03381 10.8973 1.67207 11.1623 1.40466C11.4274 1.13725 11.7878 0.986068 12.1643 0.984375H23.7173C24.0938 0.986068 24.4542 1.13725 24.7193 1.40466C24.9843 1.67207 25.1323 2.03381 25.1306 2.41031Z" fill="url(#paint1_linear)"/>
<path d="M27.0036 18.303V21.3792H8.99513V18.303C8.99347 17.9265 9.14143 17.5648 9.40647 17.2974C9.67151 17.0299 10.0319 16.8788 10.4084 16.8771H25.5903C25.9668 16.8788 26.3272 17.0299 26.5922 17.2974C26.8573 17.5648 27.0052 17.9265 27.0036 18.303Z" fill="url(#paint2_linear)"/>
<path d="M18.6598 29.8058L18.5998 28.3058H16.7998L16.7412 29.803C15.8437 29.9534 15.0578 30.1879 14.4572 30.7408C13.7341 31.3896 13.3193 32.4626 13.3193 33.2662C13.3193 33.3827 13.3774 33.4945 13.4807 33.5769C13.584 33.6594 13.7242 33.7057 13.8703 33.7057C14.0164 33.7057 14.1565 33.6594 14.2599 33.5769C14.3632 33.4945 14.4212 33.3827 14.4212 33.2662C14.4212 32.045 15.5647 31.089 16.7664 30.8044L17.0998 33.1618H18.2998L18.5998 30.7617C20.1452 30.8903 20.6175 31.8031 20.6175 32.944V33.2663C20.6175 33.3829 20.6755 33.4947 20.7788 33.5771C20.8822 33.6595 21.0223 33.7058 21.1684 33.7058C21.3145 33.7058 21.4547 33.6595 21.558 33.5771C21.6613 33.4947 21.7193 33.3829 21.7193 33.2663V32.944C21.7193 31.3207 20.6998 30.1058 18.6598 29.8058Z" fill="url(#paint3_linear)"/>
<path d="M16.7998 24.4198H18.5998V26.2198H16.7998V24.4198Z" fill="url(#paint4_linear)"/>
<path d="M19.1825 29.2802C19.1845 29.2936 19.1836 29.3073 19.1798 29.3203C19.1761 29.3333 19.1695 29.3454 19.1606 29.3556C19.1517 29.3658 19.1407 29.374 19.1283 29.3795C19.116 29.3851 19.1025 29.3879 19.089 29.3878H16.2948C16.2812 29.3879 16.2678 29.3851 16.2554 29.3795C16.2431 29.374 16.232 29.3658 16.2232 29.3556C16.2143 29.3454 16.2077 29.3333 16.2039 29.3203C16.2001 29.3073 16.1992 29.2936 16.2012 29.2802L16.7286 26.0015C16.7327 25.9751 16.746 25.951 16.7663 25.9335C16.7865 25.916 16.8122 25.9062 16.839 25.9059H18.5448C18.5715 25.9062 18.5973 25.916 18.6175 25.9335C18.6377 25.951 18.651 25.9751 18.6552 26.0015L19.1825 29.2802Z" fill="#A4C9FF"/>
<defs>
<linearGradient id="paint0_linear" x1="6.64572" y1="18.5513" x2="6.64572" y2="24.445" gradientUnits="userSpaceOnUse">
<stop stop-color="#00E0FF"/>
<stop offset="1" stop-color="#0668C1"/>
</linearGradient>
<linearGradient id="paint1_linear" x1="7.48119" y1="-13.6772" x2="7.48119" y2="16.8771" gradientUnits="userSpaceOnUse">
<stop stop-color="#00E0FF"/>
<stop offset="1" stop-color="#0085FF"/>
</linearGradient>
<linearGradient id="paint2_linear" x1="17.9993" y1="16.8771" x2="17.9993" y2="21.3792" gradientUnits="userSpaceOnUse">
<stop stop-color="#7CFFE7"/>
<stop offset="1" stop-color="#0486D1"/>
</linearGradient>
<linearGradient id="paint3_linear" x1="17.5193" y1="28.3058" x2="17.5193" y2="33.7058" gradientUnits="userSpaceOnUse">
<stop stop-color="#A2B4CC"/>
<stop offset="1" stop-color="#404E62"/>
</linearGradient>
<linearGradient id="paint4_linear" x1="17.6998" y1="24.4198" x2="17.6998" y2="26.2198" gradientUnits="userSpaceOnUse">
<stop stop-color="#A2B4CC"/>
<stop offset="1" stop-color="#404E62"/>
</linearGradient>
</defs>
</svg>
