<svg width="40" height="30" viewBox="0 0 40 30" fill="none" xmlns="http://www.w3.org/2000/svg">
<path d="M1.54097 25.7564C1.431 26.0097 1.5472 26.3042 1.8005 26.4141L5.92827 28.2062C6.18157 28.3162 6.47606 28.2 6.58603 27.9467C6.696 27.6934 6.57981 27.3989 6.32651 27.2889L2.65737 25.696L4.25031 22.0268C4.36028 21.7735 4.24409 21.479 3.99079 21.3691C3.73749 21.2591 3.443 21.3753 3.33303 21.6286L1.54097 25.7564ZM19.6241 18.4641L1.8161 25.4904L2.18313 26.4206L19.9911 19.3943L19.6241 18.4641Z" fill="black"/>
<path d="M1.54097 25.7564C1.431 26.0097 1.5472 26.3042 1.8005 26.4141L5.92827 28.2062C6.18157 28.3162 6.47606 28.2 6.58603 27.9467C6.696 27.6934 6.57981 27.3989 6.32651 27.2889L2.65737 25.696L4.25031 22.0268C4.36028 21.7735 4.24409 21.479 3.99079 21.3691C3.73749 21.2591 3.443 21.3753 3.33303 21.6286L1.54097 25.7564ZM19.6241 18.4641L1.8161 25.4904L2.18313 26.4206L19.9911 19.3943L19.6241 18.4641Z" fill="url(#paint0_linear)"/>
<path d="M38.1919 25.9233C38.4418 25.8057 38.549 25.5079 38.4315 25.258L36.5154 21.1863C36.3978 20.9365 36.0999 20.8292 35.8501 20.9468C35.6002 21.0644 35.493 21.3623 35.6106 21.6121L37.3137 25.2314L33.6945 26.9346C33.4446 27.0522 33.3374 27.35 33.455 27.5999C33.5725 27.8498 33.8704 27.957 34.1203 27.8394L38.1919 25.9233ZM19.6383 19.3996L37.8097 25.9414L38.1484 25.0005L19.977 18.4588L19.6383 19.3996Z" fill="black"/>
<path d="M38.1919 25.9233C38.4418 25.8057 38.549 25.5079 38.4315 25.258L36.5154 21.1863C36.3978 20.9365 36.0999 20.8292 35.8501 20.9468C35.6002 21.0644 35.493 21.3623 35.6106 21.6121L37.3137 25.2314L33.6945 26.9346C33.4446 27.0522 33.3374 27.35 33.455 27.5999C33.5725 27.8498 33.8704 27.957 34.1203 27.8394L38.1919 25.9233ZM19.6383 19.3996L37.8097 25.9414L38.1484 25.0005L19.977 18.4588L19.6383 19.3996Z" fill="url(#paint1_linear)"/>
<path d="M20.1612 0.646498C19.9659 0.451237 19.6493 0.451237 19.4541 0.646498L16.2721 3.82848C16.0768 4.02374 16.0768 4.34032 16.2721 4.53559C16.4673 4.73085 16.7839 4.73085 16.9792 4.53559L19.8076 1.70716L22.636 4.53559C22.8313 4.73085 23.1479 4.73085 23.3432 4.53559C23.5384 4.34032 23.5384 4.02374 23.3432 3.82848L20.1612 0.646498ZM20.3076 18.9292L20.3076 1.00005L19.3076 1.00005L19.3076 18.9292L20.3076 18.9292Z" fill="black"/>
<path d="M20.1612 0.646498C19.9659 0.451237 19.6493 0.451237 19.4541 0.646498L16.2721 3.82848C16.0768 4.02374 16.0768 4.34032 16.2721 4.53559C16.4673 4.73085 16.7839 4.73085 16.9792 4.53559L19.8076 1.70716L22.636 4.53559C22.8313 4.73085 23.1479 4.73085 23.3432 4.53559C23.5384 4.34032 23.5384 4.02374 23.3432 3.82848L20.1612 0.646498ZM20.3076 18.9292L20.3076 1.00005L19.3076 1.00005L19.3076 18.9292L20.3076 18.9292Z" fill="url(#paint2_linear)"/>
<defs>
<linearGradient id="paint0_linear" x1="-3.56969" y1="29.9499" x2="19.8076" y2="18.9292" gradientUnits="userSpaceOnUse">
<stop stop-color="#00E0FF"/>
<stop offset="1" stop-color="#0085FF"/>
</linearGradient>
<linearGradient id="paint1_linear" x1="44.8547" y1="27.9462" x2="19.8076" y2="18.9292" gradientUnits="userSpaceOnUse">
<stop stop-color="#00E0FF"/>
<stop offset="1" stop-color="#0085FF"/>
</linearGradient>
<linearGradient id="paint2_linear" x1="19.8076" y1="-5.78395" x2="19.8076" y2="18.9292" gradientUnits="userSpaceOnUse">
<stop stop-color="#00E0FF"/>
<stop offset="1" stop-color="#0085FF"/>
</linearGradient>
</defs>
</svg>
